<svg xmlns="http://www.w3.org/2000/svg" width="1200" height="800" fill="none"><g clip-path="url(#a)"><path fill="#526DFC" d="M0 0h1200v800H0z"/><g clip-path="url(#b)"><path fill="#000" d="M0-23h1513v1575H0z"/><path fill="url(#c)" d="M0 0h1513v663.448H0z" transform="translate(0 208)"/><g filter="url(#d)"><path fill="#460789" fill-rule="evenodd" d="M-343.205 443.651v427.797H1633.85v-295.89c-316.65 52.286-714.166 62.908-1142.436 20.404-303.233-30.095-587.06-83.368-834.619-152.311" clip-rule="evenodd"/></g><g filter="url(#e)"><path fill="#800DCC" fill-rule="evenodd" d="M-253.777 577.399v294.05H1622.97V668.066c-300.58 35.939-677.929 43.241-1084.471 14.025-287.849-20.686-557.277-57.304-792.276-104.692" clip-rule="evenodd"/></g><g filter="url(#f)"><path fill="#F75EF4" fill-rule="evenodd" d="M-253.777 630.964v229.608H1622.97V701.761c-300.58 28.063-677.929 33.764-1084.471 10.951-287.849-16.152-557.277-44.745-792.276-81.748" clip-rule="evenodd"/></g><mask id="g" width="2226" height="698" x="-401" y="-103" maskUnits="userSpaceOnUse" style="mask-type:alpha"><ellipse cx="711.816" cy="245.754" fill="#D9D9D9" rx="1116.69" ry="335.095" transform="rotate(5.094 711.816 245.754)"/></mask><g mask="url(#g)"><path fill="#000" d="M0 208h1513v663.448H0z"/><g fill="#fff" clip-path="url(#h)" opacity=".52"><circle cx="731.324" cy="205.626" r=".872" transform="rotate(-90 731.324 205.626)"/><circle cx="388.72" cy="309.092" r="1.374" transform="rotate(-90 388.72 309.092)"/><circle cx="809.879" cy="385.547" r=".821" transform="rotate(-90 809.879 385.547)"/><circle cx="1100.28" cy="190.579" r="1.335" transform="rotate(-90 1100.28 190.579)"/><circle cx="507.865" cy="547.043" r="1.274" transform="rotate(-90 507.865 547.043)"/><circle cx="640.59" cy="529.742" r="1.488" transform="rotate(-90 640.59 529.742)"/><circle cx="1148.15" cy="373.102" r="1.176" transform="rotate(-90 1148.15 373.102)"/><circle cx="254.801" cy="208.325" r=".924" transform="rotate(-90 254.801 208.325)"/><circle cx="1143.27" cy="210.102" r="1.363" transform="rotate(-90 1143.27 210.102)"/><circle cx="130.368" cy="207.084" r="1.354" transform="rotate(-90 130.368 207.084)"/><circle cx="91.417" cy="349.967" r="1.081" transform="rotate(-90 91.417 349.967)"/><circle cx="726.357" cy="517.655" r=".8" transform="rotate(-90 726.357 517.655)"/><circle cx="386.712" cy="573.543" r="1.317" transform="rotate(-90 386.712 573.543)"/><circle cx="409.099" cy="408.916" r="1.466" transform="rotate(-90 409.099 408.916)"/><circle cx="251.588" cy="284.828" r="1.09" transform="rotate(-90 251.588 284.828)"/><circle cx="581.03" cy="132.962" r="1.313" transform="rotate(-90 581.03 132.962)"/><circle cx="1174.56" cy="282.473" r="1.397" transform="rotate(-90 1174.56 282.473)"/><circle cx="231.567" cy="229.189" r="1.005" transform="rotate(-90 231.567 229.189)"/><circle cx="311.764" cy="411.982" r=".946" transform="rotate(-90 311.764 411.982)"/><circle cx="66.149" cy="307.348" r=".86" transform="rotate(-90 66.149 307.348)"/><circle cx="582.027" cy="363.93" r="1.002" transform="rotate(-90 582.027 363.93)"/><circle cx="703.397" cy="328.786" r="1.416" transform="rotate(-90 703.397 328.786)"/><circle cx="597.684" cy="299.94" r="1.448" transform="rotate(-90 597.684 299.94)"/><circle cx="130.365" cy="317.69" r="1.409" transform="rotate(-90 130.365 317.69)"/><circle cx="858.066" cy="117.377" r=".892" transform="rotate(-90 858.066 117.377)"/><circle cx="450.835" cy="282.92" r=".785" transform="rotate(-90 450.835 282.92)"/><circle cx="807.35" cy="507.557" r=".961" transform="rotate(-90 807.35 507.557)"/><circle cx="217.005" cy="581.12" r="1.416" transform="rotate(-90 217.005 581.12)"/><circle cx="281.522" cy="539.394" r="1.461" transform="rotate(-90 281.522 539.394)"/><circle cx="101.211" cy="327.853" r="1.125" transform="rotate(-90 101.211 327.853)"/><circle cx="894.679" cy="439.388" r="1.158" transform="rotate(-90 894.679 439.388)"/><circle cx="852.759" cy="376.249" r="1.493" transform="rotate(-90 852.759 376.249)"/><circle cx="133.557" cy="427.131" r="1.088" transform="rotate(-90 133.557 427.131)"/><circle cx="147.149" cy="309.031" r="1.381" transform="rotate(-90 147.149 309.031)"/><circle cx="625.148" cy="287.136" r=".967" transform="rotate(-90 625.148 287.136)"/><circle cx="43.672" cy="547.927" r=".826" transform="rotate(-90 43.672 547.927)"/><circle cx="57.049" cy="312.797" r="1.096" transform="rotate(-90 57.049 312.797)"/><circle cx="378.252" cy="367.462" r="1.494" transform="rotate(-90 378.252 367.462)"/><circle cx="1057.55" cy="563.8" r="1.347" transform="rotate(-90 1057.55 563.8)"/><circle cx="905.094" cy="524.907" r="1.246" transform="rotate(-90 905.094 524.907)"/><circle cx="824.924" cy="267.579" r="1.482" transform="rotate(-90 824.924 267.579)"/><circle cx="48.058" cy="428.897" r=".771" transform="rotate(-90 48.058 428.897)"/><circle cx="430.521" cy="115.912" r="1.064" transform="rotate(-90 430.521 115.912)"/><circle cx="109.812" cy="370.187" r="1.08" transform="rotate(-90 109.812 370.187)"/><circle cx="716.275" cy="224.049" r=".876" transform="rotate(-90 716.275 224.049)"/><circle cx="693.664" cy="159.644" r="1.136" transform="rotate(-90 693.664 159.644)"/><circle cx="435.896" cy="429.233" r="1.32" transform="rotate(-90 435.896 429.233)"/><circle cx="106.611" cy="180.403" r="1.433" transform="rotate(-90 106.611 180.403)"/><circle cx="1130.8" cy="431.76" r="1.476" transform="rotate(-90 1130.8 431.76)"/><circle cx="1130.4" cy="437.691" r="1.232" transform="rotate(-90 1130.4 437.691)"/><circle cx="38.783" cy="198.239" r="1.215" transform="rotate(-90 38.783 198.239)"/><circle cx="454.897" cy="501.598" r=".999" transform="rotate(-90 454.897 501.598)"/><circle cx="510.137" cy="204.384" r=".826" transform="rotate(-90 510.137 204.384)"/><circle cx="109.602" cy="151.591" r=".768" transform="rotate(-90 109.602 151.591)"/><circle cx="668.969" cy="144.589" r="1.336" transform="rotate(-90 668.969 144.589)"/><circle cx="754.741" cy="156.248" r="1.343" transform="rotate(-90 754.741 156.248)"/><circle cx="33.016" cy="340.763" r=".782" transform="rotate(-90 33.016 340.763)"/><circle cx="121.55" cy="203.854" r=".831" transform="rotate(-90 121.55 203.854)"/><circle cx="1013.08" cy="369.336" r="1.462" transform="rotate(-90 1013.08 369.336)"/><circle cx="622.485" cy="524.365" r="1.075" transform="rotate(-90 622.485 524.365)"/><circle cx="320.5" cy="227.474" r=".973" transform="rotate(-90 320.5 227.474)"/><circle cx="332.012" cy="328.637" r="1.484" transform="rotate(-90 332.012 328.637)"/><circle cx="325.882" cy="288.87" r=".973" transform="rotate(-90 325.882 288.87)"/><circle cx="304.13" cy="151.586" r=".788" transform="rotate(-90 304.13 151.586)"/><circle cx="400.373" cy="497.282" r=".799" transform="rotate(-90 400.373 497.282)"/><circle cx="437.513" cy="503.916" r=".867" transform="rotate(-90 437.513 503.916)"/><circle cx="1107.69" cy="221.576" r=".953" transform="rotate(-90 1107.69 221.576)"/><circle cx="327.786" cy="232.735" r="1.365" transform="rotate(-90 327.786 232.735)"/><circle cx="34.624" cy="217.146" r=".924" transform="rotate(-90 34.624 217.146)"/><circle cx="1112.83" cy="281.476" r=".881" transform="rotate(-90 1112.83 281.476)"/><circle cx="194.326" cy="149.299" r="1" transform="rotate(-90 194.326 149.299)"/><circle cx="198.937" cy="333.883" r="1.245" transform="rotate(-90 198.937 333.883)"/><circle cx="506.018" cy="112.824" r="1.301" transform="rotate(-90 506.018 112.824)"/><circle cx="278.383" cy="263.479" r="1.03" transform="rotate(-90 278.383 263.479)"/><circle cx="227.268" cy="389.465" r="1.039" transform="rotate(-90 227.268 389.465)"/><circle cx="30.886" cy="210.797" r=".923" transform="rotate(-90 30.886 210.797)"/><circle cx="1180.81" cy="544.39" r="1.214" transform="rotate(-90 1180.81 544.39)"/><circle cx="1172.31" cy="240.091" r="1.046" transform="rotate(-90 1172.31 240.091)"/><circle cx="529.068" cy="128.208" r="1.51" transform="rotate(-90 529.068 128.208)"/><circle cx="459.178" cy="474.408" r="1.075" transform="rotate(-90 459.178 474.408)"/><circle cx="493.719" cy="186.109" r="1.501" transform="rotate(-90 493.719 186.109)"/><circle cx="312.103" cy="204.674" r="1.206" transform="rotate(-90 312.103 204.674)"/><circle cx="494.558" cy="231.183" r=".862" transform="rotate(-90 494.558 231.183)"/><circle cx="595.957" cy="593.877" r=".857" transform="rotate(-90 595.957 593.877)"/><circle cx="233.419" cy="437.995" r="1.431" transform="rotate(-90 233.419 437.995)"/><circle cx="42.409" cy="346.736" r="1.503" transform="rotate(-90 42.409 346.736)"/><circle cx="226.542" cy="237.287" r="1.384" transform="rotate(-90 226.542 237.287)"/><circle cx="269.004" cy="533.597" r=".834" transform="rotate(-90 269.004 533.597)"/><circle cx="270.832" cy="396.895" r="1.305" transform="rotate(-90 270.832 396.895)"/><circle cx="986.678" cy="486.568" r="1.195" transform="rotate(-90 986.678 486.568)"/><circle cx="651.978" cy="513.38" r="1.317" transform="rotate(-90 651.978 513.38)"/><circle cx="422.75" cy="504.277" r="1.297" transform="rotate(-90 422.75 504.277)"/><circle cx="275.038" cy="323.21" r="1.495" transform="rotate(-90 275.038 323.21)"/><circle cx="500.268" cy="149.211" r=".803" transform="rotate(-90 500.268 149.211)"/><circle cx="571.517" cy="229.081" r=".789" transform="rotate(-90 571.517 229.081)"/><circle cx="620.936" cy="294.43" r="1.356" transform="rotate(-90 620.936 294.43)"/><circle cx="1146.1" cy="241.414" r=".824" transform="rotate(-90 1146.1 241.414)"/><circle cx="582.913" cy="130.571" r="1.016" transform="rotate(-90 582.913 130.571)"/><circle cx="100.021" cy="233.887" r="1.017" transform="rotate(-90 100.021 233.887)"/><circle cx="845.862" cy="474.32" r=".811" transform="rotate(-90 845.862 474.32)"/><circle cx="850.565" cy="159.725" r=".768" transform="rotate(-90 850.565 159.725)"/><circle cx="543.521" cy="525.323" r="1.361" transform="rotate(-90 543.521 525.323)"/><circle cx="271.651" cy="521.929" r=".884" transform="rotate(-90 271.651 521.929)"/><circle cx="827.677" cy="480.638" r=".855" transform="rotate(-90 827.677 480.638)"/><circle cx="979.558" cy="148.942" r=".989" transform="rotate(-90 979.558 148.942)"/><circle cx="656.32" cy="336.65" r="1.158" transform="rotate(-90 656.32 336.65)"/><circle cx="731.16" cy="293.631" r=".975" transform="rotate(-90 731.16 293.631)"/><circle cx="902.546" cy="201.581" r=".964" transform="rotate(-90 902.546 201.581)"/><circle cx="426.962" cy="331.564" r="1.115" transform="rotate(-90 426.962 331.564)"/><circle cx="627.146" cy="134.129" r="1.386" transform="rotate(-90 627.146 134.129)"/><circle cx="61.265" cy="575.084" r="1.168" transform="rotate(-90 61.265 575.084)"/><circle cx="121.085" cy="394.652" r="1.148" transform="rotate(-90 121.085 394.652)"/><circle cx="936.879" cy="356.845" r="1.358" transform="rotate(-90 936.879 356.845)"/><circle cx="18.499" cy="233.804" r="1.311" transform="rotate(-90 18.499 233.804)"/><circle cx="324.016" cy="396.478" r="1.194" transform="rotate(-90 324.016 396.478)"/><circle cx="788.536" cy="472.784" r=".878" transform="rotate(-90 788.536 472.784)"/><circle cx="1053.12" cy="398.7" r="1.232" transform="rotate(-90 1053.12 398.7)"/><circle cx="921.815" cy="325.576" r="1.18" transform="rotate(-90 921.815 325.576)"/><circle cx="964.224" cy="395.234" r=".836" transform="rotate(-90 964.224 395.234)"/><circle cx="725.068" cy="523.665" r="1.294" transform="rotate(-90 725.068 523.665)"/><circle cx="1079.61" cy="270.421" r="1.233" transform="rotate(-90 1079.61 270.421)"/><circle cx="418.567" cy="229.303" r="1.19" transform="rotate(-90 418.567 229.303)"/><circle cx="253.221" cy="228.517" r="1.463" transform="rotate(-90 253.221 228.517)"/><circle cx="824.649" cy="589.128" r=".764" transform="rotate(-90 824.649 589.128)"/><circle cx="1009.43" cy="508.912" r=".885" transform="rotate(-90 1009.43 508.912)"/><circle cx="1137.16" cy="566.272" r="1.466" transform="rotate(-90 1137.16 566.272)"/><circle cx="723.591" cy="383.708" r="1.116" transform="rotate(-90 723.591 383.708)"/><circle cx="968.281" cy="129.593" r="1.381" transform="rotate(-90 968.281 129.593)"/><circle cx="859.001" cy="289.393" r=".84" transform="rotate(-90 859.001 289.393)"/><circle cx="911.35" cy="172.815" r="1.405" transform="rotate(-90 911.35 172.815)"/><circle cx="632.079" cy="562.773" r="1.36" transform="rotate(-90 632.079 562.773)"/><circle cx="401.485" cy="429.385" r=".875" transform="rotate(-90 401.485 429.385)"/><circle cx="730.002" cy="460.041" r="1.102" transform="rotate(-90 730.002 460.041)"/><circle cx="320.22" cy="400.754" r=".904" transform="rotate(-90 320.22 400.754)"/><circle cx="114.42" cy="142.923" r="1.031" transform="rotate(-90 114.42 142.923)"/><circle cx="497.562" cy="234.96" r="1.241" transform="rotate(-90 497.562 234.96)"/><circle cx="129.526" cy="292.933" r="1.106" transform="rotate(-90 129.526 292.933)"/><circle cx="372.657" cy="537.801" r="1.104" transform="rotate(-90 372.657 537.801)"/><circle cx="140.306" cy="189.85" r="1.48" transform="rotate(-90 140.306 189.85)"/><circle cx="56.313" cy="214.669" r=".883" transform="rotate(-90 56.313 214.669)"/><circle cx="743.312" cy="332.583" r="1.507" transform="rotate(-90 743.312 332.583)"/><circle cx="1138.52" cy="533.094" r=".761" transform="rotate(-90 1138.52 533.094)"/><circle cx="209.254" cy="143.156" r=".758" transform="rotate(-90 209.254 143.156)"/><circle cx="260.163" cy="512.238" r="1.025" transform="rotate(-90 260.163 512.238)"/><circle cx="267.979" cy="466.267" r="1.186" transform="rotate(-90 267.979 466.267)"/><circle cx="792.18" cy="285.785" r=".918" transform="rotate(-90 792.18 285.785)"/><circle cx="346.451" cy="179.041" r=".972" transform="rotate(-90 346.451 179.041)"/><circle cx="975.229" cy="250.184" r="1.253" transform="rotate(-90 975.229 250.184)"/><circle cx="812.385" cy="530.118" r=".911" transform="rotate(-90 812.385 530.118)"/><circle cx="1187.94" cy="573.384" r=".949" transform="rotate(-90 1187.94 573.384)"/><circle cx="763.025" cy="158.017" r="1.451" transform="rotate(-90 763.025 158.017)"/><circle cx="710.229" cy="188.581" r=".821" transform="rotate(-90 710.229 188.581)"/><circle cx="834.925" cy="524.891" r=".824" transform="rotate(-90 834.925 524.891)"/><circle cx="799.415" cy="160.544" r="1.031" transform="rotate(-90 799.415 160.544)"/><circle cx="434.499" cy="123.627" r="1.153" transform="rotate(-90 434.499 123.627)"/><circle cx="607.183" cy="310.131" r="1.466" transform="rotate(-90 607.183 310.131)"/><circle cx="283.699" cy="461.994" r="1.098" transform="rotate(-90 283.699 461.994)"/><circle cx="315.258" cy="382.766" r=".99" transform="rotate(-90 315.258 382.766)"/><circle cx="436.854" cy="116.554" r="1.465" transform="rotate(-90 436.854 116.554)"/><circle cx="1114.79" cy="407.089" r="1.014" transform="rotate(-90 1114.79 407.089)"/><circle cx="108.952" cy="588.07" r="1.434" transform="rotate(-90 108.952 588.07)"/><circle cx="14.346" cy="173.43" r="1.008" transform="rotate(-90 14.346 173.43)"/><circle cx="506.175" cy="367.386" r=".983" transform="rotate(-90 506.175 367.386)"/><circle cx="1036.14" cy="266.92" r="1.364" transform="rotate(-90 1036.14 266.92)"/><circle cx="344.704" cy="482.756" r="1.073" transform="rotate(-90 344.704 482.756)"/><circle cx="462.268" cy="275.571" r="1.088" transform="rotate(-90 462.268 275.571)"/><circle cx="490.947" cy="397.259" r=".809" transform="rotate(-90 490.947 397.259)"/><circle cx="834.481" cy="252.708" r="1.44" transform="rotate(-90 834.481 252.708)"/><circle cx="777.743" cy="172.334" r="1.231" transform="rotate(-90 777.743 172.334)"/><circle cx="570.147" cy="170.389" r=".776" transform="rotate(-90 570.147 170.389)"/><circle cx="303.647" cy="370.274" r=".848" transform="rotate(-90 303.647 370.274)"/><circle cx="56.615" cy="265.179" r="1.008" transform="rotate(-90 56.615 265.179)"/><circle cx="111.809" cy="353.24" r="1.059" transform="rotate(-90 111.809 353.24)"/><circle cx="934.56" cy="405.251" r=".761" transform="rotate(-90 934.56 405.251)"/><circle cx="132.875" cy="537.725" r="1.123" transform="rotate(-90 132.875 537.725)"/><circle cx="791.48" cy="254.584" r="1.15" transform="rotate(-90 791.48 254.584)"/><circle cx="396.463" cy="349.263" r="1.131" transform="rotate(-90 396.463 349.263)"/><circle cx="993.552" cy="223.365" r="1.001" transform="rotate(-90 993.552 223.365)"/><circle cx="697.92" cy="524.169" r=".846" transform="rotate(-90 697.92 524.169)"/><circle cx="214.984" cy="281.439" r="1.1" transform="rotate(-90 214.984 281.439)"/><circle cx="228.974" cy="261.451" r=".854" transform="rotate(-90 228.974 261.451)"/><circle cx="16.888" cy="169.16" r="1.437" transform="rotate(-90 16.888 169.16)"/><circle cx="1138.21" cy="556.42" r="1.335" transform="rotate(-90 1138.21 556.42)"/><circle cx="832.928" cy="239.452" r="1.163" transform="rotate(-90 832.928 239.452)"/><circle cx="863.484" cy="223.283" r="1.267" transform="rotate(-90 863.484 223.283)"/><circle cx="447.193" cy="510.748" r="1.236" transform="rotate(-90 447.193 510.748)"/><circle cx="480.52" cy="532.75" r=".901" transform="rotate(-90 480.52 532.75)"/><circle cx="556.155" cy="395.013" r="1.502" transform="rotate(-90 556.155 395.013)"/><circle cx="240.458" cy="186.523" r=".976" transform="rotate(-90 240.458 186.523)"/><circle cx="38.79" cy="154.182" r=".999" transform="rotate(-90 38.79 154.182)"/><circle cx="750.778" cy="122.036" r="1.28" transform="rotate(-90 750.778 122.036)"/><circle cx="1114.62" cy="126.534" r="1.4" transform="rotate(-90 1114.62 126.534)"/><circle cx="319.415" cy="436.906" r=".864" transform="rotate(-90 319.415 436.906)"/><circle cx="548.232" cy="268.683" r="1.183" transform="rotate(-90 548.232 268.683)"/><circle cx="1166.21" cy="289.467" r="1.442" transform="rotate(-90 1166.21 289.467)"/><circle cx="52.671" cy="585.133" r=".89" transform="rotate(-90 52.671 585.133)"/><circle cx="377.008" cy="183.58" r=".971" transform="rotate(-90 377.008 183.58)"/><circle cx="324.148" cy="184.742" r=".785" transform="rotate(-90 324.148 184.742)"/><circle cx="676.172" cy="455.851" r="1.348" transform="rotate(-90 676.172 455.851)"/><circle cx="1101.49" cy="514.724" r="1.409" transform="rotate(-90 1101.49 514.724)"/><circle cx="552.759" cy="352.542" r=".95" transform="rotate(-90 552.759 352.542)"/><circle cx="695.704" cy="387.198" r="1.177" transform="rotate(-90 695.704 387.198)"/><circle cx="644.842" cy="504.571" r="1.053" transform="rotate(-90 644.842 504.571)"/><circle cx="342.7" cy="134.596" r="1.45" transform="rotate(-90 342.7 134.596)"/><circle cx="451.167" cy="572.479" r="1.179" transform="rotate(-90 451.167 572.479)"/><circle cx="202.094" cy="531.432" r="1.258" transform="rotate(-90 202.094 531.432)"/><circle cx="481.933" cy="560.797" r="1.197" transform="rotate(-90 481.933 560.797)"/><circle cx="695.919" cy="304.273" r="1.118" transform="rotate(-90 695.919 304.273)"/><circle cx="485.514" cy="487.445" r=".953" transform="rotate(-90 485.514 487.445)"/><circle cx="882.149" cy="311.244" r="1.032" transform="rotate(-90 882.149 311.244)"/><circle cx="322.381" cy="529.601" r="1.361" transform="rotate(-90 322.381 529.601)"/><circle cx="544.092" cy="412.777" r="1.227" transform="rotate(-90 544.092 412.777)"/><circle cx="127.262" cy="459.063" r="1.312" transform="rotate(-90 127.262 459.063)"/><circle cx="512.001" cy="555.693" r="1.013" transform="rotate(-90 512.001 555.693)"/><circle cx="160.5" cy="473.267" r="1.492" transform="rotate(-90 160.5 473.267)"/><circle cx="644.92" cy="460.963" r="1.461" transform="rotate(-90 644.92 460.963)"/><circle cx="415.34" cy="443.647" r=".818" transform="rotate(-90 415.34 443.647)"/><circle cx="566.594" cy="221.693" r=".851" transform="rotate(-90 566.594 221.693)"/><circle cx="921.105" cy="323.178" r="1.411" transform="rotate(-90 921.105 323.178)"/><circle cx="1180.68" cy="192.092" r=".776" transform="rotate(-90 1180.68 192.092)"/><circle cx="291.242" cy="496.672" r="1.16" transform="rotate(-90 291.242 496.672)"/><circle cx="893.96" cy="270.389" r="1.064" transform="rotate(-90 893.96 270.389)"/><circle cx="1009.51" cy="477.952" r="1.234" transform="rotate(-90 1009.51 477.952)"/><circle cx="816.744" cy="545.581" r=".982" transform="rotate(-90 816.744 545.581)"/><circle cx="437.062" cy="266.848" r="1.396" transform="rotate(-90 437.062 266.848)"/><circle cx="967.96" cy="188.948" r=".784" transform="rotate(-90 967.96 188.948)"/><circle cx="1112.65" cy="287.776" r="1.067" transform="rotate(-90 1112.65 287.776)"/><circle cx="515.152" cy="548.758" r=".964" transform="rotate(-90 515.152 548.758)"/><circle cx="1076.81" cy="415.444" r="1.008" transform="rotate(-90 1076.81 415.444)"/><circle cx="827.86" cy="273.387" r=".892" transform="rotate(-90 827.86 273.387)"/><circle cx="378.023" cy="203.854" r="1.301" transform="rotate(-90 378.023 203.854)"/><circle cx="851.284" cy="285.334" r="1.109" transform="rotate(-90 851.284 285.334)"/><circle cx="1062.34" cy="391.722" r="1.22" transform="rotate(-90 1062.34 391.722)"/><circle cx="1112.25" cy="185.43" r="1.487" transform="rotate(-90 1112.25 185.43)"/><circle cx="462.537" cy="316.707" r="1.287" transform="rotate(-90 462.537 316.707)"/><circle cx="37.613" cy="347.865" r="1.124" transform="rotate(-90 37.613 347.865)"/><circle cx="668.382" cy="316.226" r="1.253" transform="rotate(-90 668.382 316.226)"/><circle cx="1146.84" cy="160.622" r=".987" transform="rotate(-90 1146.84 160.622)"/><circle cx="188.206" cy="385.471" r="1.089" transform="rotate(-90 188.206 385.471)"/><circle cx="343.243" cy="318.055" r="1.159" transform="rotate(-90 343.243 318.055)"/><circle cx="1144.75" cy="229.994" r="1.478" transform="rotate(-90 1144.75 229.994)"/><circle cx="587.077" cy="552.229" r="1.083" transform="rotate(-90 587.077 552.229)"/><circle cx="23.269" cy="273" r="1.011" transform="rotate(-90 23.27 273)"/><circle cx="455.251" cy="543.025" r=".84" transform="rotate(-90 455.251 543.025)"/><circle cx="843.817" cy="177.658" r=".897" transform="rotate(-90 843.817 177.658)"/><circle cx="497.163" cy="317.118" r="1.052" transform="rotate(-90 497.163 317.118)"/><circle cx="513.789" cy="214.643" r=".895" transform="rotate(-90 513.789 214.643)"/><circle cx="207.727" cy="298.67" r=".969" transform="rotate(-90 207.727 298.67)"/><circle cx="300.978" cy="521.22" r="1.214" transform="rotate(-90 300.978 521.22)"/><circle cx="617.477" cy="228.486" r="1.034" transform="rotate(-90 617.477 228.486)"/><circle cx="104.87" cy="200.141" r="1.409" transform="rotate(-90 104.87 200.141)"/><circle cx="1193.02" cy="568.166" r="1.398" transform="rotate(-90 1193.02 568.166)"/><circle cx="263.418" cy="318.537" r="1.297" transform="rotate(-90 263.418 318.537)"/><circle cx="781.327" cy="274.074" r="1.087" transform="rotate(-90 781.327 274.074)"/><circle cx="403.141" cy="122.816" r="1.424" transform="rotate(-90 403.141 122.816)"/></g><g filter="url(#i)" style="mix-blend-mode:screen"><ellipse cx="1219.51" cy="448.884" fill="#220A44" rx="680.85" ry="204.255" transform="rotate(-53.049 1219.51 448.884)"/></g><g filter="url(#j)" style="mix-blend-mode:screen"><ellipse cx="255.646" cy="680.717" fill="#220A44" rx="680.85" ry="204.255" transform="rotate(-83.445 255.646 680.717)"/></g><g style="mix-blend-mode:screen"><mask id="m" width="137" height="231" x="-51" y="316" maskUnits="userSpaceOnUse" style="mask-type:alpha"><path fill="#D9D9D9" d="m80.82 316.157 4.186 2.417L-46.495 546.34l-4.186-2.417z"/></mask><g filter="url(#k)" mask="url(#m)"><path stroke="#980985" stroke-opacity=".45" stroke-width="15.71" d="m-24.533 503.468 72.166-124.994"/></g></g><g style="mix-blend-mode:screen"><mask id="o" width="137" height="231" x="710" y="91" maskUnits="userSpaceOnUse" style="mask-type:alpha"><path fill="#D9D9D9" d="m842.154 91.383 4.186 2.417-131.5 227.767-4.187-2.417z"/></mask><g filter="url(#n)" mask="url(#o)"><path stroke="#980985" stroke-opacity=".45" stroke-width="15.71" d="m736.801 278.693 72.166-124.994"/></g></g></g><g style="mix-blend-mode:screen"><mask id="q" width="137" height="231" x="317" y="421" maskUnits="userSpaceOnUse" style="mask-type:alpha"><path fill="#D9D9D9" d="m449.404 421.294 4.186 2.417-131.5 227.767-4.186-2.417z"/></mask><g filter="url(#p)" mask="url(#q)"><path stroke="#980985" stroke-opacity=".45" stroke-width="15.71" d="m344.051 608.605 72.166-124.995"/></g></g><g style="mix-blend-mode:screen"><mask id="s" width="137" height="231" x="216" y="408" maskUnits="userSpaceOnUse" style="mask-type:alpha"><path fill="#D9D9D9" d="m347.893 408.001 4.186 2.417-131.501 227.767-4.186-2.417z"/></mask><g filter="url(#r)" mask="url(#s)"><path stroke="#980985" stroke-opacity=".45" stroke-width="15.71" d="m242.54 595.312 72.165-124.995"/></g></g><g style="mix-blend-mode:screen"><mask id="u" width="137" height="231" x="148" y="486" maskUnits="userSpaceOnUse" style="mask-type:alpha"><path fill="#D9D9D9" d="m280.217 486.552 4.186 2.417-131.501 227.767-4.187-2.417z"/></mask><g filter="url(#t)" mask="url(#u)"><path stroke="#980985" stroke-opacity=".45" stroke-width="15.71" d="m174.864 673.862 72.165-124.994"/></g></g><g style="mix-blend-mode:screen"><mask id="w" width="542" height="699" x="518" y="163" maskUnits="userSpaceOnUse" style="mask-type:alpha"><path fill="#D9D9D9" d="m853.021 163.287 206.026 118.949-334.59 579.527-206.026-118.95z"/></mask><g filter="url(#v)" mask="url(#w)"><path stroke="#980985" stroke-width="434.967" d="m458.016 643.541 412.051 237.898"/></g></g><g style="mix-blend-mode:screen"><mask id="y" width="541" height="700" x="-28" y="166" maskUnits="userSpaceOnUse" style="mask-type:alpha"><path fill="#D9D9D9" d="m306.795 166.912 206.026 118.949-334.59 579.527-206.026-118.95z"/></mask><g filter="url(#x)" mask="url(#y)"><path stroke="#980985" stroke-width="434.967" d="m-88.21 647.166 412.05 237.898"/></g></g><g style="mix-blend-mode:screen"><mask id="A" width="541" height="700" x="-353" y="147" maskUnits="userSpaceOnUse" style="mask-type:alpha"><path fill="#D9D9D9" d="m-18.281 147.577 206.026 118.95-334.59 579.526-206.026-118.949z"/></mask><g filter="url(#z)" mask="url(#A)"><path stroke="#980985" stroke-width="434.967" d="M-413.287 627.831-1.236 865.729"/></g></g><g style="mix-blend-mode:screen"><mask id="C" width="541" height="699" x="917" y="158" maskUnits="userSpaceOnUse" style="mask-type:alpha"><path fill="#D9D9D9" d="m1251.82 158.453 206.026 118.949-334.59 579.527-206.026-118.95z"/></mask><g filter="url(#B)" mask="url(#C)"><path stroke="#980985" stroke-width="434.967" d="m856.811 638.707 412.049 237.898"/></g></g><g filter="url(#D)"><path fill="#F567D7" d="M0 739.726h1513v131.723H0z"/></g><path fill="#74BCDC" d="m468.886 383.228 2.093 3.764h-4.186z"/><path fill="#A8D7EC" d="m468.885 384.343 1.57 2.51h-3.14z"/><path fill="#74BCDC" d="m468.886 390.479-2.093-3.765h4.186z"/><path fill="#A8D7EC" d="m468.887 389.363-1.57-2.51h3.139z"/><g opacity=".36"><mask id="F" width="15" height="21" x="467" y="367" maskUnits="userSpaceOnUse" style="mask-type:alpha"><path fill="#D9D9D9" d="m478.553 367.61 3.296 1.757-11.48 18.355-3.297-1.757z"/></mask><g filter="url(#E)" mask="url(#F)"><path stroke="#5EE3F7" stroke-width="15.71" d="m466.617 383.683 6.592 3.513"/></g></g><g opacity=".36"><mask id="H" width="16" height="21" x="455" y="386" maskUnits="userSpaceOnUse" style="mask-type:alpha"><path fill="#D9D9D9" d="m458.889 406.128-3.296-1.757 11.48-18.355 3.297 1.757z"/></mask><g filter="url(#G)" mask="url(#H)"><path stroke="#5EE3F7" stroke-width="15.71" d="m470.824 390.056-6.591-3.513"/></g></g><path fill="#74BCDC" d="m1044.11 316.762 2.1 3.765h-4.19z"/><path fill="#A8D7EC" d="m1044.11 317.877 1.57 2.51h-3.14z"/><path fill="#74BCDC" d="m1044.11 324.013-2.09-3.765h4.19z"/><path fill="#A8D7EC" d="m1044.12 322.897-1.57-2.509h3.13z"/><g opacity=".36"><mask id="J" width="16" height="21" x="1042" y="301" maskUnits="userSpaceOnUse" style="mask-type:alpha"><path fill="#D9D9D9" d="m1053.78 301.145 3.296 1.757-11.48 18.355-3.297-1.757z"/></mask><g filter="url(#I)" mask="url(#J)"><path stroke="#5EE3F7" stroke-width="15.71" d="m1041.85 317.217 6.59 3.513"/></g></g><g opacity=".36"><mask id="L" width="16" height="21" x="1030" y="319" maskUnits="userSpaceOnUse" style="mask-type:alpha"><path fill="#D9D9D9" d="m1034.12 339.662-3.296-1.757 11.48-18.355 3.297 1.757z"/></mask><g filter="url(#K)" mask="url(#L)"><path stroke="#5EE3F7" stroke-width="15.71" d="m1046.05 323.59-6.59-3.513"/></g></g><path fill="#74BCDC" d="m285.198 354.225 2.093 3.764h-4.186z"/><path fill="#A8D7EC" d="m285.197 355.34 1.57 2.51h-3.139z"/><path fill="#74BCDC" d="m285.198 361.476-2.093-3.765h4.186z"/><path fill="#A8D7EC" d="m285.199 360.36-1.57-2.51h3.14z"/><g opacity=".36"><mask id="N" width="16" height="21" x="283" y="338" maskUnits="userSpaceOnUse" style="mask-type:alpha"><path fill="#D9D9D9" d="m294.865 338.607 3.296 1.757-11.48 18.355-3.297-1.757z"/></mask><g filter="url(#M)" mask="url(#N)"><path stroke="#5EE3F7" stroke-width="15.71" d="m282.93 354.68 6.591 3.513"/></g></g><g opacity=".36"><mask id="P" width="16" height="21" x="271" y="357" maskUnits="userSpaceOnUse" style="mask-type:alpha"><path fill="#D9D9D9" d="m275.201 377.125-3.296-1.757 11.48-18.355 3.297 1.757z"/></mask><g filter="url(#O)" mask="url(#P)"><path stroke="#5EE3F7" stroke-width="15.71" d="m287.137 361.053-6.592-3.513"/></g></g><path fill="#74BCDC" d="m341.995 403.771 2.093 3.765h-4.186z"/><path fill="#A8D7EC" d="m341.994 404.887 1.57 2.51h-3.14z"/><path fill="#74BCDC" d="m341.995 411.022-2.093-3.764h4.186z"/><path fill="#A8D7EC" d="m341.996 409.907-1.57-2.51h3.14z"/><g opacity=".36"><mask id="R" width="15" height="21" x="340" y="388" maskUnits="userSpaceOnUse" style="mask-type:alpha"><path fill="#D9D9D9" d="m351.662 388.154 3.296 1.757-11.48 18.355-3.297-1.757z"/></mask><g filter="url(#Q)" mask="url(#R)"><path stroke="#5EE3F7" stroke-width="15.71" d="m339.727 404.227 6.591 3.512"/></g></g><g opacity=".36"><mask id="T" width="16" height="21" x="328" y="406" maskUnits="userSpaceOnUse" style="mask-type:alpha"><path fill="#D9D9D9" d="m331.998 426.672-3.296-1.757 11.48-18.355 3.297 1.757z"/></mask><g filter="url(#S)" mask="url(#T)"><path stroke="#5EE3F7" stroke-width="15.71" d="m343.934 410.6-6.592-3.513"/></g></g><path fill="#AB86B8" d="m352.268 713.139 115.645 23.565h-231.29z"/><path fill="#E8E8E6" d="m352.267 713.139 115.645 23.565H308.158z"/><path fill="#E8E8E6" d="m445.924 716.764 81.632 19.939H364.293zm765.906 9.668-19.07 12.084h21.75z"/><g style="mix-blend-mode:screen"><mask id="V" width="25" height="162" x="1192" y="577" maskUnits="userSpaceOnUse" style="mask-type:alpha"><path fill="#D9D9D9" d="M1192.76 577.791h24.169v160.726h-24.169z"/></mask><g filter="url(#U)" mask="url(#V)"><path stroke="#F75EF4" stroke-width="109.152" d="M1182.4 725.12h48.34"/></g></g><path fill="#450327" d="m337.163 761.478 81.632 57.518-70.756 10.156-92.508-10.156z"/><g style="mix-blend-mode:screen"><mask id="X" width="51" height="315" x="0" y="493" maskUnits="userSpaceOnUse" style="mask-type:alpha"><path fill="#D9D9D9" d="M0 493.198h50.756v314.201H0z"/></mask><g filter="url(#W)" mask="url(#X)"><path stroke="#F75EF4" stroke-width="227.091" d="M-21.75 781.208H79.761"/></g></g><path fill="#450327" d="m216.921 761.478 194.138 114.2h-548.823z"/><path fill="#583F6B" d="m-82.174 692.595 194.206 114.804H79.404z"/><path fill="#450327" d="m97.283 761.478 194.137 114.2h-548.822z"/><path fill="#450327" d="m0 750.602 81.633 57.518H-81.632zm1199.5 29.002 138.27 91.844H975.234z"/><path fill="url(#Y)" d="m845.748 732.715-61.453-3.729 22.453 16.782h108.708l8.255-7.459-2.752-18.647h-27.516l-11.924 13.053z"/><path fill="url(#Z)" d="M829.126 725.489h46.148s-.348-14.019 1.126-22.813c1.536-9.17 6.753-22.814 6.753-22.814h-40.52s-9.199 13.386-13.507 22.814c-3.913 8.565 0 22.813 0 22.813"/><path fill="#EBA1D4" d="M843.03 725.489h16.042s-.348-14.019 1.126-22.813c1.536-9.17 6.753-22.814 6.753-22.814H850.2s-2.862 13.386-7.17 22.814c-3.913 8.565 0 22.813 0 22.813"/><path fill="url(#aa)" d="M790.867 725.489h33.986s-.005-14.019 1.267-22.813c1.327-9.17 11.407-22.814 11.407-22.814h-6.805l-19.811 22.814z"/><path fill="url(#ab)" d="M841.405 677.327h35.659s.536-10.835 0-17.743c-.541-6.994-2.783-17.744-2.783-17.744h-22.439s-7.109 10.411-10.437 17.744c-3.025 6.662 0 17.743 0 17.743"/><path fill="#EBA1D4" d="M850.201 677.327h15.19s-.249-9.636.889-16.476c1.187-7.132 2.088-19.011 2.088-19.011h-7.729s-7.109 10.411-10.437 17.744c-3.025 6.662-.001 17.743-.001 17.743"/><g opacity=".03" style="mix-blend-mode:screen"><path fill="url(#ac)" d="m845.748 755.936-61.453 2.906 22.453-13.075h108.708l8.255 5.811-2.752 14.527h-27.516l-11.924-10.169z"/><path fill="url(#ad)" fill-rule="evenodd" d="M843.03 761.566h-13.904s-3.913 11.1 0 17.773c4.308 7.345 13.507 17.773 13.507 17.773h40.52s-5.217-10.629-6.753-17.773c-1.474-6.852-1.126-17.773-1.126-17.773h-16.202c-.002.055-.344 10.939 1.126 17.773 1.536 7.144 6.753 17.773 6.753 17.773H850.2s-2.862-10.428-7.169-17.773c-3.904-6.656-.02-17.717-.001-17.773" clip-rule="evenodd"/><path fill="url(#ae)" d="M790.867 761.566h33.986s-.005 10.921 1.267 17.773c1.327 7.144 11.407 17.773 11.407 17.773h-6.805l-19.811-17.773z"/><path fill="url(#af)" fill-rule="evenodd" d="M850.2 799.087h-8.795s-3.025 8.634 0 13.824c3.328 5.713 10.437 13.823 10.437 13.823h22.439s2.242-8.375 2.783-13.823c.536-5.383 0-13.824 0-13.824h-11.675c-.001.035-.246 7.52.89 12.836 1.187 5.557 2.088 14.811 2.088 14.811h-7.73s-7.108-8.11-10.437-13.823c-3.018-5.179-.013-13.787 0-13.824" clip-rule="evenodd"/></g><circle cx="96.079" cy="102.079" r="44.713" fill="#092B6F" transform="rotate(150 96.079 102.079)"/><g filter="url(#ag)"><path fill="#E1FFFE" fill-rule="evenodd" d="M118.435 140.802c21.386-12.347 28.714-39.693 16.367-61.08-12.348-21.385-39.694-28.713-61.08-16.366z" clip-rule="evenodd"/></g></g></g><defs><filter id="d" width="2208.83" height="659.581" x="-459.097" y="327.759" color-interpolation-filters="sRGB" filterUnits="userSpaceOnUse"><feFlood flood-opacity="0" result="BackgroundImageFix"/><feBlend in="SourceGraphic" in2="BackgroundImageFix" result="shape"/><feGaussianBlur result="effect1_foregroundBlur_948_14280" stdDeviation="57.946"/></filter><filter id="e" width="2108.53" height="525.833" x="-369.669" y="461.507" color-interpolation-filters="sRGB" filterUnits="userSpaceOnUse"><feFlood flood-opacity="0" result="BackgroundImageFix"/><feBlend in="SourceGraphic" in2="BackgroundImageFix" result="shape"/><feGaussianBlur result="effect1_foregroundBlur_948_14280" stdDeviation="57.946"/></filter><filter id="f" width="2050.28" height="403.144" x="-340.545" y="544.196" color-interpolation-filters="sRGB" filterUnits="userSpaceOnUse"><feFlood flood-opacity="0" result="BackgroundImageFix"/><feBlend in="SourceGraphic" in2="BackgroundImageFix" result="shape"/><feGaussianBlur result="effect1_foregroundBlur_948_14280" stdDeviation="43.384"/></filter><filter id="i" width="1335.4" height="1569.71" x="551.814" y="-335.97" color-interpolation-filters="sRGB" filterUnits="userSpaceOnUse"><feFlood flood-opacity="0" result="BackgroundImageFix"/><feBlend in="SourceGraphic" in2="BackgroundImageFix" result="shape"/><feGaussianBlur result="effect1_foregroundBlur_948_14280" stdDeviation="113.475"/></filter><filter id="j" width="888.611" height="1807.52" x="-188.659" y="-223.041" color-interpolation-filters="sRGB" filterUnits="userSpaceOnUse"><feFlood flood-opacity="0" result="BackgroundImageFix"/><feBlend in="SourceGraphic" in2="BackgroundImageFix" result="shape"/><feGaussianBlur result="effect1_foregroundBlur_948_14280" stdDeviation="113.475"/></filter><filter id="k" width="113.325" height="160.403" x="-45.112" y="360.769" color-interpolation-filters="sRGB" filterUnits="userSpaceOnUse"><feFlood flood-opacity="0" result="BackgroundImageFix"/><feBlend in="SourceGraphic" in2="BackgroundImageFix" result="shape"/><feGaussianBlur result="effect1_foregroundBlur_948_14280" stdDeviation="6.888"/></filter><filter id="n" width="113.325" height="160.403" x="716.222" y="135.995" color-interpolation-filters="sRGB" filterUnits="userSpaceOnUse"><feFlood flood-opacity="0" result="BackgroundImageFix"/><feBlend in="SourceGraphic" in2="BackgroundImageFix" result="shape"/><feGaussianBlur result="effect1_foregroundBlur_948_14280" stdDeviation="6.888"/></filter><filter id="p" width="113.325" height="160.403" x="323.472" y="465.906" color-interpolation-filters="sRGB" filterUnits="userSpaceOnUse"><feFlood flood-opacity="0" result="BackgroundImageFix"/><feBlend in="SourceGraphic" in2="BackgroundImageFix" result="shape"/><feGaussianBlur result="effect1_foregroundBlur_948_14280" stdDeviation="6.888"/></filter><filter id="r" width="113.325" height="160.403" x="221.96" y="452.613" color-interpolation-filters="sRGB" filterUnits="userSpaceOnUse"><feFlood flood-opacity="0" result="BackgroundImageFix"/><feBlend in="SourceGraphic" in2="BackgroundImageFix" result="shape"/><feGaussianBlur result="effect1_foregroundBlur_948_14280" stdDeviation="6.888"/></filter><filter id="t" width="113.325" height="160.403" x="154.284" y="531.164" color-interpolation-filters="sRGB" filterUnits="userSpaceOnUse"><feFlood flood-opacity="0" result="BackgroundImageFix"/><feBlend in="SourceGraphic" in2="BackgroundImageFix" result="shape"/><feGaussianBlur result="effect1_foregroundBlur_948_14280" stdDeviation="6.888"/></filter><filter id="v" width="1238.49" height="1223.54" x="44.796" y="150.717" color-interpolation-filters="sRGB" filterUnits="userSpaceOnUse"><feFlood flood-opacity="0" result="BackgroundImageFix"/><feBlend in="SourceGraphic" in2="BackgroundImageFix" result="shape"/><feGaussianBlur result="effect1_foregroundBlur_948_14280" stdDeviation="152.238"/></filter><filter id="x" width="1238.49" height="1223.54" x="-501.43" y="154.342" color-interpolation-filters="sRGB" filterUnits="userSpaceOnUse"><feFlood flood-opacity="0" result="BackgroundImageFix"/><feBlend in="SourceGraphic" in2="BackgroundImageFix" result="shape"/><feGaussianBlur result="effect1_foregroundBlur_948_14280" stdDeviation="152.238"/></filter><filter id="z" width="1238.49" height="1223.54" x="-826.506" y="135.007" color-interpolation-filters="sRGB" filterUnits="userSpaceOnUse"><feFlood flood-opacity="0" result="BackgroundImageFix"/><feBlend in="SourceGraphic" in2="BackgroundImageFix" result="shape"/><feGaussianBlur result="effect1_foregroundBlur_948_14280" stdDeviation="152.238"/></filter><filter id="B" width="1238.49" height="1223.54" x="443.591" y="145.883" color-interpolation-filters="sRGB" filterUnits="userSpaceOnUse"><feFlood flood-opacity="0" result="BackgroundImageFix"/><feBlend in="SourceGraphic" in2="BackgroundImageFix" result="shape"/><feGaussianBlur result="effect1_foregroundBlur_948_14280" stdDeviation="152.238"/></filter><filter id="D" width="1513" height="136.557" x="0" y="734.892" color-interpolation-filters="sRGB" filterUnits="userSpaceOnUse"><feFlood flood-opacity="0" result="BackgroundImageFix"/><feColorMatrix in="SourceAlpha" result="hardAlpha" values="0 0 0 0 0 0 0 0 0 0 0 0 0 0 0 0 0 0 127 0"/><feOffset dy="-4.834"/><feComposite in2="hardAlpha" operator="out"/><feColorMatrix values="0 0 0 0 0.95098 0 0 0 0 0.803922 0 0 0 0 1 0 0 0 1 0"/><feBlend in2="BackgroundImageFix" result="effect1_dropShadow_948_14280"/><feColorMatrix in="SourceAlpha" result="hardAlpha" values="0 0 0 0 0 0 0 0 0 0 0 0 0 0 0 0 0 0 127 0"/><feOffset dy="-3.625"/><feComposite in2="hardAlpha" operator="out"/><feColorMatrix values="0 0 0 0 0.333333 0 0 0 0 0.0509804 0 0 0 0 0.247059 0 0 0 1 0"/><feBlend in2="effect1_dropShadow_948_14280" result="effect2_dropShadow_948_14280"/><feBlend in="SourceGraphic" in2="effect2_dropShadow_948_14280" result="shape"/></filter><filter id="E" width="36.918" height="38.827" x="451.454" y="366.025" color-interpolation-filters="sRGB" filterUnits="userSpaceOnUse"><feFlood flood-opacity="0" result="BackgroundImageFix"/><feBlend in="SourceGraphic" in2="BackgroundImageFix" result="shape"/><feGaussianBlur result="effect1_foregroundBlur_948_14280" stdDeviation="5.499"/></filter><filter id="G" width="36.918" height="38.827" x="449.069" y="368.886" color-interpolation-filters="sRGB" filterUnits="userSpaceOnUse"><feFlood flood-opacity="0" result="BackgroundImageFix"/><feBlend in="SourceGraphic" in2="BackgroundImageFix" result="shape"/><feGaussianBlur result="effect1_foregroundBlur_948_14280" stdDeviation="5.499"/></filter><filter id="I" width="36.918" height="38.827" x="1026.68" y="299.56" color-interpolation-filters="sRGB" filterUnits="userSpaceOnUse"><feFlood flood-opacity="0" result="BackgroundImageFix"/><feBlend in="SourceGraphic" in2="BackgroundImageFix" result="shape"/><feGaussianBlur result="effect1_foregroundBlur_948_14280" stdDeviation="5.499"/></filter><filter id="K" width="36.918" height="38.827" x="1024.3" y="302.42" color-interpolation-filters="sRGB" filterUnits="userSpaceOnUse"><feFlood flood-opacity="0" result="BackgroundImageFix"/><feBlend in="SourceGraphic" in2="BackgroundImageFix" result="shape"/><feGaussianBlur result="effect1_foregroundBlur_948_14280" stdDeviation="5.499"/></filter><filter id="M" width="36.918" height="38.827" x="267.767" y="337.022" color-interpolation-filters="sRGB" filterUnits="userSpaceOnUse"><feFlood flood-opacity="0" result="BackgroundImageFix"/><feBlend in="SourceGraphic" in2="BackgroundImageFix" result="shape"/><feGaussianBlur result="effect1_foregroundBlur_948_14280" stdDeviation="5.499"/></filter><filter id="O" width="36.918" height="38.827" x="265.382" y="339.883" color-interpolation-filters="sRGB" filterUnits="userSpaceOnUse"><feFlood flood-opacity="0" result="BackgroundImageFix"/><feBlend in="SourceGraphic" in2="BackgroundImageFix" result="shape"/><feGaussianBlur result="effect1_foregroundBlur_948_14280" stdDeviation="5.499"/></filter><filter id="Q" width="36.918" height="38.827" x="324.564" y="386.569" color-interpolation-filters="sRGB" filterUnits="userSpaceOnUse"><feFlood flood-opacity="0" result="BackgroundImageFix"/><feBlend in="SourceGraphic" in2="BackgroundImageFix" result="shape"/><feGaussianBlur result="effect1_foregroundBlur_948_14280" stdDeviation="5.499"/></filter><filter id="S" width="36.918" height="38.827" x="322.179" y="389.43" color-interpolation-filters="sRGB" filterUnits="userSpaceOnUse"><feFlood flood-opacity="0" result="BackgroundImageFix"/><feBlend in="SourceGraphic" in2="BackgroundImageFix" result="shape"/><feGaussianBlur result="effect1_foregroundBlur_948_14280" stdDeviation="5.499"/></filter><filter id="U" width="201.151" height="261.965" x="1105.99" y="594.137" color-interpolation-filters="sRGB" filterUnits="userSpaceOnUse"><feFlood flood-opacity="0" result="BackgroundImageFix"/><feBlend in="SourceGraphic" in2="BackgroundImageFix" result="shape"/><feGaussianBlur result="effect1_foregroundBlur_948_14280" stdDeviation="38.203"/></filter><filter id="W" width="419.44" height="545.02" x="-180.714" y="508.698" color-interpolation-filters="sRGB" filterUnits="userSpaceOnUse"><feFlood flood-opacity="0" result="BackgroundImageFix"/><feBlend in="SourceGraphic" in2="BackgroundImageFix" result="shape"/><feGaussianBlur result="effect1_foregroundBlur_948_14280" stdDeviation="79.482"/></filter><filter id="ag" width="125.083" height="141.45" x="44.719" y="28.355" color-interpolation-filters="sRGB" filterUnits="userSpaceOnUse"><feFlood flood-opacity="0" result="BackgroundImageFix"/><feColorMatrix in="SourceAlpha" result="hardAlpha" values="0 0 0 0 0 0 0 0 0 0 0 0 0 0 0 0 0 0 127 0"/><feOffset/><feGaussianBlur stdDeviation="14.502"/><feComposite in2="hardAlpha" operator="out"/><feColorMatrix values="0 0 0 0 0.882353 0 0 0 0 1 0 0 0 0 0.996078 0 0 0 0.72 0"/><feBlend in2="BackgroundImageFix" result="effect1_dropShadow_948_14280"/><feBlend in="SourceGraphic" in2="effect1_dropShadow_948_14280" result="shape"/></filter><linearGradient id="c" x1="756.5" x2="756.5" y1="0" y2="663.448" gradientUnits="userSpaceOnUse"><stop offset=".869" stop-color="#1E1E1E"/><stop offset="1" stop-color="#F567D7"/></linearGradient><linearGradient id="Y" x1="864.953" x2="864.953" y1="719.662" y2="745.768" gradientUnits="userSpaceOnUse"><stop stop-color="#EBA1D4"/><stop offset=".63" stop-color="#CBAECD"/><stop offset="1" stop-color="#E8E8E6"/></linearGradient><linearGradient id="Z" x1="859.65" x2="859.65" y1="679.862" y2="725.489" gradientUnits="userSpaceOnUse"><stop stop-color="#EBA1D4"/><stop offset=".63" stop-color="#CBAECD"/><stop offset="1" stop-color="#E8E8E6"/></linearGradient><linearGradient id="aa" x1="817.862" x2="817.862" y1="679.862" y2="725.489" gradientUnits="userSpaceOnUse"><stop stop-color="#EBA1D4"/><stop offset=".63" stop-color="#CBAECD"/><stop offset="1" stop-color="#E8E8E6"/></linearGradient><linearGradient id="ab" x1="861.607" x2="861.607" y1="641.84" y2="677.327" gradientUnits="userSpaceOnUse"><stop stop-color="#EBA1D4"/><stop offset=".63" stop-color="#CBAECD"/><stop offset="1" stop-color="#E8E8E6"/></linearGradient><linearGradient id="ac" x1="854.233" x2="854.091" y1="755.698" y2="745.766" gradientUnits="userSpaceOnUse"><stop stop-color="#0B1846"/><stop offset="1" stop-color="#A1EFFE"/></linearGradient><linearGradient id="ad" x1="855.27" x2="855.27" y1="797.112" y2="761.566" gradientUnits="userSpaceOnUse"><stop stop-color="#0B1846"/><stop offset=".63" stop-color="#3F486B"/><stop offset="1" stop-color="#A1EFFE"/></linearGradient><linearGradient id="ae" x1="813.446" x2="813.446" y1="797.112" y2="761.566" gradientUnits="userSpaceOnUse"><stop stop-color="#0B1846"/><stop offset=".63" stop-color="#3F486B"/><stop offset="1" stop-color="#A1EFFE"/></linearGradient><linearGradient id="af" x1="861.607" x2="861.607" y1="826.734" y2="799.087" gradientUnits="userSpaceOnUse"><stop stop-color="#0B1846"/><stop offset=".63" stop-color="#3F486B"/><stop offset="1" stop-color="#A1EFFE"/></linearGradient><clipPath id="a"><path fill="#fff" d="M0 0h1200v800H0z"/></clipPath><clipPath id="b"><path fill="#fff" d="M0-23h1513v1575H0z"/></clipPath><clipPath id="h"><path fill="#fff" d="M0 1626.74v-1513h1513v1513z"/></clipPath></defs></svg>