<svg xmlns="http://www.w3.org/2000/svg" width="139" height="66" fill="none"><g filter="url(#a)"><path fill="#CCFDFF" fill-opacity=".75" d="M28.564 8.94 12.389 7.923a.614.614 0 0 0-.517.997c.151.188.178.446.07.66l-.683 1.36a1 1 0 0 0 .058.998l2.303 3.503a1 1 0 0 1 .156.42l.452 3.428a1 1 0 0 0 .172.443l5.926 8.453a1 1 0 0 1 .181.574v10.067a1 1 0 0 0 .077.384l3.076 7.396a1 1 0 0 1-.093.94l-.607.908a1 1 0 0 0 .318 1.415l.629.376a1 1 0 0 0 .712.12l3.726-.757 7.247-.811a1 1 0 0 1 .426.044l6.317 2.095a1 1 0 0 0 .395.048l13.608-1.098 5.367-.534a1 1 0 0 1 .449.058l1.106.413q.17.063.349.063h4.3c.29 0 4.358-.525 6.53-.81a1 1 0 0 1 .371.02l2.999.746q.177.044.358.023l6.723-.792a1 1 0 0 1 .37.025l7.124 1.86a1 1 0 0 0 .321.03l28.095-1.93a1 1 0 0 1 .216.009l4.638.692a.743.743 0 0 0 .853-.735c0-.163.054-.322.153-.452l1.006-1.313a1 1 0 0 0 .145-.952l-.87-2.381a1 1 0 0 1-.061-.343v-4.836c0-.223-.249-1.207-.373-1.671l-.599-1.787a1 1 0 0 1 .094-.838l1.462-2.399c.106-.174.156-.376.144-.58l-1.09-18.164a1 1 0 0 1 .043-.355l.869-2.813a.627.627 0 0 0-.447-.794.63.63 0 0 1-.476-.608v-.085a.735.735 0 0 0-.813-.73l-4.298.457a1 1 0 0 1-.229-.002l-4.269-.53a1 1 0 0 0-.191-.006L100.65 8.93a1 1 0 0 1-.513-.102l-1.656-.824a1 1 0 0 0-.707-.07l-3.529.957a1 1 0 0 1-.425.022l-3.063-.508a1 1 0 0 0-.163-.014H85.47a1 1 0 0 1-.682-.268l-.796-.743a1 1 0 0 0-.947-.233L76.964 8.82a1 1 0 0 1-.863-.163l-1.16-.866a1 1 0 0 0-.704-.192L59.185 9.203a1 1 0 0 1-.456-.058l-3.24-1.209a1 1 0 0 0-.553-.042l-6.179 1.28a1 1 0 0 1-.508-.026l-2.213-.708a1 1 0 0 0-.305-.048h-9.816a1 1 0 0 1-.209-.022l-2.283-.486a1 1 0 0 0-.45.007l-4.105 1.021a1 1 0 0 1-.304.028" shape-rendering="crispEdges"/></g><defs><filter id="a" width="137.52" height="64.679" x=".752" y=".712" color-interpolation-filters="sRGB" filterUnits="userSpaceOnUse"><feFlood flood-opacity="0" result="BackgroundImageFix"/><feColorMatrix in="SourceAlpha" result="hardAlpha" values="0 0 0 0 0 0 0 0 0 0 0 0 0 0 0 0 0 0 127 0"/><feOffset dy="4"/><feGaussianBlur stdDeviation="5.2"/><feComposite in2="hardAlpha" operator="out"/><feColorMatrix values="0 0 0 0 0.286275 0 0 0 0 0.572549 0 0 0 0 0.603922 0 0 0 1 0"/><feBlend in2="BackgroundImageFix" result="effect1_dropShadow_676_1424"/><feBlend in="SourceGraphic" in2="effect1_dropShadow_676_1424" result="shape"/></filter></defs></svg>