<svg width="238" height="148" viewBox="0 0 238 148" fill="none" xmlns="http://www.w3.org/2000/svg">
<path d="M103.179 91.1261L186.661 91.7481L79.4958 46.0651L15.7152 44.7561L103.179 91.1261Z" fill="#FFDD80"/>
<path d="M103.179 91.1261L91.2018 143.006L175.114 141.764L186.661 91.7481L103.179 91.1261Z" fill="#BDA795"/>
<path fill-rule="evenodd" clip-rule="evenodd" d="M103.179 91.1261L91.2018 143.006L5.10046 90.7335L15.7152 44.7561L103.179 91.1261ZM222.429 37.2219L186.661 91.7481L79.4958 46.0651L101.309 4.73569L222.429 37.2219Z" fill="#D7C0AE"/>
<path d="M222.429 37.2219L186.661 91.7481C196.087 94.2313 217.714 94.2597 228.819 74.5077C239.923 54.7558 229.186 41.4206 222.429 37.2219Z" fill="#BDA795"/>
<path d="M103.179 91.1261L91.2018 143.006M103.179 91.1261L186.661 91.7481M103.179 91.1261L15.7152 44.7561M91.2018 143.006L175.114 141.764L186.661 91.7481M91.2018 143.006L5.10046 90.7335L15.7152 44.7561M186.661 91.7481L79.4958 46.0651M186.661 91.7481L222.429 37.2219M186.661 91.7481C196.087 94.2313 217.714 94.2597 228.819 74.5077C239.923 54.7558 229.186 41.4206 222.429 37.2219M15.7152 44.7561L79.4958 46.0651M79.4958 46.0651L101.309 4.73569L222.429 37.2219" stroke="#A19283" stroke-width="8"/>
</svg>
