<svg xmlns="http://www.w3.org/2000/svg" width="238" height="148" fill="none"><path fill="#FFDD80" d="m103.179 91.126 83.482.622L79.496 46.065l-63.78-1.309z"/><path fill="#BDA795" d="m103.179 91.126-11.977 51.88 83.912-1.242 11.547-50.016z"/><path fill="#D7C0AE" fill-rule="evenodd" d="m103.179 91.126-11.977 51.88L5.1 90.734l10.615-45.978zm119.25-53.904-35.768 54.526L79.496 46.065l21.813-41.33z" clip-rule="evenodd"/><path fill="#BDA795" d="m222.429 37.222-35.768 54.526c9.426 2.483 31.053 2.512 42.158-17.24 11.104-19.752.367-33.087-6.39-37.286"/><path stroke="#A19283" stroke-width="8" d="m103.179 91.126-11.977 51.88m11.977-51.88 83.482.622m-83.482-.622-87.464-46.37m75.487 98.25 83.912-1.242 11.547-50.016m-95.46 51.258-86.1-52.272 10.614-45.978m170.946 46.992L79.496 46.065M186.66 91.748l35.768-54.526m-35.768 54.526c9.426 2.483 31.053 2.512 42.158-17.24 11.104-19.752.367-33.087-6.39-37.286M15.715 44.756l63.78 1.31m0 0 21.814-41.33 121.12 32.486"/></svg>