<svg xmlns="http://www.w3.org/2000/svg" width="101" height="106" aria-hidden="true"><path d="M83.898 64.027a25.5 25.5 0 0 0 4.779-1.746 8.15 8.15 0 0 0-.654 3.286 29.4 29.4 0 0 1-5.835 11.707 9.266 9.266 0 0 0-.855 7.496v1.54a3.47 3.47 0 0 1-2.364-.667 4.94 4.94 0 0 0-2.918-.554 5 5 0 0 0-2.715 1.222 31.15 31.15 0 0 1-11.468 6.88c-1.51 0-2.364.616-4.125.616a61 61 0 0 1-1.509 6.623 16.6 16.6 0 0 1-3.22 4.211c-1.76.872-2.413 0-2.413-.873-.855-1.541-1.71-3.338-2.566-4.878a7.8 7.8 0 0 0-2.152-3.327 7.6 7.6 0 0 0-3.481-1.808 102.4 102.4 0 0 1-14.738-5.647 20.1 20.1 0 0 0-4.728 3.286 17.1 17.1 0 0 1 0-6.624 21.9 21.9 0 0 0-3.27-5.75 17.2 17.2 0 0 1 2.415-3.286 7.26 7.26 0 0 0-4.124.667 27.03 27.03 0 0 1-6.489-12.374 9.9 9.9 0 0 1 4.263-.138 9.95 9.95 0 0 1 3.936 1.678c2.414.873 3.923 3.338 6.488 5.135q.431-1.647.654-3.338a50 50 0 0 0-10.361-5.134 35.7 35.7 0 0 1-9.104-1.592A16.7 16.7 0 0 1 0 57.403c2.616-3.337 6.489-4.21 9.758-6.623-1.56-1.746-.654-3.286-.654-5.135-.139-5.736 1.856-11.313 5.583-15.608a.89.89 0 0 1 .268-.636.85.85 0 0 1 .638-.237c.855-.924 1.509-2.465 0-5.135a7.5 7.5 0 0 0 4.074-.667c1.509-.873 1.509-1.797 3.27-2.67a51.7 51.7 0 0 1 17.302-8.113c.604-.872 2.364-.872 3.22-.872.653-.873.653-1.746 1.508-2.414-.855 0-.855-.924-.855-.924A27.6 27.6 0 0 0 49.745 0c0 .873 0 .873.856 1.746.855.873 1.509 2.464 2.414 3.337v1.54c.466.47.767 1.084.855 1.746.654 2.465 2.364 2.465 3.873 2.465s3.27.873 5.03.873v4.21c.855-.924 1.509-1.797 2.364-2.67a62 62 0 0 1 11.418 7.29c.728.74 1.62 1.29 2.601 1.603s2.02.38 3.032.195a4.92 4.92 0 0 0-.11 3.151c.31 1.034.951 1.93 1.82 2.548a30.2 30.2 0 0 1 5.634 13.042v3.08a25.4 25.4 0 0 1-9.054-2.67c-.855-.616-.855-1.54-1.71-2.413 0-.873-.905-1.745-1.56-2.413-.854 1.54-1.71 2.413-2.565 4.21a94 94 0 0 0 13.833 4.827 68.5 68.5 0 0 0 12.323 7.496c-8.199 6.624-17.102 8.42-26.156 12.374.487.454.792 1.076.856 1.746.03.31.12.612.267.885.147.274.347.514.588.707h.855a10.2 10.2 0 0 1 2.834-3.169 10 10 0 0 1 3.855-1.71M25.15 41.487c-.855-2.414-.855-4.16-3.219-4.827a100 100 0 0 0-4.124 9.91 74 74 0 0 0 7.343-5.083m4.276-.411a18.3 18.3 0 0 1 5.784-4.416c.327-.353.573-.775.721-1.237s.194-.95.134-1.433c-7.494-3.953-10.915-5.75-13.983-5.75 2.364 4.21 4.728 8.42 7.344 12.836m-1.76 41.948a137 137 0 0 0 11.468-8.163c0-1.797 0-2.67-.856-3.338-.855-3.286-.855-3.286-4.124-4.21h-2.364a47 47 0 0 0-4.125 15.711m4.124-55.657a12.3 12.3 0 0 0 6.488 1.797c.315-2.02.98-3.968 1.962-5.75a9.14 9.14 0 0 0-4.743.822 9.35 9.35 0 0 0-3.707 3.13M63.578 62.28c1.509-4.005 2.414-8.215 4.124-12.374a4.55 4.55 0 0 0 .382-2.707 4.5 4.5 0 0 0-1.237-2.427c-.855-2.414-2.615-5.135-3.27-6.624-5.03-9.96-9.053-18.997-14.687-29.831-.07 2.63-.67 5.216-1.76 7.599a41.8 41.8 0 0 1-2.364 9.755c-3.22 6.624-5.633 13.247-8.853 20.538a6.74 6.74 0 0 0 0 5.75c2.364 5.957 4.125 11.707 6.489 17.458.855 2.413 1.509 5.956 2.364 8.37 1.76 6.623 4.124 13.246 5.835 19.87 0 .873.654 1.797 2.414 1.797v-2.67c.855-3.338 1.509-6.624 2.364-9.961a93.7 93.7 0 0 1 8.199-24.543M41.547 82.82c0-1.54-.906-2.465-1.51-4.005a19.5 19.5 0 0 0-3.269 3.338 6.9 6.9 0 0 0 3.27.667c.603 1.078.603.205 1.509.205zm7.343-55.452c0 .873-.855 1.797-.855 3.337a24.7 24.7 0 0 1-2.655 9.66 24.2 24.2 0 0 1-6.248 7.746 3.1 3.1 0 0 1-.855 1.797 22.7 22.7 0 0 1 6.383 6.477 23.2 23.2 0 0 1 3.375 8.516c.855 1.54 1.71 4.005 3.22 6.623a3.85 3.85 0 0 1 .855-2.618c.905-2.465.905-4.005 1.76-6.624a17.8 17.8 0 0 1 4.728-9.96c.906-.874 1.76-2.414 3.27-4.211-.855-.616-.855-.616-1.51-.616-3.524-2.467-6.116-6.09-7.343-10.27a64 64 0 0 0-3.27-9.96zm3.22 21.667c-.855 1.746-1.51 2.413-2.364 4.16a15.8 15.8 0 0 0-2.616-4.16c.905-1.54 1.76-2.464 2.615-4.21a19.2 19.2 0 0 0 2.365 4.21m13.882 30.807a8.8 8.8 0 0 0-4.125-2.413 26 26 0 0 1-1.508 5.75 11.43 11.43 0 0 0 5.633-3.491zm-5.03-56.48a53 53 0 0 0 2.565 5.752c1.51 0 2.415-.925 4.125-1.798-2.565-3.234-3.42-3.902-6.64-3.902zm15.542 56.48a69 69 0 0 0-5.633-12.374 15.28 15.28 0 0 0-8.199 4.21c.855 1.54 3.27 2.413 4.125 3.338.855.924 3.219 2.413 4.728 3.286a9.1 9.1 0 0 0 5.03 1.386zM65.943 32.604c.855 3.337 1.71 6.623 5.583 6.623.905-1.745 2.615-4.21 3.27-5.75.653-1.54 1.71-3.286 3.218-6.624-4.677 2.31-7.947 3.954-12.021 5.597z"/></svg>