<svg width="478" height="595" viewBox="0 0 478 595" fill="none" xmlns="http://www.w3.org/2000/svg">
<path d="M291.137 583.577C263.041 583.577 233.312 586.383 205.506 582.742C170.325 578.135 151.914 537.467 141.596 508.389C141.575 508.329 141.554 508.27 141.532 508.21M141.532 508.21C129.84 475.192 120.292 430.02 144.52 400.201C158.384 383.138 188.453 364.489 211.354 374.721C242.632 388.696 228.713 445.54 213.86 464.529C201.233 480.673 172.903 497.615 141.532 508.21ZM141.532 508.21C95.4988 523.756 42.9183 525.634 23.8007 491.263C-1.6126 445.573 12.3367 380.426 31.9461 336.082C66.6666 257.567 129.636 191.042 199.24 142.054C250.259 106.147 320.618 72.2962 385.123 72.2962M370.085 12.1455C392.121 12.1455 453.498 3.60483 465.324 28.0186C482.978 64.4662 403.19 126.942 381.363 147.485" stroke="black" stroke-width="20" stroke-linecap="round"/>
</svg>
