<svg xmlns="http://www.w3.org/2000/svg" width="478" height="595" fill="none"><path stroke="#fff" stroke-linecap="round" stroke-width="20" d="M291.137 583.577c-28.096 0-57.825 2.806-85.631-.835-35.181-4.607-53.592-45.275-63.91-74.353l-.064-.179m0 0c-11.692-33.018-21.24-78.19 2.988-108.009 13.864-17.063 43.933-35.712 66.834-25.48 31.278 13.975 17.359 70.819 2.506 89.808-12.627 16.144-40.957 33.086-72.328 43.681Zm0 0c-46.033 15.546-98.614 17.424-117.731-16.947-25.414-45.69-11.464-110.837 8.145-155.181 34.72-78.515 97.69-145.04 167.294-194.028 51.019-35.907 121.378-69.758 185.883-69.758m-15.038-60.15c22.036 0 83.413-8.541 95.239 15.873 17.654 36.447-62.134 98.923-83.961 119.466"/></svg>
