<svg xmlns="http://www.w3.org/2000/svg" width="237" height="210" fill="none" viewBox="0 0 237 210"><path fill="#000" fill-rule="evenodd" d="M107.136 2.491C107.788 5.089 107.547 5.286 102.299 6.436C99.1082 7.135 98.7062 8.598 101.464 9.473C104.172 10.332 108.549 9.046 108.549 7.392C108.549 6.626 108.999 6 109.549 6C111.191 6 110.68 1.264 108.967 0.607C106.573 -0.312 106.462 -0.197001 107.136 2.491ZM111.549 1.918C111.549 5.205 112.684 7 114.763 7C116.176 7 116.585 6.536 116.156 5.418C115.822 4.548 115.549 2.973 115.549 1.918C115.549 0.667 114.854 0 113.549 0C112.244 0 111.549 0.667 111.549 1.918ZM110.549 10.117C110.549 10.76 109.656 11 108.442 10.682C105.609 9.941 101.549 11.587 101.549 13.475C101.549 14.333 102.423 15 103.549 15C104.66 15 105.549 15.667 105.549 16.5C105.549 17.325 105.951 18 106.442 18C106.933 18 107.594 17.325 107.911 16.5C108.227 15.675 108.95 15 109.518 15C110.085 15 110.549 15.675 110.549 16.5C110.549 17.325 110.999 18 111.549 18C112.099 18 112.549 16.687 112.549 15.082C112.549 13.477 112.822 11.452 113.156 10.582C113.554 9.544 113.211 9 112.156 9C111.272 9 110.549 9.502 110.549 10.117ZM127.645 10.878C124.567 11.636 121.689 12.874 121.249 13.628C120.809 14.383 119.829 15 119.071 15C118.312 15 117.097 15.59 116.37 16.311C115.644 17.033 113.613 18.256 111.859 19.029C110.104 19.803 108.43 21.125 108.138 21.968C107.296 24.399 105.199 27.357 103.299 28.791C102.337 29.519 101.549 30.763 101.549 31.557C101.549 32.351 101.143 33 100.647 33C99.3772 33 97.5492 38.667 97.5492 42.602C97.5492 46.342 99.3812 51.106 101.278 52.3C101.977 52.74 102.549 53.752 102.549 54.55C102.549 55.347 103.198 56 103.992 56C104.786 56 106.077 56.915 106.86 58.034C107.863 59.466 110.171 60.372 114.644 61.093C118.142 61.656 121.31 62.613 121.684 63.219C122.059 63.824 124.881 64.529 127.957 64.784C133.343 65.231 133.549 65.354 133.549 68.124C133.549 69.706 133.12 71 132.596 71C132.072 71 130.903 72.558 129.999 74.463C128.023 78.628 127.688 78.748 114.614 79.994C104.465 80.961 101.687 82.136 101.581 85.509C101.563 86.065 100.649 87.081 99.5492 87.768C98.4492 88.455 97.5492 89.588 97.5492 90.286C97.5492 90.984 96.7052 92.279 95.6722 93.162C93.9482 94.639 93.6842 94.637 92.4202 93.135C91.6642 92.236 90.1902 89.588 89.1452 87.25C88.1002 84.912 86.9012 83 86.4802 83C86.0592 83 84.9412 80.975 83.9962 78.5C83.0512 76.025 81.9092 74 81.4582 74C81.0082 74 80.3442 72.425 79.9832 70.5C79.5082 67.967 78.8042 67 77.4382 67C76.3992 67 75.5492 67.45 75.5492 68C75.5492 69.25 71.8372 69.33 71.3822 68.09C71.1992 67.59 66.3242 66.669 60.5492 66.044C54.7742 65.419 48.5862 64.652 46.7992 64.34C43.7072 63.801 43.5492 63.924 43.5492 66.887C43.5492 68.599 43.9312 70 44.3972 70C44.8642 70 46.0892 71.912 47.1202 74.25C48.1502 76.588 49.2662 78.725 49.5982 79C49.9302 79.275 51.0682 82.309 52.1262 85.741C53.1842 89.174 54.3872 91.987 54.7992 91.991C55.2112 91.996 55.5942 93.463 55.6492 95.25C55.8942 103.258 56.1142 103.43 66.5292 103.728C71.6992 103.876 76.1812 104.375 76.4892 104.836C77.5722 106.459 82.1842 107.18 96.3302 107.938C108.479 108.589 110.812 108.977 111.953 110.538C113.036 112.019 115.05 112.456 122.422 112.808C128.762 113.111 131.549 112.902 131.549 112.122C131.549 111.505 132.412 111 133.466 111C134.52 111 135.532 110.612 135.716 110.137C135.899 109.663 140.576 109.017 146.109 108.703C156.977 108.085 161.549 106.676 161.549 103.946C161.549 101.662 159.264 100.874 155.827 101.973C147.897 104.508 122.049 102.998 122.049 99.999C122.049 99.074 123.469 98.303 125.903 97.907C128.023 97.563 130.048 96.822 130.403 96.261C130.758 95.7 133.637 94.665 136.799 93.961C142.693 92.65 143.873 91.181 141.189 88.497C140.042 87.35 138.984 87.383 134.439 88.705C131.474 89.567 128.819 90.626 128.539 91.057C128.258 91.488 126.683 92.128 125.039 92.477C116.615 94.268 113.549 95.376 113.549 96.63C113.549 97.383 113.999 98 114.549 98C115.099 98 115.549 98.878 115.549 99.951C115.549 101.783 115.011 101.866 106.799 101.313C101.987 100.988 97.9412 100.64 97.8092 100.539C97.0372 99.944 100.392 94.95 102.53 93.513C103.925 92.575 105.789 90.115 106.673 88.045L108.28 84.282L116.415 83.572C120.889 83.182 124.549 82.443 124.549 81.931C124.549 81.419 126.139 81 128.082 81C133.101 81 138.637 75.391 139.286 69.649C139.734 65.688 139.921 65.488 143.402 65.241C145.408 65.098 147.549 64.311 148.159 63.491C148.77 62.671 149.757 62 150.353 62C151.973 62 154.549 57.873 154.549 55.277C154.549 52.329 153.114 52.395 149.766 55.5C148.283 56.875 146.502 58 145.809 58C145.116 58 144.549 58.45 144.549 59C144.549 59.593 140.882 60 135.549 60C130.599 60 126.549 59.643 126.549 59.207C126.549 58.211 118.436 56 114.778 56C112.268 56 109.767 53.879 104.513 47.292C103.278 45.744 103.25 38 104.479 38C104.991 38 105.554 36.987 105.729 35.75C106.098 33.158 110.726 32.072 113.08 34.026C114.961 35.586 124.549 34.321 124.549 32.512C124.549 30.885 119.638 25.598 117.316 24.726C114.611 23.711 116.247 21.42 120.733 19.939C122.978 19.199 125.505 17.901 126.35 17.056C127.487 15.92 130.678 15.425 138.624 15.153C148.243 14.823 149.346 14.962 149.206 16.48C149.103 17.594 150.42 18.721 153.049 19.767C155.249 20.643 157.274 21.662 157.549 22.032C157.824 22.402 159.724 23.491 161.771 24.453C164.342 25.661 166.025 27.407 167.214 30.101C168.16 32.245 169.225 34 169.581 34C169.938 34 170.845 35.913 171.597 38.25C172.349 40.587 173.253 42.725 173.605 43C173.957 43.275 175.036 46.763 176.004 50.75C176.972 54.737 178.097 58 178.502 58C179.353 58 182.549 71.842 182.549 75.528C182.549 76.888 182.999 78 183.549 78C184.164 78 184.549 83 184.549 91C184.549 99 184.164 104 183.549 104C182.999 104 182.549 105.316 182.549 106.924C182.549 111.651 180.265 120.172 178.853 120.714C178.136 120.989 177.549 122.086 177.549 123.151C177.549 126.329 174.37 138 173.505 138C173.064 138 172.184 139.575 171.549 141.5C170.914 143.425 170.086 145 169.709 145C169.332 145 168.186 147.925 167.163 151.5C166.139 155.075 164.907 158 164.425 158C163.943 158 163.549 158.59 163.549 159.311C163.549 160.033 162.667 161.569 161.589 162.726C160.512 163.883 159.335 166.003 158.975 167.438C158.615 168.873 157.584 170.606 156.685 171.289C154.82 172.704 152.763 175.693 151.91 178.225C151.582 179.198 149.845 180.229 147.925 180.589C146.053 180.941 144.19 181.801 143.785 182.501C143.033 183.8 134.663 187 132.014 187C131.208 187 130.549 187.415 130.549 187.922C130.549 188.43 128.874 189.398 126.827 190.073C124.779 190.749 122.497 191.909 121.755 192.651C121.013 193.393 119.757 194 118.964 194C117.512 194 113.478 195.965 112.549 197.124C111.997 197.814 104.012 199.861 98.5492 200.713C96.6242 201.013 94.7702 201.695 94.4292 202.229C93.4682 203.731 63.3242 203.792 62.8182 202.292C62.5932 201.627 58.8412 200.281 54.4802 199.301C50.1182 198.32 46.5492 197.177 46.5492 196.759C46.5492 196.342 45.4172 196 44.0342 196C40.5132 196 29.5492 192.848 29.5492 191.836C29.5492 191.376 28.3122 190.928 26.7992 190.84C25.2862 190.753 28.9182 190.391 34.8682 190.037C40.8192 189.684 45.9942 188.912 46.3682 188.323C46.7432 187.733 48.5362 186.929 50.3542 186.534C53.6042 185.829 65.5492 175.246 65.5492 173.072C65.5492 172.521 66.3872 171.622 67.4122 171.073C69.7622 169.816 72.4182 163.79 70.8532 163.268C69.6682 162.873 70.2962 159 71.5452 159C72.2782 159 78.2852 164.23 83.5872 169.485C84.9822 170.868 86.6542 172 87.3012 172C87.9492 172 88.9102 172.805 89.4362 173.79C89.9632 174.774 91.6662 176.236 93.2222 177.04C94.7772 177.843 96.9212 179.287 97.9882 180.25C99.0542 181.213 100.516 182 101.238 182C101.959 182 102.549 182.45 102.549 183C102.549 185.074 105.358 183.897 105.94 181.579C106.615 178.89 105.828 176 104.421 176C103.918 176 103.014 174.921 102.414 173.602C101.566 171.742 100.582 171.225 98.0292 171.298C95.9812 171.356 93.8522 170.592 92.3932 169.277C91.1042 168.114 87.8312 165.101 85.1202 162.581C82.4092 160.062 79.8222 158 79.3702 158C78.9182 158 78.5492 157.325 78.5492 156.5C78.5492 155.675 77.8902 155 77.0842 155C76.2792 155 75.0882 153.988 74.4382 152.75C73.7892 151.512 72.6482 150.14 71.9032 149.7C69.8892 148.511 70.2652 145.222 72.5552 143.997C75.2522 142.553 82.5402 144.671 82.5712 146.908C82.6062 149.385 85.7032 152.548 89.5492 154.032C91.4742 154.775 93.4092 155.971 93.8492 156.691C94.2892 157.411 95.5042 158 96.5492 158C97.5942 158 98.8092 158.563 99.2492 159.25C99.6892 159.938 101.624 161.372 103.549 162.437C105.474 163.503 107.526 165.011 108.11 165.789C108.693 166.567 111.393 167.447 114.11 167.746C116.826 168.045 119.274 168.613 119.549 169.01C119.824 169.406 121.034 170.038 122.238 170.413C123.86 170.919 124.711 170.565 125.523 169.048C126.126 167.922 127.302 167 128.136 167C128.97 167 130.124 165.65 130.699 164C131.274 162.35 132.151 161 132.647 161C133.143 161 133.549 160.325 133.549 159.5C133.549 157.208 130.769 157.715 129.434 160.25C127.648 163.643 126.463 164.116 121.549 163.404C119.074 163.046 116.374 162.666 115.549 162.56C111.486 162.038 108.828 160.647 107.163 158.17C105.367 155.498 101.375 153 98.8992 153C98.2112 153 97.2892 152.413 96.8492 151.697C96.4092 150.98 94.2492 149.712 92.0492 148.881L88.0492 147.368L88.3102 141.667C88.5492 136.432 88.3652 135.873 86.0602 134.823C84.6792 134.194 83.5492 133.301 83.5492 132.839C83.5492 132.378 82.8742 132 82.0492 132C81.2242 132 80.5492 132.45 80.5492 133C80.5492 133.55 79.6492 134 78.5492 134C77.4492 134 75.6492 134.9 74.5492 136C73.4492 137.1 72.2072 138 71.7892 138C71.3712 138 69.7962 139.143 68.2892 140.54C64.7962 143.779 64.4012 150.573 67.5492 153.268C70.2602 155.589 70.0842 156.275 66.3552 157.925C63.9992 158.969 63.0602 159.032 62.7722 158.169C62.5532 157.512 60.4482 157 57.9662 157C55.5362 157 53.5492 156.649 53.5492 156.219C53.5492 155.79 52.2032 154.931 50.5592 154.31C48.8012 153.646 47.1332 152.037 46.5132 150.405C45.9322 148.878 44.0682 146.301 42.3702 144.679C39.6872 142.114 39.4972 141.609 40.9162 140.814C41.8142 140.312 42.5492 138.812 42.5492 137.482C42.5492 135.592 42.9322 135.208 44.2992 135.725C45.2612 136.09 46.6442 136.976 47.3702 137.694C49.1452 139.448 55.0522 139.354 56.8632 137.543C57.6642 136.742 60.5092 135.544 63.1842 134.881C65.8602 134.218 68.3542 133.212 68.7272 132.646C69.7102 131.151 77.2542 129.11 79.5622 129.714C80.8582 130.053 82.5372 129.248 84.4662 127.364C91.9872 120.021 95.4872 117 96.4752 117C97.7562 117 97.8682 114.052 96.6612 112.147C95.9602 111.04 95.3702 111.024 93.4262 112.055C92.1192 112.75 90.4612 114.146 89.7422 115.159C89.0242 116.171 87.9622 117 87.3842 117C86.8052 117 84.4682 118.986 82.1912 121.413C79.4902 124.29 76.8312 126.073 74.5492 126.538C72.6242 126.93 70.7182 127.757 70.3142 128.376C69.7932 129.173 69.5752 129.137 69.5642 128.25C69.5562 127.563 68.6492 127 67.5492 127C66.4492 127 65.5492 127.388 65.5492 127.863C65.5492 128.338 62.9612 129.532 59.7992 130.517C56.6372 131.502 53.7182 132.801 53.3142 133.404C52.8502 134.097 52.5742 134.121 52.5642 133.468C52.5562 132.901 50.4872 131.828 47.9662 131.083C45.4452 130.339 43.1472 129.116 42.8592 128.365C41.9022 125.871 36.0212 126.756 32.6552 129.901C28.9702 133.343 28.5822 137.311 31.6292 140.395C35.6952 144.511 39.5172 149.518 39.5332 150.75C39.5422 151.438 39.9552 152 40.4512 152C40.9472 152 41.8092 153.308 42.3662 154.906C42.9232 156.504 44.3172 158.109 45.4642 158.473C46.6112 158.837 47.5492 159.493 47.5492 159.931C47.5492 161.205 59.1932 163.319 62.8992 162.718C66.1732 162.187 66.2452 162.246 65.1652 164.577C64.5512 165.901 63.4872 166.988 62.7992 166.992C62.1122 166.996 61.5492 167.78 61.5492 168.733C61.5492 171.294 51.0242 180.738 47.2612 181.555C45.4942 181.938 43.7272 182.757 43.3342 183.376C42.4302 184.799 19.7222 184.845 18.7362 183.425C18.3582 182.88 15.5742 181.823 12.5492 181.075C9.52417 180.327 6.82417 179.398 6.54917 179.011C6.27417 178.624 4.86317 178.018 3.41317 177.664C1.31617 177.151 0.67117 177.426 0.25717 179.01C-0.52383 181.995 0.53017 184.859 2.65817 185.535C3.69917 185.865 4.98817 186.953 5.52317 187.951C6.05717 188.95 8.04917 190.059 9.94917 190.415C11.8492 190.772 13.5562 191.52 13.7412 192.077C13.9272 192.635 17.1102 193.782 20.8142 194.627C24.5182 195.472 27.5492 196.538 27.5492 196.996C27.5492 197.455 31.0362 198.637 35.2992 199.623C39.5612 200.61 43.2742 201.713 43.5492 202.073C43.8242 202.434 46.6372 203.048 49.8002 203.437C52.9622 203.826 56.1572 204.751 56.8992 205.493C59.0782 207.672 66.0252 209.09 74.3192 209.05C87.2592 208.988 102.549 207.336 102.549 206C102.549 205.553 104.8 204.878 107.552 204.5C110.304 204.121 112.891 203.291 113.302 202.656C114.064 201.477 119.244 199.211 123.299 198.282C124.537 197.999 125.549 197.458 125.549 197.081C125.549 196.704 127.799 195.586 130.549 194.597C133.299 193.608 135.549 192.479 135.549 192.089C135.549 191.698 137.799 190.801 140.549 190.097C143.299 189.392 145.549 188.456 145.549 188.016C145.549 187.577 147.349 186.497 149.549 185.617C151.749 184.736 153.549 183.563 153.549 183.008C153.549 182.454 154.152 182 154.888 182C155.625 182 156.746 180.862 157.38 179.472C158.013 178.081 159.211 176.683 160.04 176.365C160.87 176.047 161.549 175.244 161.549 174.582C161.549 173.919 162.431 172.431 163.509 171.274C164.586 170.117 165.749 168.052 166.092 166.684C166.435 165.317 167.547 163.306 168.563 162.216C169.578 161.126 170.908 158.381 171.517 156.117C172.127 153.853 172.946 151.996 173.338 151.991C173.729 151.987 174.89 149.287 175.917 145.991C176.944 142.696 178.082 140 178.445 140C179.128 140 182.549 129.329 182.549 127.201C182.549 126.54 182.927 126 183.39 126C183.852 126 184.785 123.525 185.462 120.5C186.139 117.475 187.032 115 187.448 115C188.599 115 190.563 100.448 190.556 91.974C190.546 81.572 188.728 68.036 187.124 66.432C186.391 65.699 185.484 63.052 185.109 60.55C184.733 58.047 184.086 56 183.671 56C183.255 56 182.119 52.625 181.147 48.5C180.174 44.375 179.079 40.996 178.714 40.991C178.348 40.987 177.208 38.287 176.181 34.991C175.154 31.696 173.905 29 173.406 29C172.908 29 172.077 27.89 171.562 26.533C170.326 23.284 165.572 18 163.884 18C163.15 18 162.549 17.325 162.549 16.5C162.549 15.675 161.906 15 161.12 15C160.335 15 159.097 14.418 158.37 13.708C154.14 9.571 138.714 8.15 127.645 10.878ZM142.549 25.75C141.724 26.049 140.689 26.902 140.249 27.647C139.809 28.391 138.849 29 138.114 29C136.315 29 133.437 33.543 134.115 35.312C135.146 37.999 139.609 39.153 146.229 38.444C150.617 37.974 152.549 37.344 152.549 36.384C152.549 35.623 153.449 35 154.549 35C158.18 35 156.63 32.311 150.015 27.134C148.46 25.917 144.246 25.136 142.549 25.75ZM114.818 28.656C114.141 28.93 112.791 28.947 111.818 28.693C110.845 28.439 111.399 28.215 113.049 28.195C114.699 28.175 115.495 28.382 114.818 28.656ZM159.549 31C159.549 32.65 159.967 34 160.478 34C160.988 34 162.136 34.73 163.028 35.622C164.524 37.118 164.76 37.099 166.068 35.372C166.847 34.342 167.5 33.163 167.517 32.75C167.581 31.25 163.498 28 161.549 28C159.993 28 159.549 28.667 159.549 31ZM148.187 30.5C148.504 31.325 149.39 32 150.156 32C150.922 32 151.549 32.45 151.549 33C151.549 33.55 150.199 34 148.549 34C146.259 34 145.549 33.546 145.549 32.083C145.549 31.029 144.987 29.94 144.299 29.662C143.612 29.385 144.076 29.122 145.33 29.079C146.585 29.036 147.871 29.675 148.187 30.5ZM158.75 38.854C157.5 39.647 157.667 43.763 159.039 45.984C160.199 47.861 163.549 47.131 163.549 45C163.549 43.9 163.978 43 164.501 43C165.025 43 164.411 41.875 163.137 40.5C160.547 37.706 160.556 37.709 158.75 38.854ZM135.745 42.735C133.287 42.955 131.211 43.717 130.906 44.512C130.612 45.278 128.387 46.202 125.96 46.566C121.912 47.173 119.664 49 122.966 49C123.745 49 124.609 49.563 124.887 50.25C125.29 51.25 125.407 51.25 125.47 50.25C125.622 47.844 129.068 49.017 130.349 51.91C131.839 55.277 133.724 56.245 137.128 55.391C139.23 54.863 139.549 54.204 139.549 50.392C139.549 47.155 139.943 46 141.049 46C141.882 46 142.549 45.111 142.549 44C142.549 42.9 141.987 42.079 141.299 42.175C140.612 42.271 138.112 42.523 135.745 42.735ZM166.549 48.031C166.549 50.958 167.029 52.24 168.299 52.708C169.262 53.064 170.346 53.797 170.708 54.339C171.506 55.532 174.55 52.742 174.546 50.821C174.545 50.095 173.196 48.6 171.549 47.5C169.902 46.4 168.553 45.163 168.552 44.75C168.55 44.337 168.099 44 167.549 44C166.999 44 166.549 45.814 166.549 48.031ZM135.534 50.656C135.543 51.323 134.701 51.591 133.549 51.29C131.332 50.71 130.847 48.41 132.799 47.733C134.13 47.272 135.508 48.745 135.534 50.656ZM65.4202 73.266C65.6242 73.794 66.2212 73.613 66.7462 72.863C67.4882 71.805 67.8152 71.78 68.2082 72.75C68.4872 73.438 70.2452 74 72.1132 74C74.9032 74 75.6232 74.447 76.1382 76.5C76.4832 77.875 77.1902 79 77.7092 79C78.2282 79 79.1242 80.35 79.6992 82C80.2742 83.65 81.0582 85 81.4422 85C81.8252 85 82.9742 87.025 83.9952 89.5C85.0152 91.975 86.1232 94 86.4562 94C86.7882 94 87.6802 95.463 88.4372 97.25C89.1942 99.037 90.5142 101.063 91.3722 101.75C92.7672 102.868 92.7472 103 91.1832 103C88.5082 103 80.1152 100.774 79.5352 99.911C78.9742 99.076 72.4552 98.199 65.9122 98.077L61.7752 98L60.5622 91.568C59.8942 88.031 58.7632 84.913 58.0482 84.638C57.3332 84.364 56.4452 82.343 56.0742 80.148C55.7032 77.953 54.8212 75.935 54.1132 75.663C53.4052 75.391 52.5872 74.253 52.2942 73.132C51.7862 71.191 52.0752 71.124 58.4052 71.7C62.0592 72.033 65.2162 72.737 65.4202 73.266ZM66.5492 85.393C66.5492 88.076 68.3242 89.133 71.4532 88.315C74.2462 87.584 74.1412 84.392 71.2992 83.63C67.4352 82.595 66.5492 82.924 66.5492 85.393ZM110.437 88.922C108.021 91.623 105.084 96.868 105.663 97.448C105.943 97.728 107.242 98.079 108.549 98.228C110.21 98.418 111.294 97.781 112.147 96.115C112.819 94.803 113.848 93.433 114.434 93.071C115.02 92.709 115.623 91.309 115.774 89.96C116.118 86.888 112.829 86.248 110.437 88.922ZM162.976 100.514C162.915 105.971 163.168 107.027 164.476 106.776C166.704 106.347 166.772 94.667 164.549 94.239C163.344 94.007 163.035 95.243 162.976 100.514ZM202.355 111.028C201.423 112.051 200.365 114.463 200.004 116.388C199.538 118.873 198.754 119.976 197.3 120.194C192.357 120.933 193.004 128.512 198.069 129.197C200.292 129.498 200.297 129.535 198.725 134.5C197.855 137.25 196.784 139.65 196.346 139.833C195.179 140.322 195.371 149 196.549 149C197.099 149 197.549 149.624 197.549 150.386C197.549 151.148 199.124 152.52 201.049 153.433C202.974 154.346 204.549 155.502 204.549 156.002C204.549 157.196 210.898 158.383 216.549 158.245C219.909 158.162 221.396 157.611 222.42 156.067C223.175 154.93 224.341 154 225.01 154C225.68 154 226.741 152.875 227.367 151.5C227.994 150.125 229.16 149 229.96 149C230.76 149 231.7 148.1 232.049 147C232.398 145.9 233.115 145 233.641 145C235.473 145 236.706 139.512 236.055 134.25L235.405 129H230.477C226.758 129 225.549 129.369 225.549 130.504C225.549 131.586 226.461 131.936 228.799 131.754L232.049 131.5L232.358 136.952L232.668 142.405L226.487 148.214C223.087 151.409 219.203 154.3 217.856 154.638C213.968 155.614 206.205 154.195 204.549 152.205C203.724 151.214 202.208 150.081 201.18 149.687C199.566 149.069 199.371 148.143 199.749 142.906C199.991 139.57 200.65 136.539 201.215 136.171C201.779 135.802 202.558 134.208 202.944 132.629C203.714 129.489 205.144 127.731 207.721 126.755C209.952 125.911 209.051 122.696 206.237 121.461C204.511 120.703 204.049 119.656 204.049 116.5C204.049 112.626 204.163 112.49 207.669 112.197C210.614 111.951 211.874 112.479 214.419 115.024C216.481 117.085 217.549 119.14 217.549 121.042C217.549 122.946 218.26 124.31 219.635 125.046C222.27 126.456 223.019 125.746 221.63 123.151C221.035 122.04 220.549 119.977 220.549 118.566C220.549 116.952 219.993 116 219.049 116C218.216 116 217.549 115.111 217.549 114C217.549 112.871 216.882 112 216.018 112C215.175 112 214.227 111.325 213.911 110.5C213.044 108.24 204.539 108.629 202.355 111.028ZM207.942 117.582C208.276 118.452 208.549 119.352 208.549 119.582C208.549 119.812 209.674 120 211.049 120C212.882 120 213.549 119.467 213.549 118C213.549 116.429 212.882 116 210.442 116C208.02 116 207.469 116.349 207.942 117.582ZM39.2042 136.543C40.1942 139.124 38.6512 139.486 36.4992 137.177L34.4712 135H36.5412C37.6802 135 38.8782 135.694 39.2042 136.543ZM211.549 136.417C211.549 137.287 211.099 138 210.549 138C209.999 138 209.549 139.35 209.549 141C209.549 143.51 209.946 144 211.978 144C213.313 144 215.154 143.252 216.068 142.338C217.41 140.996 217.889 140.931 218.551 142.003C219.176 143.014 220.149 142.554 222.626 140.077C225.238 137.465 225.601 136.646 224.465 135.927C222.262 134.532 221.549 134.823 221.549 137.117C221.549 138.794 221.1 139.116 219.387 138.668C218.198 138.357 216.401 138.544 215.393 139.083C213.858 139.905 213.601 139.712 213.805 137.892C213.939 136.698 213.487 135.521 212.799 135.277C212.112 135.033 211.549 135.546 211.549 136.417ZM82.5492 141C82.5492 142.1 82.0992 143 81.5492 143C80.9992 143 80.5492 142.812 80.5492 142.582C80.5492 142.352 80.2762 141.452 79.9422 140.582C79.5442 139.544 79.8872 139 80.9422 139C81.8822 139 82.5492 139.83 82.5492 141Z" clip-rule="evenodd"/></svg>