<svg xmlns="http://www.w3.org/2000/svg" width="237" height="210" fill="none"><path fill="#fff" fill-rule="evenodd" d="M107.136 2.491c.652 2.598.411 2.795-4.837 3.945-3.19.699-3.593 2.162-.835 3.037 2.708.859 7.085-.427 7.085-2.081 0-.766.45-1.392 1-1.392 1.642 0 1.131-4.736-.582-5.393-2.394-.919-2.505-.804-1.831 1.884m4.413-.573c0 3.287 1.135 5.082 3.214 5.082 1.413 0 1.822-.464 1.393-1.582-.334-.87-.607-2.445-.607-3.5 0-1.251-.695-1.918-2-1.918s-2 .667-2 1.918m-1 8.199c0 .643-.893.883-2.107.565-2.833-.741-6.893.905-6.893 2.793 0 .858.874 1.525 2 1.525 1.111 0 2 .667 2 1.5 0 .825.402 1.5.893 1.5s1.152-.675 1.469-1.5c.316-.825 1.039-1.5 1.607-1.5.567 0 1.031.675 1.031 1.5s.45 1.5 1 1.5 1-1.313 1-2.918.273-3.63.607-4.5c.398-1.038.055-1.582-1-1.582-.884 0-1.607.502-1.607 1.117m17.096.761c-3.078.758-5.956 1.996-6.396 2.75-.44.755-1.42 1.372-2.178 1.372-.759 0-1.974.59-2.701 1.311-.726.722-2.757 1.945-4.511 2.718-1.755.774-3.429 2.096-3.721 2.939-.842 2.431-2.939 5.389-4.839 6.823-.962.728-1.75 1.972-1.75 2.766S101.143 33 100.647 33c-1.27 0-3.098 5.667-3.098 9.602 0 3.74 1.832 8.504 3.729 9.698.699.44 1.271 1.452 1.271 2.25 0 .797.649 1.45 1.443 1.45s2.085.915 2.868 2.034c1.003 1.432 3.311 2.338 7.784 3.059 3.498.563 6.666 1.52 7.04 2.126.375.605 3.197 1.31 6.273 1.565 5.386.447 5.592.57 5.592 3.34 0 1.582-.429 2.876-.953 2.876s-1.693 1.558-2.597 3.463c-1.976 4.165-2.311 4.285-15.385 5.531-10.149.967-12.927 2.142-13.033 5.515-.018.556-.932 1.572-2.032 2.259s-2 1.82-2 2.518-.844 1.993-1.877 2.876c-1.724 1.477-1.988 1.475-3.252-.027-.756-.899-2.23-3.547-3.275-5.885S86.901 83 86.48 83s-1.539-2.025-2.484-4.5S81.91 74 81.458 74s-1.114-1.575-1.475-3.5c-.475-2.533-1.179-3.5-2.545-3.5-1.039 0-1.889.45-1.889 1 0 1.25-3.712 1.33-4.167.09-.183-.5-5.058-1.421-10.833-2.046S48.586 64.652 46.8 64.34c-3.092-.539-3.25-.416-3.25 2.547 0 1.712.382 3.113.848 3.113.467 0 1.692 1.912 2.723 4.25s2.146 4.475 2.478 4.75 1.47 3.309 2.528 6.741c1.058 3.433 2.261 6.246 2.673 6.25.412.005.795 1.472.85 3.259.245 8.008.465 8.18 10.88 8.478 5.17.148 9.652.647 9.96 1.108 1.083 1.623 5.695 2.344 19.841 3.102 12.149.651 14.482 1.039 15.623 2.6 1.083 1.481 3.097 1.918 10.469 2.27 6.34.303 9.127.094 9.127-.686 0-.617.863-1.122 1.917-1.122s2.066-.388 2.25-.863c.183-.474 4.86-1.12 10.393-1.434 10.868-.618 15.44-2.027 15.44-4.757 0-2.284-2.285-3.072-5.722-1.973-7.93 2.535-33.778 1.025-33.778-1.974 0-.925 1.42-1.696 3.854-2.092 2.12-.344 4.145-1.085 4.5-1.646s3.234-1.596 6.396-2.3c5.894-1.311 7.074-2.78 4.39-5.464-1.147-1.147-2.205-1.114-6.75.208-2.965.862-5.62 1.921-5.9 2.352s-1.856 1.071-3.5 1.42c-8.424 1.791-11.49 2.899-11.49 4.153 0 .753.45 1.37 1 1.37s1 .878 1 1.951c0 1.832-.538 1.915-8.75 1.362-4.812-.325-8.858-.673-8.99-.774-.772-.595 2.583-5.589 4.721-7.026 1.395-.938 3.259-3.398 4.143-5.468l1.607-3.763 8.135-.71c4.474-.39 8.134-1.129 8.134-1.641s1.59-.931 3.533-.931c5.019 0 10.555-5.609 11.204-11.351.448-3.961.635-4.161 4.116-4.408 2.006-.143 4.147-.93 4.757-1.75.611-.82 1.598-1.491 2.194-1.491 1.62 0 4.196-4.127 4.196-6.723 0-2.948-1.435-2.882-4.783.223-1.483 1.375-3.264 2.5-3.957 2.5s-1.26.45-1.26 1c0 .593-3.667 1-9 1-4.95 0-9-.357-9-.793 0-.996-8.113-3.207-11.771-3.207-2.51 0-5.011-2.121-10.265-8.708-1.235-1.548-1.263-9.292-.034-9.292.512 0 1.075-1.013 1.25-2.25.369-2.592 4.997-3.678 7.351-1.724 1.881 1.56 11.469.295 11.469-1.514 0-1.627-4.911-6.914-7.233-7.786-2.705-1.015-1.069-3.306 3.417-4.787 2.245-.74 4.772-2.038 5.617-2.883 1.137-1.136 4.328-1.631 12.274-1.903 9.619-.33 10.722-.191 10.582 1.327-.103 1.114 1.214 2.241 3.843 3.287 2.2.876 4.225 1.895 4.5 2.265s2.175 1.459 4.222 2.421c2.571 1.208 4.254 2.954 5.443 5.648.946 2.144 2.011 3.899 2.367 3.899.357 0 1.264 1.913 2.016 4.25s1.656 4.475 2.008 4.75 1.431 3.763 2.399 7.75 2.093 7.25 2.498 7.25c.851 0 4.047 13.842 4.047 17.528 0 1.36.45 2.472 1 2.472.615 0 1 5 1 13s-.385 13-1 13c-.55 0-1 1.316-1 2.924 0 4.727-2.284 13.248-3.696 13.79-.717.275-1.304 1.372-1.304 2.437 0 3.178-3.179 14.849-4.044 14.849-.441 0-1.321 1.575-1.956 3.5s-1.463 3.5-1.84 3.5-1.523 2.925-2.546 6.5c-1.024 3.575-2.256 6.5-2.738 6.5s-.876.59-.876 1.311c0 .722-.882 2.258-1.96 3.415s-2.254 3.277-2.614 4.712-1.391 3.168-2.29 3.851c-1.865 1.415-3.922 4.404-4.775 6.936-.328.973-2.065 2.004-3.985 2.364-1.872.352-3.735 1.212-4.14 1.912-.752 1.299-9.122 4.499-11.771 4.499-.806 0-1.465.415-1.465.922s-1.675 1.476-3.722 2.151c-2.048.676-4.33 1.836-5.072 2.578S119.757 194 118.964 194c-1.452 0-5.486 1.965-6.415 3.124-.552.69-8.537 2.737-14 3.589-1.925.3-3.779.982-4.12 1.516-.96 1.502-31.105 1.563-31.61.063-.226-.665-3.978-2.011-8.339-2.991-4.362-.981-7.93-2.124-7.93-2.542S45.416 196 44.033 196c-3.52 0-14.485-3.152-14.485-4.164 0-.46-1.237-.908-2.75-.996s2.12-.449 8.07-.803c5.95-.353 11.125-1.125 11.5-1.714.374-.59 2.167-1.394 3.985-1.789 3.25-.705 15.195-11.288 15.195-13.462 0-.551.838-1.45 1.863-1.999 2.35-1.257 5.006-7.283 3.441-7.805-1.185-.395-.557-4.268.692-4.268.733 0 6.74 5.23 12.042 10.485C84.981 170.868 86.653 172 87.3 172c.648 0 1.61.805 2.135 1.79.527.984 2.23 2.446 3.786 3.25 1.555.803 3.7 2.247 4.766 3.21s2.528 1.75 3.25 1.75c.721 0 1.311.45 1.311 1 0 2.074 2.809.897 3.391-1.421.675-2.689-.112-5.579-1.519-5.579-.503 0-1.407-1.079-2.007-2.398-.848-1.86-1.832-2.377-4.385-2.304-2.048.058-4.177-.706-5.636-2.021a906 906 0 0 1-7.273-6.696c-2.71-2.519-5.298-4.581-5.75-4.581s-.82-.675-.82-1.5-.66-1.5-1.466-1.5-1.996-1.012-2.646-2.25-1.79-2.61-2.535-3.05c-2.014-1.189-1.638-4.478.652-5.703 2.697-1.444 9.985.674 10.016 2.911.035 2.477 3.132 5.64 6.978 7.124 1.925.743 3.86 1.939 4.3 2.659S95.504 158 96.55 158s2.26.563 2.7 1.25 2.375 2.122 4.3 3.187c1.925 1.066 3.977 2.574 4.561 3.352.583.778 3.283 1.658 6 1.957s5.164.867 5.439 1.264c.275.396 1.485 1.028 2.689 1.403 1.622.506 2.473.152 3.285-1.365.603-1.126 1.779-2.048 2.613-2.048s1.988-1.35 2.563-3 1.452-3 1.948-3 .902-.675.902-1.5c0-2.292-2.78-1.785-4.115.75-1.786 3.393-2.971 3.866-7.885 3.154a595 595 0 0 0-6-.844c-4.063-.522-6.721-1.913-8.386-4.39-1.796-2.672-5.788-5.17-8.264-5.17-.688 0-1.61-.587-2.05-1.303-.44-.717-2.6-1.985-4.8-2.816l-4-1.513.261-5.701c.24-5.235.055-5.794-2.25-6.844-1.38-.629-2.51-1.522-2.51-1.984s-.676-.839-1.5-.839c-.826 0-1.5.45-1.5 1s-.9 1-2 1-2.9.9-4 2-2.343 2-2.76 2c-.419 0-1.994 1.143-3.5 2.54-3.494 3.239-3.889 10.033-.74 12.728 2.71 2.321 2.534 3.007-1.195 4.657-2.356 1.044-3.295 1.107-3.583.244-.219-.657-2.324-1.169-4.806-1.169-2.43 0-4.417-.351-4.417-.781 0-.429-1.346-1.288-2.99-1.909-1.758-.664-3.426-2.273-4.046-3.905-.58-1.527-2.445-4.104-4.143-5.726-2.683-2.565-2.873-3.07-1.454-3.865.898-.502 1.633-2.002 1.633-3.332 0-1.89.383-2.274 1.75-1.757.962.365 2.345 1.251 3.071 1.969 1.775 1.754 7.682 1.66 9.493-.151.801-.801 3.646-1.999 6.321-2.662 2.676-.663 5.17-1.669 5.543-2.235.983-1.495 8.527-3.536 10.835-2.932 1.296.339 2.975-.466 4.904-2.35C91.987 120.021 95.487 117 96.476 117c1.28 0 1.392-2.948.185-4.853-.7-1.107-1.29-1.123-3.235-.092-1.307.695-2.965 2.091-3.684 3.104-.718 1.012-1.78 1.841-2.358 1.841s-2.916 1.986-5.193 4.413c-2.7 2.877-5.36 4.66-7.642 5.125-1.925.392-3.83 1.219-4.235 1.838-.52.797-.739.761-.75-.126-.008-.687-.915-1.25-2.015-1.25s-2 .388-2 .863-2.588 1.669-5.75 2.654-6.08 2.284-6.485 2.887c-.464.693-.74.717-.75.064-.008-.567-2.077-1.64-4.598-2.385s-4.819-1.967-5.107-2.718c-.957-2.494-6.838-1.609-10.204 1.536-3.685 3.442-4.073 7.41-1.026 10.494 4.066 4.116 7.888 9.123 7.904 10.355.01.688.422 1.25.918 1.25s1.358 1.308 1.915 2.906 1.951 3.203 3.098 3.567 2.085 1.02 2.085 1.458c0 1.274 11.644 3.388 15.35 2.787 3.274-.531 3.346-.472 2.266 1.859-.614 1.324-1.678 2.411-2.366 2.415-.687.004-1.25.788-1.25 1.741 0 2.561-10.525 12.005-14.288 12.822-1.767.383-3.534 1.202-3.927 1.821-.904 1.423-23.612 1.469-24.598.049-.378-.545-3.162-1.602-6.187-2.35s-5.725-1.677-6-2.064-1.686-.993-3.136-1.347c-2.097-.513-2.742-.238-3.156 1.346-.78 2.985.273 5.849 2.401 6.525 1.041.33 2.33 1.418 2.865 2.416.534.999 2.526 2.108 4.426 2.464 1.9.357 3.607 1.105 3.792 1.662.186.558 3.37 1.705 7.073 2.55s6.735 1.911 6.735 2.369 3.487 1.641 7.75 2.627c4.262.987 7.975 2.09 8.25 2.45s3.088.975 6.251 1.364c3.162.389 6.357 1.314 7.1 2.056 2.178 2.179 9.125 3.597 17.42 3.557 12.94-.062 28.229-1.714 28.229-3.05 0-.447 2.251-1.122 5.003-1.5 2.752-.379 5.339-1.209 5.75-1.844.762-1.179 5.942-3.445 9.997-4.374 1.238-.283 2.25-.824 2.25-1.201s2.25-1.495 5-2.484 5-2.118 5-2.508 2.25-1.288 5-1.992c2.75-.705 5-1.641 5-2.081s1.8-1.519 4-2.399 4-2.054 4-2.609c0-.554.603-1.008 1.339-1.008.737 0 1.858-1.138 2.492-2.528s1.831-2.789 2.66-3.107 1.509-1.121 1.509-1.783c0-.663.882-2.151 1.96-3.308s2.24-3.222 2.583-4.59 1.455-3.378 2.471-4.468c1.015-1.09 2.345-3.835 2.954-6.099.61-2.264 1.429-4.121 1.821-4.126s1.552-2.704 2.579-6 2.165-5.991 2.528-5.991c.683 0 4.104-10.671 4.104-12.799 0-.661.378-1.201.841-1.201s1.395-2.475 2.072-5.5 1.57-5.5 1.986-5.5c1.151 0 3.115-14.552 3.108-23.026-.01-10.402-1.828-23.938-3.432-25.542-.733-.733-1.64-3.38-2.015-5.882-.376-2.503-1.023-4.55-1.438-4.55s-1.552-3.375-2.524-7.5c-.973-4.125-2.068-7.504-2.433-7.509-.366-.004-1.506-2.704-2.533-6S173.905 29 173.406 29c-.498 0-1.329-1.11-1.844-2.467-1.236-3.249-5.99-8.533-7.678-8.533-.734 0-1.335-.675-1.335-1.5s-.643-1.5-1.429-1.5c-.785 0-2.023-.582-2.75-1.292-4.23-4.137-19.656-5.558-30.725-2.83m14.904 14.872c-.825.299-1.86 1.152-2.3 1.897-.44.744-1.4 1.353-2.135 1.353-1.799 0-4.677 4.543-3.999 6.312 1.031 2.687 5.494 3.841 12.114 3.132 4.388-.47 6.32-1.1 6.32-2.06 0-.761.9-1.384 2-1.384 3.631 0 2.081-2.689-4.534-7.866-1.555-1.217-5.769-1.998-7.466-1.384m-27.731 2.906c-.677.274-2.027.291-3 .037s-.419-.478 1.231-.498 2.446.187 1.769.461M159.549 31c0 1.65.418 3 .929 3 .51 0 1.658.73 2.55 1.622 1.496 1.496 1.732 1.477 3.04-.25.779-1.03 1.432-2.209 1.449-2.622.064-1.5-4.019-4.75-5.968-4.75-1.556 0-2 .667-2 3m-11.362-.5c.317.825 1.203 1.5 1.969 1.5s1.393.45 1.393 1-1.35 1-3 1c-2.29 0-3-.454-3-1.917 0-1.054-.562-2.143-1.25-2.421-.687-.277-.223-.54 1.031-.583s2.541.596 2.857 1.421m10.563 8.354c-1.25.793-1.083 4.909.289 7.13 1.16 1.877 4.51 1.147 4.51-.984 0-1.1.429-2 .952-2 .524 0-.09-1.125-1.364-2.5-2.59-2.794-2.581-2.791-4.387-1.646m-23.005 3.881c-2.458.22-4.534.982-4.839 1.777-.294.766-2.519 1.69-4.946 2.054-4.048.607-6.296 2.434-2.994 2.434.779 0 1.643.563 1.921 1.25.403 1 .52 1 .583 0 .152-2.406 3.598-1.233 4.879 1.66 1.49 3.367 3.375 4.335 6.779 3.481 2.102-.528 2.421-1.187 2.421-4.999 0-3.237.394-4.392 1.5-4.392.833 0 1.5-.889 1.5-2 0-1.1-.562-1.921-1.25-1.825s-3.187.348-5.554.56m30.804 5.296c0 2.927.48 4.209 1.75 4.677.963.356 2.047 1.089 2.409 1.631.798 1.193 3.842-1.597 3.838-3.518-.001-.726-1.35-2.221-2.997-3.321s-2.996-2.337-2.997-2.75c-.002-.413-.453-.75-1.003-.75s-1 1.814-1 4.031m-31.015 2.625c.009.667-.833.935-1.985.634-2.217-.58-2.702-2.88-.75-3.557 1.331-.461 2.709 1.012 2.735 2.923M65.42 73.266c.204.528.801.347 1.326-.403.742-1.058 1.07-1.083 1.462-.113.28.688 2.037 1.25 3.905 1.25 2.79 0 3.51.447 4.025 2.5.345 1.375 1.052 2.5 1.571 2.5.52 0 1.415 1.35 1.99 3s1.36 3 1.743 3 1.532 2.025 2.553 4.5 2.128 4.5 2.461 4.5 1.224 1.463 1.981 3.25 2.077 3.813 2.935 4.5c1.395 1.118 1.375 1.25-.189 1.25-2.675 0-11.068-2.226-11.648-3.089-.56-.835-7.08-1.712-13.623-1.834L61.775 98l-1.213-6.432c-.668-3.537-1.799-6.655-2.514-6.93s-1.603-2.295-1.974-4.49c-.37-2.195-1.253-4.213-1.96-4.485-.709-.272-1.527-1.41-1.82-2.531-.508-1.941-.219-2.008 6.111-1.432 3.654.333 6.811 1.037 7.015 1.566m1.13 12.127c0 2.683 1.774 3.74 4.903 2.922 2.793-.731 2.688-3.923-.154-4.685-3.864-1.035-4.75-.706-4.75 1.763m43.887 3.529c-2.416 2.701-5.353 7.946-4.774 8.526.28.28 1.579.631 2.886.78 1.661.19 2.745-.447 3.598-2.113.672-1.312 1.701-2.682 2.287-3.044s1.189-1.762 1.34-3.111c.344-3.072-2.945-3.712-5.337-1.038m52.539 11.592c-.061 5.457.192 6.513 1.5 6.262 2.228-.429 2.296-12.109.073-12.537-1.205-.232-1.514 1.004-1.573 6.275m39.379 10.514c-.932 1.023-1.99 3.435-2.351 5.36-.466 2.485-1.25 3.588-2.704 3.806-4.943.739-4.296 8.318.769 9.003 2.223.301 2.228.338.656 5.303-.87 2.75-1.941 5.15-2.379 5.333-1.167.489-.975 9.167.203 9.167.55 0 1 .624 1 1.386s1.575 2.134 3.5 3.047 3.5 2.069 3.5 2.569c0 1.194 6.349 2.381 12 2.243 3.36-.083 4.847-.634 5.871-2.178.755-1.137 1.921-2.067 2.59-2.067.67 0 1.731-1.125 2.357-2.5s1.793-2.5 2.593-2.5 1.74-.9 2.089-2 1.066-2 1.592-2c1.832 0 3.065-5.488 2.414-10.75l-.65-5.25h-4.928c-3.719 0-4.928.369-4.928 1.504 0 1.082.912 1.432 3.25 1.25l3.25-.254.309 5.452.31 5.453-6.181 5.809c-3.4 3.195-7.284 6.086-8.631 6.424-3.888.976-11.651-.443-13.307-2.433-.825-.991-2.341-2.124-3.369-2.518-1.614-.618-1.809-1.544-1.431-6.781.242-3.336.901-6.367 1.466-6.735.564-.369 1.343-1.963 1.729-3.542.77-3.14 2.2-4.898 4.777-5.874 2.231-.844 1.33-4.059-1.484-5.294-1.726-.758-2.188-1.805-2.188-4.961 0-3.874.114-4.01 3.62-4.303 2.945-.246 4.205.282 6.75 2.827 2.062 2.061 3.13 4.116 3.13 6.018 0 1.904.711 3.268 2.086 4.004 2.635 1.41 3.384.7 1.995-1.895-.595-1.111-1.081-3.174-1.081-4.585 0-1.614-.556-2.566-1.5-2.566-.833 0-1.5-.889-1.5-2 0-1.129-.667-2-1.531-2-.843 0-1.791-.675-2.107-1.5-.867-2.26-9.372-1.871-11.556.528m5.587 6.554c.334.87.607 1.77.607 2s1.125.418 2.5.418c1.833 0 2.5-.533 2.5-2 0-1.571-.667-2-3.107-2-2.422 0-2.973.349-2.5 1.582M39.204 136.543c.99 2.581-.553 2.943-2.705.634L34.471 135h2.07c1.14 0 2.337.694 2.663 1.543m172.345-.126c0 .87-.45 1.583-1 1.583s-1 1.35-1 3c0 2.51.397 3 2.429 3 1.335 0 3.176-.748 4.09-1.662 1.342-1.342 1.821-1.407 2.483-.335.625 1.011 1.598.551 4.075-1.926 2.612-2.612 2.975-3.431 1.839-4.15-2.203-1.395-2.916-1.104-2.916 1.19 0 1.677-.449 1.999-2.162 1.551-1.189-.311-2.986-.124-3.994.415-1.535.822-1.792.629-1.588-1.191.134-1.194-.318-2.371-1.006-2.615s-1.25.269-1.25 1.14m-129 4.583c0 1.1-.45 2-1 2s-1-.188-1-.418-.273-1.13-.607-2c-.398-1.038-.055-1.582 1-1.582.94 0 1.607.83 1.607 2" clip-rule="evenodd"/></svg>