<svg xmlns="http://www.w3.org/2000/svg" width="667" height="249" fill="none"><path fill="#484BFE" fill-opacity=".41" d="m12.482 224.163-5.563 21.121a1 1 0 0 0 .967 1.255h12.34l22.934-2.913q.08-.01.16-.007l63.845 2.189 63.926-4.019 110.804 4.019c7.103 0 22.502-.438 27.275-2.192s12.217-.731 15.342 0l21.23 2.184a1 1 0 0 0 .157.004l39.981-2.188 121.033 2.192 20.359-2.182q.097-.01.195-.002l24.542 2.177q.078.007.156.002l32.311-2.187 54.45 2.188a1 1 0 0 0 .199-.012l13.311-2.14c.149-.024.292-.081.416-.168l8.761-6.147a1 1 0 0 0 .426-.818v-10.162a1 1 0 0 0-.146-.52l-4.822-7.926a1 1 0 0 1-.146-.519v-22.047c0-.213.068-.421.195-.593l4.511-6.124a1 1 0 0 0 .036-1.133l-8.736-13.62a1 1 0 0 1-.098-.883l4.031-11.061q.06-.166.061-.343v-36.766c0-.213.068-.421.195-.593l4.529-6.149a1 1 0 0 0 .059-1.097l-4.511-7.735a1 1 0 0 1-.03-.951l4.75-9.504a1 1 0 0 0 .104-.515l-5.075-75.417a1 1 0 0 1 .144-.587l4.555-7.485a1 1 0 0 0-.123-1.203l-4.328-4.638a1 1 0 0 1-.269-.682V5.462a1 1 0 0 0-.806-.981l-10.116-2.002a1 1 0 0 0-.319-.011L611 6.82a1 1 0 0 1-.204.005l-54.358-4.37a1 1 0 0 0-.176.001c-7.426.736-23.459 2.407-28.893 3.28-5.414.87-15.752-1.066-20.352-2.167a1 1 0 0 0-.215-.027l-65.519-1.094-28.98 3.289L335.7 6.83a1 1 0 0 1-.213-.02l-15.991-3.247a1 1 0 0 0-.199-.02h-58.711c-3.693.366-11.591 1.096-13.637 1.096-2.009 0-8.564-1.409-11.759-2.152a1 1 0 0 0-.353-.017l-25.316 3.256a1 1 0 0 1-.151.008L70.514 2.448 29.693 4.635a1 1 0 0 1-.181-.006L13.393 2.556a1 1 0 0 0-1.084.7l-2.235 7.348a1 1 0 0 1-.263.429l-2.292 2.21a1 1 0 0 0 .172 1.573l3.647 2.233a1 1 0 0 1 .1 1.635L7.15 22.1a1 1 0 0 0-.318 1.12l3.108 8.663a1 1 0 0 1 .06.338v22.354q0 .127.031.25l2.477 9.557q.048.186.024.377L9.998 84.664c-1.136 4.872-3.41 15.128-3.41 17.174 0 2.014 3.852 15.514 5.87 22.328a1 1 0 0 1-.031.65l-5.722 14.368a1 1 0 0 0-.045.597l5.817 24.936a1 1 0 0 1-.068.65l-5.652 12.115a1 1 0 0 0-.042.739l3.199 9.6a1 1 0 0 1 .031.515L6.64 204.63a1 1 0 0 0 .026.499l5.803 18.48a1 1 0 0 1 .013.554"/><path fill="url(#a)" fill-opacity=".41" d="M8.445 27.19 1.413 8.63a.967.967 0 0 1 .714-1.307l13.027-2.506q.15-.03.306-.01L38.354 7.53q.08.009.16.006l63.746-2.665 64.081 3.543 110.623-4.845c7.102-.052 22.516.271 27.36 1.99 4.844 1.717 12.245.639 15.34-.115l21.138-2.342a1 1 0 0 1 .156-.005l40.065 1.89 120.925-3.094 20.444 2.03a1 1 0 0 0 .195 0l24.45-2.359q.078-.007.156-.003l32.395 1.946L633.94.914q.1-.005.2.01l13.396 2.04c.151.023.296.08.423.166l9.012 6.08c.274.186.445.49.459.815l.415 10.161a.97.97 0 0 1-.124.52l-4.498 7.961a1 1 0 0 0-.125.52l.512 12.507.39 9.537c.009.213.085.42.219.59l4.761 6.091c.259.332.292.782.083 1.132l-8.179 13.684a.99.99 0 0 0-.062.882l4.484 11.03q.066.166.074.342l.546 13.341.957 23.42c.009.213.086.42.219.591l4.781 6.115c.249.319.29.749.103 1.095l-4.194 7.769a1 1 0 0 0 .008.949l5.139 9.469c.086.158.129.335.125.513l-1.991 75.443c-.005.206.053.41.167.585l4.862 7.452a.99.99 0 0 1-.074 1.202l-4.139 4.671a.96.96 0 0 0-.24.683l.114 2.805a.96.96 0 0 1-.765.986l-10.033 2.076a1 1 0 0 1-.318.014l-34.856-4.093a1 1 0 0 0-.205-.003l-54.171 4.774q-.089.007-.176 0c-7.455-.68-23.554-2.232-29.023-3.065-5.448-.83-15.706 1.184-20.26 2.319a1 1 0 0 1-.214.028l-65.465 1.583-29.11-3.072-76.636-.524a1 1 0 0 0-.212.021l-15.855 3.366a1 1 0 0 1-.199.021l-58.701.438c-3.708-.338-11.635-1.01-13.681-.995-2.008.015-8.504 1.473-11.669 2.24a1 1 0 0 1-.352.02l-25.445-3.067a1 1 0 0 0-.152-.007l-138.7 4.321-40.904-1.883a1 1 0 0 0-.181.008l-16.031 2.193a1.04 1.04 0 0 1-1.113-.693l-2.536-7.33a1.04 1.04 0 0 0-.28-.426l-2.383-2.195c-.489-.45-.436-1.226.108-1.572l3.557-2.261c.576-.367.593-1.206.033-1.634l-4.43-3.384a1.02 1.02 0 0 1-.363-1.116l2.754-8.685a1 1 0 0 0 .045-.338l-.665-16.267-.249-6.084a1 1 0 0 1 .022-.25l2.085-9.574a1 1 0 0 0 .01-.377l-3.347-19.885c-1.336-4.862-4.028-15.1-4.111-17.146-.083-2.013 3.216-15.54 4.955-22.368a1 1 0 0 0-.057-.648l-6.31-14.324a1 1 0 0 1-.068-.596l4.796-24.976a1 1 0 0 0-.094-.649L4.661 73.934a1 1 0 0 1-.072-.737l2.806-9.623a1 1 0 0 0 .01-.515l-3.97-16.268a1 1 0 0 1 .005-.498l5.037-18.485a1 1 0 0 0-.032-.618"/><path fill="url(#b)" fill-opacity=".41" d="m652.36 218.639 12.984 19.406c.434.649.016 1.502-.752 1.534l-19.024.793a1 1 0 0 1-.159-.007l-22.488-2.66a1 1 0 0 0-.159-.006l-62.42 2.601-62.745-3.447-108.324 4.727c-6.954.052-22.048-.262-26.79-1.936s-11.99-.622-15.021.113l-20.697 2.283a1 1 0 0 1-.156.005l-39.23-1.839-118.409 3.023-20.017-1.977a1 1 0 0 0-.195 0l-23.939 2.3a1 1 0 0 1-.155.003l-31.72-1.894-53.32 2.536h-17.31c-.863 0-1.354-1.019-.802-1.664l1.169-1.364c.384-.448.278-1.143-.227-1.485l-5.271-3.566a1.04 1.04 0 0 1-.458-.814l-.402-9.879a1 1 0 0 1 .125-.522l4.4-7.742a1 1 0 0 0 .125-.522l-.495-12.177-.378-9.281a1.03 1.03 0 0 0-.22-.593l-4.642-5.91a1 1 0 0 1-.083-1.135l7.996-13.304a.99.99 0 0 0 .063-.885l-4.379-10.728a1 1 0 0 1-.075-.343l-.529-12.993-.928-22.807a1.03 1.03 0 0 0-.22-.592l-4.662-5.935a1.01 1.01 0 0 1-.104-1.099l4.094-7.538a1 1 0 0 0-.008-.954l-5.017-9.203a1 1 0 0 1-.125-.515l1.976-73.484a1 1 0 0 0-.168-.588l-4.74-7.233a.99.99 0 0 1 .075-1.205l4.033-4.527a.97.97 0 0 0 .242-.686l-.11-2.698a.96.96 0 0 1 .767-.987l9.805-2.02a1 1 0 0 1 .316-.013l34.126 3.984a1 1 0 0 0 .203.004l53.043-4.655a1 1 0 0 1 .175 0c7.3.662 23.062 2.173 28.417 2.984 5.334.808 15.377-1.154 19.837-2.26a1 1 0 0 1 .213-.029l64.102-1.546 28.503 2.992 75.039.505a1 1 0 0 0 .212-.022l15.523-3.28a1 1 0 0 1 .198-.02l57.479-.43c3.63.328 11.392.982 13.395.967 1.966-.014 8.325-1.434 11.425-2.181a1 1 0 0 1 .35-.02l24.91 2.985q.076.01.151.007l135.815-4.219 40.052 1.832a1 1 0 0 0 .18-.008l15.68-2.135c.481-.066.951.226 1.112.69l2.472 7.116c.056.163.153.31.281.427l2.3 2.109c.492.45.438 1.23-.108 1.575l-3.422 2.164c-.579.366-.596 1.209-.034 1.637l4.289 3.26c.347.264.494.714.365 1.12l-2.692 8.437a1 1 0 0 0-.046.339l.645 15.843.242 5.923q.005.128-.022.252l-2.044 9.318a1 1 0 0 0-.009.378l3.268 19.367c1.306 4.738 3.938 14.712 4.019 16.705.08 1.96-3.152 15.127-4.858 21.783a1 1 0 0 0 .058.651l6.164 13.937c.084.189.108.398.07.598l-4.703 24.315a1 1 0 0 0 .095.651l6.004 11.741a1 1 0 0 1 .073.74l-2.746 9.357a1 1 0 0 0-.01.517l3.878 15.833a1 1 0 0 1-.006.5l-4.899 17.866c-.077.279-.026.582.139.829"/><defs><linearGradient id="a" x1="278.623" x2="307.397" y1="3.66" y2="253.964" gradientUnits="userSpaceOnUse"><stop stop-color="#4646AC"/><stop offset="1" stop-color="#263A6F"/></linearGradient><linearGradient id="b" x1="323.343" x2="332.372" y1="236.942" y2="5.89" gradientUnits="userSpaceOnUse"><stop stop-color="#BE54FF"/><stop offset="1" stop-color="#9C6AFF"/></linearGradient></defs></svg>