<svg xmlns="http://www.w3.org/2000/svg" width="280" height="158" fill="none"><clipPath id="a"><path d="M0 0h280v157.5H0z"/></clipPath><mask id="b" fill="#fff"><path fill-rule="evenodd" d="M119.139 32.17c1.704-.298 26.048-3.496 61.254 38.26 33.255 39.442 86.743 34.905 96.572 33.609.326-.044.571.555.314.759l-14.498 11.557a.392.392 0 0 0 .077.663c1.996.933 8.965 4.169 16.855 7.598.327.141.345.595.008.712-7.507 2.598-60.039 19.928-89.231 6.781-31.489-14.184-45.229-29.22-62.86-43.852C110.268 73.849 100.039 66.55 87 63.1c0 0 24.99-23.682 30.843-29.625a96 96 0 0 1 1.296-1.305" clip-rule="evenodd"/></mask><g clip-path="url(#a)"><path fill="#fff" fill-rule="evenodd" d="M5.456 0s-.304 2.704-.698 7.143C3.355 22.954.808 60.77 6.784 76.699 14.437 97.1 26.664 98 26.664 98s60.633-41 60.335-39.7-.994-5-7.952-16.7S72.03 5.7 72.03 0" clip-rule="evenodd"/><path stroke="#17171d" stroke-linecap="round" stroke-linejoin="round" stroke-width="3" d="M5.32 0S-.82 56.3 6.88 76.7c7.7 20.399 23.763 22.86 23.763 22.86s59.04-33.12 58-38.925c-1.04-5.807-4.004-11.299-11.004-22.998S72.57 5.7 72.57 0"/><g fill-rule="evenodd" clip-rule="evenodd"><path fill="#fff" stroke="#17171d" stroke-linecap="round" stroke-linejoin="round" stroke-width="3" d="M88.092 59.766c-3.008-3.474-9.1-11.2-38.4 6s-25.9 30.1-22.5 32.4 11.1 5.6 41.1-6.6 22.808-28.326 19.8-31.8"/><path fill="#ec3750" stroke="#17171d" stroke-width="6" d="M119.139 32.17c1.704-.298 26.048-3.496 61.254 38.26 33.255 39.442 86.743 34.905 96.572 33.609.326-.044.571.555.314.759l-14.498 11.557a.392.392 0 0 0 .077.663c1.996.933 8.965 4.169 16.855 7.598.327.141.345.595.008.712-7.507 2.598-60.039 19.928-89.231 6.781-31.489-14.184-45.229-29.22-62.86-43.852C110.268 73.849 100.039 66.55 87 63.1c0 0 24.99-23.682 30.843-29.625a96 96 0 0 1 1.296-1.305z" mask="url(#b)"/><path fill="#fff" d="M127.091 44.619c-1.695 2.486-4.703 6.714-9.333 11.844-8.312 7.761-.78 9.277 2.965 6.184a298 298 0 0 0 4.413-3.517l5.077 5.117s-1.753 2.572-3.299 4.657c-4.629 5.13 1.315 6.94 4.866 3.21 1.718-1.967 9.226-10.028 12.381-14.659 2.79-2.615-.473-7.621-4.892-3.354-1.972 1.415-5.662 4.798-5.662 4.798s-4.224-4.154-4.193-4.384c.034-.605 1.255-1.656 1.842-2.888 3.57-8.75-1.886-10.352-4.165-7.008m23.505 19.288c2.963-2.407 4.991-2.12 6.261-1.378.555.307.81 1.83.902 3.223-1.376 8.285-11.019 20.319-12.052 20.954-3.69 2.49-7.145.148-4.042-2.94a120 120 0 0 1 3.325-3.703l-4.609-2.727c-7.149 5.69-9.18 1.044-5.763-1.266 3.801-2.797 12.002-8.977 15.978-12.163m-5.892 8.799 4.416 2.97s5.123-7.825 3.229-7.609zm28.148 8.337c1.436-1.5 1.937-6.127-2.965-7.525-6.683-2.952-14.245 7.68-14.245 7.68s-3.653 5.155-3.641 9.794c-.085 4.43 3.761 6.176 4.467 6.607 4.964.655 4.779-2.932 4.073-3.363-.929-.477-2.291-.902-2.95-2.223-1.127-2.221.818-5.696 2.079-7.468 2.376-2.865 7.293-8.466 9.751-5.447.808 3.292 2.648 2.776 3.431 1.945m4.365 1.722c-2.783 3.049-3.012 7.478-9.006 12.968-1.449 1.348-4.535 3.627-4.933 3.968-3.006 2.343-.527 5.638 5.52 1.902 1.433-.832 3.818-3.54 3.818-3.54l1.658.534s-1.355 6.691-2.208 9.434c-.792 2.662 3.011 6.092 5.293 1.196.602-1.76 1.042-4.307 1.242-7.704 0 0 .233-2.45-.342-3.04 0 0 7.181-2.699 8.516-4.4 1.398-1.782 1.123-3.583-4.23-2.058-5.351 1.525-6.273 2.37-6.273 2.37s2.78-3.71 4.096-6.875c1.825-3.154-.815-7.237-3.151-4.755m22.21 17.53c-2.407.9-4.849 3.525-6.843 8.263-2.918 7.099-1.83 12.423 3.477 13.851 5.309 1.428 5.752-2.667 5.35-2.989-.322-.26-.226-.721-2.597-.872-2.374-.151-3.5-1.73-3.382-5.411.102-2.48 1.482-6.767 4.035-8.359.76-.47 1.275-.46 1.566-.496 1.163-.146 1.855.815 1.953 1.026 1.721 3 3.144 1.177 3.052-1.056-.656-3.358-2.816-4.957-6.611-3.957m10.937 5.693c1.171-2.666 4.834-3.478 3.123 2.893-.537 4.373-4.181 11.653-3.919 12.597s4.945 1.901 6.271 2.031c1.324.132 3.215 1.595 2.218 2.532-.919 1.002-2.067.619-2.357.654s-11.18-1.445-10.684-3.502c.498-2.056.868-2.939 1.963-6.33s2.213-8.209 3.385-10.875m12.501 2.597c.655-2.014 3.141-2.305 3.366.275.155 1.992-1.952 9.389-1.836 12.95.251 1.533 1.767 2.473 3.015 1.731 1.636-1.234 2.832-5.619 3.756-9.154.316-1.749.405-3.156.824-4.024 1.676-2.803 3.732-1.033 3.474 2.497-.598 3.794-2.095 9.684-3.451 11.407-1.292 1.641-2.825 3.757-5.477 3.249-.684-.143-6.2-1.73-5.469-8.22.924-6.737 1.142-8.698 1.798-10.711m18.765 1.61c4.054-.49 6.741-.074 8.305 1.441.79 1.163.666 3.328-.344 4.784a14.6 14.6 0 0 1-2.041 2.099c1.806 1.042 2.34 3.552 1.587 6.183s-4.125 3.906-9.097 3.397c-1.642-.246-3.188-.948-3.029-1.487.401-1.012 2.048-14.475 2.048-14.475.208-.767.174-1.725 2.571-1.942m.375 2.697-.088 4.456s4.57.188 5.049-2.092c.477-2.282-2.515-2.141-4.961-2.364m-.838 7.585s-.972 5.083-.924 4.855c.112-.31 6.286 1.114 6.407-2.385.121-3.497-5.483-2.47-5.483-2.47"/></g><path fill="#17171d" d="m90 60-42 40.362 3.379 1.505L92.5 62z"/><path d="M75 72.658c.7 1.7 7.5 8.6 3.8 9.6s-2.4 9.5 4.9 7.6 9.6-11.5 2.6-15.5-11.3-1.7-11.3-1.7" style="fill-rule:evenodd;clip-rule:evenodd;fill:#fff;stroke:#252429;stroke-width:3;stroke-linecap:round;stroke-linejoin:round"/><path d="M62 81.658c.7 1.7 7.5 8.6 3.8 9.6s-2.4 9.5 4.9 7.6 9.6-11.5 2.6-15.5-11.3-1.7-11.3-1.7" style="fill-rule:evenodd;clip-rule:evenodd;fill:#fff;stroke:#252429;stroke-width:3;stroke-linecap:round;stroke-linejoin:round"/><path d="M49 90.658c.7 1.7 7.5 8.6 3.8 9.6s-2.4 9.5 4.9 7.6 9.6-11.5 2.6-15.5-11.3-1.7-11.3-1.7" style="fill-rule:evenodd;clip-rule:evenodd;fill:#fff;stroke:#252429;stroke-width:3;stroke-linecap:round;stroke-linejoin:round"/></g></svg>