<svg width="377" height="123" viewBox="0 0 377 123" fill="none" xmlns="http://www.w3.org/2000/svg">
<g clip-path="url(#clip0_1277_7130)">
<path d="M-0.408112 1.4624C-0.166858 0.597907 0.620755 0 1.51828 0H391.78C392.769 0 393.609 0.722679 393.758 1.70039L395.958 16.2253C395.986 16.4076 395.988 16.5927 395.965 16.7756L384 111.5L380.817 127.869C380.633 128.814 379.802 129.495 378.839 129.487L-6.19625 126.522C-7.56961 126.511 -8.52393 125.151 -8.06683 123.856L-0.140006 101.397C-0.0476788 101.135 -0.0107812 100.857 -0.0316583 100.581L-5.97358 21.85C-5.99106 21.6184 -5.96807 21.3856 -5.90565 21.1619L-0.408112 1.4624Z" fill="#A47B52"/>
<path d="M66 42.5L86.5 -2H99L71 42.5V55.5L57 89.5L66 58V42.5Z" fill="#BE945E" stroke="#BE945E"/>
<path d="M206.5 93.8525L231.5 -5H244L211.5 93.8525V113.033L202 130L206.5 116.721V93.8525Z" fill="#BE945E" stroke="#BE945E"/>
<path d="M227.415 83.6198L302.842 -24.3274L314.261 -19.2432L231.983 85.6535L221.779 108.572L204.074 124.981L215.249 110.945L227.415 83.6198Z" fill="#BE945E" stroke="#BE945E"/>
<path d="M119.5 31.9508L94.5 133H82L114.5 31.9508V12.3443L124 -5L119.5 8.57377V31.9508Z" fill="#BE945E" stroke="#BE945E"/>
<path d="M328.788 58.6474L312.14 128.195L299.733 129.718L323.825 59.2568L322.241 46.3537L330.269 33.7816L326.899 43.263L328.788 58.6474Z" fill="#BE945E" stroke="#BE945E"/>
<rect x="-26" y="-16" width="430" height="155" fill="url(#paint0_linear_1277_7130)" fill-opacity="0.5"/>
</g>
<defs>
<linearGradient id="paint0_linear_1277_7130" x1="-26" y1="61.5" x2="404" y2="61.5" gradientUnits="userSpaceOnUse">
<stop stopColor="#700054"/>
<stop offset="0.545" stopColor="#610616"/>
<stop offset="1" stopColor="#753006"/>
</linearGradient>
<clipPath id="clip0_1277_7130">
<rect width="377" height="123" fill="white"/>
</clipPath>
</defs>
</svg>
