<svg width="377" height="123" viewBox="0 0 377 123" fill="none" xmlns="http://www.w3.org/2000/svg">
<g clip-path="url(#clip0_1277_7130)">
<path d="M0.104994 2.09988C0.0478755 0.95751 0.958704 0 2.1025 0H370.831C371.797 0 372.626 0.691248 372.799 1.64223L374.468 10.8226C374.489 10.9406 374.5 11.0604 374.5 11.1803V108.329C374.5 108.443 374.51 108.556 374.529 108.669L376.597 120.66C376.807 121.883 375.866 123 374.626 123H2.91117C1.84192 123 0.961771 122.159 0.913219 121.091L0 101L1 20L0.104994 2.09988Z" fill="#A47B52"/>
<mask id="mask0_1277_7130" style="mask-type:alpha" maskUnits="userSpaceOnUse" x="0" y="0" width="377" height="123">
<path d="M0.104994 2.09988C0.0478755 0.95751 0.958704 0 2.1025 0H370.831C371.797 0 372.626 0.691248 372.799 1.64223L374.468 10.8226C374.489 10.9406 374.5 11.0604 374.5 11.1803V108.329C374.5 108.443 374.51 108.556 374.529 108.669L376.597 120.66C376.807 121.883 375.866 123 374.626 123H2.91117C1.84192 123 0.961771 122.159 0.913219 121.091L0 101L1 20L0.104994 2.09988Z" fill="#A47B52"/>
</mask>
<g mask="url(#mask0_1277_7130)">
<path d="M66 42.5L86.5 -2H99L71 42.5V55.5L57 89.5L66 58V42.5Z" fill="#BE945E" stroke="#BE945E"/>
<path d="M206.5 93.8525L231.5 -5H244L211.5 93.8525V113.033L202 130L206.5 116.721V93.8525Z" fill="#BE945E" stroke="#BE945E"/>
<path d="M227.415 83.6198L302.842 -24.3274L314.261 -19.2432L231.983 85.6535L221.779 108.572L204.074 124.981L215.249 110.945L227.415 83.6198Z" fill="#BE945E" stroke="#BE945E"/>
<path d="M119.5 31.9508L94.5 133H82L114.5 31.9508V12.3443L124 -5L119.5 8.57377V31.9508Z" fill="#BE945E" stroke="#BE945E"/>
<path d="M328.788 58.6474L312.14 128.195L299.733 129.718L323.825 59.2568L322.241 46.3537L330.269 33.7816L326.899 43.263L328.788 58.6474Z" fill="#BE945E" stroke="#BE945E"/>
<rect x="-26" y="-16" width="430" height="155" fill="url(#paint0_linear_1277_7130)" fill-opacity="0.5"/>
</g>
</g>
<defs>
<linearGradient id="paint0_linear_1277_7130" x1="-26" y1="61.5" x2="404" y2="61.5" gradientUnits="userSpaceOnUse">
<stop stop-color="#700054"/>
<stop offset="0.545" stop-color="#610616"/>
<stop offset="1" stop-color="#753006"/>
</linearGradient>
<clipPath id="clip0_1277_7130">
<rect width="377" height="123" fill="white"/>
</clipPath>
</defs>
</svg>
