<svg xmlns="http://www.w3.org/2000/svg" width="377" height="123" fill="none"><g clip-path="url(#a)"><path fill="#A47B52" d="M-.408 1.462A2 2 0 0 1 1.518 0H391.78c.989 0 1.829.723 1.978 1.7l2.2 14.525q.042.276.007.55L384 111.5l-3.183 16.369a2 2 0 0 1-1.978 1.618l-385.035-2.965a2 2 0 0 1-1.87-2.666l7.926-22.459c.092-.262.13-.54.108-.816L-5.974 21.85a2 2 0 0 1 .068-.688z"/><path fill="#BE945E" stroke="#BE945E" d="M66 42.5 86.5-2H99L71 42.5v13l-14 34L66 58zM206.5 93.853 231.5-5H244l-32.5 98.853v19.18L202 130l4.5-13.279z"/><path fill="#BE945E" stroke="#BE945E" d="m227.415 83.62 75.427-107.947 11.419 5.084-82.278 104.896-10.204 22.919-17.705 16.409 11.175-14.036zM119.5 31.95 94.5 133H82l32.5-101.05V12.345L124-5l-4.5 13.574zM328.788 58.647l-16.648 69.548-12.407 1.523 24.092-70.461-1.584-12.903 8.028-12.572-3.37 9.481z"/><path fill="url(#b)" fill-opacity=".5" d="M-26-16h430v155H-26z"/></g><defs><linearGradient id="b" x1="-26" x2="404" y1="61.5" y2="61.5" gradientUnits="userSpaceOnUse"><stop stop-color="#700054"/><stop offset=".545" stop-color="#610616"/><stop offset="1" stop-color="#753006"/></linearGradient><clipPath id="a"><path fill="#fff" d="M0 0h377v123H0z"/></clipPath></defs></svg>