<svg xmlns="http://www.w3.org/2000/svg" width="1514" height="114" fill="none"><g clip-path="url(#a)"><path fill="#fff" d="M0 0h1514v114H0z"/><g clip-path="url(#b)"><path fill="#000" d="M0-770h1513v884H0z"/><path fill="url(#c)" d="M0 0h1513v663.448H0z" transform="translate(0 -539)"/><g filter="url(#d)"><path fill="#460789" fill-rule="evenodd" d="M-343.205-303.349v427.797H1633.85v-295.89c-316.65 52.286-714.165 62.908-1142.435 20.404-303.233-30.095-587.06-83.368-834.62-152.311" clip-rule="evenodd"/></g><g filter="url(#e)"><path fill="#800DCC" fill-rule="evenodd" d="M-253.778-169.601v294.05H1622.97V-78.934c-300.58 35.94-677.929 43.24-1084.472 14.025C250.65-85.595-18.778-122.213-253.778-169.601" clip-rule="evenodd"/></g><g filter="url(#f)"><path fill="#F75EF4" fill-rule="evenodd" d="M-253.778-116.036v229.608H1622.97V-45.239C1322.39-17.176 945.041-11.474 538.498-34.288 250.649-50.44-18.778-79.033-253.778-116.036" clip-rule="evenodd"/></g><g style="mix-blend-mode:screen"><mask id="h" width="542" height="699" x="518" y="-584" maskUnits="userSpaceOnUse" style="mask-type:alpha"><path fill="#D9D9D9" d="m853.021-583.713 206.026 118.949-334.59 579.527L518.43-4.187z"/></mask><g filter="url(#g)" mask="url(#h)"><path stroke="#980985" stroke-width="434.967" d="m458.016-103.459 412.051 237.898"/></g></g><g style="mix-blend-mode:screen"><mask id="l" width="541" height="700" x="-28" y="-581" maskUnits="userSpaceOnUse" style="mask-type:alpha"><path fill="#D9D9D9" d="m306.795-580.088 206.026 118.949-334.59 579.527L-27.795-.562z"/></mask><g filter="url(#j)" mask="url(#l)"><path stroke="#980985" stroke-width="434.967" d="m-88.21-99.834 412.05 237.898"/></g></g><g style="mix-blend-mode:screen"><mask id="n" width="541" height="700" x="-353" y="-600" maskUnits="userSpaceOnUse" style="mask-type:alpha"><path fill="#D9D9D9" d="m-18.282-599.423 206.026 118.95-334.59 579.526-206.026-118.949z"/></mask><g filter="url(#m)" mask="url(#n)"><path stroke="#980985" stroke-width="434.967" d="M-413.288-119.169-1.237 118.729"/></g></g><g style="mix-blend-mode:screen"><mask id="p" width="541" height="699" x="917" y="-589" maskUnits="userSpaceOnUse" style="mask-type:alpha"><path fill="#D9D9D9" d="m1251.82-588.547 206.026 118.949-334.59 579.527L917.23-9.021z"/></mask><g filter="url(#o)" mask="url(#p)"><path stroke="#980985" stroke-width="434.967" d="m856.811-108.293 412.049 237.898"/></g></g><g style="mix-blend-mode:screen"><mask id="r" width="542" height="700" x="1447" y="-565" maskUnits="userSpaceOnUse" style="mask-type:alpha"><path fill="#D9D9D9" d="m1782.33-564.377 206.026 118.949-334.59 579.527-206.026-118.95z"/></mask><g filter="url(#q)" mask="url(#r)"><path stroke="#980985" stroke-width="434.967" d="m1387.33-84.123 412.05 237.898"/></g></g><g style="mix-blend-mode:screen"><mask id="t" width="370" height="600" x="1272" y="-555" maskUnits="userSpaceOnUse" style="mask-type:alpha"><path fill="#D9D9D9" d="m1607.11-554.71 34.47 19.902-334.59 579.526-34.47-19.901z"/></mask><g filter="url(#s)" mask="url(#t)"><path stroke="#980985" stroke-width="434.967" d="m1285.62-32.01 68.94 39.802"/></g></g><g filter="url(#u)"><path fill="#F567D7" d="M0-7.274h1513v131.723H0z"/></g><path fill="#450327" d="m337.162 14.478 81.632 57.518-70.756 10.156-92.508-10.156z"/><path fill="#450327" d="m216.92 14.478 194.137 114.2h-548.822z"/><path fill="#583F6B" d="M-80-47 114.206 67.804H81.577z"/><path fill="#450327" d="m97.282 14.478 194.137 114.2h-548.822z"/><path fill="#450327" d="M0 3.602 81.632 61.12H-81.632zm1354.69 24.773 81.63 99.698h-163.26z"/><path fill="#583F6B" d="m1354.69 28.375-47.73 97.282-51.36-41.088z"/><path fill="#450327" d="m1199.5 32.605 138.27 91.843H975.232z"/><g opacity=".03" style="mix-blend-mode:screen"><path fill="url(#v)" d="m845.748 8.936-61.453 2.906 22.453-13.075h108.708l8.255 5.811-2.752 14.528h-27.516l-11.924-10.17z"/><path fill="url(#w)" fill-rule="evenodd" d="M843.03 14.566h-13.904s-3.913 11.1 0 17.773c4.308 7.345 13.507 17.773 13.507 17.773h40.52s-5.217-10.629-6.753-17.773c-1.474-6.851-1.126-17.773-1.126-17.773h-16.202c-.002.055-.344 10.939 1.126 17.773 1.536 7.144 6.753 17.773 6.753 17.773H850.2s-2.862-10.428-7.169-17.773c-3.904-6.656-.02-17.717-.001-17.773" clip-rule="evenodd"/><path fill="url(#x)" d="M790.867 14.566h33.986s-.005 10.922 1.267 17.773c1.327 7.144 11.407 17.773 11.407 17.773h-6.805L810.911 32.34z"/><path fill="url(#y)" fill-rule="evenodd" d="M850.201 52.087h-8.795s-3.025 8.633 0 13.824c3.328 5.713 10.437 13.823 10.437 13.823h22.439s2.242-8.375 2.783-13.823c.536-5.383 0-13.824 0-13.824H865.39c-.001.035-.246 7.52.89 12.836 1.187 5.557 2.088 14.811 2.088 14.811h-7.73s-7.108-8.11-10.437-13.823c-3.018-5.18-.013-13.787 0-13.824" clip-rule="evenodd"/></g></g></g><defs><filter id="d" width="2208.84" height="659.581" x="-459.097" y="-419.241" color-interpolation-filters="sRGB" filterUnits="userSpaceOnUse"><feFlood flood-opacity="0" result="BackgroundImageFix"/><feBlend in="SourceGraphic" in2="BackgroundImageFix" result="shape"/><feGaussianBlur result="effect1_foregroundBlur_859_3154" stdDeviation="57.946"/></filter><filter id="e" width="2108.53" height="525.833" x="-369.67" y="-285.493" color-interpolation-filters="sRGB" filterUnits="userSpaceOnUse"><feFlood flood-opacity="0" result="BackgroundImageFix"/><feBlend in="SourceGraphic" in2="BackgroundImageFix" result="shape"/><feGaussianBlur result="effect1_foregroundBlur_859_3154" stdDeviation="57.946"/></filter><filter id="f" width="2050.28" height="403.144" x="-340.546" y="-202.804" color-interpolation-filters="sRGB" filterUnits="userSpaceOnUse"><feFlood flood-opacity="0" result="BackgroundImageFix"/><feBlend in="SourceGraphic" in2="BackgroundImageFix" result="shape"/><feGaussianBlur result="effect1_foregroundBlur_859_3154" stdDeviation="43.384"/></filter><filter id="g" width="1238.49" height="1223.54" x="44.796" y="-596.283" color-interpolation-filters="sRGB" filterUnits="userSpaceOnUse"><feFlood flood-opacity="0" result="BackgroundImageFix"/><feBlend in="SourceGraphic" in2="BackgroundImageFix" result="shape"/><feGaussianBlur result="effect1_foregroundBlur_859_3154" stdDeviation="152.238"/></filter><filter id="j" width="1238.49" height="1223.54" x="-501.43" y="-592.658" color-interpolation-filters="sRGB" filterUnits="userSpaceOnUse"><feFlood flood-opacity="0" result="BackgroundImageFix"/><feBlend in="SourceGraphic" in2="BackgroundImageFix" result="shape"/><feGaussianBlur result="effect1_foregroundBlur_859_3154" stdDeviation="152.238"/></filter><filter id="m" width="1238.49" height="1223.54" x="-826.507" y="-611.993" color-interpolation-filters="sRGB" filterUnits="userSpaceOnUse"><feFlood flood-opacity="0" result="BackgroundImageFix"/><feBlend in="SourceGraphic" in2="BackgroundImageFix" result="shape"/><feGaussianBlur result="effect1_foregroundBlur_859_3154" stdDeviation="152.238"/></filter><filter id="o" width="1238.49" height="1223.54" x="443.591" y="-601.117" color-interpolation-filters="sRGB" filterUnits="userSpaceOnUse"><feFlood flood-opacity="0" result="BackgroundImageFix"/><feBlend in="SourceGraphic" in2="BackgroundImageFix" result="shape"/><feGaussianBlur result="effect1_foregroundBlur_859_3154" stdDeviation="152.238"/></filter><filter id="q" width="1238.49" height="1223.54" x="974.107" y="-576.947" color-interpolation-filters="sRGB" filterUnits="userSpaceOnUse"><feFlood flood-opacity="0" result="BackgroundImageFix"/><feBlend in="SourceGraphic" in2="BackgroundImageFix" result="shape"/><feGaussianBlur result="effect1_foregroundBlur_859_3154" stdDeviation="152.238"/></filter><filter id="s" width="895.378" height="1025.45" x="872.399" y="-524.834" color-interpolation-filters="sRGB" filterUnits="userSpaceOnUse"><feFlood flood-opacity="0" result="BackgroundImageFix"/><feBlend in="SourceGraphic" in2="BackgroundImageFix" result="shape"/><feGaussianBlur result="effect1_foregroundBlur_859_3154" stdDeviation="152.238"/></filter><filter id="u" width="1513" height="136.557" x="0" y="-12.108" color-interpolation-filters="sRGB" filterUnits="userSpaceOnUse"><feFlood flood-opacity="0" result="BackgroundImageFix"/><feColorMatrix in="SourceAlpha" result="hardAlpha" values="0 0 0 0 0 0 0 0 0 0 0 0 0 0 0 0 0 0 127 0"/><feOffset dy="-4.834"/><feComposite in2="hardAlpha" operator="out"/><feColorMatrix values="0 0 0 0 0.95098 0 0 0 0 0.803922 0 0 0 0 1 0 0 0 1 0"/><feBlend in2="BackgroundImageFix" result="effect1_dropShadow_859_3154"/><feColorMatrix in="SourceAlpha" result="hardAlpha" values="0 0 0 0 0 0 0 0 0 0 0 0 0 0 0 0 0 0 127 0"/><feOffset dy="-3.625"/><feComposite in2="hardAlpha" operator="out"/><feColorMatrix values="0 0 0 0 0.333333 0 0 0 0 0.0509804 0 0 0 0 0.247059 0 0 0 1 0"/><feBlend in2="effect1_dropShadow_859_3154" result="effect2_dropShadow_859_3154"/><feBlend in="SourceGraphic" in2="effect2_dropShadow_859_3154" result="shape"/></filter><linearGradient id="c" x1="756.5" x2="756.5" y1="0" y2="663.448" gradientUnits="userSpaceOnUse"><stop offset=".869" stop-color="#1E1E1E"/><stop offset="1" stop-color="#F567D7"/></linearGradient><linearGradient id="v" x1="854.233" x2="854.091" y1="8.698" y2="-1.234" gradientUnits="userSpaceOnUse"><stop stop-color="#0B1846"/><stop offset="1" stop-color="#A1EFFE"/></linearGradient><linearGradient id="w" x1="855.27" x2="855.27" y1="50.112" y2="14.566" gradientUnits="userSpaceOnUse"><stop stop-color="#0B1846"/><stop offset=".63" stop-color="#3F486B"/><stop offset="1" stop-color="#A1EFFE"/></linearGradient><linearGradient id="x" x1="813.446" x2="813.446" y1="50.112" y2="14.566" gradientUnits="userSpaceOnUse"><stop stop-color="#0B1846"/><stop offset=".63" stop-color="#3F486B"/><stop offset="1" stop-color="#A1EFFE"/></linearGradient><linearGradient id="y" x1="861.608" x2="861.608" y1="79.734" y2="52.087" gradientUnits="userSpaceOnUse"><stop stop-color="#0B1846"/><stop offset=".63" stop-color="#3F486B"/><stop offset="1" stop-color="#A1EFFE"/></linearGradient><clipPath id="a"><path fill="#fff" d="M0 0h1514v114H0z"/></clipPath><clipPath id="b"><path fill="#fff" d="M0-770h1513v884H0z"/></clipPath></defs></svg>