<svg xmlns="http://www.w3.org/2000/svg" width="1513" height="770" fill="none"><g clip-path="url(#a)"><path fill="#000" d="M0 0h1513v770H0z"/><path fill="url(#b)" d="M0 0h1513v663.448H0z" transform="translate(0 231)"/><g filter="url(#c)"><path fill="#460789" fill-rule="evenodd" d="M-343.205 466.651v427.797H1633.85v-295.89c-316.65 52.286-714.165 62.908-1142.435 20.404-303.233-30.095-587.06-83.368-834.62-152.311" clip-rule="evenodd"/></g><g filter="url(#d)"><path fill="#800DCC" fill-rule="evenodd" d="M-253.778 600.399v294.05H1622.97V691.066c-300.58 35.939-677.929 43.241-1084.472 14.025-287.848-20.686-557.276-57.304-792.276-104.692" clip-rule="evenodd"/></g><g filter="url(#e)"><path fill="#F75EF4" fill-rule="evenodd" d="M-253.778 653.964v229.608H1622.97V724.761c-300.58 28.063-677.929 33.764-1084.472 10.951-287.849-16.152-557.276-44.745-792.276-81.748" clip-rule="evenodd"/></g><mask id="f" width="2226" height="698" x="-401" y="-80" maskUnits="userSpaceOnUse" style="mask-type:alpha"><ellipse cx="711.817" cy="268.754" fill="#D9D9D9" rx="1116.69" ry="335.095" transform="rotate(5.094 711.817 268.754)"/></mask><g mask="url(#f)"><path fill="#000" d="M0 231h1513v663.448H0z"/><g fill="#fff" clip-path="url(#g)" opacity=".52"><circle cx="731.324" cy="228.626" r=".872" transform="rotate(-90 731.324 228.626)"/><circle cx="1362.84" cy="465.056" r="1.504" transform="rotate(-90 1362.84 465.056)"/><circle cx="1284.36" cy="375.636" r="1.23" transform="rotate(-90 1284.36 375.636)"/><circle cx="388.72" cy="332.092" r="1.374" transform="rotate(-90 388.72 332.092)"/><circle cx="809.88" cy="408.547" r=".821" transform="rotate(-90 809.88 408.547)"/><circle cx="1427.02" cy="197.603" r="1.09" transform="rotate(-90 1427.02 197.603)"/><circle cx="1100.28" cy="213.579" r="1.335" transform="rotate(-90 1100.28 213.579)"/><circle cx="1294.36" cy="229.929" r="1.398" transform="rotate(-90 1294.36 229.929)"/><circle cx="507.865" cy="570.043" r="1.274" transform="rotate(-90 507.865 570.043)"/><circle cx="1226.27" cy="426.198" r="1.079" transform="rotate(-90 1226.27 426.198)"/><circle cx="640.59" cy="552.742" r="1.488" transform="rotate(-90 640.59 552.742)"/><circle cx="1148.15" cy="396.102" r="1.176" transform="rotate(-90 1148.15 396.102)"/><circle cx="254.802" cy="231.325" r=".924" transform="rotate(-90 254.802 231.325)"/><circle cx="1143.27" cy="233.102" r="1.363" transform="rotate(-90 1143.27 233.102)"/><circle cx="130.369" cy="230.084" r="1.354" transform="rotate(-90 130.369 230.084)"/><circle cx="1365.98" cy="221.437" r="1.15" transform="rotate(-90 1365.98 221.437)"/><circle cx="91.418" cy="372.967" r="1.081" transform="rotate(-90 91.418 372.967)"/><circle cx="726.356" cy="540.655" r=".8" transform="rotate(-90 726.356 540.655)"/><circle cx="1439.79" cy="193.708" r="1.298" transform="rotate(-90 1439.79 193.708)"/><circle cx="386.713" cy="596.543" r="1.317" transform="rotate(-90 386.713 596.543)"/><circle cx="409.099" cy="431.916" r="1.466" transform="rotate(-90 409.099 431.916)"/><circle cx="251.589" cy="307.828" r="1.09" transform="rotate(-90 251.589 307.828)"/><circle cx="1257.68" cy="541.812" r="1.284" transform="rotate(-90 1257.68 541.812)"/><circle cx="581.03" cy="155.962" r="1.313" transform="rotate(-90 581.03 155.962)"/><circle cx="1174.56" cy="305.473" r="1.397" transform="rotate(-90 1174.56 305.473)"/><circle cx="231.568" cy="252.189" r="1.005" transform="rotate(-90 231.568 252.189)"/><circle cx="311.764" cy="434.982" r=".946" transform="rotate(-90 311.764 434.982)"/><circle cx="66.148" cy="330.348" r=".86" transform="rotate(-90 66.148 330.348)"/><circle cx="582.027" cy="386.93" r="1.002" transform="rotate(-90 582.027 386.93)"/><circle cx="1332.1" cy="537.845" r=".909" transform="rotate(-90 1332.1 537.845)"/><circle cx="1328.82" cy="407.298" r="1.264" transform="rotate(-90 1328.82 407.298)"/><circle cx="703.397" cy="351.786" r="1.416" transform="rotate(-90 703.397 351.786)"/><circle cx="597.684" cy="322.94" r="1.448" transform="rotate(-90 597.684 322.94)"/><circle cx="1491.06" cy="156.202" r="1.179" transform="rotate(-90 1491.06 156.202)"/><circle cx="130.365" cy="340.69" r="1.409" transform="rotate(-90 130.365 340.69)"/><circle cx="858.067" cy="140.377" r=".892" transform="rotate(-90 858.067 140.377)"/><circle cx="450.835" cy="305.92" r=".785" transform="rotate(-90 450.835 305.92)"/><circle cx="807.35" cy="530.557" r=".961" transform="rotate(-90 807.35 530.557)"/><circle cx="217.006" cy="604.12" r="1.416" transform="rotate(-90 217.006 604.12)"/><circle cx="281.521" cy="562.394" r="1.461" transform="rotate(-90 281.521 562.394)"/><circle cx="101.21" cy="350.853" r="1.125" transform="rotate(-90 101.21 350.853)"/><circle cx="894.678" cy="462.388" r="1.158" transform="rotate(-90 894.678 462.388)"/><circle cx="852.759" cy="399.249" r="1.493" transform="rotate(-90 852.759 399.249)"/><circle cx="133.557" cy="450.131" r="1.088" transform="rotate(-90 133.557 450.131)"/><circle cx="147.149" cy="332.031" r="1.381" transform="rotate(-90 147.149 332.031)"/><circle cx="625.149" cy="310.136" r=".967" transform="rotate(-90 625.149 310.136)"/><circle cx="1276.37" cy="591.677" r="1.294" transform="rotate(-90 1276.37 591.677)"/><circle cx="43.671" cy="570.927" r=".826" transform="rotate(-90 43.671 570.927)"/><circle cx="57.049" cy="335.797" r="1.096" transform="rotate(-90 57.05 335.797)"/><circle cx="378.251" cy="390.462" r="1.494" transform="rotate(-90 378.251 390.462)"/><circle cx="1057.55" cy="586.8" r="1.347" transform="rotate(-90 1057.55 586.8)"/><circle cx="905.093" cy="547.907" r="1.246" transform="rotate(-90 905.093 547.907)"/><circle cx="1264.28" cy="458.225" r="1.22" transform="rotate(-90 1264.28 458.225)"/><circle cx="824.923" cy="290.579" r="1.482" transform="rotate(-90 824.923 290.579)"/><circle cx="1253.72" cy="207.136" r="1.265" transform="rotate(-90 1253.72 207.136)"/><circle cx="1221.07" cy="388.767" r=".841" transform="rotate(-90 1221.07 388.767)"/><circle cx="48.057" cy="451.897" r=".771" transform="rotate(-90 48.057 451.897)"/><circle cx="430.52" cy="138.912" r="1.064" transform="rotate(-90 430.52 138.912)"/><circle cx="109.812" cy="393.187" r="1.08" transform="rotate(-90 109.812 393.187)"/><circle cx="1278.18" cy="440.18" r="1.357" transform="rotate(-90 1278.18 440.18)"/><circle cx="716.276" cy="247.049" r=".876" transform="rotate(-90 716.276 247.049)"/><circle cx="693.665" cy="182.644" r="1.136" transform="rotate(-90 693.665 182.644)"/><circle cx="435.896" cy="452.233" r="1.32" transform="rotate(-90 435.896 452.233)"/><circle cx="106.61" cy="203.403" r="1.433" transform="rotate(-90 106.61 203.403)"/><circle cx="1130.8" cy="454.76" r="1.476" transform="rotate(-90 1130.8 454.76)"/><circle cx="1218.78" cy="340.01" r="1.472" transform="rotate(-90 1218.78 340.01)"/><circle cx="1130.4" cy="460.691" r="1.232" transform="rotate(-90 1130.4 460.691)"/><circle cx="38.782" cy="221.239" r="1.215" transform="rotate(-90 38.782 221.239)"/><circle cx="1385.11" cy="263.228" r="1.389" transform="rotate(-90 1385.11 263.228)"/><circle cx="454.898" cy="524.598" r=".999" transform="rotate(-90 454.898 524.598)"/><circle cx="510.137" cy="227.384" r=".826" transform="rotate(-90 510.137 227.384)"/><circle cx="109.601" cy="174.591" r=".768" transform="rotate(-90 109.601 174.591)"/><circle cx="668.969" cy="167.589" r="1.336" transform="rotate(-90 668.969 167.589)"/><circle cx="1409.57" cy="240.808" r="1.316" transform="rotate(-90 1409.57 240.808)"/><circle cx="754.74" cy="179.248" r="1.343" transform="rotate(-90 754.74 179.248)"/><circle cx="33.016" cy="363.763" r=".782" transform="rotate(-90 33.016 363.763)"/><circle cx="121.55" cy="226.854" r=".831" transform="rotate(-90 121.55 226.854)"/><circle cx="1013.08" cy="392.336" r="1.462" transform="rotate(-90 1013.08 392.336)"/><circle cx="622.485" cy="547.365" r="1.075" transform="rotate(-90 622.485 547.365)"/><circle cx="320.501" cy="250.474" r=".973" transform="rotate(-90 320.501 250.474)"/><circle cx="332.013" cy="351.637" r="1.484" transform="rotate(-90 332.013 351.637)"/><circle cx="325.882" cy="311.87" r=".973" transform="rotate(-90 325.882 311.87)"/><circle cx="304.129" cy="174.586" r=".788" transform="rotate(-90 304.129 174.586)"/><circle cx="400.373" cy="520.282" r=".799" transform="rotate(-90 400.373 520.282)"/><circle cx="437.513" cy="526.916" r=".867" transform="rotate(-90 437.513 526.916)"/><circle cx="1107.69" cy="244.576" r=".953" transform="rotate(-90 1107.69 244.576)"/><circle cx="327.786" cy="255.735" r="1.365" transform="rotate(-90 327.786 255.735)"/><circle cx="34.624" cy="240.146" r=".924" transform="rotate(-90 34.624 240.146)"/><circle cx="1112.83" cy="304.476" r=".881" transform="rotate(-90 1112.83 304.476)"/><circle cx="194.327" cy="172.299" r="1" transform="rotate(-90 194.327 172.299)"/><circle cx="198.936" cy="356.883" r="1.245" transform="rotate(-90 198.936 356.883)"/><circle cx="506.017" cy="135.824" r="1.301" transform="rotate(-90 506.017 135.824)"/><circle cx="278.384" cy="286.479" r="1.03" transform="rotate(-90 278.384 286.479)"/><circle cx="1402.39" cy="206.682" r=".913" transform="rotate(-90 1402.39 206.682)"/><circle cx="227.268" cy="412.465" r="1.039" transform="rotate(-90 227.268 412.465)"/><circle cx="30.885" cy="233.797" r=".923" transform="rotate(-90 30.885 233.797)"/><circle cx="1180.81" cy="567.39" r="1.214" transform="rotate(-90 1180.81 567.39)"/><circle cx="1444.7" cy="303.693" r="1.467" transform="rotate(-90 1444.7 303.693)"/><circle cx="1172.31" cy="263.091" r="1.046" transform="rotate(-90 1172.31 263.091)"/><circle cx="529.069" cy="151.208" r="1.51" transform="rotate(-90 529.069 151.208)"/><circle cx="459.179" cy="497.408" r="1.075" transform="rotate(-90 459.179 497.408)"/><circle cx="493.72" cy="209.109" r="1.501" transform="rotate(-90 493.72 209.109)"/><circle cx="312.104" cy="227.674" r="1.206" transform="rotate(-90 312.104 227.674)"/><circle cx="494.558" cy="254.183" r=".862" transform="rotate(-90 494.558 254.183)"/><circle cx="595.957" cy="616.877" r=".857" transform="rotate(-90 595.957 616.877)"/><circle cx="233.418" cy="460.995" r="1.431" transform="rotate(-90 233.418 460.995)"/><circle cx="42.41" cy="369.736" r="1.503" transform="rotate(-90 42.41 369.736)"/><circle cx="226.542" cy="260.287" r="1.384" transform="rotate(-90 226.542 260.287)"/><circle cx="269.004" cy="556.597" r=".834" transform="rotate(-90 269.004 556.597)"/><circle cx="270.832" cy="419.895" r="1.305" transform="rotate(-90 270.832 419.895)"/><circle cx="1381.18" cy="562.021" r="1.256" transform="rotate(-90 1381.18 562.021)"/><circle cx="1389.14" cy="436.659" r=".929" transform="rotate(-90 1389.14 436.659)"/><circle cx="986.677" cy="509.568" r="1.195" transform="rotate(-90 986.677 509.568)"/><circle cx="1232.81" cy="562.493" r="1.317" transform="rotate(-90 1232.81 562.493)"/><circle cx="651.979" cy="536.38" r="1.317" transform="rotate(-90 651.979 536.38)"/><circle cx="422.75" cy="527.277" r="1.297" transform="rotate(-90 422.75 527.277)"/><circle cx="1298.37" cy="588.764" r="1.283" transform="rotate(-90 1298.37 588.764)"/><circle cx="275.039" cy="346.21" r="1.495" transform="rotate(-90 275.039 346.21)"/><circle cx="500.267" cy="172.211" r=".803" transform="rotate(-90 500.267 172.211)"/><circle cx="571.518" cy="252.081" r=".789" transform="rotate(-90 571.518 252.081)"/><circle cx="620.936" cy="317.43" r="1.356" transform="rotate(-90 620.936 317.43)"/><circle cx="1146.1" cy="264.414" r=".824" transform="rotate(-90 1146.1 264.414)"/><circle cx="582.912" cy="153.571" r="1.016" transform="rotate(-90 582.912 153.571)"/><circle cx="100.02" cy="256.887" r="1.017" transform="rotate(-90 100.02 256.887)"/><circle cx="845.862" cy="497.32" r=".811" transform="rotate(-90 845.862 497.32)"/><circle cx="850.564" cy="182.725" r=".768" transform="rotate(-90 850.564 182.725)"/><circle cx="543.52" cy="548.323" r="1.361" transform="rotate(-90 543.52 548.323)"/><circle cx="271.652" cy="544.929" r=".884" transform="rotate(-90 271.652 544.929)"/><circle cx="827.678" cy="503.638" r=".855" transform="rotate(-90 827.678 503.638)"/><circle cx="1416.77" cy="491.362" r="1.218" transform="rotate(-90 1416.77 491.362)"/><circle cx="979.558" cy="171.942" r=".989" transform="rotate(-90 979.558 171.942)"/><circle cx="656.319" cy="359.65" r="1.158" transform="rotate(-90 656.319 359.65)"/><circle cx="731.159" cy="316.631" r=".975" transform="rotate(-90 731.159 316.631)"/><circle cx="902.546" cy="224.581" r=".964" transform="rotate(-90 902.546 224.581)"/><circle cx="426.962" cy="354.564" r="1.115" transform="rotate(-90 426.962 354.564)"/><circle cx="1499.82" cy="316.586" r="1.037" transform="rotate(-90 1499.82 316.586)"/><circle cx="627.146" cy="157.129" r="1.386" transform="rotate(-90 627.146 157.129)"/><circle cx="61.266" cy="598.084" r="1.168" transform="rotate(-90 61.266 598.084)"/><circle cx="1321.98" cy="463.632" r="1.355" transform="rotate(-90 1321.98 463.632)"/><circle cx="1493.17" cy="421.579" r="1.365" transform="rotate(-90 1493.17 421.579)"/><circle cx="121.086" cy="417.652" r="1.148" transform="rotate(-90 121.086 417.652)"/><circle cx="936.879" cy="379.845" r="1.358" transform="rotate(-90 936.879 379.845)"/><circle cx="1379.04" cy="429.956" r="1.191" transform="rotate(-90 1379.04 429.956)"/><circle cx="18.499" cy="256.804" r="1.311" transform="rotate(-90 18.5 256.804)"/><circle cx="1209.79" cy="360.238" r="1.512" transform="rotate(-90 1209.79 360.238)"/><circle cx="324.016" cy="419.478" r="1.194" transform="rotate(-90 324.016 419.478)"/><circle cx="788.535" cy="495.784" r=".878" transform="rotate(-90 788.535 495.784)"/><circle cx="1323.05" cy="538.957" r=".76" transform="rotate(-90 1323.05 538.957)"/><circle cx="1053.12" cy="421.7" r="1.232" transform="rotate(-90 1053.12 421.7)"/><circle cx="921.814" cy="348.576" r="1.18" transform="rotate(-90 921.814 348.576)"/><circle cx="1479.5" cy="178.947" r="1.19" transform="rotate(-90 1479.5 178.947)"/><circle cx="964.225" cy="418.234" r=".836" transform="rotate(-90 964.225 418.234)"/><circle cx="725.068" cy="546.665" r="1.294" transform="rotate(-90 725.068 546.665)"/><circle cx="1201.76" cy="602.082" r="1.059" transform="rotate(-90 1201.76 602.082)"/><circle cx="1079.61" cy="293.421" r="1.233" transform="rotate(-90 1079.61 293.421)"/><circle cx="418.568" cy="252.303" r="1.19" transform="rotate(-90 418.568 252.303)"/><circle cx="253.222" cy="251.517" r="1.463" transform="rotate(-90 253.222 251.517)"/><circle cx="824.649" cy="612.128" r=".764" transform="rotate(-90 824.649 612.128)"/><circle cx="1009.43" cy="531.912" r=".885" transform="rotate(-90 1009.43 531.912)"/><circle cx="1433.33" cy="551.444" r=".855" transform="rotate(-90 1433.33 551.444)"/><circle cx="1137.16" cy="589.272" r="1.466" transform="rotate(-90 1137.16 589.272)"/><circle cx="723.591" cy="406.708" r="1.116" transform="rotate(-90 723.591 406.708)"/><circle cx="968.281" cy="152.593" r="1.381" transform="rotate(-90 968.281 152.593)"/><circle cx="1319.87" cy="223.086" r="1.482" transform="rotate(-90 1319.87 223.086)"/><circle cx="859" cy="312.393" r=".84" transform="rotate(-90 859 312.393)"/><circle cx="911.351" cy="195.815" r="1.405" transform="rotate(-90 911.351 195.815)"/><circle cx="632.078" cy="585.773" r="1.36" transform="rotate(-90 632.078 585.773)"/><circle cx="401.484" cy="452.385" r=".875" transform="rotate(-90 401.484 452.385)"/><circle cx="730.003" cy="483.041" r="1.102" transform="rotate(-90 730.003 483.041)"/><circle cx="1341.99" cy="499.13" r="1.359" transform="rotate(-90 1341.99 499.13)"/><circle cx="320.22" cy="423.754" r=".904" transform="rotate(-90 320.22 423.754)"/><circle cx="114.42" cy="165.923" r="1.031" transform="rotate(-90 114.42 165.923)"/><circle cx="497.562" cy="257.96" r="1.241" transform="rotate(-90 497.562 257.96)"/><circle cx="129.526" cy="315.933" r="1.106" transform="rotate(-90 129.526 315.933)"/><circle cx="372.657" cy="560.801" r="1.104" transform="rotate(-90 372.657 560.801)"/><circle cx="140.305" cy="212.85" r="1.48" transform="rotate(-90 140.305 212.85)"/><circle cx="1279.88" cy="137.421" r=".801" transform="rotate(-90 1279.88 137.421)"/><circle cx="56.314" cy="237.669" r=".883" transform="rotate(-90 56.314 237.669)"/><circle cx="1352.2" cy="297.555" r=".866" transform="rotate(-90 1352.2 297.555)"/><circle cx="1266.51" cy="289.579" r="1.418" transform="rotate(-90 1266.51 289.579)"/><circle cx="1440.4" cy="370.197" r="1.039" transform="rotate(-90 1440.4 370.197)"/><circle cx="743.312" cy="355.583" r="1.507" transform="rotate(-90 743.312 355.583)"/><circle cx="1138.52" cy="556.094" r=".761" transform="rotate(-90 1138.52 556.094)"/><circle cx="209.253" cy="166.156" r=".758" transform="rotate(-90 209.253 166.156)"/><circle cx="260.162" cy="535.238" r="1.025" transform="rotate(-90 260.162 535.238)"/><circle cx="1216.16" cy="184.907" r=".984" transform="rotate(-90 1216.16 184.907)"/><circle cx="267.979" cy="489.267" r="1.186" transform="rotate(-90 267.979 489.267)"/><circle cx="792.18" cy="308.785" r=".918" transform="rotate(-90 792.18 308.785)"/><circle cx="346.451" cy="202.041" r=".972" transform="rotate(-90 346.451 202.041)"/><circle cx="975.229" cy="273.184" r="1.253" transform="rotate(-90 975.229 273.184)"/><circle cx="812.385" cy="553.118" r=".911" transform="rotate(-90 812.385 553.118)"/><circle cx="1187.94" cy="596.384" r=".949" transform="rotate(-90 1187.94 596.384)"/><circle cx="763.026" cy="181.017" r="1.451" transform="rotate(-90 763.026 181.017)"/><circle cx="710.229" cy="211.581" r=".821" transform="rotate(-90 710.229 211.581)"/><circle cx="834.924" cy="547.891" r=".824" transform="rotate(-90 834.924 547.891)"/><circle cx="799.415" cy="183.544" r="1.031" transform="rotate(-90 799.415 183.544)"/><circle cx="434.5" cy="146.627" r="1.153" transform="rotate(-90 434.5 146.627)"/><circle cx="607.182" cy="333.131" r="1.466" transform="rotate(-90 607.182 333.131)"/><circle cx="283.7" cy="484.994" r="1.098" transform="rotate(-90 283.7 484.994)"/><circle cx="315.257" cy="405.766" r=".99" transform="rotate(-90 315.257 405.766)"/><circle cx="436.853" cy="139.554" r="1.465" transform="rotate(-90 436.853 139.554)"/><circle cx="1114.79" cy="430.089" r="1.014" transform="rotate(-90 1114.79 430.089)"/><circle cx="1405.47" cy="513.448" r="1.184" transform="rotate(-90 1405.47 513.448)"/><circle cx="108.953" cy="611.07" r="1.434" transform="rotate(-90 108.953 611.07)"/><circle cx="1386.21" cy="610.308" r="1.294" transform="rotate(-90 1386.21 610.308)"/><circle cx="14.345" cy="196.43" r="1.008" transform="rotate(-90 14.345 196.43)"/><circle cx="1428.61" cy="211.923" r=".808" transform="rotate(-90 1428.61 211.923)"/><circle cx="506.175" cy="390.386" r=".983" transform="rotate(-90 506.175 390.386)"/><circle cx="1332.64" cy="509.913" r=".829" transform="rotate(-90 1332.64 509.913)"/><circle cx="1036.13" cy="289.92" r="1.364" transform="rotate(-90 1036.13 289.92)"/><circle cx="344.704" cy="505.756" r="1.073" transform="rotate(-90 344.704 505.756)"/><circle cx="462.267" cy="298.571" r="1.088" transform="rotate(-90 462.267 298.571)"/><circle cx="490.947" cy="420.259" r=".809" transform="rotate(-90 490.947 420.259)"/><circle cx="1369.34" cy="257.542" r=".763" transform="rotate(-90 1369.34 257.542)"/><circle cx="834.48" cy="275.708" r="1.44" transform="rotate(-90 834.48 275.708)"/><circle cx="777.742" cy="195.334" r="1.231" transform="rotate(-90 777.742 195.334)"/><circle cx="1262.45" cy="374.478" r="1.017" transform="rotate(-90 1262.45 374.478)"/><circle cx="1269.43" cy="418.573" r="1.119" transform="rotate(-90 1269.43 418.573)"/><circle cx="570.147" cy="193.389" r=".776" transform="rotate(-90 570.147 193.389)"/><circle cx="303.646" cy="393.274" r=".848" transform="rotate(-90 303.646 393.274)"/><circle cx="1505.8" cy="362.103" r="1.143" transform="rotate(-90 1505.8 362.103)"/><circle cx="56.614" cy="288.179" r="1.008" transform="rotate(-90 56.614 288.179)"/><circle cx="111.809" cy="376.24" r="1.059" transform="rotate(-90 111.809 376.24)"/><circle cx="934.56" cy="428.251" r=".761" transform="rotate(-90 934.56 428.251)"/><circle cx="132.876" cy="560.725" r="1.123" transform="rotate(-90 132.876 560.725)"/><circle cx="791.48" cy="277.585" r="1.15" transform="rotate(-90 791.48 277.585)"/><circle cx="396.464" cy="372.263" r="1.131" transform="rotate(-90 396.464 372.263)"/><circle cx="993.552" cy="246.365" r="1.001" transform="rotate(-90 993.552 246.365)"/><circle cx="697.92" cy="547.169" r=".846" transform="rotate(-90 697.92 547.169)"/><circle cx="214.985" cy="304.439" r="1.1" transform="rotate(-90 214.985 304.439)"/><circle cx="228.974" cy="284.451" r=".854" transform="rotate(-90 228.974 284.451)"/><circle cx="16.889" cy="192.16" r="1.437" transform="rotate(-90 16.889 192.16)"/><circle cx="1246.17" cy="358.846" r="1.092" transform="rotate(-90 1246.17 358.846)"/><circle cx="1138.21" cy="579.42" r="1.335" transform="rotate(-90 1138.21 579.42)"/><circle cx="832.928" cy="262.452" r="1.163" transform="rotate(-90 832.928 262.452)"/><circle cx="863.483" cy="246.283" r="1.267" transform="rotate(-90 863.483 246.283)"/><circle cx="447.193" cy="533.748" r="1.236" transform="rotate(-90 447.193 533.748)"/><circle cx="1416.86" cy="268.005" r="1.399" transform="rotate(-90 1416.86 268.005)"/><circle cx="480.52" cy="555.75" r=".901" transform="rotate(-90 480.52 555.75)"/><circle cx="1417.16" cy="601.226" r=".918" transform="rotate(-90 1417.16 601.226)"/><circle cx="556.154" cy="418.013" r="1.502" transform="rotate(-90 556.154 418.013)"/><circle cx="240.458" cy="209.523" r=".976" transform="rotate(-90 240.458 209.523)"/><circle cx="38.79" cy="177.182" r=".999" transform="rotate(-90 38.79 177.182)"/><circle cx="1376.19" cy="608.163" r="1.29" transform="rotate(-90 1376.19 608.163)"/><circle cx="750.777" cy="145.036" r="1.28" transform="rotate(-90 750.777 145.036)"/><circle cx="1114.62" cy="149.534" r="1.4" transform="rotate(-90 1114.62 149.534)"/><circle cx="319.416" cy="459.906" r=".864" transform="rotate(-90 319.416 459.906)"/><circle cx="548.231" cy="291.683" r="1.183" transform="rotate(-90 548.231 291.683)"/><circle cx="1166.21" cy="312.467" r="1.442" transform="rotate(-90 1166.21 312.467)"/><circle cx="52.671" cy="608.133" r=".89" transform="rotate(-90 52.67 608.133)"/><circle cx="1503.66" cy="393.386" r=".806" transform="rotate(-90 1503.66 393.386)"/><circle cx="377.009" cy="206.58" r=".971" transform="rotate(-90 377.009 206.58)"/><circle cx="324.148" cy="207.742" r=".785" transform="rotate(-90 324.148 207.742)"/><circle cx="676.172" cy="478.851" r="1.348" transform="rotate(-90 676.172 478.851)"/><circle cx="1101.49" cy="537.724" r="1.409" transform="rotate(-90 1101.49 537.724)"/><circle cx="1328.96" cy="407.098" r="1.037" transform="rotate(-90 1328.96 407.098)"/><circle cx="552.76" cy="375.542" r=".95" transform="rotate(-90 552.76 375.542)"/><circle cx="695.704" cy="410.198" r="1.177" transform="rotate(-90 695.704 410.198)"/><circle cx="644.843" cy="527.571" r="1.053" transform="rotate(-90 644.843 527.571)"/><circle cx="342.7" cy="157.596" r="1.45" transform="rotate(-90 342.7 157.596)"/><circle cx="1503.62" cy="565.658" r=".827" transform="rotate(-90 1503.62 565.658)"/><circle cx="451.167" cy="595.479" r="1.179" transform="rotate(-90 451.167 595.479)"/><circle cx="202.094" cy="554.432" r="1.258" transform="rotate(-90 202.094 554.432)"/><circle cx="481.933" cy="583.797" r="1.197" transform="rotate(-90 481.933 583.797)"/><circle cx="695.919" cy="327.273" r="1.118" transform="rotate(-90 695.919 327.273)"/><circle cx="485.513" cy="510.445" r=".953" transform="rotate(-90 485.513 510.445)"/><circle cx="882.149" cy="334.244" r="1.032" transform="rotate(-90 882.149 334.244)"/><circle cx="322.38" cy="552.601" r="1.361" transform="rotate(-90 322.38 552.601)"/><circle cx="544.092" cy="435.777" r="1.227" transform="rotate(-90 544.092 435.777)"/><circle cx="127.262" cy="482.063" r="1.312" transform="rotate(-90 127.262 482.063)"/><circle cx="512.002" cy="578.693" r="1.013" transform="rotate(-90 512.002 578.693)"/><circle cx="1308.11" cy="428.076" r="1.472" transform="rotate(-90 1308.11 428.076)"/><circle cx="160.499" cy="496.267" r="1.492" transform="rotate(-90 160.499 496.267)"/><circle cx="644.919" cy="483.963" r="1.461" transform="rotate(-90 644.919 483.963)"/><circle cx="415.339" cy="466.647" r=".818" transform="rotate(-90 415.339 466.647)"/><circle cx="566.594" cy="244.693" r=".851" transform="rotate(-90 566.594 244.693)"/><circle cx="921.105" cy="346.178" r="1.411" transform="rotate(-90 921.105 346.178)"/><circle cx="1180.68" cy="215.092" r=".776" transform="rotate(-90 1180.68 215.092)"/><circle cx="291.241" cy="519.672" r="1.16" transform="rotate(-90 291.241 519.672)"/><circle cx="893.96" cy="293.389" r="1.064" transform="rotate(-90 893.96 293.389)"/><circle cx="1009.51" cy="500.952" r="1.234" transform="rotate(-90 1009.51 500.952)"/><circle cx="816.743" cy="568.581" r=".982" transform="rotate(-90 816.743 568.581)"/><circle cx="437.062" cy="289.848" r="1.396" transform="rotate(-90 437.062 289.848)"/><circle cx="967.96" cy="211.948" r=".784" transform="rotate(-90 967.96 211.948)"/><circle cx="1112.65" cy="310.776" r="1.067" transform="rotate(-90 1112.65 310.776)"/><circle cx="515.152" cy="571.758" r=".964" transform="rotate(-90 515.152 571.758)"/><circle cx="1395.12" cy="573.471" r="1.309" transform="rotate(-90 1395.12 573.471)"/><circle cx="1076.81" cy="438.444" r="1.008" transform="rotate(-90 1076.81 438.444)"/><circle cx="827.861" cy="296.387" r=".892" transform="rotate(-90 827.861 296.387)"/><circle cx="378.024" cy="226.854" r="1.301" transform="rotate(-90 378.024 226.854)"/><circle cx="851.284" cy="308.334" r="1.109" transform="rotate(-90 851.284 308.334)"/><circle cx="1062.33" cy="414.722" r="1.22" transform="rotate(-90 1062.33 414.722)"/><circle cx="1232.04" cy="349.339" r="1.195" transform="rotate(-90 1232.04 349.339)"/><circle cx="1412.69" cy="255.058" r="1.436" transform="rotate(-90 1412.69 255.058)"/><circle cx="1112.25" cy="208.43" r="1.487" transform="rotate(-90 1112.25 208.43)"/><circle cx="462.538" cy="339.707" r="1.287" transform="rotate(-90 462.538 339.707)"/><circle cx="37.613" cy="370.865" r="1.124" transform="rotate(-90 37.613 370.865)"/><circle cx="1303.24" cy="247.482" r="1.399" transform="rotate(-90 1303.24 247.482)"/><circle cx="668.382" cy="339.226" r="1.253" transform="rotate(-90 668.382 339.226)"/><circle cx="1146.84" cy="183.622" r=".987" transform="rotate(-90 1146.84 183.622)"/><circle cx="188.206" cy="408.471" r="1.089" transform="rotate(-90 188.206 408.471)"/><circle cx="343.243" cy="341.055" r="1.159" transform="rotate(-90 343.243 341.055)"/><circle cx="1144.75" cy="252.994" r="1.478" transform="rotate(-90 1144.75 252.994)"/><circle cx="587.078" cy="575.229" r="1.083" transform="rotate(-90 587.078 575.229)"/><circle cx="1396.55" cy="530.91" r=".962" transform="rotate(-90 1396.55 530.91)"/><circle cx="23.27" cy="296" r="1.011" transform="rotate(-90 23.27 296)"/><circle cx="455.25" cy="566.025" r=".84" transform="rotate(-90 455.25 566.025)"/><circle cx="1505.33" cy="597.319" r="1.182" transform="rotate(-90 1505.33 597.319)"/><circle cx="843.818" cy="200.658" r=".897" transform="rotate(-90 843.818 200.658)"/><circle cx="497.164" cy="340.118" r="1.052" transform="rotate(-90 497.164 340.118)"/><circle cx="513.79" cy="237.643" r=".895" transform="rotate(-90 513.79 237.643)"/><circle cx="207.727" cy="321.67" r=".969" transform="rotate(-90 207.727 321.67)"/><circle cx="300.978" cy="544.22" r="1.214" transform="rotate(-90 300.978 544.22)"/><circle cx="617.478" cy="251.486" r="1.034" transform="rotate(-90 617.478 251.486)"/><circle cx="1267.85" cy="206.888" r="1.177" transform="rotate(-90 1267.85 206.888)"/><circle cx="1207.95" cy="578.359" r=".8" transform="rotate(-90 1207.95 578.359)"/><circle cx="104.87" cy="223.141" r="1.409" transform="rotate(-90 104.87 223.141)"/><circle cx="1193.02" cy="591.166" r="1.398" transform="rotate(-90 1193.02 591.166)"/><circle cx="263.418" cy="341.537" r="1.297" transform="rotate(-90 263.418 341.537)"/><circle cx="781.326" cy="297.074" r="1.087" transform="rotate(-90 781.326 297.074)"/><circle cx="403.141" cy="145.816" r="1.424" transform="rotate(-90 403.141 145.816)"/></g><g filter="url(#h)" style="mix-blend-mode:screen"><ellipse cx="1219.51" cy="471.884" fill="#220A44" rx="680.85" ry="204.255" transform="rotate(-53.049 1219.51 471.884)"/></g><g filter="url(#i)" style="mix-blend-mode:screen"><ellipse cx="255.646" cy="703.717" fill="#220A44" rx="680.85" ry="204.255" transform="rotate(-83.445 255.646 703.717)"/></g><g style="mix-blend-mode:screen"><mask id="j" width="137" height="231" x="-51" y="339" maskUnits="userSpaceOnUse" style="mask-type:alpha"><path fill="#D9D9D9" d="m80.821 339.157 4.186 2.417-131.501 227.767-4.187-2.417z"/></mask><g filter="url(#k)" mask="url(#j)"><path stroke="#980985" stroke-opacity=".45" stroke-width="15.71" d="m-24.532 526.468 72.165-124.994"/></g></g><g style="mix-blend-mode:screen"><mask id="l" width="137" height="231" x="710" y="114" maskUnits="userSpaceOnUse" style="mask-type:alpha"><path fill="#D9D9D9" d="m842.154 114.383 4.186 2.417L714.84 344.567l-4.187-2.417z"/></mask><g filter="url(#m)" mask="url(#l)"><path stroke="#980985" stroke-opacity=".45" stroke-width="15.71" d="m736.801 301.693 72.165-124.994"/></g></g><g style="mix-blend-mode:screen"><mask id="n" width="137" height="231" x="1348" y="191" maskUnits="userSpaceOnUse" style="mask-type:alpha"><path fill="#D9D9D9" d="m1480.22 191.726 4.186 2.417-131.501 227.767-4.186-2.417z"/></mask><g filter="url(#o)" mask="url(#n)"><path stroke="#980985" stroke-opacity=".45" stroke-width="15.71" d="m1374.87 379.036 72.17-124.994"/></g></g><g style="mix-blend-mode:screen"><mask id="p" width="137" height="231" x="1355" y="249" maskUnits="userSpaceOnUse" style="mask-type:alpha"><path fill="#D9D9D9" d="m1487.48 249.731 4.186 2.417-131.501 227.767-4.186-2.417z"/></mask><g filter="url(#q)" mask="url(#p)"><path stroke="#980985" stroke-opacity=".45" stroke-width="15.71" d="m1382.12 437.042 72.17-124.994"/></g></g></g><g style="mix-blend-mode:screen"><mask id="r" width="137" height="231" x="317" y="444" maskUnits="userSpaceOnUse" style="mask-type:alpha"><path fill="#D9D9D9" d="m449.404 444.294 4.186 2.417L322.09 674.478l-4.186-2.417z"/></mask><g filter="url(#s)" mask="url(#r)"><path stroke="#980985" stroke-opacity=".45" stroke-width="15.71" d="m344.051 631.605 72.165-124.995"/></g></g><g style="mix-blend-mode:screen"><mask id="t" width="137" height="231" x="216" y="431" maskUnits="userSpaceOnUse" style="mask-type:alpha"><path fill="#D9D9D9" d="m347.892 431.001 4.186 2.417-131.501 227.767-4.186-2.417z"/></mask><g filter="url(#u)" mask="url(#t)"><path stroke="#980985" stroke-opacity=".45" stroke-width="15.71" d="m242.539 618.312 72.166-124.995"/></g></g><g style="mix-blend-mode:screen"><mask id="v" width="137" height="231" x="148" y="509" maskUnits="userSpaceOnUse" style="mask-type:alpha"><path fill="#D9D9D9" d="m280.217 509.552 4.186 2.417-131.501 227.767-4.187-2.417z"/></mask><g filter="url(#w)" mask="url(#v)"><path stroke="#980985" stroke-opacity=".45" stroke-width="15.71" d="m174.864 696.862 72.166-124.994"/></g></g><g style="mix-blend-mode:screen"><mask id="x" width="542" height="699" x="518" y="186" maskUnits="userSpaceOnUse" style="mask-type:alpha"><path fill="#D9D9D9" d="m853.021 186.287 206.026 118.949-334.59 579.527-206.026-118.95z"/></mask><g filter="url(#y)" mask="url(#x)"><path stroke="#980985" stroke-width="434.967" d="m458.016 666.541 412.051 237.898"/></g></g><g style="mix-blend-mode:screen"><mask id="z" width="541" height="700" x="-28" y="189" maskUnits="userSpaceOnUse" style="mask-type:alpha"><path fill="#D9D9D9" d="m306.795 189.912 206.026 118.949-334.59 579.527-206.026-118.95z"/></mask><g filter="url(#A)" mask="url(#z)"><path stroke="#980985" stroke-width="434.967" d="m-88.21 670.166 412.05 237.898"/></g></g><g style="mix-blend-mode:screen"><mask id="B" width="541" height="700" x="-353" y="170" maskUnits="userSpaceOnUse" style="mask-type:alpha"><path fill="#D9D9D9" d="m-18.282 170.577 206.026 118.95-334.59 579.526-206.026-118.949z"/></mask><g filter="url(#C)" mask="url(#B)"><path stroke="#980985" stroke-width="434.967" d="M-413.288 650.831-1.237 888.729"/></g></g><g style="mix-blend-mode:screen"><mask id="D" width="541" height="699" x="917" y="181" maskUnits="userSpaceOnUse" style="mask-type:alpha"><path fill="#D9D9D9" d="m1251.82 181.453 206.026 118.949-334.59 579.527-206.026-118.95z"/></mask><g filter="url(#E)" mask="url(#D)"><path stroke="#980985" stroke-width="434.967" d="m856.81 661.707 412.05 237.898"/></g></g><g style="mix-blend-mode:screen"><mask id="F" width="542" height="700" x="1447" y="205" maskUnits="userSpaceOnUse" style="mask-type:alpha"><path fill="#D9D9D9" d="m1782.33 205.623 206.026 118.949-334.59 579.527-206.026-118.95z"/></mask><g filter="url(#G)" mask="url(#F)"><path stroke="#980985" stroke-width="434.967" d="m1387.33 685.877 412.05 237.898"/></g></g><g style="mix-blend-mode:screen"><mask id="H" width="370" height="600" x="1272" y="215" maskUnits="userSpaceOnUse" style="mask-type:alpha"><path fill="#D9D9D9" d="m1607.11 215.29 34.47 19.902-334.59 579.526-34.47-19.901z"/></mask><g filter="url(#I)" mask="url(#H)"><path stroke="#980985" stroke-width="434.967" d="m1285.62 737.989 68.94 39.803"/></g></g><g filter="url(#J)"><path fill="#F567D7" d="M0 762.726h1513v131.723H0z"/></g><circle cx="359.079" cy="345.079" r="44.713" fill="#092B6F" transform="rotate(150 359.079 345.079)"/><g filter="url(#K)"><path fill="#E1FFFE" fill-rule="evenodd" d="M381.436 383.802c21.386-12.347 28.713-39.693 16.366-61.08-12.347-21.386-39.693-28.713-61.079-16.366z" clip-rule="evenodd"/></g><path fill="#74BCDC" d="m468.886 406.228 2.093 3.764h-4.186z"/><path fill="#A8D7EC" d="m468.885 407.343 1.57 2.51h-3.139z"/><path fill="#74BCDC" d="m468.886 413.479-2.093-3.765h4.186z"/><path fill="#A8D7EC" d="m468.886 412.363-1.57-2.51h3.139z"/><g opacity=".36"><mask id="L" width="15" height="21" x="467" y="390" maskUnits="userSpaceOnUse" style="mask-type:alpha"><path fill="#D9D9D9" d="m478.553 390.61 3.296 1.757-11.48 18.355-3.297-1.757z"/></mask><g filter="url(#M)" mask="url(#L)"><path stroke="#5EE3F7" stroke-width="15.71" d="m466.618 406.683 6.591 3.513"/></g></g><g opacity=".36"><mask id="N" width="16" height="21" x="455" y="409" maskUnits="userSpaceOnUse" style="mask-type:alpha"><path fill="#D9D9D9" d="m458.888 429.128-3.296-1.757 11.48-18.355 3.297 1.757z"/></mask><g filter="url(#O)" mask="url(#N)"><path stroke="#5EE3F7" stroke-width="15.71" d="m470.824 413.056-6.591-3.513"/></g></g><path fill="#74BCDC" d="m1044.11 339.762 2.1 3.765h-4.19z"/><path fill="#A8D7EC" d="m1044.11 340.877 1.57 2.51h-3.14z"/><path fill="#74BCDC" d="m1044.11 347.013-2.09-3.765h4.19z"/><path fill="#A8D7EC" d="m1044.11 345.897-1.57-2.509h3.14z"/><g opacity=".36"><mask id="P" width="16" height="21" x="1042" y="324" maskUnits="userSpaceOnUse" style="mask-type:alpha"><path fill="#D9D9D9" d="m1053.78 324.145 3.296 1.757-11.48 18.355-3.297-1.757z"/></mask><g filter="url(#Q)" mask="url(#P)"><path stroke="#5EE3F7" stroke-width="15.71" d="m1041.85 340.217 6.59 3.513"/></g></g><g opacity=".36"><mask id="R" width="16" height="21" x="1030" y="342" maskUnits="userSpaceOnUse" style="mask-type:alpha"><path fill="#D9D9D9" d="m1034.12 362.662-3.296-1.757 11.48-18.355 3.297 1.757z"/></mask><g filter="url(#S)" mask="url(#R)"><path stroke="#5EE3F7" stroke-width="15.71" d="m1046.05 346.59-6.59-3.513"/></g></g><path fill="#74BCDC" d="m1266.47 587.498 2.1 3.765h-4.19z"/><path fill="#A8D7EC" d="m1266.47 588.613 1.57 2.51h-3.14z"/><path fill="#74BCDC" d="m1266.47 594.749-2.09-3.765h4.19z"/><path fill="#A8D7EC" d="m1266.47 593.634-1.57-2.51h3.14z"/><g opacity=".36"><mask id="T" width="16" height="21" x="1264" y="571" maskUnits="userSpaceOnUse" style="mask-type:alpha"><path fill="#D9D9D9" d="m1276.14 571.881 3.296 1.757-11.48 18.355-3.297-1.757z"/></mask><g filter="url(#U)" mask="url(#T)"><path stroke="#5EE3F7" stroke-width="15.71" d="m1264.21 587.953 6.59 3.513"/></g></g><g opacity=".36"><mask id="V" width="15" height="21" x="1253" y="590" maskUnits="userSpaceOnUse" style="mask-type:alpha"><path fill="#D9D9D9" d="m1256.48 610.398-3.296-1.757 11.48-18.355 3.297 1.757z"/></mask><g filter="url(#W)" mask="url(#V)"><path stroke="#5EE3F7" stroke-width="15.71" d="m1268.41 594.326-6.59-3.513"/></g></g><path fill="#74BCDC" d="m285.198 377.225 2.093 3.764h-4.186z"/><path fill="#A8D7EC" d="m285.198 378.34 1.57 2.51h-3.14z"/><path fill="#74BCDC" d="m285.198 384.476-2.093-3.765h4.186z"/><path fill="#A8D7EC" d="m285.198 383.36-1.57-2.51h3.14z"/><g opacity=".36"><mask id="X" width="16" height="21" x="283" y="361" maskUnits="userSpaceOnUse" style="mask-type:alpha"><path fill="#D9D9D9" d="m294.866 361.607 3.296 1.757-11.48 18.355-3.297-1.757z"/></mask><g filter="url(#Y)" mask="url(#X)"><path stroke="#5EE3F7" stroke-width="15.71" d="m282.93 377.68 6.592 3.513"/></g></g><g opacity=".36"><mask id="Z" width="16" height="21" x="271" y="380" maskUnits="userSpaceOnUse" style="mask-type:alpha"><path fill="#D9D9D9" d="m275.201 400.125-3.296-1.757 11.48-18.355 3.297 1.757z"/></mask><g filter="url(#aa)" mask="url(#Z)"><path stroke="#5EE3F7" stroke-width="15.71" d="m287.137 384.053-6.592-3.513"/></g></g><path fill="#74BCDC" d="m341.996 426.771 2.093 3.765h-4.186z"/><path fill="#A8D7EC" d="m341.996 427.887 1.57 2.51h-3.14z"/><path fill="#74BCDC" d="m341.996 434.022-2.093-3.764h4.186z"/><path fill="#A8D7EC" d="m341.996 432.907-1.57-2.51h3.14z"/><g opacity=".36"><mask id="ab" width="15" height="21" x="340" y="411" maskUnits="userSpaceOnUse" style="mask-type:alpha"><path fill="#D9D9D9" d="m351.664 411.154 3.296 1.757-11.48 18.355-3.297-1.757z"/></mask><g filter="url(#ac)" mask="url(#ab)"><path stroke="#5EE3F7" stroke-width="15.71" d="m339.728 427.227 6.592 3.512"/></g></g><g opacity=".36"><mask id="ad" width="16" height="21" x="328" y="429" maskUnits="userSpaceOnUse" style="mask-type:alpha"><path fill="#D9D9D9" d="m331.999 449.672-3.296-1.757 11.48-18.355 3.297 1.757z"/></mask><g filter="url(#ae)" mask="url(#ad)"><path stroke="#5EE3F7" stroke-width="15.71" d="m343.935 433.6-6.592-3.513"/></g></g><path fill="#AB86B8" d="m352.268 736.139 115.645 23.565h-231.29z"/><path fill="#E8E8E6" d="m352.268 736.139 115.645 23.565H308.159z"/><path fill="#E8E8E6" d="m445.924 739.764 81.632 19.939H364.292z"/><path fill="#AB86B8" d="m1384.9 740.973 81.63 19.939h-163.26z"/><path fill="#AB86B8" d="m1216.32 740.973 87.18 19.939h-99.43z"/><path fill="#E8E8E6" d="m1216.38 740.973 13.84 20.544h-26.59z"/><path fill="#E8E8E6" d="m1211.83 749.432-19.07 12.084h21.75z"/><g style="mix-blend-mode:screen"><mask id="af" width="25" height="162" x="1192" y="600" maskUnits="userSpaceOnUse" style="mask-type:alpha"><path fill="#D9D9D9" d="M1192.76 600.791h24.169v160.726h-24.169z"/></mask><g filter="url(#ag)" mask="url(#af)"><path stroke="#F75EF4" stroke-width="109.152" d="M1182.4 748.12h48.33"/></g></g><path fill="#583F6B" d="m-80 723 194.206 114.804H81.577z"/><path fill="url(#ah)" d="m845.748 755.715-61.453-3.729 22.453 16.782h108.708l8.255-7.459-2.752-18.647h-27.516l-11.924 13.053h-35.771"/><path fill="url(#ai)" d="M829.127 748.489h46.148s-.348-14.019 1.125-22.813c1.536-9.17 6.753-22.814 6.753-22.814h-40.52s-9.199 13.386-13.506 22.814c-3.914 8.565 0 22.813 0 22.813"/><path fill="#EBA1D4" d="M843.031 748.489h16.041s-.347-14.019 1.126-22.813c1.536-9.17 6.753-22.814 6.753-22.814h-16.75s-2.862 13.386-7.17 22.814c-3.914 8.565 0 22.813 0 22.813"/><path fill="url(#aj)" d="M790.867 748.489h33.985s-.005-14.019 1.268-22.813c1.326-9.17 11.406-22.814 11.406-22.814h-6.804l-19.811 22.814z"/><path fill="url(#ak)" d="M841.406 700.327h35.659s.536-10.835 0-17.743c-.541-6.994-2.783-17.744-2.783-17.744h-22.439s-7.109 10.411-10.437 17.744c-3.025 6.662 0 17.743 0 17.743"/><path fill="#EBA1D4" d="M850.2 700.327h15.19s-.249-9.636.889-16.476c1.187-7.132 2.088-19.011 2.088-19.011h-7.729s-7.109 10.411-10.437 17.744c-3.025 6.662-.001 17.743-.001 17.743"/><path fill="url(#al)" d="m845.748 778.936-61.453 2.906 22.453-13.075h108.708l8.255 5.811-2.752 14.527h-27.516l-11.924-10.169h-35.771" opacity=".03" style="mix-blend-mode:screen"/></g><defs><filter id="c" width="2208.84" height="659.581" x="-459.097" y="350.759" color-interpolation-filters="sRGB" filterUnits="userSpaceOnUse"><feFlood flood-opacity="0" result="BackgroundImageFix"/><feBlend in="SourceGraphic" in2="BackgroundImageFix" result="shape"/><feGaussianBlur result="effect1_foregroundBlur_827_5009" stdDeviation="57.946"/></filter><filter id="d" width="2108.53" height="525.833" x="-369.67" y="484.507" color-interpolation-filters="sRGB" filterUnits="userSpaceOnUse"><feFlood flood-opacity="0" result="BackgroundImageFix"/><feBlend in="SourceGraphic" in2="BackgroundImageFix" result="shape"/><feGaussianBlur result="effect1_foregroundBlur_827_5009" stdDeviation="57.946"/></filter><filter id="e" width="2050.28" height="403.144" x="-340.546" y="567.196" color-interpolation-filters="sRGB" filterUnits="userSpaceOnUse"><feFlood flood-opacity="0" result="BackgroundImageFix"/><feBlend in="SourceGraphic" in2="BackgroundImageFix" result="shape"/><feGaussianBlur result="effect1_foregroundBlur_827_5009" stdDeviation="43.384"/></filter><filter id="h" width="1335.4" height="1569.71" x="551.814" y="-312.97" color-interpolation-filters="sRGB" filterUnits="userSpaceOnUse"><feFlood flood-opacity="0" result="BackgroundImageFix"/><feBlend in="SourceGraphic" in2="BackgroundImageFix" result="shape"/><feGaussianBlur result="effect1_foregroundBlur_827_5009" stdDeviation="113.475"/></filter><filter id="i" width="888.61" height="1807.52" x="-188.659" y="-200.041" color-interpolation-filters="sRGB" filterUnits="userSpaceOnUse"><feFlood flood-opacity="0" result="BackgroundImageFix"/><feBlend in="SourceGraphic" in2="BackgroundImageFix" result="shape"/><feGaussianBlur result="effect1_foregroundBlur_827_5009" stdDeviation="113.475"/></filter><filter id="k" width="113.324" height="160.403" x="-45.111" y="383.769" color-interpolation-filters="sRGB" filterUnits="userSpaceOnUse"><feFlood flood-opacity="0" result="BackgroundImageFix"/><feBlend in="SourceGraphic" in2="BackgroundImageFix" result="shape"/><feGaussianBlur result="effect1_foregroundBlur_827_5009" stdDeviation="6.888"/></filter><filter id="m" width="113.324" height="160.403" x="716.222" y="158.995" color-interpolation-filters="sRGB" filterUnits="userSpaceOnUse"><feFlood flood-opacity="0" result="BackgroundImageFix"/><feBlend in="SourceGraphic" in2="BackgroundImageFix" result="shape"/><feGaussianBlur result="effect1_foregroundBlur_827_5009" stdDeviation="6.888"/></filter><filter id="o" width="113.324" height="160.403" x="1354.29" y="236.338" color-interpolation-filters="sRGB" filterUnits="userSpaceOnUse"><feFlood flood-opacity="0" result="BackgroundImageFix"/><feBlend in="SourceGraphic" in2="BackgroundImageFix" result="shape"/><feGaussianBlur result="effect1_foregroundBlur_827_5009" stdDeviation="6.888"/></filter><filter id="q" width="113.324" height="160.403" x="1361.54" y="294.344" color-interpolation-filters="sRGB" filterUnits="userSpaceOnUse"><feFlood flood-opacity="0" result="BackgroundImageFix"/><feBlend in="SourceGraphic" in2="BackgroundImageFix" result="shape"/><feGaussianBlur result="effect1_foregroundBlur_827_5009" stdDeviation="6.888"/></filter><filter id="s" width="113.324" height="160.403" x="323.472" y="488.906" color-interpolation-filters="sRGB" filterUnits="userSpaceOnUse"><feFlood flood-opacity="0" result="BackgroundImageFix"/><feBlend in="SourceGraphic" in2="BackgroundImageFix" result="shape"/><feGaussianBlur result="effect1_foregroundBlur_827_5009" stdDeviation="6.888"/></filter><filter id="u" width="113.324" height="160.403" x="221.96" y="475.613" color-interpolation-filters="sRGB" filterUnits="userSpaceOnUse"><feFlood flood-opacity="0" result="BackgroundImageFix"/><feBlend in="SourceGraphic" in2="BackgroundImageFix" result="shape"/><feGaussianBlur result="effect1_foregroundBlur_827_5009" stdDeviation="6.888"/></filter><filter id="w" width="113.324" height="160.403" x="154.285" y="554.164" color-interpolation-filters="sRGB" filterUnits="userSpaceOnUse"><feFlood flood-opacity="0" result="BackgroundImageFix"/><feBlend in="SourceGraphic" in2="BackgroundImageFix" result="shape"/><feGaussianBlur result="effect1_foregroundBlur_827_5009" stdDeviation="6.888"/></filter><filter id="y" width="1238.49" height="1223.54" x="44.797" y="173.717" color-interpolation-filters="sRGB" filterUnits="userSpaceOnUse"><feFlood flood-opacity="0" result="BackgroundImageFix"/><feBlend in="SourceGraphic" in2="BackgroundImageFix" result="shape"/><feGaussianBlur result="effect1_foregroundBlur_827_5009" stdDeviation="152.238"/></filter><filter id="A" width="1238.49" height="1223.54" x="-501.43" y="177.342" color-interpolation-filters="sRGB" filterUnits="userSpaceOnUse"><feFlood flood-opacity="0" result="BackgroundImageFix"/><feBlend in="SourceGraphic" in2="BackgroundImageFix" result="shape"/><feGaussianBlur result="effect1_foregroundBlur_827_5009" stdDeviation="152.238"/></filter><filter id="C" width="1238.49" height="1223.54" x="-826.507" y="158.007" color-interpolation-filters="sRGB" filterUnits="userSpaceOnUse"><feFlood flood-opacity="0" result="BackgroundImageFix"/><feBlend in="SourceGraphic" in2="BackgroundImageFix" result="shape"/><feGaussianBlur result="effect1_foregroundBlur_827_5009" stdDeviation="152.238"/></filter><filter id="E" width="1238.49" height="1223.54" x="443.591" y="168.883" color-interpolation-filters="sRGB" filterUnits="userSpaceOnUse"><feFlood flood-opacity="0" result="BackgroundImageFix"/><feBlend in="SourceGraphic" in2="BackgroundImageFix" result="shape"/><feGaussianBlur result="effect1_foregroundBlur_827_5009" stdDeviation="152.238"/></filter><filter id="G" width="1238.49" height="1223.54" x="974.107" y="193.053" color-interpolation-filters="sRGB" filterUnits="userSpaceOnUse"><feFlood flood-opacity="0" result="BackgroundImageFix"/><feBlend in="SourceGraphic" in2="BackgroundImageFix" result="shape"/><feGaussianBlur result="effect1_foregroundBlur_827_5009" stdDeviation="152.238"/></filter><filter id="I" width="895.377" height="1025.45" x="872.399" y="245.166" color-interpolation-filters="sRGB" filterUnits="userSpaceOnUse"><feFlood flood-opacity="0" result="BackgroundImageFix"/><feBlend in="SourceGraphic" in2="BackgroundImageFix" result="shape"/><feGaussianBlur result="effect1_foregroundBlur_827_5009" stdDeviation="152.238"/></filter><filter id="J" width="1513" height="136.557" x="0" y="757.892" color-interpolation-filters="sRGB" filterUnits="userSpaceOnUse"><feFlood flood-opacity="0" result="BackgroundImageFix"/><feColorMatrix in="SourceAlpha" result="hardAlpha" values="0 0 0 0 0 0 0 0 0 0 0 0 0 0 0 0 0 0 127 0"/><feOffset dy="-4.834"/><feComposite in2="hardAlpha" operator="out"/><feColorMatrix values="0 0 0 0 0.95098 0 0 0 0 0.803922 0 0 0 0 1 0 0 0 1 0"/><feBlend in2="BackgroundImageFix" result="effect1_dropShadow_827_5009"/><feColorMatrix in="SourceAlpha" result="hardAlpha" values="0 0 0 0 0 0 0 0 0 0 0 0 0 0 0 0 0 0 127 0"/><feOffset dy="-3.625"/><feComposite in2="hardAlpha" operator="out"/><feColorMatrix values="0 0 0 0 0.333333 0 0 0 0 0.0509804 0 0 0 0 0.247059 0 0 0 1 0"/><feBlend in2="effect1_dropShadow_827_5009" result="effect2_dropShadow_827_5009"/><feBlend in="SourceGraphic" in2="effect2_dropShadow_827_5009" result="shape"/></filter><filter id="K" width="125.084" height="141.45" x="307.719" y="271.355" color-interpolation-filters="sRGB" filterUnits="userSpaceOnUse"><feFlood flood-opacity="0" result="BackgroundImageFix"/><feColorMatrix in="SourceAlpha" result="hardAlpha" values="0 0 0 0 0 0 0 0 0 0 0 0 0 0 0 0 0 0 127 0"/><feOffset/><feGaussianBlur stdDeviation="14.502"/><feComposite in2="hardAlpha" operator="out"/><feColorMatrix values="0 0 0 0 0.882353 0 0 0 0 1 0 0 0 0 0.996078 0 0 0 0.72 0"/><feBlend in2="BackgroundImageFix" result="effect1_dropShadow_827_5009"/><feBlend in="SourceGraphic" in2="effect1_dropShadow_827_5009" result="shape"/></filter><filter id="M" width="36.916" height="38.827" x="451.455" y="389.025" color-interpolation-filters="sRGB" filterUnits="userSpaceOnUse"><feFlood flood-opacity="0" result="BackgroundImageFix"/><feBlend in="SourceGraphic" in2="BackgroundImageFix" result="shape"/><feGaussianBlur result="effect1_foregroundBlur_827_5009" stdDeviation="5.499"/></filter><filter id="O" width="36.916" height="38.827" x="449.07" y="391.886" color-interpolation-filters="sRGB" filterUnits="userSpaceOnUse"><feFlood flood-opacity="0" result="BackgroundImageFix"/><feBlend in="SourceGraphic" in2="BackgroundImageFix" result="shape"/><feGaussianBlur result="effect1_foregroundBlur_827_5009" stdDeviation="5.499"/></filter><filter id="Q" width="36.916" height="38.827" x="1026.68" y="322.56" color-interpolation-filters="sRGB" filterUnits="userSpaceOnUse"><feFlood flood-opacity="0" result="BackgroundImageFix"/><feBlend in="SourceGraphic" in2="BackgroundImageFix" result="shape"/><feGaussianBlur result="effect1_foregroundBlur_827_5009" stdDeviation="5.499"/></filter><filter id="S" width="36.916" height="38.827" x="1024.3" y="325.42" color-interpolation-filters="sRGB" filterUnits="userSpaceOnUse"><feFlood flood-opacity="0" result="BackgroundImageFix"/><feBlend in="SourceGraphic" in2="BackgroundImageFix" result="shape"/><feGaussianBlur result="effect1_foregroundBlur_827_5009" stdDeviation="5.499"/></filter><filter id="U" width="36.916" height="38.827" x="1249.04" y="570.296" color-interpolation-filters="sRGB" filterUnits="userSpaceOnUse"><feFlood flood-opacity="0" result="BackgroundImageFix"/><feBlend in="SourceGraphic" in2="BackgroundImageFix" result="shape"/><feGaussianBlur result="effect1_foregroundBlur_827_5009" stdDeviation="5.499"/></filter><filter id="W" width="36.916" height="38.827" x="1246.66" y="573.156" color-interpolation-filters="sRGB" filterUnits="userSpaceOnUse"><feFlood flood-opacity="0" result="BackgroundImageFix"/><feBlend in="SourceGraphic" in2="BackgroundImageFix" result="shape"/><feGaussianBlur result="effect1_foregroundBlur_827_5009" stdDeviation="5.499"/></filter><filter id="Y" width="36.916" height="38.827" x="267.768" y="360.022" color-interpolation-filters="sRGB" filterUnits="userSpaceOnUse"><feFlood flood-opacity="0" result="BackgroundImageFix"/><feBlend in="SourceGraphic" in2="BackgroundImageFix" result="shape"/><feGaussianBlur result="effect1_foregroundBlur_827_5009" stdDeviation="5.499"/></filter><filter id="aa" width="36.916" height="38.827" x="265.383" y="362.883" color-interpolation-filters="sRGB" filterUnits="userSpaceOnUse"><feFlood flood-opacity="0" result="BackgroundImageFix"/><feBlend in="SourceGraphic" in2="BackgroundImageFix" result="shape"/><feGaussianBlur result="effect1_foregroundBlur_827_5009" stdDeviation="5.499"/></filter><filter id="ac" width="36.916" height="38.827" x="324.565" y="409.569" color-interpolation-filters="sRGB" filterUnits="userSpaceOnUse"><feFlood flood-opacity="0" result="BackgroundImageFix"/><feBlend in="SourceGraphic" in2="BackgroundImageFix" result="shape"/><feGaussianBlur result="effect1_foregroundBlur_827_5009" stdDeviation="5.499"/></filter><filter id="ae" width="36.916" height="38.827" x="322.181" y="412.43" color-interpolation-filters="sRGB" filterUnits="userSpaceOnUse"><feFlood flood-opacity="0" result="BackgroundImageFix"/><feBlend in="SourceGraphic" in2="BackgroundImageFix" result="shape"/><feGaussianBlur result="effect1_foregroundBlur_827_5009" stdDeviation="5.499"/></filter><filter id="ag" width="201.152" height="261.965" x="1105.99" y="617.137" color-interpolation-filters="sRGB" filterUnits="userSpaceOnUse"><feFlood flood-opacity="0" result="BackgroundImageFix"/><feBlend in="SourceGraphic" in2="BackgroundImageFix" result="shape"/><feGaussianBlur result="effect1_foregroundBlur_827_5009" stdDeviation="38.203"/></filter><linearGradient id="b" x1="756.5" x2="756.5" y1="0" y2="663.448" gradientUnits="userSpaceOnUse"><stop offset=".869" stop-color="#1E1E1E"/><stop offset="1" stop-color="#F567D7"/></linearGradient><linearGradient id="ah" x1="864.953" x2="864.953" y1="742.662" y2="768.768" gradientUnits="userSpaceOnUse"><stop stop-color="#EBA1D4"/><stop offset=".63" stop-color="#CBAECD"/><stop offset="1" stop-color="#E8E8E6"/></linearGradient><linearGradient id="ai" x1="859.651" x2="859.651" y1="702.862" y2="748.489" gradientUnits="userSpaceOnUse"><stop stop-color="#EBA1D4"/><stop offset=".63" stop-color="#CBAECD"/><stop offset="1" stop-color="#E8E8E6"/></linearGradient><linearGradient id="aj" x1="817.861" x2="817.861" y1="702.862" y2="748.489" gradientUnits="userSpaceOnUse"><stop stop-color="#EBA1D4"/><stop offset=".63" stop-color="#CBAECD"/><stop offset="1" stop-color="#E8E8E6"/></linearGradient><linearGradient id="ak" x1="861.608" x2="861.608" y1="664.84" y2="700.327" gradientUnits="userSpaceOnUse"><stop stop-color="#EBA1D4"/><stop offset=".63" stop-color="#CBAECD"/><stop offset="1" stop-color="#E8E8E6"/></linearGradient><linearGradient id="al" x1="854.233" x2="854.091" y1="778.698" y2="768.766" gradientUnits="userSpaceOnUse"><stop stop-color="#0B1846"/><stop offset="1" stop-color="#A1EFFE"/></linearGradient><clipPath id="a"><path fill="#fff" d="M0 0h1513v770H0z"/></clipPath><clipPath id="g"><path fill="#fff" d="M0 1649.74v-1513h1513v1513z"/></clipPath></defs></svg>