<svg xmlns="http://www.w3.org/2000/svg" width="951" height="546" fill="none"><g clip-path="url(#a)"><path fill="#fff" fill-rule="evenodd" d="M265.343 518.364a3.664 3.664 0 0 1-3.665-3.664v-3.665a.916.916 0 1 0-1.832 0v3.665a3.664 3.664 0 0 1-3.665 3.664h-3.665a.916.916 0 1 0 0 1.833h3.665a3.665 3.665 0 0 1 3.665 3.665v3.665a.916.916 0 1 0 1.832 0v-3.665a3.665 3.665 0 0 1 3.665-3.665h3.665a.917.917 0 0 0 0-1.833zm109.26-137.2a3.664 3.664 0 0 1-3.665-3.664v-3.665a.917.917 0 0 0-1.833 0v3.665a3.663 3.663 0 0 1-3.664 3.664h-3.665a.916.916 0 1 0 0 1.833h3.665a3.664 3.664 0 0 1 3.664 3.665v3.664a.916.916 0 1 0 1.833 0v-3.664a3.665 3.665 0 0 1 3.665-3.665h3.665a.917.917 0 0 0 0-1.833zm-203.531 21.885a3.665 3.665 0 0 1-3.665-3.665v-3.664a.917.917 0 1 0-1.832 0v3.664a3.665 3.665 0 0 1-3.665 3.665h-3.665a.916.916 0 1 0 0 1.833h3.665a3.665 3.665 0 0 1 3.665 3.665v3.664a.917.917 0 1 0 1.832 0v-3.664a3.665 3.665 0 0 1 3.665-3.665h3.665a.917.917 0 0 0 0-1.833zm137.199 102.69a3.665 3.665 0 0 1-3.665-3.665v-3.665a.917.917 0 0 0-1.833 0v3.665a3.664 3.664 0 0 1-3.664 3.665h-3.665a.916.916 0 1 0 0 1.832h3.665a3.664 3.664 0 0 1 3.664 3.665v3.665a.916.916 0 1 0 1.833 0v-3.665a3.665 3.665 0 0 1 3.665-3.665h3.665a.916.916 0 1 0 0-1.832zM41.104 443.467a3.665 3.665 0 0 1-3.664-3.665v-3.665a.916.916 0 0 0-1.832 0v3.665a3.665 3.665 0 0 1-3.666 3.665h-3.665a.916.916 0 1 0 0 1.832h3.665a3.665 3.665 0 0 1 3.665 3.665v3.665a.916.916 0 0 0 1.832 0v-3.665a3.665 3.665 0 0 1 3.665-3.665h3.665a.916.916 0 1 0 0-1.832z" clip-rule="evenodd"/><circle cx="52.099" cy="469.12" r="2.749" fill="#fff"/><circle cx="321.462" cy="527.757" r="2.749" fill="#fff"/><circle cx="187.854" cy="420.278" r="2.749" fill="#fff"/><circle cx="339.362" cy="512.867" r="2.749" fill="#fff"/><circle cx="13.618" cy="461.791" r="2.749" fill="#fff"/><circle cx="272.866" cy="491.824" r="2.749" fill="#fff"/><circle cx="309.902" cy="429.537" r="2.749" fill="#fff"/><mask id="b" width="352" height="223" x="-43" y="363" maskUnits="userSpaceOnUse" style="mask-type:luminance"><path fill="#fff" d="M-23.59 365.897a2.197 2.197 0 0 1 2.415-1.956l327.812 34.454a2.2 2.2 0 0 1 1.956 2.416l-19.18 182.482a2.2 2.2 0 0 1-2.415 1.956l-327.812-34.455a2.197 2.197 0 0 1-1.956-2.415z"/></mask><g mask="url(#b)"><mask id="c" width="243" height="92" x="60" y="404" maskUnits="userSpaceOnUse" style="mask-type:luminance"><path fill="#fff" fill-rule="evenodd" d="M85.694 407.928c1.822-.966 28.263-13.569 83.597 20.826 52.267 32.491 111.278 7.626 121.952 2.532.354-.17.852.419.635.745l-12.187 18.457a.467.467 0 0 0 .331.723 868 868 0 0 0 21.924 2.407c.423.039.61.548.27.804-7.558 5.716-60.768 44.742-98.734 40.586-40.953-4.483-62.084-16.477-87.481-26.578-25.008-9.946-39.365-14.025-55.43-13.132 0 0 19.684-36.512 24.133-45.411.622-1.244.98-1.955.99-1.959" clip-rule="evenodd"/></mask><g mask="url(#c)"><path fill="#DB476F" fill-rule="evenodd" stroke="#DB476F" stroke-width="6.592" d="M85.693 407.928c1.823-.966 28.263-13.568 83.598 20.827 52.267 32.49 111.278 7.625 121.952 2.531.353-.17.852.42.635.746l-12.187 18.456a.467.467 0 0 0 .331.723 868 868 0 0 0 21.924 2.407c.423.039.61.548.27.805-7.559 5.715-60.768 44.741-98.734 40.586-40.953-4.484-62.085-16.478-87.481-26.579-25.008-9.946-39.365-14.025-55.43-13.132 0 0 19.683-36.512 24.133-45.411a99 99 0 0 1 .99-1.959Z" clip-rule="evenodd"/></g><path fill="#fff" fill-rule="evenodd" d="M99.22 419.528c-1.007 3.446-2.86 9.351-6.222 16.877-6.57 11.87 2.535 10.813 5.643 5.923 1.821-2.689 3.711-5.616 3.711-5.616l7.645 3.934s-1.04 3.564-2.026 6.499c-3.36 7.526 4.051 7.39 6.704 1.849 1.224-2.865 6.771-14.779 8.643-21.195 2.202-3.997-3.346-8.473-6.787-2.003-1.716 2.333-4.655 7.531-4.655 7.531s-6.323-3.155-6.372-3.428c-.185-.699.813-2.341 1.025-3.956.825-11.242-5.957-11.049-7.31-6.415m34.957 12.114c2.475-3.822 4.881-4.245 6.595-3.871.743.144 1.593 1.777 2.212 3.324 1.493 9.907-5.012 27.114-5.949 28.215-3.269 4.185-8.053 2.802-5.669-1.844a141 141 0 0 1 2.407-5.428l-6.235-1.395c-6.014 9.091-10.03 4.569-7.005.688 3.281-4.574 10.307-14.608 13.644-19.689m-3.441 12.154 6.106 1.743s2.927-10.766.857-9.823zm34.207.576c1.077-2.23-.06-7.664-6.137-7.444-8.67-.886-13.329 13.965-13.329 13.965s-2.246 7.194-.522 12.452c1.536 5.058 6.544 5.621 7.504 5.85 5.873-1.087 4.341-5.089 3.381-5.317-1.23-.199-2.932-.179-4.166-1.434-2.097-2.105-1.172-6.764-.395-9.24 1.64-4.126 5.154-12.293 9.055-9.773 2.13 3.436 4.028 2.172 4.609.941m5.093.174c-2.033 4.485-.661 9.594-5.437 18.032-1.147 2.063-3.808 5.786-4.134 6.321-2.546 3.766 1.48 6.59 6.964.123 1.319-1.472 3.026-5.424 3.026-5.424l2.078-.006s.93 8.091.973 11.518c.083 3.312 5.662 5.801 6.446-.595.034-2.218-.406-5.27-1.431-9.197 0 0-.638-2.865-1.509-3.323 0 0 7.153-5.709 8.04-8.132.93-2.537-.047-4.478-5.558-.775-5.508 3.703-6.243 5.001-6.243 5.001s1.787-5.233 2.113-9.31c.907-4.25-3.592-7.91-5.328-4.233m31.834 11.868c-2.4 1.909-4.202 5.787-4.717 11.898-.695 9.129 2.502 14.768 9.05 14.432 6.55-.337 5.543-5.146 4.967-5.364-.461-.175-.521-.734-3.268-.031-2.748.704-4.608-.673-5.831-4.892-.799-2.852-.813-8.224 1.497-10.971.688-.813 1.277-.992 1.594-1.141 1.265-.594 2.404.241 2.593.445 3.059 2.769 4.001.176 3.074-2.323-1.982-3.569-5.023-4.586-8.959-2.053m14.32 1.874c.347-3.457 4.203-5.728 4.61 2.13 1.003 5.159-.448 14.762.197 15.736.646.975 6.311.334 7.863-.007 1.551-.339 4.236.624 3.45 2.055-.673 1.475-2.116 1.464-2.433 1.61-.315.147-13.216 2.483-13.411-.034-.194-2.517-.1-3.654-.107-7.905-.008-4.253-.515-10.129-.169-13.585m15.78-1.584c.001-2.525 2.713-3.772 3.92-.928.91 2.203 1.247 11.371 2.691 15.368.85 1.648 2.916 2.155 4.059.854 1.401-2.004 1.141-7.42.887-11.77-.287-2.102-.704-3.73-.549-4.87.868-3.797 3.853-2.547 4.862 1.552.72 4.525 1.193 11.759.289 14.214-.861 2.338-1.82 5.304-5.016 5.705-.828.089-7.672.323-9.235-7.309-1.435-7.984-1.91-10.29-1.908-12.816m21.798-5.871c4.418-2.051 7.62-2.57 9.953-1.426 1.325 1.028 1.982 3.529 1.373 5.553-.64 1.749-1.541 3.134-1.541 3.134 2.432.517 3.963 3.168 4.079 6.43s-3.239 5.952-9.069 7.207c-1.953.326-3.965.1-3.983-.57.081-1.296-3.013-17.177-3.013-17.177-.047-.947-.439-2.021 2.201-3.151m1.419 2.921 1.544 5.088s5.253-1.471 4.956-4.235c-.3-2.764-3.642-1.502-6.5-.853m1.846 8.915s.771 6.125.742 5.849c.012-.394 7.541-1.054 6.389-5.069-1.152-4.012-7.131-.78-7.131-.78" clip-rule="evenodd"/></g><mask id="e" width="925" height="376" x="17.609" y="114.988" fill="#000" maskUnits="userSpaceOnUse"><path fill="#fff" d="M17.609 114.988h925v376h-925z"/><path fill-rule="evenodd" d="M473.275 145.94a22.87 22.87 0 0 1 15.976-12.716l29.091-6.184c1.845-.392 3.344 1.492 2.548 3.202l-24.814 53.305c-.796 1.71.703 3.594 2.548 3.202l35.384-7.521q.002 0 .001.002l.002.002 30.196-6.419c1.843-.392 3.342 1.489 2.55 3.199l-53.374 115.141a22.87 22.87 0 0 1-15.992 12.751l-29.077 6.18c-1.843.392-3.342-1.489-2.55-3.198l36.426-78.582c.793-1.709-.707-3.59-2.55-3.198l-24.311 5.167a2.29 2.29 0 0 0-1.597 1.272l-35.167 75.542a22.87 22.87 0 0 1-15.976 12.716l-29.091 6.184c-1.845.392-3.345-1.492-2.549-3.202zm-361.122 76.754a22.87 22.87 0 0 1 15.976-12.717l29.091-6.183c1.845-.392 3.344 1.492 2.548 3.202l-24.814 53.305c-.796 1.709.703 3.593 2.548 3.201l35.383-7.521q.003 0 .002.002 0 .002.002.002l30.196-6.418c1.843-.392 3.342 1.489 2.55 3.198l-53.374 115.142a22.86 22.86 0 0 1-15.992 12.75l-29.077 6.181c-1.843.392-3.342-1.489-2.55-3.198l36.426-78.582c.793-1.71-.707-3.59-2.55-3.198l-24.311 5.167a2.29 2.29 0 0 0-1.598 1.272l-35.166 75.542a22.87 22.87 0 0 1-15.976 12.716l-29.091 6.184c-1.845.392-3.345-1.492-2.549-3.202zm132.43 18.637a22.87 22.87 0 0 0-15.992 12.75l-53.374 115.142c-.792 1.709.707 3.59 2.55 3.198l29.078-6.18a22.87 22.87 0 0 0 15.992-12.751l53.373-115.142c.793-1.709-.707-3.59-2.55-3.198zm10.621-46.769a22.87 22.87 0 0 1 15.943-12.646l29.12-6.19c1.848-.393 3.348 1.498 2.545 3.209l-13.34 28.402a22.87 22.87 0 0 1-15.943 12.646l-29.119 6.189c-1.849.393-3.349-1.498-2.546-3.209zm93.386 24.661-8.94 1.9-24.611 5.232a22.87 22.87 0 0 0-15.992 12.75l-53.373 115.142c-.793 1.709.707 3.59 2.55 3.198l40.195-8.544a.13.13 0 0 0 .094-.074.13.13 0 0 1 .094-.075l26.3-5.47c1.842-.384 3.333 1.498 2.539 3.203l-6.38 13.704a2.29 2.29 0 0 1-1.582 1.269l-59.544 13.078a22.87 22.87 0 0 0-15.793 12.615l-13.36 28.451c-.806 1.717.708 3.612 2.56 3.205l78.033-17.139h.002l22.892-4.866a22.87 22.87 0 0 0 15.976-12.716l82.325-176.845c.796-1.71-.704-3.594-2.548-3.202l-35.65 7.577-4.602.979zm-12.665 85.37a2.29 2.29 0 0 0 1.617-1.276l20.37-43.759c.796-1.709-.703-3.594-2.548-3.201l-25.49 5.418a2.29 2.29 0 0 0-1.6 1.275l-20.159 43.488c-.788 1.702.694 3.577 2.531 3.203zm160.277 24.66c.792-1.71-.707-3.59-2.55-3.199l-40.261 8.558-29.729 6.319-33.551 7.132a22.87 22.87 0 0 0-15.992 12.75l-29.4 63.424c-.792 1.709.707 3.59 2.55 3.198l52.742-11.21c1.828-.389 3.324 1.46 2.564 3.167l-3.2 7.188a2.29 2.29 0 0 1-1.613 1.306l-59.598 12.668a2.29 2.29 0 0 0-1.599 1.275l-15.819 34.126c-.793 1.709.707 3.59 2.55 3.198l40.261-8.558 29.729-6.319 33.55-7.131a22.87 22.87 0 0 0 15.992-12.75l31.327-67.58c.792-1.71-.707-3.59-2.55-3.199l-54.964 11.683c-1.827.389-3.324-1.46-2.564-3.167l3.2-7.188a2.29 2.29 0 0 1 1.614-1.306l61.819-13.141a2.29 2.29 0 0 0 1.6-1.275zm101.363-25.747 40.261-8.557c1.843-.392 3.342 1.489 2.55 3.198l-33.728 72.76a2.29 2.29 0 0 1-1.599 1.275l-82.321 17.498a2.29 2.29 0 0 0-1.614 1.306l-3.2 7.188c-.76 1.707.737 3.556 2.564 3.167l75.465-16.04c1.844-.392 3.343 1.489 2.55 3.198l-11.491 24.79a22.87 22.87 0 0 1-15.992 12.75l-33.55 7.132-29.73 6.319-40.261 8.557c-1.843.392-3.342-1.488-2.55-3.198l53.374-115.142a22.87 22.87 0 0 1 15.992-12.75l33.551-7.131zm-59.551 51.3c-.76 1.707.737 3.556 2.565 3.167l42.013-8.93a2.28 2.28 0 0 0 1.605-1.288l3.286-7.207c.779-1.708-.719-3.575-2.556-3.185l-42.099 8.949a2.29 2.29 0 0 0-1.613 1.306zm392.017-118.227c.792-1.71-.707-3.59-2.551-3.199l-40.26 8.558-29.73 6.319-33.55 7.132a22.87 22.87 0 0 0-15.992 12.75l-29.4 63.423c-.792 1.71.707 3.591 2.55 3.199l52.742-11.21c1.827-.389 3.324 1.459 2.564 3.166l-3.2 7.188a2.29 2.29 0 0 1-1.614 1.307l-59.598 12.668a2.29 2.29 0 0 0-1.599 1.275l-15.819 34.126c-.792 1.709.707 3.59 2.55 3.198l40.261-8.558 29.729-6.319 33.551-7.131a22.87 22.87 0 0 0 15.992-12.75l31.326-67.58c.793-1.71-.707-3.59-2.55-3.199l-54.963 11.683c-1.828.389-3.325-1.46-2.565-3.167l3.201-7.188a2.29 2.29 0 0 1 1.613-1.306l61.82-13.141a2.28 2.28 0 0 0 1.599-1.275zM652 408.824l-40.261 8.557c-1.843.392-3.343-1.489-2.55-3.198l35.53-76.65a2.29 2.29 0 0 1 1.599-1.275l78.037-16.587a2.29 2.29 0 0 0 1.614-1.306l3.2-7.188c.76-1.707-.736-3.556-2.564-3.167l-71.181 15.13c-1.843.391-3.342-1.489-2.55-3.199l9.688-20.9a22.87 22.87 0 0 1 15.992-12.75l33.551-7.132 29.729-6.319 40.261-8.557c1.843-.392 3.342 1.488 2.55 3.198l-53.374 115.142a22.86 22.86 0 0 1-15.992 12.75l-33.55 7.131zm57.718-54.418c.76-1.706-.736-3.555-2.564-3.166l-42.013 8.93a2.28 2.28 0 0 0-1.605 1.288l-3.286 7.207c-.78 1.708.719 3.575 2.556 3.185l42.099-8.949a2.29 2.29 0 0 0 1.613-1.306z" clip-rule="evenodd"/></mask><path fill="#FEC2FB" fill-rule="evenodd" d="M473.275 145.94a22.87 22.87 0 0 1 15.976-12.716l29.091-6.184c1.845-.392 3.344 1.492 2.548 3.202l-24.814 53.305c-.796 1.71.703 3.594 2.548 3.202l35.384-7.521q.002 0 .001.002l.002.002 30.196-6.419c1.843-.392 3.342 1.489 2.55 3.199l-53.374 115.141a22.87 22.87 0 0 1-15.992 12.751l-29.077 6.18c-1.843.392-3.342-1.489-2.55-3.198l36.426-78.582c.793-1.709-.707-3.59-2.55-3.198l-24.311 5.167a2.29 2.29 0 0 0-1.597 1.272l-35.167 75.542a22.87 22.87 0 0 1-15.976 12.716l-29.091 6.184c-1.845.392-3.345-1.492-2.549-3.202zm-361.122 76.754a22.87 22.87 0 0 1 15.976-12.717l29.091-6.183c1.845-.392 3.344 1.492 2.548 3.202l-24.814 53.305c-.796 1.709.703 3.593 2.548 3.201l35.383-7.521q.003 0 .002.002 0 .002.002.002l30.196-6.418c1.843-.392 3.342 1.489 2.55 3.198l-53.374 115.142a22.86 22.86 0 0 1-15.992 12.75l-29.077 6.181c-1.843.392-3.342-1.489-2.55-3.198l36.426-78.582c.793-1.71-.707-3.59-2.55-3.198l-24.311 5.167a2.29 2.29 0 0 0-1.598 1.272l-35.166 75.542a22.87 22.87 0 0 1-15.976 12.716l-29.091 6.184c-1.845.392-3.345-1.492-2.549-3.202zm132.43 18.637a22.87 22.87 0 0 0-15.992 12.75l-53.374 115.142c-.792 1.709.707 3.59 2.55 3.198l29.078-6.18a22.87 22.87 0 0 0 15.992-12.751l53.373-115.142c.793-1.709-.707-3.59-2.55-3.198zm10.621-46.769a22.87 22.87 0 0 1 15.943-12.646l29.12-6.19c1.848-.393 3.348 1.498 2.545 3.209l-13.34 28.402a22.87 22.87 0 0 1-15.943 12.646l-29.119 6.189c-1.849.393-3.349-1.498-2.546-3.209zm93.386 24.661-8.94 1.9-24.611 5.232a22.87 22.87 0 0 0-15.992 12.75l-53.373 115.142c-.793 1.709.707 3.59 2.55 3.198l40.195-8.544a.13.13 0 0 0 .094-.074.13.13 0 0 1 .094-.075l26.3-5.47c1.842-.384 3.333 1.498 2.539 3.203l-6.38 13.704a2.29 2.29 0 0 1-1.582 1.269l-59.544 13.078a22.87 22.87 0 0 0-15.793 12.615l-13.36 28.451c-.806 1.717.708 3.612 2.56 3.205l78.033-17.139h.002l22.892-4.866a22.87 22.87 0 0 0 15.976-12.716l82.325-176.845c.796-1.71-.704-3.594-2.548-3.202l-35.65 7.577-4.602.979zm-12.665 85.37a2.29 2.29 0 0 0 1.617-1.276l20.37-43.759c.796-1.709-.703-3.594-2.548-3.201l-25.49 5.418a2.29 2.29 0 0 0-1.6 1.275l-20.159 43.488c-.788 1.702.694 3.577 2.531 3.203zm160.277 24.66c.792-1.71-.707-3.59-2.55-3.199l-40.261 8.558-29.729 6.319-33.551 7.132a22.87 22.87 0 0 0-15.992 12.75l-29.4 63.424c-.792 1.709.707 3.59 2.55 3.198l52.742-11.21c1.828-.389 3.324 1.46 2.564 3.167l-3.2 7.188a2.29 2.29 0 0 1-1.613 1.306l-59.598 12.668a2.29 2.29 0 0 0-1.599 1.275l-15.819 34.126c-.793 1.709.707 3.59 2.55 3.198l40.261-8.558 29.729-6.319 33.55-7.131a22.87 22.87 0 0 0 15.992-12.75l31.327-67.58c.792-1.71-.707-3.59-2.55-3.199l-54.964 11.683c-1.827.389-3.324-1.46-2.564-3.167l3.2-7.188a2.29 2.29 0 0 1 1.614-1.306l61.819-13.141a2.29 2.29 0 0 0 1.6-1.275zm101.363-25.747 40.261-8.557c1.843-.392 3.342 1.489 2.55 3.198l-33.728 72.76a2.29 2.29 0 0 1-1.599 1.275l-82.321 17.498a2.29 2.29 0 0 0-1.614 1.306l-3.2 7.188c-.76 1.707.737 3.556 2.564 3.167l75.465-16.04c1.844-.392 3.343 1.489 2.55 3.198l-11.491 24.79a22.87 22.87 0 0 1-15.992 12.75l-33.55 7.132-29.73 6.319-40.261 8.557c-1.843.392-3.342-1.488-2.55-3.198l53.374-115.142a22.87 22.87 0 0 1 15.992-12.75l33.551-7.131zm-59.551 51.3c-.76 1.707.737 3.556 2.565 3.167l42.013-8.93a2.28 2.28 0 0 0 1.605-1.288l3.286-7.207c.779-1.708-.719-3.575-2.556-3.185l-42.099 8.949a2.29 2.29 0 0 0-1.613 1.306zm392.017-118.227c.792-1.71-.707-3.59-2.551-3.199l-40.26 8.558-29.73 6.319-33.55 7.132a22.87 22.87 0 0 0-15.992 12.75l-29.4 63.423c-.792 1.71.707 3.591 2.55 3.199l52.742-11.21c1.827-.389 3.324 1.459 2.564 3.166l-3.2 7.188a2.29 2.29 0 0 1-1.614 1.307l-59.598 12.668a2.29 2.29 0 0 0-1.599 1.275l-15.819 34.126c-.792 1.709.707 3.59 2.55 3.198l40.261-8.558 29.729-6.319 33.551-7.131a22.87 22.87 0 0 0 15.992-12.75l31.326-67.58c.793-1.71-.707-3.59-2.55-3.199l-54.963 11.683c-1.828.389-3.325-1.46-2.565-3.167l3.201-7.188a2.29 2.29 0 0 1 1.613-1.306l61.82-13.141a2.28 2.28 0 0 0 1.599-1.275zM652 408.824l-40.261 8.557c-1.843.392-3.343-1.489-2.55-3.198l35.53-76.65a2.29 2.29 0 0 1 1.599-1.275l78.037-16.587a2.29 2.29 0 0 0 1.614-1.306l3.2-7.188c.76-1.707-.736-3.556-2.564-3.167l-71.181 15.13c-1.843.391-3.342-1.489-2.55-3.199l9.688-20.9a22.87 22.87 0 0 1 15.992-12.75l33.551-7.132 29.729-6.319 40.261-8.557c1.843-.392 3.342 1.488 2.55 3.198l-53.374 115.142a22.86 22.86 0 0 1-15.992 12.75l-33.55 7.131zm57.718-54.418c.76-1.706-.736-3.555-2.564-3.166l-42.013 8.93a2.28 2.28 0 0 0-1.605 1.288l-3.286 7.207c-.78 1.708.719 3.575 2.556 3.185l42.099-8.949a2.29 2.29 0 0 0 1.613-1.306z" clip-rule="evenodd"/><path fill="url(#d)" d="m489.251 133.224 2.377 11.183zm-15.976 12.716-10.366-4.825zm40.108 145.213 10.374 4.809zm-15.992 12.751-2.377-11.184zm-58.826 3.183 10.365 4.825zm-15.976 12.716 2.377 11.184zm-294.46-109.826 2.377 11.184zm-15.976 12.717-10.366-4.825zm40.108 145.213 10.373 4.808zm-15.992 12.75 2.377 11.184zm-58.826 3.184 10.365 4.825zm-15.976 12.716 2.377 11.184zM228.59 254.081l-10.373-4.809zm15.992-12.75 2.377 11.183zm-37.738 124.91 2.377 11.183zm15.992-12.751 10.373 4.809zm48.31-171.574 2.377 11.183zm-15.943 12.646 10.349 4.86zm34.268 12.775-10.349-4.861zm-15.943 12.646-2.377-11.184zm66.121 1.14 2.378 11.184zm8.94-1.9-2.377-11.183zm-33.551 7.132-2.377-11.184zm-15.992 12.75-10.373-4.809zM249.94 374.536l2.453 11.167zm-15.793 12.615-10.349-4.86zm67.233 14.517-2.444-11.169-.009.002zm.002 0-2.377-11.184-.034.008-.033.007zm22.892-4.866 2.377 11.184zm15.976-12.716-10.365-4.826zm44.127-172.47 2.378 11.184zm-4.602.979-2.377-11.184zm73.616 122.017 2.377 11.184zm-29.729 6.319-2.377-11.183zm-33.551 7.132 2.377 11.183zm-15.992 12.75-10.373-4.809zm-10.562 109.782-2.378-11.183zm29.729-6.319 2.377 11.184zm33.55-7.131-2.377-11.184zm15.992-12.75 10.374 4.808zm154.737-140.889-2.377-11.183zm-10.563 109.783 10.373 4.808zm-15.992 12.75-2.377-11.183zm-33.55 7.132 2.377 11.183zm-29.73 6.319-2.377-11.184zm10.563-109.783-10.373-4.808zm15.992-12.75-2.377-11.184zm33.551-7.131 2.377 11.183zm319.384-67.888-2.377-11.184h-.001zm-29.73 6.319 2.378 11.184zm-33.55 7.132-2.377-11.184zm-15.992 12.75-10.373-4.809zm-10.563 109.782 2.377 11.184zm29.729-6.319-2.377-11.183zm33.551-7.131-2.377-11.184zm15.992-12.75-10.373-4.809zM652 408.824l-2.378-11.184zm10.562-109.783-10.373-4.808zm15.992-12.75-2.377-11.184zm33.551-7.132 2.377 11.184zm29.729-6.319-2.377-11.183zm-10.563 109.783 10.374 4.808zm-15.992 12.75-2.377-11.184zm-33.55 7.131 2.377 11.184zm23.176-39.603-2.378-11.183zm1.613-1.306-10.445-4.651zm.636-10.355-2.377-11.184zm2.564 3.166-10.445-4.65zm-44.577 5.764 2.377 11.183zm-1.605 1.288-10.403-4.744zm-8.112-38.318 2.377 11.183zm-2.55-3.199 10.373 4.809zm-41.135 97.44-2.377-11.183zm-2.55-3.198-10.373-4.809zm145.385-30.902-10.373-4.809zm2.55 3.198 2.377 11.184zm14.868-38.599 2.378 11.183zm-1.599 1.275 10.373 4.808zm-229.814 8.818-2.377-11.183zm-2.565-3.167-10.445-4.65zm44.578-5.763-2.377-11.183zm1.605-1.288 10.403 4.744zM467.469 448.047l-2.377-11.183zm-2.55-3.198-10.373-4.808zm131.024-59.548 2.377 11.183zm2.55 3.198 10.374 4.809zm-80.579 9.675-10.445-4.65zm2.564 3.167-2.377-11.183zm2.25-11.661 2.377 11.183zm-1.614 1.306 10.445 4.651zm116.712-96.037 2.377 11.183zm2.55 3.198 10.373 4.809zm-223.099 76.797-10.445-4.65zm1.614-1.306-2.378-11.184zm-2.25 11.661-2.377-11.183zm-2.564-3.167 10.445 4.651zm-93.331 93.823-10.374-4.809zm2.55 3.198-2.377-11.183zm21.423-54.916 10.373 4.808zm2.55 3.198-2.377-11.183zm-17.395-165.66-2.378-11.184zm-1.6 1.275 10.374 4.808zm9.268 40.267 10.365 4.825zm-1.617 1.276-2.282-11.204zm-47.318 44.159-2.328-11.194zm-.188.149 2.377 11.184zm-42.745 5.346 10.373 4.808zm2.55 3.198-2.377-11.183zm358.424 13.462 10.373 4.808zm-1.599 1.275 2.377 11.184zm55.201-3.517 10.402 4.743zm2.556 3.185 2.377 11.184zM302.812 178.935l10.348 4.86zM480.71 360.497l-2.377-11.183zm1.6-1.275-10.374-4.808zm-206.1-120.874 10.373 4.809zm-2.55-3.198-2.377-11.184zm126.351 181.075-2.377-11.184zm2.564 3.167 10.445 4.65zm242.144-81.859 10.373 4.809zm1.599-1.275 2.378 11.184zm-539.126 50.58 2.377 11.183zm-2.55-3.198 10.373 4.808zm809.897-115.817 2.377 11.184zm1.599-1.275 10.373 4.809zm-713.053-16.981-2.377-11.184zm2.55 3.198 10.373 4.809zm645.471 29.505-10.445-4.65zm1.613-1.306-2.377-11.184zm-679.83-24.979-2.378-11.183zm320.763 70.069-2.377-11.183zm2.55 3.199 10.373 4.808zm354.268-36.628-2.377-11.183zm-2.565-3.167-10.445-4.65zm-675.02-33.477-2.377-11.183zm71.525-29.809 2.377 11.184zm-2.546-3.209 10.349 4.861zm666.119 61.178-10.373-4.809zm-2.55-3.199-2.377-11.183zm-770.479-20.641 10.365 4.825zm2.548 3.201 2.377 11.184zm285.073-56.261 10.365 4.825zm-2.548-3.202 2.377 11.183zm413.177 129.866 10.445 4.651zm-1.614 1.307-2.377-11.184zM475.329 230.273l2.377 11.184zm-1.597 1.272 10.365 4.825zm360.108 92.006-2.377-11.184zm2.564 3.166 10.445 4.651zM502.19 228.304l10.373 4.809zm-2.55-3.198 2.377 11.183zm-25.485 151.709 10.373 4.808zm-2.55-3.199-2.377-11.183zm310.49-109.333-2.377-11.184zm2.55 3.198 10.373 4.808zM175.217 369.223l10.373 4.808zm603.331-37.661-10.373-4.808zm2.55 3.199-2.377-11.184zm-312.784-24.677-2.377-11.183zm-2.55-3.198-10.373-4.809zm-157.649-.348-10.373-4.808zm2.531 3.203 2.282 11.203zM157.22 203.794l-2.377-11.184zm2.548 3.202-10.365-4.826zM32.376 402.741l-2.377-11.184zm-2.549-3.202-10.365-4.825zm190.96 16.063-10.349-4.86zm2.56 3.205 2.453 11.167zm340.86-245.994 2.377 11.184zm2.55 3.199 10.373 4.808zM927.48 233.38l-2.377-11.183zm2.551 3.199 10.373 4.808zm-396.02-57.347 2.377 11.183zm-.003-.004 2.377 11.183zm-176.096 80.33 10.365 4.826zm-2.548-3.201 2.377 11.183zm38.134 69.63-2.377-11.184zm-2.549-3.202 10.366 4.825zm-52.785 117.769 2.377 11.183zm-1.599 1.275 10.373 4.808zm392.604-130.652 10.445 4.65zm-2.564-3.167-2.377-11.184zm-612.398-.983-2.377-11.184zm-1.598 1.272-10.365-4.826zm198.457 51.89-10.365-4.825zm-1.582 1.269-2.453-11.167zm233.344-15.146 2.377 11.183zm-1.613 1.306-10.445-4.65zm-45.139-164.071-10.366-4.825zm2.548 3.202-2.377-11.184zM399.375 426.58l10.445 4.65zm-1.613 1.306-2.378-11.183zm326.593-108.215-2.377-11.183zm-583.287-14.613 10.373 4.808zm-2.55-3.198-2.377-11.184zm176.389 41.422 2.328 11.193zm2.539 3.203 10.365 4.826zm270.037-5.937-10.403-4.743zm-2.556-3.185-2.377-11.184zM520.89 130.242l-10.365-4.825zm-34.016-8.202a34.3 34.3 0 0 0-23.965 19.075l20.731 9.65a11.43 11.43 0 0 1 7.988-6.358zm29.091-6.183-29.091 6.183 4.754 22.367 29.091-6.183zm-9.524 72.515 24.815-53.305-20.731-9.65-24.815 53.305zm25.189-20.328-35.383 7.521 4.754 22.367 35.384-7.521zm30.2-6.414-30.196 6.418 4.754 22.367 30.196-6.418zm-38.073 134.332L577.13 180.82l-20.746-9.617-53.374 115.142zm-23.988 19.125a34.3 34.3 0 0 0 23.988-19.125l-20.747-9.617a11.43 11.43 0 0 1-7.996 6.375zm-29.078 6.181 29.078-6.181-4.755-22.367-29.077 6.181zm21.126-97.772-36.426 78.581 20.746 9.617 36.426-78.581zm-14.111 17.961 24.311-5.168-4.754-22.367-24.311 5.168zm-28.776 70.455 35.167-75.542-20.731-9.65-35.166 75.542zm-23.964 19.075a34.3 34.3 0 0 0 23.964-19.075l-20.73-9.65a11.44 11.44 0 0 1-7.988 6.358zm-29.091 6.184 29.091-6.184-4.754-22.367-29.091 6.183zm67.034-196.056L380.584 317.96l20.731 9.65 82.325-176.845zm-337.157 57.679a34.3 34.3 0 0 0-23.965 19.075l20.731 9.65a11.43 11.43 0 0 1 7.988-6.358zm29.091-6.184-29.091 6.184 4.754 22.367 29.091-6.184zm-9.524 72.516 24.815-53.305-20.731-9.651-24.815 53.305zm25.189-20.328-35.383 7.521 4.754 22.367 35.384-7.521zm30.2-6.415-30.197 6.419 4.755 22.367 30.196-6.419zm-38.074 134.332 53.374-115.141-20.746-9.617-53.374 115.142zm-23.988 19.126a34.3 34.3 0 0 0 23.988-19.126l-20.746-9.616a11.43 11.43 0 0 1-7.996 6.375zm-29.077 6.18 29.077-6.18-4.754-22.367-29.077 6.18zm21.126-97.771-36.426 78.581 20.746 9.617 36.426-78.582zm-14.111 17.961 24.311-5.168-4.754-22.367-24.311 5.167zm-28.776 70.455 35.167-75.542-20.731-9.651-35.166 75.542zm-23.964 19.075a34.3 34.3 0 0 0 23.964-19.075l-20.73-9.651a11.43 11.43 0 0 1-7.988 6.359zm-29.091 6.183 29.09-6.183-4.753-22.367-29.091 6.183zm67.034-196.055L19.462 394.714l20.73 9.65 82.326-176.845zm137.177 41.02a11.43 11.43 0 0 1 7.996-6.375l-4.754-22.367a34.3 34.3 0 0 0-23.988 19.125zM185.59 374.031l53.374-115.142-20.746-9.617-53.374 115.142zm18.878-18.974-29.078 6.181 4.755 22.367 29.077-6.181zm7.996-6.375a11.43 11.43 0 0 1-7.996 6.375l4.754 22.367a34.3 34.3 0 0 0 23.988-19.125zm53.373-115.142-53.373 115.142 20.746 9.617 53.373-115.142zm-18.877 18.974 29.077-6.18-4.754-22.368-29.077 6.181zm21.81-81.782a34.3 34.3 0 0 0-23.915 18.969l20.698 9.721a11.43 11.43 0 0 1 7.971-6.323zm29.119-6.19-29.119 6.19 4.754 22.367 29.12-6.189zm1.932 47.655 13.339-28.402-20.697-9.721-13.34 28.402zm-23.915 18.969a34.3 34.3 0 0 0 23.915-18.969l-20.698-9.721a11.43 11.43 0 0 1-7.971 6.323zm-29.119 6.19 29.119-6.19-4.754-22.367-29.12 6.189zm-1.932-47.655-13.339 28.402 20.697 9.721 13.34-28.402zm97.173 42.606 8.939-1.9-4.754-22.367-8.94 1.9zm-24.612 5.231 24.612-5.231-4.755-22.367-24.611 5.231zm-7.996 6.375a11.43 11.43 0 0 1 7.996-6.375l-4.754-22.367a34.3 34.3 0 0 0-23.988 19.125zm-53.373 115.142 53.373-115.142-20.746-9.617-53.373 115.142zm29.995-21.337-40.195 8.544 4.754 22.367 40.195-8.544zm26.537-5.63-26.3 5.47 4.657 22.387 26.299-5.47zm8.853 32.927 6.379-13.704-20.731-9.651-6.379 13.704zm-69.039 20.688 59.543-13.078-4.905-22.334-59.544 13.078zm-7.897 6.307a11.44 11.44 0 0 1 7.897-6.307l-4.906-22.334a34.3 34.3 0 0 0-23.689 18.922zm-13.36 28.452 13.36-28.452-20.698-9.719-13.36 28.451zm67.791-29.961-78.032 17.139 4.905 22.334 78.032-17.138zm.011-.002h-.002l4.887 22.339.002-.001zm22.958-4.88-22.891 4.865 4.754 22.368 22.892-4.866zm7.989-6.359a11.44 11.44 0 0 1-7.989 6.359l4.755 22.367a34.3 34.3 0 0 0 23.964-19.075zm82.325-176.845L329.885 379.26l20.73 9.651 82.325-176.845zM386.755 222.8l35.649-7.578-4.755-22.367L382 200.433zm-4.603.978 4.603-.978L382 200.433l-4.602.978zm-31.185 6.629 31.185-6.629-4.754-22.367-31.185 6.629zm-3.42 24.326-20.371 43.759 20.731 9.65 20.37-43.758zm-15.296 18.225 25.49-5.418-4.754-22.367-25.491 5.418zm-13.762 38.389 20.159-43.489-20.747-9.617-20.159 43.489zm15.154-17.958-25.278 5.148 4.563 22.407 25.278-5.148zm122.125 52.407 40.261-8.558-4.754-22.367-40.261 8.558zm-29.729 6.319 29.729-6.319-4.754-22.367-29.729 6.319zm-33.551 7.131 33.551-7.131-4.754-22.367-33.551 7.131zm-7.996 6.375a11.43 11.43 0 0 1 7.996-6.375l-4.754-22.367a34.3 34.3 0 0 0-23.988 19.125zm-29.4 63.424 29.4-63.424-20.746-9.617-29.4 63.424zm42.542-24.004-52.742 11.211 4.754 22.367 52.742-11.211zm12.186 26.189 3.2-7.188-20.889-9.301-3.201 7.188zm-69.279 20.507 59.598-12.667-4.755-22.367-59.597 12.667zm-9.422 29.026 15.819-34.126-20.747-9.617-15.819 34.126zm30.06-21.351-40.26 8.558 4.754 22.367 40.261-8.558zm29.73-6.319-29.73 6.319 4.755 22.367 29.729-6.319zm33.55-7.132-33.55 7.132 4.754 22.367 33.551-7.132zm7.996-6.375a11.43 11.43 0 0 1-7.996 6.375l4.755 22.367a34.3 34.3 0 0 0 23.988-19.125zm31.327-67.58-31.327 67.58 20.747 9.617 31.326-67.58zm-44.764 24.477 54.964-11.683-4.754-22.367-54.964 11.683zm-12.186-26.189-3.2 7.188 20.89 9.301 3.2-7.188zm71.501-20.98-61.82 13.14 4.755 22.367 61.82-13.14zm7.496-24.87-13.893 29.97 20.747 9.617 13.892-29.97zm149.62-40.679-40.261 8.558 4.754 22.367 40.261-8.558zm-18.428 91.95 33.728-72.759-20.746-9.617-33.728 72.759zm-91.916 25.148 82.321-17.497-4.754-22.368-82.322 17.498zm3.254 1.962 3.2-7.188-20.89-9.301-3.2 7.188zm65.207-28.708-75.465 16.041 4.754 22.367 75.465-16.041zm3.809 43.98 11.492-24.789-20.747-9.617-11.491 24.79zm-23.988 19.126a34.3 34.3 0 0 0 23.988-19.126l-20.746-9.617a11.43 11.43 0 0 1-7.996 6.376zm-33.55 7.131 33.55-7.131-4.754-22.367-33.551 7.131zm-29.73 6.319 29.73-6.319-4.755-22.367-29.729 6.319zm-40.26 8.558 40.26-8.558-4.754-22.367-40.261 8.558zm38.073-134.332-53.374 115.142 20.747 9.617 53.373-115.142zm23.988-19.126a34.3 34.3 0 0 0-23.988 19.126l20.746 9.617a11.43 11.43 0 0 1 7.996-6.375zm33.551-7.131-33.551 7.131 4.754 22.368 33.551-7.132zm29.729-6.319-29.729 6.319 4.754 22.367 29.729-6.319zm-14.973 45.537-42.013 8.93 4.754 22.367 42.013-8.93zm-3.135-2.055-3.286 7.207 20.806 9.487 3.286-7.207zm-31.875 21.69 42.099-8.948-4.754-22.368-42.099 8.949zm3.254 1.962 3.2-7.188-20.889-9.301-3.201 7.188zm341.138-106.335 40.261-8.558-4.755-22.367-40.26 8.557zm-29.729 6.319 29.729-6.319-4.755-22.368-29.729 6.32zm-33.551 7.131 33.551-7.131-4.755-22.367-33.55 7.131zm-7.996 6.375a11.43 11.43 0 0 1 7.996-6.375l-4.754-22.367a34.3 34.3 0 0 0-23.988 19.125zm-29.4 63.424 29.4-63.424-20.746-9.617-29.4 63.424zm42.542-24.004-52.742 11.21 4.754 22.367 52.742-11.21zm12.186 26.189 3.2-7.188-20.89-9.301-3.2 7.188zm-69.279 20.507 59.597-12.667-4.754-22.368-59.598 12.668zm-9.423 29.026 15.819-34.126-20.746-9.617-15.819 34.126zm30.061-21.351-40.261 8.558 4.754 22.367 40.261-8.558zm29.729-6.319-29.729 6.319 4.754 22.367 29.729-6.319zm33.551-7.132-33.551 7.132 4.754 22.367 33.551-7.132zm7.996-6.375a11.43 11.43 0 0 1-7.996 6.375l4.754 22.367a34.3 34.3 0 0 0 23.988-19.125zm31.326-67.58-31.326 67.58 20.746 9.617 31.327-67.58zm-44.763 24.477 54.963-11.683-4.754-22.367-54.963 11.683zm-12.186-26.189-3.201 7.188 20.89 9.301 3.201-7.188zm71.501-20.98-61.82 13.14 4.754 22.367 61.82-13.14zm7.495-24.87-13.892 29.97 20.746 9.617 13.893-29.97zM614.116 428.565l40.261-8.558-4.755-22.367-40.26 8.558zm20.23-95.84-35.53 76.649 20.746 9.617 35.53-76.649zm87.632-24.237-78.037 16.587 4.755 22.367 78.037-16.587zm-3.254-1.962-3.2 7.188 20.89 9.301 3.2-7.188zm-60.923 27.797 71.181-15.13-4.754-22.367-71.181 15.13zm-5.612-40.09-9.688 20.9 20.746 9.617 9.688-20.901zm23.988-19.126a34.3 34.3 0 0 0-23.988 19.126l20.746 9.616a11.44 11.44 0 0 1 7.996-6.375zm33.551-7.131-33.551 7.131 4.754 22.367 33.551-7.131zm29.729-6.319-29.729 6.319 4.754 22.367 29.729-6.319zm40.261-8.558-40.261 8.558 4.754 22.367 40.261-8.558zm-38.073 134.332 53.373-115.142-20.746-9.617-53.374 115.142zm-23.988 19.126a34.3 34.3 0 0 0 23.988-19.126l-20.747-9.617a11.43 11.43 0 0 1-7.996 6.375zm-33.551 7.131 33.551-7.131-4.755-22.368-33.55 7.132zm-29.729 6.319 29.729-6.319-4.754-22.367-29.73 6.319zm13.141-48.654 42.013-8.93-4.754-22.367-42.013 8.93zm3.134 2.055 3.287-7.207-20.806-9.487-3.286 7.207zm31.875-21.69-42.099 8.948 4.755 22.368 42.099-8.949zm-3.254-1.962-3.2 7.188 20.89 9.301 3.2-7.188zm8.009 24.329a13.72 13.72 0 0 0 9.681-7.84l-20.89-9.301a9.14 9.14 0 0 1 6.454-5.226zm2.249-11.662c-7.31 1.554-13.297-5.84-10.258-12.667l20.89 9.301c4.56-10.241-4.421-21.332-15.386-19.001zm-46.767-13.437a13.72 13.72 0 0 0-9.631 7.728l20.806 9.487a9.15 9.15 0 0 1-6.421 5.152zm-9.717-37.03c7.373-1.567 13.37 5.955 10.2 12.794l-20.746-9.617c-4.755 10.257 4.241 21.541 15.3 19.19zm-43.685 94.242c7.372-1.567 13.37 5.955 10.2 12.793l-20.746-9.617c-4.755 10.258 4.241 21.541 15.3 19.191zm134.839-27.726c-4.755 10.258 4.242 21.541 15.3 19.191l-4.754-22.367c7.373-1.568 13.37 5.955 10.2 12.793zm25.414-41.776a13.72 13.72 0 0 0-9.595 7.65l20.746 9.617a9.14 9.14 0 0 1-6.396 5.1zM538.202 346.79c7.31-1.554 13.297 5.839 10.257 12.667l-20.89-9.301c-4.559 10.241 4.421 21.332 15.387 19.001zm46.767 13.437a13.72 13.72 0 0 0 9.631-7.728l-20.806-9.487a9.15 9.15 0 0 1 6.421-5.152zm-119.877 76.637c7.373-1.567 13.37 5.955 10.201 12.794l-20.747-9.617c-4.755 10.257 4.242 21.541 15.301 19.19zm133.228-40.38c-7.372 1.567-13.37-5.955-10.2-12.793l20.747 9.617c4.754-10.258-4.242-21.541-15.301-19.191zm-90.851-2.96c-4.56 10.241 4.421 21.331 15.386 19.001l-4.754-22.367c7.31-1.554 13.297 5.839 10.258 12.667zm12.881-15.028a13.72 13.72 0 0 0-9.681 7.84l20.89 9.301a9.15 9.15 0 0 1-6.454 5.226zm119.853-72.364c-7.373 1.567-13.37-5.955-10.2-12.793l20.746 9.617c4.755-10.258-4.242-21.541-15.3-19.191zm-212.481 73.463a9.14 9.14 0 0 1-6.454 5.226l-4.755-22.367a13.72 13.72 0 0 0-9.681 7.84zm-13.458-5.479c7.31-1.554 13.297 5.839 10.258 12.667l-20.89-9.301c-4.56 10.241 4.421 21.332 15.386 19.001zm-103.892 97.03c-4.754 10.258 4.242 21.541 15.301 19.191l-4.754-22.367c7.372-1.568 13.37 5.955 10.2 12.793zm23.974-51.718c-4.755 10.258 4.242 21.541 15.3 19.191l-4.754-22.367c7.373-1.568 13.37 5.955 10.2 12.793zm-6.85-168.837a13.72 13.72 0 0 0-9.595 7.65l20.747 9.617a9.15 9.15 0 0 1-6.397 5.1zm-.32 47.901a9.15 9.15 0 0 1 6.467-5.103l4.563 22.407a13.72 13.72 0 0 0 9.701-7.654zm-28.29 55.143a11.3 11.3 0 0 1-7.95 6.31l-4.657-22.387a11.57 11.57 0 0 0-8.139 6.46zm-8.09 6.45a11.57 11.57 0 0 0 8.09-6.45l-20.746-9.617a11.3 11.3 0 0 1 7.902-6.3zm-55.495-10.647c-4.755 10.258 4.241 21.541 15.3 19.191l-4.754-22.367c7.372-1.568 13.37 5.955 10.2 12.793zm360.974 16.66a9.15 9.15 0 0 1 6.397-5.1l4.754 22.368a13.72 13.72 0 0 0 9.595-7.651zm53.572-2.177c-4.675 10.251 4.315 21.455 15.336 19.113l-4.755-22.368c7.347-1.561 13.341 5.908 10.224 12.742zM302.644 186.91c-7.394 1.571-13.394-5.994-10.181-12.836l20.697 9.721c4.82-10.262-4.181-21.61-15.271-19.253zm180.444 184.771a13.72 13.72 0 0 0 9.595-7.65l-20.747-9.617a9.15 9.15 0 0 1 6.397-5.1zM286.583 243.157c4.755-10.258-4.241-21.541-15.3-19.191l4.754 22.368c-7.372 1.567-13.37-5.956-10.2-12.794zm115.805 184.251c-7.31 1.554-13.297-5.84-10.257-12.667l20.889 9.301c4.56-10.241-4.421-21.332-15.386-19.001zm252.704-85.066a9.15 9.15 0 0 1-6.396 5.1l-4.755-22.367a13.72 13.72 0 0 0-9.595 7.65zm-550.277 33.312c7.372-1.567 13.37 5.956 10.2 12.794l-20.746-9.617c-4.755 10.258 4.241 21.541 15.3 19.19zm812.101-96.647a13.72 13.72 0 0 0 9.595-7.65l-20.746-9.617a9.15 9.15 0 0 1 6.397-5.1zM205.462 260.75c-7.373 1.568-13.37-5.955-10.2-12.793l20.746 9.617c4.755-10.258-4.241-21.541-15.3-19.191zm656.089 26.171a9.15 9.15 0 0 1-6.455 5.226l-4.754-22.367a13.72 13.72 0 0 0-9.681 7.84zm-699.012-35.8c-4.024 8.565 3.495 18.01 12.727 16.048l-4.755-22.367c9.229-1.962 16.747 7.481 12.724 16.044zm333.49 86.117c-7.373 1.567-13.37-5.955-10.2-12.794l20.746 9.617c4.755-10.257-4.241-21.541-15.3-19.19zm352.064-55.796c7.31-1.554 13.297 5.839 10.257 12.667l-20.89-9.301c-4.559 10.241 4.422 21.332 15.387 19.001zm-672.83-14.277c-9.242 1.964-16.742-7.493-12.724-16.044l20.696 9.725c4.019-8.553-3.483-18.013-12.727-16.048zm66.769-52.177c7.394-1.571 13.394 5.994 10.181 12.836l-20.697-9.721c-4.82 10.262 4.181 21.61 15.271 19.253zm676.325 73.961c4.754-10.257-4.242-21.541-15.301-19.19l4.754 22.367c-7.372 1.567-13.37-5.955-10.2-12.794zm-793.769-33.474c-4.775 10.259 4.222 21.564 15.291 19.211l-4.754-22.367c7.379-1.569 13.378 5.967 10.194 12.807zm308.352-43.409c4.776-10.259-4.222-21.563-15.291-19.211l4.755 22.367c-7.38 1.569-13.378-5.967-10.194-12.807zm389.819 117.189a9.15 9.15 0 0 1 6.454-5.227l4.754 22.368a13.73 13.73 0 0 0 9.682-7.84zM472.952 219.09a13.72 13.72 0 0 0-9.586 7.63l20.731 9.65a9.15 9.15 0 0 1-6.391 5.087zm363.265 115.644c-7.31 1.554-13.298-5.84-10.258-12.667l20.89 9.301c4.56-10.241-4.421-21.332-15.386-19.001zM512.563 233.113c4.755-10.258-4.241-21.541-15.3-19.191l4.754 22.367c-7.372 1.568-13.37-5.955-10.2-12.793zm-28.035 148.51c4.755-10.257-4.242-21.541-15.3-19.19l4.754 22.367c-7.373 1.567-13.37-5.955-10.2-12.794zm299.944-106.157c-7.372 1.567-13.37-5.955-10.2-12.794l20.746 9.617c4.755-10.257-4.241-21.541-15.3-19.19zm-619.628 88.948c-4.755 10.258 4.242 21.541 15.301 19.191l-4.755-22.367c7.373-1.568 13.37 5.955 10.2 12.793zm603.331-37.66c-4.755 10.258 4.241 21.541 15.3 19.19l-4.754-22.367c7.373-1.567 13.37 5.956 10.2 12.794zm-302.238-27.853c7.373-1.567 13.37 5.955 10.2 12.793l-20.746-9.617c-4.755 10.258 4.241 21.541 15.3 19.191zm-168.195 2.829c-4.732 10.208 4.16 21.459 15.186 19.214l-4.563-22.407c7.35-1.497 13.278 6.004 10.124 12.81zm-138.145-86.753c-7.379 1.569-13.378-5.967-10.194-12.807l20.731 9.651c4.775-10.259-4.222-21.564-15.291-19.211zM29.999 391.557c7.38-1.569 13.378 5.968 10.194 12.807l-20.73-9.65c-4.777 10.259 4.22 21.563 15.29 19.21zm180.439 19.185c-4.837 10.301 4.247 21.674 15.362 19.232l-4.905-22.334c7.41-1.628 13.466 5.954 10.241 12.822zm356.146-226.745c-7.373 1.567-13.37-5.955-10.2-12.794l20.746 9.617c4.755-10.258-4.241-21.541-15.3-19.19zm363.274 60.567c-7.373 1.567-13.37-5.955-10.201-12.794l20.747 9.617c4.754-10.257-4.242-21.541-15.301-19.19zM523.66 174.37c-4.01 8.541 3.472 18.013 12.728 16.045l-4.754-22.367c9.253-1.967 16.733 7.503 12.724 16.041zm12.725 16.041c-9.24 1.964-16.74-7.49-12.725-16.041l20.698 9.719c4.016-8.553-3.485-18.009-12.728-16.045zm-168.108 73.973c4.776-10.259-4.222-21.564-15.29-19.211l4.754 22.367c-7.379 1.569-13.378-5.967-10.194-12.807zm22.844 50.419c7.379-1.568 13.378 5.968 10.194 12.807l-20.731-9.65c-4.776 10.259 4.222 21.563 15.291 19.211zM335.787 429.37a13.72 13.72 0 0 0-9.596 7.65l20.747 9.617a9.15 9.15 0 0 1-6.397 5.1zm403.827-113.543c4.56-10.241-4.421-21.331-15.386-19.001l4.754 22.367c-7.31 1.554-13.297-5.839-10.258-12.667zM111.83 295.843a13.72 13.72 0 0 0-9.586 7.63l20.731 9.651a9.15 9.15 0 0 1-6.391 5.087zm188.871 59.521a9.15 9.15 0 0 1 6.33-5.073l4.905 22.334a13.72 13.72 0 0 0 9.496-7.61zm239.75-20.236a13.72 13.72 0 0 0-9.681 7.84l20.889 9.301a9.14 9.14 0 0 1-6.454 5.226zM485.71 178.722c-4.775 10.259 4.222 21.563 15.291 19.21l-4.754-22.367c7.379-1.568 13.378 5.968 10.194 12.807zm-96.78 243.207a9.15 9.15 0 0 1 6.454-5.226l4.755 22.367a13.72 13.72 0 0 0 9.681-7.84zm337.803-91.074a13.72 13.72 0 0 0 9.681-7.84l-20.89-9.301a9.14 9.14 0 0 1 6.454-5.226zm-575.292-20.989c4.755-10.257-4.241-21.541-15.3-19.19l4.754 22.367c-7.372 1.567-13.37-5.955-10.2-12.793zm165.794 44.609c-7.368 1.533-13.331-5.992-10.155-12.815l20.731 9.651c4.764-10.234-4.18-21.522-15.232-19.223zm280.651-9.183c4.674-10.251-4.316-21.455-15.336-19.113l4.754 22.368c-7.347 1.561-13.34-5.908-10.224-12.742zm-77.167-207.068c-7.379 1.568-13.378-5.968-10.194-12.807l20.731 9.65c4.775-10.259-4.222-21.563-15.291-19.21z" mask="url(#e)"/><mask id="g" width="925" height="376" x="13.035" y="110.414" fill="#000" maskUnits="userSpaceOnUse"><path fill="#fff" d="M13.035 110.414h925v376h-925z"/><path fill-rule="evenodd" d="M468.701 141.367a22.87 22.87 0 0 1 15.976-12.717l29.091-6.183c1.845-.392 3.344 1.492 2.548 3.201l-24.814 53.305c-.796 1.71.703 3.594 2.548 3.202l35.383-7.521q.002 0 .002.002t.002.002l30.196-6.418c1.843-.392 3.342 1.489 2.55 3.198L508.809 286.58a22.86 22.86 0 0 1-15.992 12.75l-29.077 6.181c-1.843.392-3.342-1.489-2.55-3.199l36.426-78.581c.793-1.71-.707-3.59-2.55-3.199l-24.311 5.168a2.29 2.29 0 0 0-1.598 1.272l-35.166 75.541a22.87 22.87 0 0 1-15.976 12.717l-29.091 6.183c-1.845.393-3.345-1.491-2.549-3.201zM107.579 218.12a22.86 22.86 0 0 1 15.976-12.716l29.091-6.184c1.845-.392 3.344 1.492 2.548 3.202l-24.814 53.305c-.796 1.71.703 3.594 2.548 3.202l35.383-7.521.002.002q-.001.002.001.002l30.197-6.419c1.843-.391 3.342 1.489 2.55 3.199l-53.374 115.142a22.87 22.87 0 0 1-15.992 12.75l-29.077 6.18c-1.843.392-3.343-1.488-2.55-3.198l36.426-78.582c.793-1.709-.707-3.59-2.55-3.198l-24.311 5.168a2.29 2.29 0 0 0-1.598 1.271l-35.166 75.542a22.87 22.87 0 0 1-15.976 12.717l-29.091 6.183c-1.845.392-3.345-1.492-2.549-3.202zm132.43 18.637a22.87 22.87 0 0 0-15.992 12.75l-53.374 115.142c-.792 1.71.707 3.59 2.55 3.199l29.078-6.181a22.87 22.87 0 0 0 15.992-12.75l53.373-115.142c.793-1.71-.707-3.59-2.55-3.198zm10.621-46.769a22.87 22.87 0 0 1 15.943-12.646l29.119-6.189c1.849-.393 3.349 1.498 2.546 3.208l-13.34 28.402a22.87 22.87 0 0 1-15.943 12.646l-29.12 6.19c-1.848.392-3.348-1.499-2.545-3.209zm93.386 24.662-8.94 1.9-24.611 5.231a22.87 22.87 0 0 0-15.992 12.75L241.1 349.673c-.793 1.71.707 3.59 2.55 3.199l40.195-8.544a.14.14 0 0 0 .094-.075.14.14 0 0 1 .094-.075l26.3-5.47c1.842-.383 3.333 1.498 2.539 3.204l-6.38 13.704a2.29 2.29 0 0 1-1.582 1.268l-59.544 13.078a22.87 22.87 0 0 0-15.793 12.615l-13.36 28.451c-.806 1.717.708 3.613 2.56 3.206l78.035-17.139 22.891-4.866a22.87 22.87 0 0 0 15.977-12.717l82.325-176.845c.796-1.71-.704-3.594-2.549-3.202l-35.649 7.578-4.602.978zm-12.665 85.369a2.29 2.29 0 0 0 1.617-1.276l20.37-43.758c.796-1.71-.704-3.594-2.548-3.202l-25.491 5.418a2.29 2.29 0 0 0-1.599 1.275l-20.159 43.489c-.788 1.701.694 3.576 2.531 3.202zm160.277 24.66c.793-1.71-.707-3.59-2.55-3.198l-40.261 8.557-29.729 6.319-33.551 7.132a22.87 22.87 0 0 0-15.992 12.75l-29.399 63.424c-.793 1.71.706 3.59 2.55 3.198l52.742-11.21c1.827-.389 3.324 1.46 2.564 3.167l-3.2 7.188a2.29 2.29 0 0 1-1.614 1.306L333.59 435.98a2.29 2.29 0 0 0-1.599 1.275l-15.819 34.126c-.793 1.71.707 3.59 2.55 3.198l40.261-8.557 29.729-6.319 33.551-7.132a22.87 22.87 0 0 0 15.992-12.75l31.326-67.58c.793-1.71-.707-3.59-2.55-3.199l-54.963 11.683c-1.828.389-3.325-1.46-2.565-3.167l3.201-7.188a2.29 2.29 0 0 1 1.613-1.306l61.82-13.14a2.29 2.29 0 0 0 1.599-1.275zm101.364-25.747 40.261-8.558c1.843-.392 3.343 1.489 2.55 3.198l-33.727 72.76a2.29 2.29 0 0 1-1.6 1.275l-82.322 17.498a2.29 2.29 0 0 0-1.613 1.306l-3.2 7.188c-.76 1.707.736 3.556 2.564 3.167l75.466-16.04c1.843-.392 3.342 1.488 2.55 3.198l-11.491 24.79a22.87 22.87 0 0 1-15.992 12.75l-33.551 7.132-29.729 6.319-40.261 8.558c-1.843.391-3.343-1.489-2.55-3.199l53.373-115.141a22.87 22.87 0 0 1 15.992-12.751l33.551-7.131zm-59.55 51.3c-.76 1.706.736 3.555 2.564 3.166l42.013-8.93a2.28 2.28 0 0 0 1.605-1.288l3.286-7.206c.779-1.709-.719-3.576-2.556-3.186l-42.099 8.949a2.29 2.29 0 0 0-1.613 1.307zm392.015-118.228c.792-1.71-.707-3.59-2.55-3.198l-40.261 8.557-29.729 6.32-33.551 7.131a22.87 22.87 0 0 0-15.992 12.75l-29.4 63.424c-.792 1.709.707 3.59 2.55 3.198l52.742-11.21c1.827-.389 3.324 1.46 2.564 3.167l-3.2 7.188a2.29 2.29 0 0 1-1.614 1.306l-59.597 12.668a2.29 2.29 0 0 0-1.6 1.275L750 378.706c-.792 1.71.707 3.59 2.55 3.198l40.261-8.557 29.73-6.319 33.55-7.132a22.87 22.87 0 0 0 15.992-12.75l31.327-67.58c.792-1.71-.707-3.59-2.55-3.199l-54.964 11.683c-1.828.389-3.324-1.46-2.564-3.166l3.2-7.188a2.29 2.29 0 0 1 1.613-1.307l61.82-13.14a2.29 2.29 0 0 0 1.6-1.275zM647.426 404.249l-40.261 8.558c-1.843.391-3.342-1.489-2.55-3.199l35.531-76.649a2.28 2.28 0 0 1 1.599-1.275l78.037-16.587a2.29 2.29 0 0 0 1.614-1.307l3.2-7.188c.76-1.707-.737-3.555-2.565-3.167l-71.181 15.13c-1.843.392-3.342-1.489-2.55-3.198l9.689-20.901a22.86 22.86 0 0 1 15.992-12.75l33.55-7.131 29.73-6.32 40.26-8.557c1.844-.392 3.343 1.489 2.55 3.198l-53.373 115.142a22.87 22.87 0 0 1-15.992 12.75l-33.551 7.132zm57.719-54.417c.76-1.707-.737-3.555-2.565-3.167l-42.013 8.93a2.29 2.29 0 0 0-1.605 1.288l-3.286 7.207c-.779 1.709.719 3.576 2.556 3.186l42.099-8.949a2.29 2.29 0 0 0 1.614-1.307z" clip-rule="evenodd"/></mask><path fill="#FEC2FB" fill-rule="evenodd" d="M468.701 141.367a22.87 22.87 0 0 1 15.976-12.717l29.091-6.183c1.845-.392 3.344 1.492 2.548 3.201l-24.814 53.305c-.796 1.71.703 3.594 2.548 3.202l35.383-7.521q.002 0 .002.002t.002.002l30.196-6.418c1.843-.392 3.342 1.489 2.55 3.198L508.809 286.58a22.86 22.86 0 0 1-15.992 12.75l-29.077 6.181c-1.843.392-3.342-1.489-2.55-3.199l36.426-78.581c.793-1.71-.707-3.59-2.55-3.199l-24.311 5.168a2.29 2.29 0 0 0-1.598 1.272l-35.166 75.541a22.87 22.87 0 0 1-15.976 12.717l-29.091 6.183c-1.845.393-3.345-1.491-2.549-3.201zM107.579 218.12a22.86 22.86 0 0 1 15.976-12.716l29.091-6.184c1.845-.392 3.344 1.492 2.548 3.202l-24.814 53.305c-.796 1.71.703 3.594 2.548 3.202l35.383-7.521.002.002q-.001.002.001.002l30.197-6.419c1.843-.391 3.342 1.489 2.55 3.199l-53.374 115.142a22.87 22.87 0 0 1-15.992 12.75l-29.077 6.18c-1.843.392-3.343-1.488-2.55-3.198l36.426-78.582c.793-1.709-.707-3.59-2.55-3.198l-24.311 5.168a2.29 2.29 0 0 0-1.598 1.271l-35.166 75.542a22.87 22.87 0 0 1-15.976 12.717l-29.091 6.183c-1.845.392-3.345-1.492-2.549-3.202zm132.43 18.637a22.87 22.87 0 0 0-15.992 12.75l-53.374 115.142c-.792 1.71.707 3.59 2.55 3.199l29.078-6.181a22.87 22.87 0 0 0 15.992-12.75l53.373-115.142c.793-1.71-.707-3.59-2.55-3.198zm10.621-46.769a22.87 22.87 0 0 1 15.943-12.646l29.119-6.189c1.849-.393 3.349 1.498 2.546 3.208l-13.34 28.402a22.87 22.87 0 0 1-15.943 12.646l-29.12 6.19c-1.848.392-3.348-1.499-2.545-3.209zm93.386 24.662-8.94 1.9-24.611 5.231a22.87 22.87 0 0 0-15.992 12.75L241.1 349.673c-.793 1.71.707 3.59 2.55 3.199l40.195-8.544a.14.14 0 0 0 .094-.075.14.14 0 0 1 .094-.075l26.3-5.47c1.842-.383 3.333 1.498 2.539 3.204l-6.38 13.704a2.29 2.29 0 0 1-1.582 1.268l-59.544 13.078a22.87 22.87 0 0 0-15.793 12.615l-13.36 28.451c-.806 1.717.708 3.613 2.56 3.206l78.035-17.139 22.891-4.866a22.87 22.87 0 0 0 15.977-12.717l82.325-176.845c.796-1.71-.704-3.594-2.549-3.202l-35.649 7.578-4.602.978zm-12.665 85.369a2.29 2.29 0 0 0 1.617-1.276l20.37-43.758c.796-1.71-.704-3.594-2.548-3.202l-25.491 5.418a2.29 2.29 0 0 0-1.599 1.275l-20.159 43.489c-.788 1.701.694 3.576 2.531 3.202zm160.277 24.66c.793-1.71-.707-3.59-2.55-3.198l-40.261 8.557-29.729 6.319-33.551 7.132a22.87 22.87 0 0 0-15.992 12.75l-29.399 63.424c-.793 1.71.706 3.59 2.55 3.198l52.742-11.21c1.827-.389 3.324 1.46 2.564 3.167l-3.2 7.188a2.29 2.29 0 0 1-1.614 1.306L333.59 435.98a2.29 2.29 0 0 0-1.599 1.275l-15.819 34.126c-.793 1.71.707 3.59 2.55 3.198l40.261-8.557 29.729-6.319 33.551-7.132a22.87 22.87 0 0 0 15.992-12.75l31.326-67.58c.793-1.71-.707-3.59-2.55-3.199l-54.963 11.683c-1.828.389-3.325-1.46-2.565-3.167l3.201-7.188a2.29 2.29 0 0 1 1.613-1.306l61.82-13.14a2.29 2.29 0 0 0 1.599-1.275zm101.364-25.747 40.261-8.558c1.843-.392 3.343 1.489 2.55 3.198l-33.727 72.76a2.29 2.29 0 0 1-1.6 1.275l-82.322 17.498a2.29 2.29 0 0 0-1.613 1.306l-3.2 7.188c-.76 1.707.736 3.556 2.564 3.167l75.466-16.04c1.843-.392 3.342 1.488 2.55 3.198l-11.491 24.79a22.87 22.87 0 0 1-15.992 12.75l-33.551 7.132-29.729 6.319-40.261 8.558c-1.843.391-3.343-1.489-2.55-3.199l53.373-115.141a22.87 22.87 0 0 1 15.992-12.751l33.551-7.131zm-59.55 51.3c-.76 1.706.736 3.555 2.564 3.166l42.013-8.93a2.28 2.28 0 0 0 1.605-1.288l3.286-7.206c.779-1.709-.719-3.576-2.556-3.186l-42.099 8.949a2.29 2.29 0 0 0-1.613 1.307zm392.015-118.228c.792-1.71-.707-3.59-2.55-3.198l-40.261 8.557-29.729 6.32-33.551 7.131a22.87 22.87 0 0 0-15.992 12.75l-29.4 63.424c-.792 1.709.707 3.59 2.55 3.198l52.742-11.21c1.827-.389 3.324 1.46 2.564 3.167l-3.2 7.188a2.29 2.29 0 0 1-1.614 1.306l-59.597 12.668a2.29 2.29 0 0 0-1.6 1.275L750 378.706c-.792 1.71.707 3.59 2.55 3.198l40.261-8.557 29.73-6.319 33.55-7.132a22.87 22.87 0 0 0 15.992-12.75l31.327-67.58c.792-1.71-.707-3.59-2.55-3.199l-54.964 11.683c-1.828.389-3.324-1.46-2.564-3.166l3.2-7.188a2.29 2.29 0 0 1 1.613-1.307l61.82-13.14a2.29 2.29 0 0 0 1.6-1.275zM647.426 404.249l-40.261 8.558c-1.843.391-3.342-1.489-2.55-3.199l35.531-76.649a2.28 2.28 0 0 1 1.599-1.275l78.037-16.587a2.29 2.29 0 0 0 1.614-1.307l3.2-7.188c.76-1.707-.737-3.555-2.565-3.167l-71.181 15.13c-1.843.392-3.342-1.489-2.55-3.198l9.689-20.901a22.86 22.86 0 0 1 15.992-12.75l33.55-7.131 29.73-6.32 40.26-8.557c1.844-.392 3.343 1.489 2.55 3.198l-53.373 115.142a22.87 22.87 0 0 1-15.992 12.75l-33.551 7.132zm57.719-54.417c.76-1.707-.737-3.555-2.565-3.167l-42.013 8.93a2.29 2.29 0 0 0-1.605 1.288l-3.286 7.207c-.779 1.709.719 3.576 2.556 3.186l42.099-8.949a2.29 2.29 0 0 0 1.614-1.307z" clip-rule="evenodd"/><path fill="url(#f)" d="m484.677 128.65 2.377 11.184zm-15.976 12.717-10.366-4.826zm40.108 145.213 10.373 4.808zm-15.992 12.75-2.377-11.183zm-58.826 3.183 10.365 4.826zm-15.976 12.717 2.377 11.184zm-294.46-109.826 2.377 11.183zm-15.976 12.716 10.365 4.826zm40.108 145.214 10.373 4.808zm-15.992 12.75 2.377 11.183zm-58.826 3.183-10.365-4.825zm-15.976 12.717L54.516 380.8zm167.124-142.477-10.373-4.808zm15.992-12.75 2.377 11.184zm-37.738 124.91 2.377 11.184zm15.992-12.75 10.373 4.808zm48.31-171.575 2.377 11.184zm-15.943 12.646 10.349 4.861zm34.268 12.775-10.349-4.86zm-15.943 12.646-2.377-11.184zm66.121 1.141 2.377 11.183h.001zm8.94-1.9-2.377-11.184zm-33.551 7.131-2.377-11.183zm-15.992 12.75-10.373-4.808zm-49.107 135.431 2.452 11.167zm-15.793 12.615 10.349 4.86zm67.235 14.518-2.378-11.184-.037.008-.038.008zm22.891-4.866-2.377-11.184zm15.977-12.717-10.366-4.825zm44.127-172.469 2.377 11.183zm-4.602.978-2.377-11.183zm73.616 122.017-2.377-11.183zm-29.729 6.319 2.377 11.184zm-33.551 7.132-2.377-11.184zm-15.992 12.75-10.373-4.808zm-10.562 109.783-2.377-11.184zm29.729-6.319 2.377 11.183zm33.551-7.132-2.378-11.183zm15.992-12.75 10.373 4.808zm154.737-140.889-2.377-11.184zM582.43 408.714l-10.374-4.808zm-15.992 12.75 2.377 11.184zm-33.551 7.132-2.377-11.184zm-29.729 6.319 2.377 11.184zm10.562-109.782-10.373-4.809zm15.992-12.751 2.377 11.184zm33.551-7.131-2.377-11.184zm319.383-67.888-2.377-11.183zm-29.729 6.32 2.377 11.183zm-33.551 7.131 2.377 11.184zm-15.992 12.75-10.373-4.808zm-10.563 109.783 2.377 11.183zm29.73-6.319 2.377 11.183zm33.55-7.132-2.377-11.183zm15.992-12.75 10.373 4.808zm-224.657 57.103 2.377 11.183zm10.563-109.783-10.373-4.808zm15.992-12.75 2.377 11.184zm33.55-7.131-2.377-11.184zm29.73-6.32 2.377 11.184zm-10.563 109.783 10.373 4.808zm-15.992 12.75-2.377-11.183zm-33.551 7.132-2.377-11.184zm-21.479-33.84 10.403 4.744zm2.556 3.186 2.377 11.183zm44.348-20.611-2.377-11.183zm2.565 3.167 10.445 4.65zm72.376-90.124 2.378 11.183zm2.55 3.198-10.373-4.808zm-139.925 70.053-10.373-4.809zm1.599-1.275-2.377-11.184zM750 378.706l10.374 4.808zm2.55 3.198 2.378 11.184zm21.424-54.916 10.373 4.808zm2.55 3.198 2.377 11.184zm-193.614 5.788-10.403-4.744zm-2.556-3.186-2.377-11.183zm-44.348 20.61-2.377-11.183zm-2.564-3.166 10.444 4.65zm44.577-5.764 2.377 11.184zm1.605-1.288-10.403-4.743zM462.897 443.473l-2.377-11.184zm-2.55-3.199 10.373 4.809zm131.024-59.548 2.377 11.183zm2.55 3.198-10.373-4.808zm-80.58 9.675-10.445-4.65zm2.564 3.167-2.377-11.183zm86.171-30.434 10.373 4.808zm-1.6 1.275 2.378 11.183zm-124.339-11.683-2.377-11.184zm1.599-1.275 10.373 4.808zm-65.032 15.721-10.445-4.65zm1.613-1.306 2.377 11.183zm55.264 3.177-10.373-4.809zm-2.55-3.199 2.377 11.184zm-71.593 42.609-2.377-11.184zm2.564 3.167-10.445-4.651zm-57.856 4.845 10.373 4.808zm2.55 3.198 2.377 11.184zm-39.155-120.896-10.373-4.809zm2.531 3.202 2.282 11.203zm19.227-47.966 2.378 11.184zm-1.599 1.275-10.373-4.808zm29.638-3.491-10.365-4.825zm-2.548-3.202 2.377 11.184zm-66.757 92.395 2.329 11.194zm-.188.15-2.377-11.184zm-42.745 5.345 10.373 4.809zm2.55 3.199-2.377-11.184zm274.504 32.233-2.377-11.184zm-1.613 1.306-10.445-4.65zm183.79-28.084-2.377-11.184zm1.614-1.307-10.445-4.65zM298.238 174.361l10.348 4.861zm335.015 116.013-2.377-11.184zm2.55 3.198 10.373 4.809zm24.764 62.023 2.377 11.184zm-1.605 1.288 10.403 4.744zM271.636 233.775l10.373 4.808zm-2.55-3.198-2.377-11.184zm125.716 191.429 10.445 4.65zm-1.614 1.306-2.377-11.183zm326.594-108.215-2.377-11.184zm1.614-1.307 10.444 4.65zm-618.778 68.474-2.377-11.183zm-2.55-3.198 10.373 4.808zm507.097 33.741-2.377-11.184zm-2.55-3.199-10.373-4.808zM198.511 244.993l-2.377-11.183zm2.55 3.199L211.434 253zm708.904 15.057-2.377-11.184zm1.6-1.275 10.373 4.808zm-743.251-10.562-2.377-11.184zm678.218 26.284-10.445-4.651zm1.613-1.307 2.378 11.183zm-679.834-24.981-2.377-11.184zm71.524-29.809 2.378 11.183zm-2.545-3.209 10.349 4.86zm251.788 103.091-2.377-11.184zm2.55 3.198-10.373-4.808zm354.268-36.629-2.377-11.183zm-2.564-3.166-10.445-4.651zM130.38 255.727l10.365 4.825zm2.548 3.202 2.377 11.183zm634.491 84.376-2.377-11.184zm-1.6 1.275-10.373-4.809zM470.755 225.7l2.377 11.183zm-1.598 1.272 10.366 4.825zm-51.156-24.305-10.365-4.825zM828.63 329.331l10.445 4.65zm-1.614 1.306 2.377 11.184zm-329.4-106.906-10.373-4.809zm-2.55-3.199-2.377-11.183zm-82.998 160.193-2.377-11.183zm-2.565-3.167 10.445 4.651zm-238.86-12.909 10.373 4.809zm658.623-45.673-2.377-11.184zm2.564 3.167-10.445-4.651zm-368.09-16.632-2.377-11.184zm-2.55-3.199 10.373 4.809zm442.22-22.746-10.373-4.809zm-2.55-3.199 2.377 11.184zM152.646 199.22l-2.377-11.183zm2.548 3.202-10.365-4.825zM27.802 398.167l2.377 11.184zm188.411 12.861-10.349-4.859zm2.56 3.206 2.453 11.167zm340.86-245.994 2.377 11.183zm2.55 3.198 10.373 4.809zm-32.746 3.22 2.377 11.184zm393.47 54.148 2.377 11.183zm2.55 3.198 10.373 4.808zm-396.024-57.35-2.377-11.183zM332.968 298.743l10.365 4.826zm55.956 22.67-2.377-11.183zm-2.549-3.201 10.366 4.825zm-70.203 153.169-10.373-4.808zm2.55 3.198 2.377 11.184zM650.85 318.565l-2.377-11.184zm-2.55-3.198 10.374 4.808zm-538.667-12.913 2.377 11.183zm196.859 53.162-10.365-4.825zm-1.582 1.268-2.453-11.167zm186.592-177.911-10.366-4.825zm2.548 3.202-2.377-11.183zM333.59 435.98l2.377 11.184zm-1.599 1.275 10.373 4.809zm392.605-130.653 10.445 4.65zm-2.565-3.167 2.378 11.184zm-585.537-2.951-10.373-4.808zm-2.55-3.198-2.377-11.184zm176.389 41.422 2.328 11.194zm2.539 3.204-10.366-4.826zm225.383-.175 2.378 11.184zm-1.613 1.307-10.445-4.651zm-20.326-217.376 10.366 4.826zm-34.016-8.201a34.3 34.3 0 0 0-23.965 19.074l20.731 9.651a11.43 11.43 0 0 1 7.988-6.358zm29.091-6.184-29.091 6.184 4.754 22.367 29.091-6.184zm-9.524 72.516 24.815-53.305-20.731-9.651-24.815 53.305zm25.189-20.328-35.383 7.521 4.754 22.367 35.384-7.521zm30.2-6.415-30.197 6.419 4.755 22.367 30.196-6.419zm-38.074 134.332 53.374-115.141-20.746-9.617-53.374 115.141zm-23.988 19.126a34.3 34.3 0 0 0 23.988-19.126l-20.746-9.617a11.43 11.43 0 0 1-7.996 6.376zm-29.077 6.18 29.077-6.18-4.754-22.367-29.077 6.18zm21.126-97.772-36.426 78.582 20.746 9.617 36.426-78.582zm-14.111 17.961 24.311-5.167-4.754-22.367-24.311 5.167zm-28.776 70.456 35.167-75.542-20.731-9.651-35.166 75.542zm-23.964 19.075a34.3 34.3 0 0 0 23.964-19.075l-20.73-9.651a11.43 11.43 0 0 1-7.988 6.358zm-29.091 6.183 29.091-6.183-4.754-22.368-29.091 6.184zm67.034-196.056L376.01 313.386l20.731 9.651 82.325-176.845zM121.178 194.22a34.3 34.3 0 0 0-23.965 19.075l20.731 9.651a11.43 11.43 0 0 1 7.988-6.359zm29.091-6.183-29.091 6.183 4.754 22.367 29.091-6.183zm-9.524 72.515 24.815-53.305-20.731-9.65-24.815 53.305zm25.189-20.328-35.383 7.521 4.754 22.367 35.384-7.521zm30.2-6.414-30.197 6.418 4.755 22.367 30.196-6.418zM158.06 368.142 211.434 253l-20.746-9.617-53.374 115.142zm-23.988 19.125a34.3 34.3 0 0 0 23.988-19.125l-20.746-9.617a11.43 11.43 0 0 1-7.996 6.375zm-29.077 6.181 29.077-6.181-4.754-22.367-29.077 6.181zm21.126-97.772-36.426 78.582 20.746 9.616 36.426-78.581zm-14.111 17.961 24.311-5.167-4.754-22.368-24.311 5.168zm-28.776 70.455 35.167-75.542-20.73-9.65-35.167 75.542zM59.27 403.167a34.3 34.3 0 0 0 23.964-19.075l-20.73-9.65a11.44 11.44 0 0 1-7.988 6.358zm-29.091 6.184 29.09-6.184-4.753-22.367-29.091 6.184zm67.034-196.056L14.888 390.14l20.73 9.651 82.326-176.845zm137.177 41.021a11.43 11.43 0 0 1 7.996-6.375l-4.754-22.367a34.3 34.3 0 0 0-23.988 19.125zm-53.374 115.142 53.374-115.142-20.746-9.617-53.374 115.142zm18.877-18.975-29.077 6.181 4.754 22.367 29.078-6.18zm7.996-6.375a11.43 11.43 0 0 1-7.996 6.375l4.755 22.368a34.3 34.3 0 0 0 23.988-19.126zm53.374-115.141-53.374 115.141 20.747 9.617 53.373-115.142zm-18.877 18.974 29.077-6.181-4.754-22.367-29.077 6.181zm21.81-81.783a34.3 34.3 0 0 0-23.915 18.969l20.698 9.722a11.43 11.43 0 0 1 7.971-6.323zm29.119-6.189-29.119 6.189 4.754 22.368 29.12-6.19zm1.932 47.655 13.339-28.402-20.697-9.721-13.34 28.402zm-23.915 18.969a34.3 34.3 0 0 0 23.915-18.969l-20.698-9.721a11.43 11.43 0 0 1-7.971 6.322zm-29.119 6.189 29.119-6.189-4.754-22.368-29.12 6.19zm-1.932-47.655-13.34 28.402 20.698 9.721 13.34-28.401zm97.173 42.606 8.939-1.9-4.754-22.367-8.94 1.9zm-24.612 5.232 24.611-5.232-4.754-22.367-24.611 5.232zm-7.996 6.375a11.43 11.43 0 0 1 7.996-6.375l-4.754-22.367a34.3 34.3 0 0 0-23.988 19.125zm-53.373 115.142 53.373-115.142-20.746-9.617-53.373 115.142zm29.995-21.338-40.195 8.544 4.754 22.367 40.195-8.544zm26.537-5.63-26.3 5.47 4.657 22.388 26.299-5.47zm8.852 32.927 6.38-13.704-20.731-9.651-6.379 13.705zm-69.039 20.688 59.544-13.077-4.905-22.335-59.544 13.078zm-7.896 6.308a11.44 11.44 0 0 1 7.896-6.308l-4.905-22.334a34.3 34.3 0 0 0-23.689 18.922zm-13.36 28.451 13.36-28.451-20.698-9.72-13.36 28.452zm67.793-29.961-78.035 17.139 4.906 22.335 78.034-17.139zm22.967-4.882-22.892 4.866 4.755 22.367 22.892-4.866zm7.988-6.358a11.43 11.43 0 0 1-7.988 6.358l4.755 22.367a34.3 34.3 0 0 0 23.964-19.075zm82.326-176.845L325.31 374.687l20.731 9.65 82.325-176.845zm-25.456 20.384 35.65-7.577-4.755-22.367-35.649 7.577zm-4.602.979 4.602-.979-4.754-22.367-4.602.979zm-31.185 6.628 31.185-6.628-4.754-22.367-31.185 6.628zm-3.42 24.327-20.371 43.758 20.731 9.651 20.37-43.759zm-15.296 18.225 25.49-5.418-4.755-22.367-25.49 5.418zm-13.762 38.388 20.158-43.488-20.746-9.617-20.159 43.488zm15.154-17.957-25.278 5.147 4.563 22.407 25.278-5.147zm122.125 52.406 40.261-8.558-4.754-22.367-40.261 8.558zm-29.729 6.319 29.729-6.319-4.754-22.367-29.729 6.319zm-33.551 7.131 33.551-7.131-4.754-22.367-33.551 7.131zm-7.996 6.376a11.44 11.44 0 0 1 7.996-6.376l-4.754-22.367a34.3 34.3 0 0 0-23.988 19.126zm-29.399 63.423 29.399-63.423-20.746-9.617-29.4 63.424zm42.542-24.004-52.743 11.211 4.755 22.367 52.742-11.211zm12.186 26.189 3.2-7.188-20.89-9.301-3.2 7.188zm-69.28 20.508 59.598-12.668-4.754-22.367-59.598 12.668zm-9.422 29.025 15.819-34.125-20.746-9.617-15.819 34.126zm30.061-21.351-40.261 8.558 4.754 22.367 40.261-8.558zm29.729-6.319-29.729 6.319 4.754 22.367 29.729-6.319zm33.55-7.131-33.55 7.131 4.754 22.367 33.551-7.131zm7.996-6.376a11.43 11.43 0 0 1-7.996 6.376l4.755 22.367a34.3 34.3 0 0 0 23.988-19.126zm31.327-67.58-31.327 67.58 20.747 9.617 31.326-67.58zm-44.763 24.477 54.963-11.683-4.754-22.367-54.963 11.683zm-12.186-26.189-3.201 7.188 20.89 9.301 3.201-7.188zm71.501-20.98-61.82 13.14 4.754 22.367 61.82-13.14zm7.495-24.869-13.892 29.969 20.746 9.617 13.892-29.97zm149.621-40.681-40.261 8.558 4.754 22.367 40.261-8.557zm-18.427 91.95 33.727-72.759-20.746-9.617-33.727 72.759zm-91.917 25.148 82.322-17.498-4.755-22.367-82.322 17.498zm3.254 1.962 3.2-7.188-20.89-9.301-3.2 7.188zm65.208-28.708-75.466 16.041 4.754 22.367 75.466-16.041zm3.809 43.981 11.491-24.791-20.746-9.616-11.492 24.79zm-23.988 19.125a34.3 34.3 0 0 0 23.988-19.125l-20.747-9.617a11.43 11.43 0 0 1-7.996 6.375zm-33.551 7.131 33.551-7.131-4.755-22.367-33.55 7.131zm-29.729 6.32 29.729-6.32-4.754-22.367-29.73 6.319zm-40.261 8.557 40.261-8.557-4.755-22.368-40.26 8.558zm38.073-134.332-53.373 115.142 20.746 9.617 53.373-115.142zm23.988-19.125a34.3 34.3 0 0 0-23.988 19.125l20.746 9.617a11.43 11.43 0 0 1 7.996-6.375zm33.551-7.132-33.551 7.132 4.754 22.367 33.551-7.132zm29.729-6.319-29.729 6.319 4.754 22.367 29.729-6.319zm-14.973 45.537-42.013 8.93 4.754 22.367 42.013-8.93zm-3.135-2.055-3.286 7.207 20.806 9.487 3.286-7.207zm-31.874 21.691 42.099-8.949-4.755-22.367-42.099 8.948zm3.253 1.961 3.201-7.188-20.89-9.301-3.2 7.188zm341.137-106.335 40.261-8.558-4.754-22.367-40.261 8.558zm-29.729 6.319 29.729-6.319-4.754-22.367-29.73 6.319zm-33.551 7.132 33.551-7.132-4.755-22.367-33.55 7.131zm-7.996 6.375a11.43 11.43 0 0 1 7.996-6.375l-4.754-22.368a34.3 34.3 0 0 0-23.988 19.126zm-29.4 63.423 29.4-63.423-20.746-9.617-29.4 63.423zm42.542-24.004-52.742 11.211 4.754 22.367 52.742-11.211zm12.186 26.189 3.2-7.188-20.89-9.301-3.2 7.188zm-69.279 20.507 59.597-12.667-4.754-22.367-59.597 12.667zm-9.422 29.026 15.819-34.126-20.747-9.617-15.819 34.127zm30.06-21.351-40.261 8.558 4.755 22.367 40.26-8.558zm29.729-6.319-29.729 6.319 4.754 22.367 29.73-6.319zm33.551-7.131-33.551 7.131 4.755 22.367 33.55-7.131zm7.996-6.376a11.44 11.44 0 0 1-7.996 6.376l4.754 22.367a34.3 34.3 0 0 0 23.988-19.126zm31.327-67.58-31.327 67.58 20.746 9.617 31.327-67.58zm-44.764 24.477 54.964-11.683-4.755-22.367-54.963 11.683zm-12.186-26.189-3.2 7.188 20.889 9.301 3.201-7.188zm71.501-20.98-61.82 13.14 4.755 22.367 61.819-13.14zm7.496-24.869-13.893 29.969 20.747 9.617 13.892-29.97zM609.542 423.99l40.261-8.558-4.754-22.367-40.261 8.558zm20.231-95.84-35.531 76.65 20.746 9.617 35.531-76.65zm87.632-24.237L639.368 320.5l4.754 22.367 78.037-16.587zm-3.254-1.961-3.2 7.188 20.889 9.3 3.201-7.188zm-60.923 27.797 71.181-15.13-4.755-22.367-71.181 15.129zm-5.612-40.091-9.689 20.9 20.747 9.617 9.688-20.9zm23.988-19.126a34.3 34.3 0 0 0-23.988 19.126l20.746 9.617a11.43 11.43 0 0 1 7.996-6.375zm33.55-7.131-33.55 7.131 4.754 22.368 33.55-7.132zm29.729-6.319-29.729 6.319 4.754 22.367 29.73-6.319zm40.261-8.558-40.261 8.558 4.755 22.367 40.261-8.558zm-38.073 134.332 53.374-115.141-20.747-9.617-53.373 115.142zm-23.988 19.126a34.3 34.3 0 0 0 23.988-19.126l-20.746-9.616a11.44 11.44 0 0 1-7.996 6.375zm-33.551 7.131 33.551-7.131-4.754-22.367-33.551 7.131zm-29.729 6.319 29.729-6.319-4.754-22.367-29.729 6.319zm13.141-48.653 42.014-8.93-4.755-22.367-42.013 8.93zm3.135 2.055 3.286-7.207-20.806-9.487-3.286 7.207zm31.875-21.691-42.099 8.949 4.754 22.367 42.099-8.949zm-3.254-1.961-3.2 7.188 20.889 9.3 3.201-7.188zm-49.427 14.165c-4.674 10.251 4.316 21.455 15.336 19.112l-4.754-22.367c7.347-1.562 13.34 5.908 10.224 12.742zm59.685-1.498c-7.311 1.554-13.298-5.84-10.258-12.667l20.89 9.3c4.559-10.241-4.421-21.331-15.387-19zm74.941-86.958c-7.373 1.567-13.371-5.955-10.201-12.793l20.747 9.617c4.754-10.258-4.242-21.541-15.301-19.191zm-129.38 66.876a9.15 9.15 0 0 1-6.397 5.1l-4.754-22.367a13.72 13.72 0 0 0-9.595 7.65zm89.108 36.131c-4.755 10.257 4.242 21.541 15.301 19.19l-4.755-22.367c7.373-1.567 13.37 5.955 10.201 12.793zm23.974-51.719c-4.755 10.258 4.241 21.541 15.3 19.191l-4.754-22.367c7.373-1.568 13.37 5.955 10.2 12.793zm-170.288 18.538c4.675-10.251-4.315-21.455-15.336-19.112l4.755 22.367c-7.347 1.561-13.341-5.908-10.225-12.742zm-59.684 1.498c7.31-1.554 13.297 5.84 10.257 12.667l-20.889-9.301c-4.56 10.241 4.421 21.332 15.386 19.001zm46.767 13.437a13.72 13.72 0 0 0 9.631-7.728l-20.806-9.487a9.15 9.15 0 0 1 6.421-5.152zM460.52 432.289c7.372-1.567 13.37 5.955 10.2 12.794l-20.746-9.617c-4.755 10.257 4.241 21.541 15.3 19.19zm133.228-40.38c-7.373 1.567-13.37-5.955-10.2-12.793l20.746 9.616c4.755-10.257-4.241-21.541-15.3-19.19zm-90.852-2.96c-4.56 10.241 4.421 21.331 15.386 19.001l-4.754-22.367c7.31-1.554 13.297 5.839 10.258 12.667zm88.807-27.426a9.15 9.15 0 0 1 6.396-5.1l4.755 22.367a13.72 13.72 0 0 0 9.595-7.65zm-113.189 5.584a13.72 13.72 0 0 0 9.595-7.65l-20.746-9.617a9.15 9.15 0 0 1 6.397-5.1zm-55.365 7.914a9.15 9.15 0 0 1-6.455 5.226l-4.754-22.367a13.72 13.72 0 0 0-9.681 7.84zm56.805 2.028c4.755-10.257-4.241-21.541-15.3-19.19l4.754 22.367c-7.372 1.567-13.37-5.955-10.2-12.794zm-82.139 45.785c-7.31 1.554-13.298-5.839-10.258-12.667l20.89 9.301c4.56-10.241-4.421-21.331-15.386-19.001zm-68.043-7.979c-4.754 10.257 4.242 21.541 15.301 19.19l-4.755-22.367c7.373-1.567 13.371 5.955 10.201 12.793zm-36.604-117.699c-4.732 10.209 4.16 21.46 15.186 19.214l-4.563-22.407c7.35-1.496 13.278 6.004 10.124 12.81zm29.754-51.138a13.72 13.72 0 0 0-9.595 7.65l20.746 9.617a9.15 9.15 0 0 1-6.396 5.1zm40.781 13.792c4.776-10.259-4.222-21.563-15.291-19.21l4.755 22.367c-7.38 1.568-13.378-5.968-10.194-12.807zm-69.391 89.251a11.3 11.3 0 0 1-7.95 6.311l-4.657-22.388a11.57 11.57 0 0 0-8.139 6.46zm-8.09 6.45a11.57 11.57 0 0 0 8.09-6.45l-20.746-9.617a11.3 11.3 0 0 1 7.902-6.3zm-55.495-10.646c-4.755 10.257 4.241 21.541 15.3 19.19l-4.754-22.367c7.372-1.567 13.37 5.955 10.2 12.794zm285.05 29.056a13.72 13.72 0 0 0-9.681 7.84l20.89 9.301a9.15 9.15 0 0 1-6.454 5.226zm186.931-4.411a13.72 13.72 0 0 0 9.681-7.84l-20.889-9.3a9.15 9.15 0 0 1 6.454-5.227zM298.07 182.336c-7.394 1.572-13.394-5.994-10.181-12.835l20.697 9.721c4.82-10.262-4.181-21.61-15.271-19.253zm337.56 119.222c-7.372 1.567-13.37-5.956-10.2-12.794l20.746 9.617c4.755-10.258-4.241-21.541-15.3-19.191zm22.56 42.854a13.72 13.72 0 0 0-9.631 7.728l20.806 9.487a9.15 9.15 0 0 1-6.421 5.152zM282.009 238.583c4.755-10.257-4.241-21.541-15.3-19.19l4.754 22.367c-7.372 1.567-13.37-5.955-10.2-12.793zm102.348 178.772a9.14 9.14 0 0 1 6.454-5.226l4.754 22.367a13.72 13.72 0 0 0 9.682-7.84zm337.802-91.075a13.72 13.72 0 0 0 9.681-7.84l-20.889-9.3a9.15 9.15 0 0 1 6.454-5.227zm-621.918 44.801c7.372-1.567 13.37 5.955 10.2 12.793l-20.746-9.616c-4.755 10.257 4.241 21.541 15.3 19.19zm504.547 30.542c7.373-1.567 13.37 5.955 10.2 12.794l-20.746-9.617c-4.755 10.257 4.241 21.541 15.3 19.19zm-403.9-145.446c-7.373 1.567-13.37-5.955-10.2-12.794L211.434 253c4.755-10.257-4.241-21.541-15.3-19.19zm711.454 18.255a13.72 13.72 0 0 0 9.596-7.65l-20.747-9.617a9.15 9.15 0 0 1 6.397-5.1zm-754.377-27.884c-4.024 8.564 3.495 18.01 12.727 16.047l-4.755-22.367c9.229-1.961 16.747 7.482 12.724 16.044zm699.012 35.798a9.15 9.15 0 0 1-6.454 5.226l-4.755-22.367a13.72 13.72 0 0 0-9.681 7.84zm-686.288-19.755c-9.242 1.965-16.742-7.492-12.724-16.043l20.696 9.724c4.019-8.553-3.483-18.012-12.727-16.048zm66.769-52.176c7.394-1.572 13.394 5.994 10.181 12.835l-20.698-9.721c-4.819 10.262 4.181 21.61 15.272 19.253zm253.997 122.249c-7.372 1.567-13.37-5.955-10.2-12.793l20.746 9.616c4.755-10.257-4.241-21.541-15.3-19.19zm352.064-55.797c7.31-1.554 13.297 5.84 10.257 12.667l-20.889-9.301c-4.56 10.241 4.421 21.332 15.386 19.001zm-723.505-25.965c-4.776 10.259 4.222 21.563 15.291 19.21l-4.754-22.367c7.379-1.568 13.378 5.968 10.194 12.807zm645.028 81.219a13.72 13.72 0 0 0-9.596 7.65l20.747 9.617a9.15 9.15 0 0 1-6.397 5.1zM468.378 214.516a13.72 13.72 0 0 0-9.586 7.63l20.731 9.651a9.15 9.15 0 0 1-6.391 5.086zm-40.012-7.024c4.776-10.259-4.222-21.563-15.291-19.21l4.755 22.367c-7.38 1.568-13.378-5.968-10.194-12.807zM818.185 324.68a9.14 9.14 0 0 1 6.454-5.226l4.754 22.367a13.72 13.72 0 0 0 9.682-7.84zm-310.196-96.141c4.755-10.257-4.241-21.541-15.3-19.19l4.754 22.367c-7.372 1.567-13.37-5.955-10.2-12.794zm-98.298 141.003c7.31-1.554 13.297 5.839 10.257 12.667l-20.89-9.301c-4.559 10.241 4.422 21.332 15.387 19.001zm-249.421-9.701c-4.755 10.257 4.241 21.541 15.3 19.19l-4.754-22.367c7.373-1.567 13.37 5.955 10.2 12.794zm671.373-29.682c-7.31 1.554-13.297-5.84-10.258-12.667l20.89 9.301c4.56-10.241-4.421-21.332-15.386-19.001zm-370.28-35.832c7.372-1.567 13.37 5.955 10.2 12.794l-20.746-9.617c-4.755 10.258 4.241 21.541 15.3 19.19zm452.42-9.953c4.755-10.257-4.242-21.541-15.301-19.19l4.755 22.367c-7.373 1.567-13.37-5.955-10.2-12.794zm-758.76-73.97c-7.379 1.568-13.378-5.968-10.194-12.807l20.731 9.65c4.775-10.259-4.222-21.563-15.291-19.21zM25.425 386.984c7.379-1.569 13.378 5.967 10.194 12.807l-20.731-9.651c-4.776 10.259 4.222 21.563 15.29 19.211zm180.439 19.185c-4.838 10.3 4.247 21.673 15.362 19.232l-4.906-22.335c7.411-1.627 13.467 5.955 10.242 12.822zM562.01 179.423c-7.373 1.567-13.37-5.955-10.2-12.793l20.746 9.617c4.755-10.258-4.241-21.541-15.3-19.191zm-42.923-9.629c-4.024 8.564 3.495 18.01 12.727 16.048l-4.755-22.367c9.229-1.962 16.747 7.481 12.724 16.044zm406.197 70.195c-7.373 1.567-13.37-5.955-10.2-12.793l20.746 9.616c4.755-10.257-4.242-21.541-15.3-19.19zm-393.473-54.151c-9.242 1.964-16.742-7.493-12.724-16.044l20.696 9.725c4.019-8.554-3.483-18.013-12.727-16.048zm-209.209 108.08a9.15 9.15 0 0 1 6.467-5.102l4.563 22.407a13.72 13.72 0 0 0 9.701-7.654zm63.945 16.312c7.379-1.569 13.378 5.968 10.194 12.807l-20.731-9.651c-4.776 10.259 4.222 21.564 15.291 19.211zm-80.748 156.343c-4.755 10.257 4.241 21.541 15.3 19.19l-4.754-22.367c7.372-1.567 13.37 5.955 10.2 12.793zm342.674-159.192c7.373-1.567 13.37 5.956 10.201 12.794l-20.747-9.617c-4.755 10.258 4.242 21.541 15.301 19.191zM107.256 291.27a13.72 13.72 0 0 0-9.586 7.63l20.731 9.65a9.15 9.15 0 0 1-6.391 5.087zm188.871 59.521a9.15 9.15 0 0 1 6.33-5.074l4.905 22.335a13.72 13.72 0 0 0 9.495-7.611zm185.009-176.643c-4.775 10.259 4.222 21.564 15.291 19.211l-4.754-22.367c7.379-1.569 13.378 5.967 10.194 12.807zM331.213 424.797a13.72 13.72 0 0 0-9.595 7.65l20.746 9.617a9.15 9.15 0 0 1-6.397 5.1zm403.828-113.545c4.559-10.241-4.421-21.331-15.387-19l4.755 22.367c-7.311 1.554-13.298-5.84-10.258-12.667zm-588.174-5.959c4.755-10.258-4.241-21.541-15.3-19.191l4.754 22.368c-7.372 1.567-13.37-5.956-10.2-12.794zm165.794 44.609c-7.368 1.532-13.331-5.993-10.155-12.816l20.731 9.651c4.764-10.234-4.18-21.522-15.232-19.223zm223.217-19.349a13.72 13.72 0 0 0-9.681 7.84l20.89 9.301a9.15 9.15 0 0 1-6.454 5.227zM516.145 133.65c-7.379 1.569-13.378-5.967-10.194-12.807l20.731 9.651c4.775-10.259-4.222-21.564-15.291-19.211z" mask="url(#g)"/><path fill="url(#h)" d="m595.05 280.218-40.837-60.275s78.617-31.62 130.297-48.079c53.237-16.956 138.195-37.03 138.195-37.03s25.217-5.933 30.931 4.879c5.395 10.209 5.71 41.854-3.311 49.063-21.688 17.332-68.843 36.687-115.545 54.001-52.97 19.638-139.73 37.441-139.73 37.441"/><path fill="#F173B4" d="m587.343 257.597-33.429-38.77s78.617-31.619 130.297-48.079c53.238-16.955 138.195-37.029 138.195-37.029s25.217-5.933 30.931 4.878c5.395 10.21-1.698 20.349-10.719 27.558-21.688 17.332-68.843 36.687-115.545 54.001-52.97 19.638-139.73 37.441-139.73 37.441"/><path stroke="#E199BE" stroke-linecap="round" stroke-linejoin="round" stroke-width="3.179" d="m851.39 137.473 56.453-59.562m-9.484 32.165-23.775-15.024"/><path fill="#D9D9D9" d="M885.031 97.19 751.134 45.843s29.538 19.056 34.993 63.036c2.058 16.589-.051 42.803-.051 42.803z"/><path fill="#D9D9D9" d="m757.864 193.802-92.409-37.777s4.287-26.585 3.122-43.626C665.84 72.37 628.425 17.83 628.425 17.83l83.358 3.996s61.393 59.686 61.98 108.47c.307 25.564-15.899 63.506-15.899 63.506"/><path fill="#E199BE" d="m642.546 9.109 49.784 185.796 18.426-4.938L650.223 7.052z"/><path fill="#DB476F" d="M514.865 189.792c13.316-6.911 29.667-24.406 29.667-24.406l1.536-.412 13.547 25.994s-19.256 15.692-33.972 20.623c-13.069 4.379-21.509 1.691-35.015 4.445-10.949 2.232-27.639 7.406-27.639 7.406s5.663-16.31 13.489-23.364c11.528-10.391 24.613-3.135 38.387-10.286"/><path fill="#E199BE" d="m644.458 237.355-55.651 14.912-26.392-32.426-6.583-24.568 24.186 16.56 53.907-13.786z"/><path fill="#F173B4" d="m599.949 181.806-44.118 13.467 22.651 16.971 55.278-14.811z"/><path fill="#E199BE" fill-rule="evenodd" d="M728.001 104.146a7 7 0 0 1-7.849 6.949c-.57.738-1.24 1.598-1.959 2.5-1.982 2.489-4.595 5.639-6.405 7.201-2.534 2.188-6.039 4.328-8.761 5.861-.737.415-1.432.795-2.056 1.128a7 7 0 1 1-2.943-6.365 99 99 0 0 0 1.563-.862c2.65-1.492 5.645-3.352 7.623-5.06 1.223-1.056 3.427-3.657 5.504-6.264.67-.842 1.3-1.648 1.84-2.348a7 7 0 1 1 13.443-2.74m-4 0a3 3 0 1 1-6 0 3 3 0 0 1 6 0m-30.001 26a3 3 0 1 0 0-6 3 3 0 0 0 0 6" clip-rule="evenodd"/><path fill="#E199BE" fill-rule="evenodd" d="M690.999 103.568c0 4.099 3.191 7.422 7.127 7.422a6.9 6.9 0 0 0 2.583-.502c.477.252 1.011.541 1.577.858 2.127 1.191 4.478 2.652 6.008 3.981 2.764 2.402 5.462 6.651 7.577 10.681a7.64 7.64 0 0 0-.871 3.56c0 4.099 3.191 7.422 7.127 7.422s7.127-3.323 7.127-7.422-3.191-7.422-7.127-7.422q-.247 0-.49.017c-2.18-4.073-5.274-9.021-8.931-12.199-2.11-1.833-4.995-3.585-7.196-4.817l-.378-.21q.121-.666.122-1.369c0-4.1-3.191-7.422-7.128-7.422-3.936 0-7.127 3.323-7.127 7.422m4.074 0c0 1.756 1.367 3.181 3.054 3.181s3.054-1.425 3.054-3.181-1.367-3.181-3.054-3.181-3.054 1.424-3.054 3.181m26.981 28.939c-1.686 0-3.054-1.424-3.054-3.181 0-1.756 1.368-3.18 3.054-3.18 1.687 0 3.055 1.424 3.055 3.18s-1.368 3.181-3.055 3.181" clip-rule="evenodd"/><path fill="#E199BE" d="M684.853 63.42c-.96.174-1.909.338-2.585 1.128s-2.21 3.27-2.261 4.181c-.088 1.547.72 1.789 1.615 2.92 3.179 4.023 8.326 7.865 11.378 11.996 2.119 2.869 2.13 6.384 5.026 8.679 2.396 1.898 5.089 3.146 8.221 3.517 3.555.422 6.998.554 10.445-.597.746-.249 3.239-1.131 3.303-2.09.087-1.312-.928-4.982-1.041-5.41-.914-3.441-2.603-9.139-3.841-12.477-1.278-3.444-2.223-5.422-5.313-7.367-5.391-3.395-11.897-3.916-18.199-4.547-2.285-.229-4.477-.346-6.748.066"/></g><defs><linearGradient id="d" x1="479.928" x2="479.928" y1="126.988" y2="479.205" gradientUnits="userSpaceOnUse"><stop stop-color="#003146"/><stop offset="1" stop-color="#3851CC"/></linearGradient><linearGradient id="f" x1="475.354" x2="475.354" y1="122.414" y2="474.632" gradientUnits="userSpaceOnUse"><stop stop-color="#003146"/><stop offset="1" stop-color="#3851CC"/></linearGradient><linearGradient id="h" x1="653.521" x2="648.471" y1="296.322" y2="216.78" gradientUnits="userSpaceOnUse"><stop stop-color="#FEB8DC"/><stop offset="1" stop-color="#E199BE"/></linearGradient><clipPath id="a"><path fill="#fff" d="M0 0h951v546H0z"/></clipPath></defs></svg>