<svg width="813" height="334" viewBox="0 0 813 334" fill="none" xmlns="http://www.w3.org/2000/svg">
<mask id="path-1-outside-1_584_32308" maskUnits="userSpaceOnUse" x="4" y="4" width="809" height="330" fill="black">
<rect fill="white" x="4" y="4" width="809" height="330"/>
<path fill-rule="evenodd" clip-rule="evenodd" d="M403.043 31.5763C405.695 25.8796 410.87 21.7605 417.017 20.454L442.46 15.0458C444.074 14.7028 445.385 16.3507 444.689 17.8462L422.986 64.4683C422.289 65.9638 423.601 67.6116 425.215 67.2686L456.162 60.6906C456.163 60.6904 456.164 60.6914 456.163 60.6923C456.163 60.6932 456.164 60.6942 456.165 60.694L482.575 55.0803C484.187 54.7376 485.499 56.3824 484.806 57.8777L438.123 158.584C435.476 164.295 430.294 168.427 424.136 169.736L398.705 175.142C397.092 175.484 395.781 173.839 396.474 172.344L428.334 103.614C429.027 102.119 427.715 100.474 426.103 100.817L404.84 105.337C404.225 105.467 403.708 105.879 403.443 106.449L372.685 172.52C370.033 178.217 364.858 182.336 358.712 183.642L333.268 189.051C331.655 189.394 330.343 187.746 331.039 186.25L403.043 31.5763ZM87.1952 98.7073C89.8471 93.0106 95.0221 88.8915 101.169 87.585L126.612 82.1768C128.226 81.8338 129.537 83.4817 128.841 84.9771L107.138 131.599C106.441 133.095 107.753 134.743 109.367 134.4L140.314 127.822C140.315 127.821 140.316 127.822 140.315 127.823C140.315 127.824 140.316 127.825 140.317 127.825L166.727 122.211C168.339 121.869 169.651 123.513 168.958 125.009L122.275 225.715C119.628 231.426 114.446 235.558 108.288 236.867L82.8565 242.273C81.2445 242.615 79.9331 240.97 80.6262 239.475L112.486 170.745C113.179 169.25 111.867 167.605 110.255 167.948L88.9921 172.468C88.3775 172.598 87.86 173.01 87.5948 173.58L56.8372 239.651C54.1853 245.348 49.0102 249.467 42.8638 250.773L17.4201 256.182C15.8065 256.525 14.4949 254.877 15.1911 253.381L87.1952 98.7073ZM203.023 115.008C196.865 116.316 191.683 120.448 189.036 126.159L142.353 226.866C141.66 228.361 142.972 230.006 144.584 229.663L170.016 224.258C176.173 222.949 181.355 218.817 184.003 213.106L230.685 112.399C231.378 110.904 230.066 109.259 228.454 109.602L203.023 115.008ZM212.312 74.102C214.973 68.436 220.134 64.3429 226.257 63.0414L251.725 57.6279C253.342 57.2843 254.654 58.9385 253.951 60.4344L242.284 85.2754C239.623 90.9413 234.462 95.0345 228.34 96.336L202.871 101.749C201.254 102.093 199.942 100.439 200.645 98.9429L212.312 74.102ZM293.99 95.6718L286.171 97.3338L264.646 101.909C258.488 103.218 253.306 107.35 250.659 113.061L203.977 213.767C203.284 215.263 204.595 216.907 206.207 216.565L241.363 209.092C241.399 209.084 241.43 209.06 241.445 209.027C241.461 208.993 241.491 208.969 241.528 208.961L264.53 204.177C266.141 203.842 267.445 205.487 266.751 206.979L261.171 218.965C260.908 219.53 260.396 219.941 259.787 220.074L207.708 231.513C201.64 232.846 196.536 236.923 193.895 242.546L182.21 267.43C181.505 268.932 182.829 270.59 184.449 270.234L252.7 255.243L272.722 250.988C278.869 249.681 284.044 245.562 286.696 239.865L358.7 85.1915C359.396 83.6961 358.084 82.0482 356.471 82.3912L325.291 89.0187L321.265 89.8743L293.99 95.6718ZM282.913 170.338C283.535 170.212 284.059 169.798 284.327 169.223L302.144 130.95C302.84 129.455 301.528 127.807 299.915 128.15L277.62 132.889C277.005 133.02 276.486 133.433 276.222 134.004L258.59 172.04C257.9 173.528 259.197 175.168 260.804 174.841L282.913 170.338ZM423.096 191.907C423.789 190.412 422.478 188.767 420.866 189.11L385.653 196.595L359.651 202.122L330.306 208.359C324.149 209.668 318.967 213.799 316.319 219.511L290.605 274.984C289.912 276.479 291.223 278.124 292.835 277.781L338.965 267.976C340.564 267.636 341.873 269.253 341.208 270.746L338.409 277.033C338.149 277.617 337.624 278.042 336.998 278.175L284.871 289.255C284.256 289.386 283.737 289.799 283.473 290.37L269.637 320.217C268.944 321.712 270.255 323.357 271.867 323.015L307.081 315.53L333.083 310.003L362.427 303.766C368.585 302.457 373.767 298.325 376.414 292.614L403.813 233.507C404.506 232.012 403.195 230.367 401.583 230.71L353.51 240.928C351.912 241.268 350.602 239.651 351.267 238.158L354.066 231.871C354.327 231.286 354.851 230.862 355.477 230.728L409.547 219.236C410.162 219.105 410.681 218.692 410.945 218.12L423.096 191.907ZM511.752 169.388L546.965 161.903C548.577 161.561 549.888 163.206 549.195 164.701L519.696 228.339C519.431 228.91 518.913 229.323 518.297 229.454L446.297 244.758C445.67 244.891 445.146 245.316 444.885 245.901L442.086 252.188C441.422 253.681 442.731 255.297 444.329 254.958L510.333 240.928C511.945 240.586 513.257 242.23 512.564 243.726L502.513 265.407C499.866 271.119 494.684 275.25 488.526 276.559L459.182 282.796L433.18 288.323L397.966 295.808C396.354 296.151 395.043 294.506 395.736 293.011L442.418 192.304C445.066 186.593 450.248 182.461 456.405 181.153L485.75 174.915L511.752 169.388ZM459.667 214.257C459.002 215.75 460.311 217.367 461.91 217.027L498.655 209.217C499.276 209.085 499.796 208.667 500.059 208.09L502.934 201.787C503.615 200.292 502.305 198.659 500.698 199.001L463.877 206.828C463.251 206.961 462.726 207.385 462.466 207.97L459.667 214.257ZM802.535 110.852C803.228 109.356 801.917 107.712 800.305 108.054L765.092 115.539L739.09 121.066L709.745 127.303C703.588 128.612 698.406 132.744 695.758 138.455L670.044 193.928C669.351 195.423 670.662 197.068 672.274 196.725L718.404 186.92C720.003 186.58 721.312 188.197 720.647 189.69L717.848 195.977C717.588 196.562 717.063 196.987 716.437 197.12L664.31 208.199C663.694 208.33 663.176 208.743 662.911 209.314L649.076 239.162C648.383 240.657 649.694 242.302 651.306 241.959L686.52 234.474L712.522 228.947L741.866 222.71C748.024 221.401 753.206 217.269 755.853 211.558L783.252 152.451C783.945 150.956 782.634 149.311 781.021 149.654L732.949 159.872C731.35 160.212 730.041 158.595 730.706 157.102L733.505 150.816C733.765 150.231 734.29 149.806 734.916 149.673L788.986 138.18C789.601 138.049 790.12 137.636 790.384 137.065L802.535 110.852ZM559.361 261.503L524.148 268.987C522.536 269.33 521.224 267.685 521.917 266.19L552.994 199.15C553.258 198.579 553.777 198.165 554.392 198.035L622.646 183.527C623.273 183.394 623.797 182.969 624.058 182.384L626.857 176.097C627.521 174.604 626.212 172.988 624.614 173.328L562.357 186.56C560.744 186.903 559.433 185.258 560.126 183.763L568.6 165.484C571.247 159.772 576.429 155.641 582.587 154.332L611.931 148.094L637.933 142.568L673.146 135.083C674.758 134.74 676.07 136.385 675.377 137.88L628.695 238.587C626.047 244.298 620.865 248.43 614.708 249.738L585.363 255.976L559.361 261.503ZM609.844 213.907C610.509 212.414 609.2 210.798 607.601 211.137L570.855 218.948C570.235 219.08 569.714 219.498 569.451 220.074L566.577 226.378C565.896 227.872 567.206 229.505 568.813 229.164L605.634 221.337C606.26 221.204 606.785 220.779 607.045 220.194L609.844 213.907Z"/>
</mask>
<path fill-rule="evenodd" clip-rule="evenodd" d="M403.043 31.5763C405.695 25.8796 410.87 21.7605 417.017 20.454L442.46 15.0458C444.074 14.7028 445.385 16.3507 444.689 17.8462L422.986 64.4683C422.289 65.9638 423.601 67.6116 425.215 67.2686L456.162 60.6906C456.163 60.6904 456.164 60.6914 456.163 60.6923C456.163 60.6932 456.164 60.6942 456.165 60.694L482.575 55.0803C484.187 54.7376 485.499 56.3824 484.806 57.8777L438.123 158.584C435.476 164.295 430.294 168.427 424.136 169.736L398.705 175.142C397.092 175.484 395.781 173.839 396.474 172.344L428.334 103.614C429.027 102.119 427.715 100.474 426.103 100.817L404.84 105.337C404.225 105.467 403.708 105.879 403.443 106.449L372.685 172.52C370.033 178.217 364.858 182.336 358.712 183.642L333.268 189.051C331.655 189.394 330.343 187.746 331.039 186.25L403.043 31.5763ZM87.1952 98.7073C89.8471 93.0106 95.0221 88.8915 101.169 87.585L126.612 82.1768C128.226 81.8338 129.537 83.4817 128.841 84.9771L107.138 131.599C106.441 133.095 107.753 134.743 109.367 134.4L140.314 127.822C140.315 127.821 140.316 127.822 140.315 127.823C140.315 127.824 140.316 127.825 140.317 127.825L166.727 122.211C168.339 121.869 169.651 123.513 168.958 125.009L122.275 225.715C119.628 231.426 114.446 235.558 108.288 236.867L82.8565 242.273C81.2445 242.615 79.9331 240.97 80.6262 239.475L112.486 170.745C113.179 169.25 111.867 167.605 110.255 167.948L88.9921 172.468C88.3775 172.598 87.86 173.01 87.5948 173.58L56.8372 239.651C54.1853 245.348 49.0102 249.467 42.8638 250.773L17.4201 256.182C15.8065 256.525 14.4949 254.877 15.1911 253.381L87.1952 98.7073ZM203.023 115.008C196.865 116.316 191.683 120.448 189.036 126.159L142.353 226.866C141.66 228.361 142.972 230.006 144.584 229.663L170.016 224.258C176.173 222.949 181.355 218.817 184.003 213.106L230.685 112.399C231.378 110.904 230.066 109.259 228.454 109.602L203.023 115.008ZM212.312 74.102C214.973 68.436 220.134 64.3429 226.257 63.0414L251.725 57.6279C253.342 57.2843 254.654 58.9385 253.951 60.4344L242.284 85.2754C239.623 90.9413 234.462 95.0345 228.34 96.336L202.871 101.749C201.254 102.093 199.942 100.439 200.645 98.9429L212.312 74.102ZM293.99 95.6718L286.171 97.3338L264.646 101.909C258.488 103.218 253.306 107.35 250.659 113.061L203.977 213.767C203.284 215.263 204.595 216.907 206.207 216.565L241.363 209.092C241.399 209.084 241.43 209.06 241.445 209.027C241.461 208.993 241.491 208.969 241.528 208.961L264.53 204.177C266.141 203.842 267.445 205.487 266.751 206.979L261.171 218.965C260.908 219.53 260.396 219.941 259.787 220.074L207.708 231.513C201.64 232.846 196.536 236.923 193.895 242.546L182.21 267.43C181.505 268.932 182.829 270.59 184.449 270.234L252.7 255.243L272.722 250.988C278.869 249.681 284.044 245.562 286.696 239.865L358.7 85.1915C359.396 83.6961 358.084 82.0482 356.471 82.3912L325.291 89.0187L321.265 89.8743L293.99 95.6718ZM282.913 170.338C283.535 170.212 284.059 169.798 284.327 169.223L302.144 130.95C302.84 129.455 301.528 127.807 299.915 128.15L277.62 132.889C277.005 133.02 276.486 133.433 276.222 134.004L258.59 172.04C257.9 173.528 259.197 175.168 260.804 174.841L282.913 170.338ZM423.096 191.907C423.789 190.412 422.478 188.767 420.866 189.11L385.653 196.595L359.651 202.122L330.306 208.359C324.149 209.668 318.967 213.799 316.319 219.511L290.605 274.984C289.912 276.479 291.223 278.124 292.835 277.781L338.965 267.976C340.564 267.636 341.873 269.253 341.208 270.746L338.409 277.033C338.149 277.617 337.624 278.042 336.998 278.175L284.871 289.255C284.256 289.386 283.737 289.799 283.473 290.37L269.637 320.217C268.944 321.712 270.255 323.357 271.867 323.015L307.081 315.53L333.083 310.003L362.427 303.766C368.585 302.457 373.767 298.325 376.414 292.614L403.813 233.507C404.506 232.012 403.195 230.367 401.583 230.71L353.51 240.928C351.912 241.268 350.602 239.651 351.267 238.158L354.066 231.871C354.327 231.286 354.851 230.862 355.477 230.728L409.547 219.236C410.162 219.105 410.681 218.692 410.945 218.12L423.096 191.907ZM511.752 169.388L546.965 161.903C548.577 161.561 549.888 163.206 549.195 164.701L519.696 228.339C519.431 228.91 518.913 229.323 518.297 229.454L446.297 244.758C445.67 244.891 445.146 245.316 444.885 245.901L442.086 252.188C441.422 253.681 442.731 255.297 444.329 254.958L510.333 240.928C511.945 240.586 513.257 242.23 512.564 243.726L502.513 265.407C499.866 271.119 494.684 275.25 488.526 276.559L459.182 282.796L433.18 288.323L397.966 295.808C396.354 296.151 395.043 294.506 395.736 293.011L442.418 192.304C445.066 186.593 450.248 182.461 456.405 181.153L485.75 174.915L511.752 169.388ZM459.667 214.257C459.002 215.75 460.311 217.367 461.91 217.027L498.655 209.217C499.276 209.085 499.796 208.667 500.059 208.09L502.934 201.787C503.615 200.292 502.305 198.659 500.698 199.001L463.877 206.828C463.251 206.961 462.726 207.385 462.466 207.97L459.667 214.257ZM802.535 110.852C803.228 109.356 801.917 107.712 800.305 108.054L765.092 115.539L739.09 121.066L709.745 127.303C703.588 128.612 698.406 132.744 695.758 138.455L670.044 193.928C669.351 195.423 670.662 197.068 672.274 196.725L718.404 186.92C720.003 186.58 721.312 188.197 720.647 189.69L717.848 195.977C717.588 196.562 717.063 196.987 716.437 197.12L664.31 208.199C663.694 208.33 663.176 208.743 662.911 209.314L649.076 239.162C648.383 240.657 649.694 242.302 651.306 241.959L686.52 234.474L712.522 228.947L741.866 222.71C748.024 221.401 753.206 217.269 755.853 211.558L783.252 152.451C783.945 150.956 782.634 149.311 781.021 149.654L732.949 159.872C731.35 160.212 730.041 158.595 730.706 157.102L733.505 150.816C733.765 150.231 734.29 149.806 734.916 149.673L788.986 138.18C789.601 138.049 790.12 137.636 790.384 137.065L802.535 110.852ZM559.361 261.503L524.148 268.987C522.536 269.33 521.224 267.685 521.917 266.19L552.994 199.15C553.258 198.579 553.777 198.165 554.392 198.035L622.646 183.527C623.273 183.394 623.797 182.969 624.058 182.384L626.857 176.097C627.521 174.604 626.212 172.988 624.614 173.328L562.357 186.56C560.744 186.903 559.433 185.258 560.126 183.763L568.6 165.484C571.247 159.772 576.429 155.641 582.587 154.332L611.931 148.094L637.933 142.568L673.146 135.083C674.758 134.74 676.07 136.385 675.377 137.88L628.695 238.587C626.047 244.298 620.865 248.43 614.708 249.738L585.363 255.976L559.361 261.503ZM609.844 213.907C610.509 212.414 609.2 210.798 607.601 211.137L570.855 218.948C570.235 219.08 569.714 219.498 569.451 220.074L566.577 226.378C565.896 227.872 567.206 229.505 568.813 229.164L605.634 221.337C606.26 221.204 606.785 220.779 607.045 220.194L609.844 213.907Z" fill="#FEC2FB"/>
<path d="M417.017 20.454L414.937 10.6725V10.6725L417.017 20.454ZM403.043 31.5763L393.977 27.356V27.356L403.043 31.5763ZM438.123 158.584L447.196 162.79L447.196 162.79L438.123 158.584ZM424.136 169.736L426.216 179.517L424.136 169.736ZM372.685 172.52L363.619 168.3L363.619 168.3L372.685 172.52ZM358.712 183.642L360.791 193.424L358.712 183.642ZM101.169 87.585L99.0894 77.8035L101.169 87.585ZM87.1952 98.7073L96.261 102.928L87.1952 98.7073ZM122.275 225.715L131.348 229.921H131.348L122.275 225.715ZM108.288 236.867L110.368 246.648H110.368L108.288 236.867ZM56.8372 239.651L65.903 243.871H65.903L56.8372 239.651ZM42.8638 250.773L40.7847 240.992L42.8638 250.773ZM189.036 126.159L198.108 130.365H198.108L189.036 126.159ZM203.023 115.008L205.102 124.789L203.023 115.008ZM170.016 224.258L172.095 234.039H172.095L170.016 224.258ZM184.003 213.106L174.93 208.9V208.9L184.003 213.106ZM226.257 63.0414L224.177 53.2599L226.257 63.0414ZM212.312 74.102L221.363 78.3532V78.3532L212.312 74.102ZM242.284 85.2754L233.233 81.0242L233.233 81.0242L242.284 85.2754ZM228.34 96.336L230.419 106.117L230.419 106.117L228.34 96.336ZM286.171 97.3338L288.251 107.115L288.251 107.115L286.171 97.3338ZM293.99 95.6718L291.911 85.8903L291.911 85.8904L293.99 95.6718ZM264.646 101.909L266.725 111.691H266.725L264.646 101.909ZM250.659 113.061L241.586 108.855V108.855L250.659 113.061ZM207.708 231.513L205.563 221.746L205.563 221.746L207.708 231.513ZM193.895 242.546L202.947 246.797L202.947 246.797L193.895 242.546ZM252.7 255.243L250.621 245.462L250.588 245.469L250.555 245.476L252.7 255.243ZM272.722 250.988L274.801 260.769L272.722 250.988ZM286.696 239.865L295.762 244.086V244.086L286.696 239.865ZM325.291 89.0187L327.37 98.8001H327.37L325.291 89.0187ZM321.265 89.8743L319.186 80.0928L321.265 89.8743ZM385.653 196.595L387.732 206.376H387.732L385.653 196.595ZM359.651 202.122L357.572 192.34L359.651 202.122ZM330.306 208.359L328.227 198.578H328.227L330.306 208.359ZM316.319 219.511L307.247 215.305L307.246 215.305L316.319 219.511ZM307.081 315.53L309.16 325.311L307.081 315.53ZM333.083 310.003L331.004 300.221H331.004L333.083 310.003ZM362.427 303.766L364.506 313.547H364.506L362.427 303.766ZM376.414 292.614L385.487 296.819H385.487L376.414 292.614ZM511.752 169.388L513.831 179.17L511.752 169.388ZM502.513 265.407L511.586 269.613L511.586 269.613L502.513 265.407ZM488.526 276.559L490.605 286.341H490.605L488.526 276.559ZM459.182 282.796L461.261 292.578L459.182 282.796ZM433.18 288.323L431.101 278.542H431.101L433.18 288.323ZM442.418 192.304L433.346 188.099L433.345 188.099L442.418 192.304ZM456.405 181.153L458.484 190.934H458.484L456.405 181.153ZM485.75 174.915L487.829 184.697L485.75 174.915ZM765.092 115.539L763.012 105.758V105.758L765.092 115.539ZM739.09 121.066L741.169 130.847L739.09 121.066ZM709.745 127.303L711.824 137.085L709.745 127.303ZM695.758 138.455L704.831 142.661L704.831 142.661L695.758 138.455ZM686.52 234.474L688.599 244.256L686.52 234.474ZM712.522 228.947L710.443 219.166L712.522 228.947ZM741.866 222.71L739.787 212.928L741.866 222.71ZM755.853 211.558L746.781 207.352V207.353L755.853 211.558ZM559.361 261.503L557.282 251.721L559.361 261.503ZM568.6 165.484L559.527 161.278V161.278L568.6 165.484ZM582.587 154.332L584.666 164.113L582.587 154.332ZM611.931 148.094L614.01 157.876L611.931 148.094ZM637.933 142.568L635.854 132.786L637.933 142.568ZM628.695 238.587L619.622 234.381V234.381L628.695 238.587ZM614.708 249.738L616.787 259.52L614.708 249.738ZM585.363 255.976L587.442 265.757L585.363 255.976ZM566.577 226.378L557.479 222.229L566.577 226.378ZM568.813 229.164L566.734 219.382L568.813 229.164ZM609.844 213.907L600.709 209.84L609.844 213.907ZM673.146 135.083L671.067 125.301L673.146 135.083ZM675.377 137.88L666.304 133.675L675.377 137.88ZM552.994 199.15L562.066 203.355L552.994 199.15ZM554.392 198.035L552.313 188.253L554.392 198.035ZM649.076 239.162L658.149 243.367L649.076 239.162ZM651.306 241.959L649.227 232.177L651.306 241.959ZM670.044 193.928L679.117 198.133L670.044 193.928ZM502.934 201.787L512.032 205.936L502.934 201.787ZM500.698 199.001L502.777 208.782L500.698 199.001ZM461.91 217.027L459.83 207.245L461.91 217.027ZM459.667 214.257L468.802 218.325L459.667 214.257ZM498.655 209.217L496.576 199.435L498.655 209.217ZM500.059 208.09L509.158 212.239L500.059 208.09ZM397.966 295.808L400.046 305.59L397.966 295.808ZM395.736 293.011L404.809 297.216L395.736 293.011ZM510.333 240.928L512.413 250.71L510.333 240.928ZM512.564 243.726L503.491 239.52L512.564 243.726ZM442.086 252.188L451.222 256.255L442.086 252.188ZM444.329 254.958L442.25 245.176L444.329 254.958ZM519.696 228.339L510.624 224.133L519.696 228.339ZM518.297 229.454L516.218 219.673L518.297 229.454ZM409.547 219.236L411.626 229.017L409.547 219.236ZM410.945 218.12L401.873 213.915L410.945 218.12ZM354.066 231.871L344.931 227.804L354.066 231.871ZM355.477 230.728L353.398 220.947L355.477 230.728ZM403.813 233.507L412.886 237.713L403.813 233.507ZM401.583 230.71L399.503 220.928L401.583 230.71ZM338.965 267.976L336.886 258.194L338.965 267.976ZM341.208 270.746L332.073 266.678L341.208 270.746ZM290.605 274.984L281.532 270.778L290.605 274.984ZM292.835 277.781L294.914 287.562L292.835 277.781ZM258.59 172.04L249.517 167.834L258.59 172.04ZM260.804 174.841L258.808 165.042L260.804 174.841ZM277.62 132.889L275.541 123.107L277.62 132.889ZM276.222 134.004L285.294 138.209L276.222 134.004ZM302.144 130.95L311.21 135.17L302.144 130.95ZM299.915 128.15L301.994 137.931L299.915 128.15ZM241.528 208.961L243.564 218.752L241.528 208.961ZM241.363 209.092L239.284 199.311L241.363 209.092ZM203.977 213.767L194.904 209.562L203.977 213.767ZM206.207 216.565L208.286 226.346L206.207 216.565ZM446.297 244.758L444.217 234.977L446.297 244.758ZM444.885 245.901L454.021 249.968L444.885 245.901ZM605.634 221.337L607.713 231.118L605.634 221.337ZM607.045 220.194L597.91 216.127L607.045 220.194ZM251.725 57.6279L253.804 67.4094L251.725 57.6279ZM253.951 60.4344L244.9 56.1832L253.951 60.4344ZM546.965 161.903L549.044 171.685L546.965 161.903ZM549.195 164.701L558.268 168.906L549.195 164.701ZM570.855 218.948L568.776 209.166L570.855 218.948ZM569.451 220.074L560.353 215.926L569.451 220.074ZM230.685 112.399L221.612 108.194L230.685 112.399ZM228.454 109.602L226.375 99.8204L228.454 109.602ZM338.409 277.033L329.274 272.965L338.409 277.033ZM336.998 278.175L334.919 268.394L336.998 278.175ZM622.646 183.527L624.725 193.308L622.646 183.527ZM624.058 182.384L614.922 178.317L624.058 182.384ZM82.8565 242.273L80.7774 232.491L82.8565 242.273ZM524.148 268.987L522.069 259.206L524.148 268.987ZM521.917 266.19L512.845 261.984L521.917 266.19ZM168.958 125.009L159.885 120.803L168.958 125.009ZM788.986 138.18L786.906 128.398L788.986 138.18ZM790.384 137.065L781.312 132.859L790.384 137.065ZM140.317 127.825L142.396 137.606L140.317 127.825ZM733.505 150.816L742.64 154.883L733.505 150.816ZM734.916 149.673L736.995 159.454L734.916 149.673ZM140.314 127.822L142.393 137.603L140.314 127.822ZM202.871 101.749L200.792 91.968L202.871 101.749ZM200.645 98.9429L209.696 103.194L200.645 98.9429ZM420.866 189.11L418.787 179.329L420.866 189.11ZM423.096 191.907L432.169 196.113L423.096 191.907ZM730.706 157.102L721.57 153.035L730.706 157.102ZM107.138 131.599L98.0718 127.379L107.138 131.599ZM109.367 134.4L107.288 124.618L109.367 134.4ZM664.31 208.199L662.231 198.418L664.31 208.199ZM662.911 209.314L671.984 213.52L662.911 209.314ZM404.84 105.337L406.919 115.118L404.84 105.337ZM403.443 106.449L394.377 102.229L403.443 106.449ZM358.7 85.1915L349.634 80.9712L358.7 85.1915ZM356.471 82.3912L358.55 92.1727L356.471 82.3912ZM717.848 195.977L708.712 191.909L717.848 195.977ZM716.437 197.12L718.516 206.901L716.437 197.12ZM428.334 103.614L419.261 99.4088L428.334 103.614ZM426.103 100.817L428.182 110.598L426.103 100.817ZM353.51 240.928L351.431 231.146L353.51 240.928ZM351.267 238.158L342.132 234.091L351.267 238.158ZM142.353 226.866L151.426 231.071L142.353 226.866ZM144.584 229.663L142.505 219.882L144.584 229.663ZM718.404 186.92L716.325 177.139L718.404 186.92ZM720.647 189.69L729.782 193.757L720.647 189.69ZM398.705 175.142L396.625 165.36L398.705 175.142ZM396.474 172.344L405.547 176.55L396.474 172.344ZM783.252 152.451L774.179 148.246L783.252 152.451ZM781.021 149.654L783.101 159.436L781.021 149.654ZM126.612 82.1768L128.691 91.9583L126.612 82.1768ZM128.841 84.9771L137.907 89.1975L128.841 84.9771ZM17.4201 256.182L19.4992 265.963L17.4201 256.182ZM182.21 267.43L191.262 271.681V271.681L182.21 267.43ZM184.449 270.234L182.304 260.467L184.449 270.234ZM484.806 57.8777L493.878 62.0833L484.806 57.8777ZM456.165 60.694L458.244 70.4755L456.165 60.694ZM800.305 108.054L798.226 98.2728L800.305 108.054ZM802.535 110.852L811.608 115.057L802.535 110.852ZM456.162 60.6906L458.241 70.4721L456.162 60.6906ZM284.327 169.223L293.393 173.443L284.327 169.223ZM282.913 170.338L280.917 160.54L282.913 170.338ZM333.268 189.051L335.347 198.832L333.268 189.051ZM331.039 186.25L321.973 182.03L331.039 186.25ZM269.637 320.217L260.564 316.012L269.637 320.217ZM562.357 186.56L560.277 176.779L562.357 186.56ZM560.126 183.763L569.199 187.969L560.126 183.763ZM88.9921 172.468L91.0712 182.249L88.9921 172.468ZM87.5948 173.58L96.6606 177.8L87.5948 173.58ZM261.171 218.965L270.237 223.185L261.171 218.965ZM259.787 220.074L257.642 210.307L259.787 220.074ZM422.986 64.4683L413.92 60.248L422.986 64.4683ZM425.215 67.2686L427.294 77.0501L425.215 67.2686ZM284.871 289.255L286.95 299.036L284.871 289.255ZM283.473 290.37L274.4 286.165L283.473 290.37ZM626.857 176.097L635.992 180.165L626.857 176.097ZM624.614 173.328L622.535 163.546L624.614 173.328ZM112.486 170.745L121.558 174.951L112.486 170.745ZM110.255 167.948L108.176 158.167L110.255 167.948ZM264.53 204.177L266.567 213.967L264.53 204.177ZM266.751 206.979L275.816 211.199L266.751 206.979ZM463.877 206.828L465.956 216.609L463.877 206.828ZM462.466 207.97L453.33 203.903L462.466 207.97ZM444.689 17.8462L453.755 22.0665L444.689 17.8462ZM414.937 10.6725C405.718 12.6322 397.955 18.8109 393.977 27.356L412.109 35.7967C413.435 32.9483 416.022 30.8887 419.096 30.2355L414.937 10.6725ZM440.381 5.26431L414.937 10.6725L419.096 30.2355L444.539 24.8273L440.381 5.26431ZM432.051 68.6886L453.755 22.0665L435.623 13.6258L413.92 60.248L432.051 68.6886ZM454.083 50.9091L423.135 57.4872L427.294 77.0501L458.241 70.4721L454.083 50.9091ZM480.496 45.2988L454.086 50.9125L458.244 70.4755L484.654 64.8618L480.496 45.2988ZM447.196 162.79L493.878 62.0833L475.733 53.6721L429.051 154.379L447.196 162.79ZM426.216 179.517C435.452 177.554 443.225 171.357 447.196 162.79L429.051 154.379C427.727 157.234 425.136 159.3 422.057 159.954L426.216 179.517ZM400.784 184.923L426.216 179.517L422.057 159.954L396.625 165.36L400.784 184.923ZM419.261 99.4088L387.402 168.139L405.547 176.55L437.406 107.82L419.261 99.4088ZM406.919 115.118L428.182 110.598L424.024 91.0355L402.761 95.5551L406.919 115.118ZM381.751 176.74L412.509 110.669L394.377 102.229L363.619 168.3L381.751 176.74ZM360.791 193.424C370.011 191.464 377.773 185.285 381.751 176.74L363.619 168.3C362.293 171.148 359.706 173.208 356.633 173.861L360.791 193.424ZM335.347 198.832L360.791 193.424L356.633 173.861L331.189 179.269L335.347 198.832ZM393.977 27.356L321.973 182.03L340.105 190.471L412.109 35.7966L393.977 27.356ZM99.0894 77.8035C89.8698 79.7632 82.1073 85.9419 78.1294 94.487L96.261 102.928C97.5869 100.079 100.174 98.0197 103.248 97.3665L99.0894 77.8035ZM124.533 72.3953L99.0894 77.8035L103.248 97.3665L128.691 91.9583L124.533 72.3953ZM116.203 135.82L137.907 89.1975L119.775 80.7568L98.0718 127.379L116.203 135.82ZM138.235 118.04L107.288 124.618L111.446 144.181L142.393 137.603L138.235 118.04ZM164.648 112.43L138.238 118.044L142.396 137.606L168.806 131.993L164.648 112.43ZM131.348 229.921L178.03 129.214L159.885 120.803L113.203 221.51L131.348 229.921ZM110.368 246.648C119.604 244.685 127.377 238.488 131.348 229.921L113.203 221.51C111.879 224.365 109.288 226.431 106.209 227.085L110.368 246.648ZM84.9357 252.054L110.368 246.648L106.209 227.085L80.7774 232.491L84.9357 252.054ZM103.413 166.54L71.5535 235.27L89.6988 243.681L121.558 174.951L103.413 166.54ZM91.0712 182.249L112.334 177.729L108.176 158.167L86.913 162.686L91.0712 182.249ZM65.903 243.871L96.6606 177.8L78.529 169.36L47.7714 235.431L65.903 243.871ZM44.9429 260.555C54.1625 258.595 61.9251 252.416 65.903 243.871L47.7714 235.431C46.4454 238.279 43.8579 240.339 40.7847 240.992L44.9429 260.555ZM19.4992 265.963L44.9429 260.555L40.7847 240.992L15.341 246.4L19.4992 265.963ZM78.1294 94.487L6.12529 249.161L24.2569 257.602L96.261 102.928L78.1294 94.487ZM198.108 130.365C199.432 127.509 202.023 125.444 205.102 124.789L200.943 105.226C191.707 107.189 183.934 113.387 179.963 121.954L198.108 130.365ZM151.426 231.071L198.108 130.365L179.963 121.954L133.281 222.66L151.426 231.071ZM167.937 214.476L142.505 219.882L146.663 239.445L172.095 234.039L167.937 214.476ZM174.93 208.9C173.606 211.756 171.015 213.822 167.937 214.476L172.095 234.039C181.331 232.076 189.104 225.878 193.075 217.311L174.93 208.9ZM221.612 108.194L174.93 208.9L193.075 217.311L239.757 116.605L221.612 108.194ZM205.102 124.789L230.534 119.383L226.375 99.8204L200.943 105.226L205.102 124.789ZM224.177 53.2599C214.993 55.2121 207.252 61.3519 203.261 69.8508L221.363 78.3532C222.694 75.5202 225.274 73.4736 228.336 72.8229L224.177 53.2599ZM249.646 47.8464L224.177 53.2599L228.336 72.8229L253.804 67.4094L249.646 47.8464ZM251.335 89.5266L263.003 64.6856L244.9 56.1832L233.233 81.0242L251.335 89.5266ZM230.419 106.117C239.603 104.165 247.344 98.0255 251.335 89.5266L233.233 81.0242C231.902 83.8572 229.322 85.9037 226.26 86.5545L230.419 106.117ZM204.95 111.531L230.419 106.117L226.26 86.5545L200.792 91.968L204.95 111.531ZM203.261 69.8508L191.594 94.6917L209.696 103.194L221.363 78.3532L203.261 69.8508ZM288.251 107.115L296.069 105.453L291.911 85.8904L284.092 87.5523L288.251 107.115ZM266.725 111.691L288.251 107.115L284.092 87.5523L262.567 92.1277L266.725 111.691ZM259.731 117.267C261.055 114.411 263.646 112.345 266.725 111.691L262.567 92.1277C253.33 94.0909 245.557 100.288 241.586 108.855L259.731 117.267ZM213.049 217.973L259.731 117.267L241.586 108.855L194.904 209.562L213.049 217.973ZM239.284 199.311L204.128 206.783L208.286 226.346L243.442 218.874L239.284 199.311ZM262.494 194.386L239.491 199.171L243.564 218.752L266.567 213.967L262.494 194.386ZM270.237 223.185L275.816 211.199L257.685 202.759L252.105 214.745L270.237 223.185ZM209.853 241.28L261.932 229.842L257.642 210.307L205.563 221.746L209.853 241.28ZM202.947 246.797C204.267 243.985 206.819 241.946 209.853 241.28L205.563 221.746C196.461 223.745 188.804 229.86 184.843 238.296L202.947 246.797ZM191.262 271.681L202.947 246.797L184.843 238.296L173.158 263.18L191.262 271.681ZM250.555 245.476L182.304 260.467L186.594 280.001L254.846 265.011L250.555 245.476ZM270.643 241.206L250.621 245.462L254.78 265.025L274.801 260.769L270.643 241.206ZM277.63 235.645C276.304 238.493 273.716 240.553 270.643 241.206L274.801 260.769C284.021 258.809 291.784 252.631 295.762 244.086L277.63 235.645ZM349.634 80.9712L277.63 235.645L295.762 244.086L367.766 89.4119L349.634 80.9712ZM327.37 98.8001L358.55 92.1727L354.392 72.6097L323.212 79.2372L327.37 98.8001ZM323.345 99.6558L327.37 98.8001L323.212 79.2372L319.186 80.0928L323.345 99.6558ZM296.069 105.453L323.345 99.6558L319.186 80.0928L291.911 85.8903L296.069 105.453ZM293.078 126.73L275.261 165.002L293.393 173.443L311.21 135.17L293.078 126.73ZM279.699 142.67L301.994 137.931L297.836 118.368L275.541 123.107L279.699 142.67ZM267.663 176.246L285.294 138.209L267.149 129.798L249.517 167.834L267.663 176.246ZM280.917 160.54L258.808 165.042L262.799 184.64L284.908 180.137L280.917 160.54ZM387.732 206.376L422.945 198.891L418.787 179.329L383.574 186.813L387.732 206.376ZM361.73 211.903L387.732 206.376L383.574 186.813L357.572 192.34L361.73 211.903ZM332.385 218.141L361.73 211.903L357.572 192.34L328.227 198.578L332.385 218.141ZM325.392 223.716C326.716 220.861 329.307 218.795 332.385 218.141L328.227 198.578C318.991 200.541 311.218 206.738 307.247 215.305L325.392 223.716ZM299.678 279.189L325.392 223.716L307.246 215.305L281.532 270.778L299.678 279.189ZM336.886 258.194L290.756 267.999L294.914 287.562L341.044 277.757L336.886 258.194ZM347.545 281.1L350.344 274.813L332.073 266.678L329.274 272.965L347.545 281.1ZM286.95 299.036L339.077 287.957L334.919 268.394L282.792 279.474L286.95 299.036ZM278.71 324.423L292.545 294.576L274.4 286.165L260.564 316.012L278.71 324.423ZM305.002 305.748L269.788 313.233L273.947 332.796L309.16 325.311L305.002 305.748ZM331.004 300.221L305.002 305.748L309.16 325.311L335.162 319.784L331.004 300.221ZM360.348 293.984L331.004 300.221L335.162 319.784L364.506 313.547L360.348 293.984ZM367.342 288.408C366.018 291.264 363.427 293.33 360.348 293.984L364.506 313.547C373.743 311.584 381.516 305.386 385.487 296.819L367.342 288.408ZM394.74 229.302L367.342 288.408L385.487 296.819L412.886 237.713L394.74 229.302ZM355.589 250.709L403.662 240.491L399.503 220.928L351.431 231.146L355.589 250.709ZM344.931 227.804L342.132 234.091L360.403 242.225L363.202 235.939L344.931 227.804ZM407.468 209.454L353.398 220.947L357.557 240.51L411.626 229.017L407.468 209.454ZM414.024 187.702L401.873 213.915L420.018 222.326L432.169 196.113L414.024 187.702ZM544.886 152.122L509.673 159.607L513.831 179.17L549.044 171.685L544.886 152.122ZM528.769 232.545L558.268 168.906L540.123 160.495L510.624 224.133L528.769 232.545ZM448.376 254.54L520.377 239.236L516.218 219.673L444.217 234.977L448.376 254.54ZM451.222 256.255L454.021 249.968L435.75 241.834L432.951 248.12L451.222 256.255ZM508.254 231.147L442.25 245.176L446.408 264.739L512.413 250.71L508.254 231.147ZM511.586 269.613L521.636 247.931L503.491 239.52L493.441 261.202L511.586 269.613ZM490.605 286.341C499.842 284.377 507.615 278.18 511.586 269.613L493.441 261.202C492.117 264.057 489.526 266.123 486.447 266.778L490.605 286.341ZM461.261 292.578L490.605 286.341L486.447 266.778L457.103 273.015L461.261 292.578ZM435.259 298.105L461.261 292.578L457.103 273.015L431.101 278.542L435.259 298.105ZM400.046 305.59L435.259 298.105L431.101 278.542L395.887 286.027L400.046 305.59ZM433.345 188.099L386.663 288.805L404.809 297.216L451.491 196.51L433.345 188.099ZM454.326 171.371C445.09 173.334 437.317 179.532 433.346 188.099L451.491 196.51C452.815 193.654 455.406 191.588 458.484 190.934L454.326 171.371ZM483.671 165.134L454.326 171.371L458.484 190.934L487.829 184.697L483.671 165.134ZM509.673 159.607L483.671 165.134L487.829 184.697L513.831 179.17L509.673 159.607ZM496.576 199.435L459.83 207.245L463.989 226.808L500.735 218.998L496.576 199.435ZM493.835 197.638L490.961 203.941L509.158 212.239L512.032 205.936L493.835 197.638ZM465.956 216.609L502.777 208.782L498.619 189.219L461.798 197.046L465.956 216.609ZM468.802 218.325L471.601 212.038L453.33 203.903L450.531 210.19L468.802 218.325ZM767.171 125.321L802.384 117.836L798.226 98.2728L763.012 105.758L767.171 125.321ZM741.169 130.847L767.171 125.321L763.012 105.758L737.01 111.285L741.169 130.847ZM711.824 137.085L741.169 130.847L737.01 111.285L707.666 117.522L711.824 137.085ZM704.831 142.661C706.154 139.805 708.745 137.739 711.824 137.085L707.666 117.522C698.43 119.485 690.657 125.682 686.685 134.25L704.831 142.661ZM679.117 198.133L704.831 142.661L686.685 134.25L660.971 189.722L679.117 198.133ZM716.325 177.139L670.195 186.944L674.353 206.507L720.483 196.702L716.325 177.139ZM726.983 200.044L729.782 193.757L711.512 185.623L708.712 191.909L726.983 200.044ZM666.389 217.981L718.516 206.901L714.358 187.338L662.231 198.418L666.389 217.981ZM658.149 243.367L671.984 213.52L653.839 205.109L640.003 234.956L658.149 243.367ZM684.441 224.693L649.227 232.177L653.385 251.74L688.599 244.256L684.441 224.693ZM710.443 219.166L684.441 224.693L688.599 244.256L714.601 238.729L710.443 219.166ZM739.787 212.928L710.443 219.166L714.601 238.729L743.945 232.491L739.787 212.928ZM746.781 207.353C745.457 210.208 742.866 212.274 739.787 212.928L743.945 232.491C753.182 230.528 760.955 224.331 764.926 215.764L746.781 207.353ZM774.179 148.246L746.781 207.352L764.926 215.764L792.324 156.657L774.179 148.246ZM735.028 169.654L783.101 159.436L778.942 139.873L730.87 150.091L735.028 169.654ZM724.37 146.748L721.57 153.035L739.841 161.17L742.64 154.883L724.37 146.748ZM786.906 128.398L732.837 139.891L736.995 159.454L791.065 147.961L786.906 128.398ZM793.463 106.646L781.312 132.859L799.457 141.27L811.608 115.057L793.463 106.646ZM526.227 278.769L561.44 271.284L557.282 251.721L522.069 259.206L526.227 278.769ZM543.921 194.944L512.845 261.984L530.99 270.396L562.066 203.355L543.921 194.944ZM620.567 173.745L552.313 188.253L556.472 207.816L624.725 193.308L620.567 173.745ZM617.721 172.03L614.922 178.317L633.193 186.452L635.992 180.165L617.721 172.03ZM564.436 196.342L626.693 183.109L622.535 163.546L560.277 176.779L564.436 196.342ZM559.527 161.278L551.054 179.557L569.199 187.969L577.672 169.689L559.527 161.278ZM580.508 144.55C571.271 146.514 563.498 152.711 559.527 161.278L577.672 169.689C578.996 166.834 581.587 164.768 584.666 164.113L580.508 144.55ZM609.852 138.313L580.508 144.55L584.666 164.113L614.01 157.876L609.852 138.313ZM635.854 132.786L609.852 138.313L614.01 157.876L640.012 152.349L635.854 132.786ZM671.067 125.301L635.854 132.786L640.012 152.349L675.226 144.864L671.067 125.301ZM637.767 242.792L684.449 142.086L666.304 133.675L619.622 234.381L637.767 242.792ZM616.787 259.52C626.023 257.557 633.796 251.359 637.767 242.792L619.622 234.381C618.298 237.237 615.707 239.302 612.629 239.957L616.787 259.52ZM587.442 265.757L616.787 259.52L612.629 239.957L583.284 246.194L587.442 265.757ZM561.44 271.284L587.442 265.757L583.284 246.194L557.282 251.721L561.44 271.284ZM572.934 228.729L609.68 220.919L605.522 201.356L568.776 209.166L572.934 228.729ZM575.676 230.527L578.55 224.223L560.353 215.926L557.479 222.229L575.676 230.527ZM603.555 211.555L566.734 219.382L570.892 238.945L607.713 231.118L603.555 211.555ZM600.709 209.84L597.91 216.127L616.181 224.261L618.98 217.975L600.709 209.84ZM557.479 222.229C553.39 231.195 561.253 240.994 570.892 238.945L566.734 219.382C573.159 218.016 578.401 224.549 575.676 230.527L557.479 222.229ZM609.68 220.919C603.287 222.278 598.05 215.811 600.709 209.84L618.98 217.975C622.968 209.017 615.113 199.318 605.522 201.356L609.68 220.919ZM675.226 144.864C668.777 146.235 663.532 139.656 666.304 133.675L684.449 142.086C688.608 133.114 680.74 123.245 671.067 125.301L675.226 144.864ZM562.066 203.355C561.007 205.64 558.935 207.292 556.472 207.816L552.313 188.253C548.619 189.038 545.51 191.517 543.921 194.944L562.066 203.355ZM640.003 234.956C635.845 243.927 643.713 253.796 653.385 251.74L649.227 232.177C655.676 230.807 660.921 237.386 658.149 243.367L640.003 234.956ZM660.971 189.722C656.812 198.694 664.681 208.563 674.353 206.507L670.195 186.944C676.643 185.573 681.889 192.152 679.117 198.133L660.971 189.722ZM512.032 205.936C516.121 196.97 508.258 187.17 498.619 189.219L502.777 208.782C496.351 210.148 491.109 203.615 493.835 197.638L512.032 205.936ZM459.83 207.245C466.224 205.886 471.461 212.353 468.802 218.325L450.531 210.19C446.543 219.147 454.398 228.847 463.989 226.808L459.83 207.245ZM500.735 218.998C504.455 218.207 507.58 215.7 509.158 212.239L490.961 203.941C492.013 201.634 494.096 199.962 496.576 199.435L500.735 218.998ZM395.887 286.027C402.336 284.656 407.581 291.235 404.809 297.216L386.663 288.805C382.505 297.777 390.373 307.646 400.046 305.59L395.887 286.027ZM512.413 250.71C505.964 252.08 500.719 245.501 503.491 239.52L521.636 247.931C525.795 238.96 517.927 229.091 508.254 231.147L512.413 250.71ZM432.951 248.12C428.963 257.078 436.818 266.778 446.408 264.739L442.25 245.176C448.644 243.817 453.88 250.284 451.222 256.255L432.951 248.12ZM510.624 224.133C511.683 221.849 513.755 220.196 516.218 219.673L520.377 239.236C524.071 238.45 527.18 235.971 528.769 232.545L510.624 224.133ZM411.626 229.017C415.32 228.232 418.43 225.753 420.018 222.326L401.873 213.915C402.932 211.63 405.005 209.978 407.468 209.454L411.626 229.017ZM363.202 235.939C362.16 238.278 360.061 239.978 357.557 240.51L353.398 220.947C349.641 221.746 346.493 224.295 344.931 227.804L363.202 235.939ZM412.886 237.713C417.044 228.741 409.176 218.872 399.503 220.928L403.662 240.491C397.213 241.862 391.968 235.283 394.74 229.302L412.886 237.713ZM341.044 277.757C334.651 279.116 329.414 272.65 332.073 266.678L350.344 274.813C354.332 265.856 346.477 256.156 336.886 258.194L341.044 277.757ZM281.532 270.778C277.374 279.75 285.242 289.618 294.914 287.562L290.756 267.999C297.204 266.629 302.45 273.208 299.678 279.189L281.532 270.778ZM249.517 167.834C245.379 176.763 253.156 186.604 262.799 184.64L258.808 165.042C265.237 163.733 270.422 170.293 267.663 176.246L249.517 167.834ZM275.541 123.107C271.847 123.892 268.737 126.371 267.149 129.798L285.294 138.209C284.235 140.494 282.163 142.147 279.699 142.67L275.541 123.107ZM311.21 135.17C315.387 126.198 307.517 116.311 297.836 118.368L301.994 137.931C295.54 139.303 290.293 132.712 293.078 126.73L311.21 135.17ZM250.518 213.233C249.203 216.068 246.624 218.115 243.564 218.752L239.491 199.171C236.358 199.822 233.718 201.918 232.373 204.821L250.518 213.233ZM243.442 218.874C246.557 218.212 249.178 216.122 250.518 213.233L232.373 204.821C233.681 201.999 236.241 199.957 239.284 199.311L243.442 218.874ZM194.904 209.562C190.745 218.533 198.614 228.402 208.286 226.346L204.128 206.783C210.576 205.413 215.822 211.992 213.049 217.973L194.904 209.562ZM444.217 234.977C440.46 235.775 437.312 238.324 435.75 241.834L454.021 249.968C452.979 252.308 450.881 254.007 448.376 254.54L444.217 234.977ZM607.713 231.118C611.47 230.32 614.618 227.771 616.181 224.261L597.91 216.127C598.951 213.787 601.05 212.088 603.555 211.555L607.713 231.118ZM253.804 67.4094C247.338 68.7839 242.089 62.167 244.9 56.1832L263.003 64.6856C267.218 55.71 259.346 45.7847 249.646 47.8464L253.804 67.4094ZM549.044 171.685C542.596 173.056 537.35 166.476 540.123 160.495L558.268 168.906C562.427 159.935 554.558 150.066 544.886 152.122L549.044 171.685ZM568.776 209.166C565.056 209.957 561.931 212.465 560.353 215.926L578.55 224.223C577.498 226.53 575.415 228.202 572.934 228.729L568.776 209.166ZM239.757 116.605C243.916 107.633 236.048 97.7645 226.375 99.8204L230.534 119.383C224.085 120.754 218.84 114.175 221.612 108.194L239.757 116.605ZM329.274 272.965C330.315 270.626 332.414 268.926 334.919 268.394L339.077 287.957C342.834 287.158 345.982 284.609 347.545 281.1L329.274 272.965ZM624.725 193.308C628.483 192.51 631.631 189.961 633.193 186.452L614.922 178.317C615.964 175.977 618.062 174.278 620.567 173.745L624.725 193.308ZM80.7774 232.491C87.2257 231.12 92.4713 237.7 89.6988 243.681L71.5535 235.27C67.3948 244.241 75.2632 254.11 84.9357 252.054L80.7774 232.491ZM522.069 259.206C528.517 257.835 533.763 264.415 530.99 270.396L512.845 261.984C508.686 270.956 516.555 280.825 526.227 278.769L522.069 259.206ZM168.806 131.993C162.358 133.363 157.112 126.784 159.885 120.803L178.03 129.214C182.189 120.243 174.32 110.374 164.648 112.43L168.806 131.993ZM791.065 147.961C794.759 147.176 797.868 144.697 799.457 141.27L781.312 132.859C782.371 130.575 784.443 128.922 786.906 128.398L791.065 147.961ZM131.265 123.571C127.752 131.047 134.306 139.326 142.396 137.606L138.238 118.044C146.325 116.324 152.878 124.602 149.366 132.076L131.265 123.571ZM742.64 154.883C741.599 157.222 739.5 158.922 736.995 159.454L732.837 139.891C729.08 140.69 725.932 143.239 724.37 146.748L742.64 154.883ZM142.393 137.603C134.31 139.321 127.75 131.05 131.265 123.571L149.366 132.076C152.881 124.595 146.32 116.322 138.235 118.04L142.393 137.603ZM200.792 91.968C207.258 90.5935 212.507 97.2104 209.696 103.194L191.594 94.6917C187.378 103.667 195.25 113.593 204.95 111.531L200.792 91.968ZM422.945 198.891C416.497 200.262 411.251 193.683 414.024 187.702L432.169 196.113C436.328 187.141 428.459 177.273 418.787 179.329L422.945 198.891ZM730.87 150.091C737.263 148.732 742.5 155.198 739.841 161.17L721.57 153.035C717.582 161.992 725.437 171.692 735.028 169.654L730.87 150.091ZM98.0718 127.379C93.8948 136.352 101.764 146.239 111.446 144.181L107.288 124.618C113.742 123.246 118.988 129.838 116.203 135.82L98.0718 127.379ZM662.231 198.418C658.536 199.203 655.427 201.682 653.839 205.109L671.984 213.52C670.925 215.805 668.852 217.457 666.389 217.981L662.231 198.418ZM402.761 95.5551C399.073 96.339 395.968 98.8105 394.377 102.229L412.509 110.669C411.448 112.948 409.378 114.596 406.919 115.118L402.761 95.5551ZM367.766 89.4119C371.943 80.439 364.073 70.5519 354.392 72.6097L358.55 92.1727C352.096 93.5445 346.849 86.9531 349.634 80.9712L367.766 89.4119ZM708.712 191.909C709.754 189.57 711.853 187.871 714.358 187.338L718.516 206.901C722.273 206.102 725.421 203.553 726.983 200.044L708.712 191.909ZM437.406 107.82C441.565 98.8484 433.697 88.9796 424.024 91.0355L428.182 110.598C421.734 111.969 416.488 105.39 419.261 99.4088L437.406 107.82ZM351.431 231.146C357.825 229.787 363.061 236.254 360.403 242.225L342.132 234.091C338.144 243.048 345.999 252.748 355.589 250.709L351.431 231.146ZM133.281 222.66C129.122 231.632 136.99 241.501 146.663 239.445L142.505 219.882C148.953 218.511 154.199 225.09 151.426 231.071L133.281 222.66ZM720.483 196.702C714.089 198.061 708.853 191.594 711.512 185.623L729.782 193.757C733.77 184.8 725.916 175.1 716.325 177.139L720.483 196.702ZM396.625 165.36C403.074 163.989 408.319 170.569 405.547 176.55L387.402 168.139C383.243 177.11 391.111 186.979 400.784 184.923L396.625 165.36ZM792.324 156.657C796.483 147.686 788.615 137.817 778.942 139.873L783.101 159.436C776.652 160.806 771.407 154.227 774.179 148.246L792.324 156.657ZM128.691 91.9583C122.237 93.3301 116.991 86.7388 119.775 80.7568L137.907 89.1975C142.084 80.2246 134.214 70.3375 124.533 72.3953L128.691 91.9583ZM15.341 246.4C21.7951 245.028 27.0416 251.62 24.2569 257.602L6.12529 249.161C1.94818 258.134 9.818 268.021 19.4992 265.963L15.341 246.4ZM173.158 263.18C168.927 272.189 176.873 282.136 186.594 280.001L182.304 260.467C188.785 259.043 194.082 265.674 191.262 271.681L173.158 263.18ZM484.654 64.8618C478.206 66.2324 472.96 59.6531 475.733 53.6721L493.878 62.0833C498.037 53.1117 490.168 43.2429 480.496 45.2988L484.654 64.8618ZM447.107 56.4524C443.608 63.9245 450.157 72.1944 458.244 70.4755L454.086 50.9125C462.17 49.1941 468.717 57.4619 465.22 64.9322L447.107 56.4524ZM802.384 117.836C795.936 119.206 790.69 112.627 793.463 106.646L811.608 115.057C815.767 106.086 807.898 96.2168 798.226 98.2728L802.384 117.836ZM458.241 70.4721C450.165 72.1888 443.606 63.9303 447.107 56.4524L465.22 64.9322C468.722 57.4524 462.161 49.192 454.083 50.9091L458.241 70.4721ZM275.261 165.002C276.332 162.702 278.431 161.046 280.917 160.54L284.908 180.137C288.638 179.378 291.786 176.894 293.393 173.443L275.261 165.002ZM331.189 179.269C337.643 177.897 342.89 184.489 340.105 190.471L321.973 182.03C317.796 191.003 325.666 200.89 335.347 198.832L331.189 179.269ZM260.564 316.012C256.406 324.983 264.274 334.852 273.947 332.796L269.788 313.233C276.237 311.863 281.482 318.442 278.71 324.423L260.564 316.012ZM560.277 176.779C566.726 175.408 571.971 181.988 569.199 187.969L551.054 179.557C546.895 188.529 554.763 198.398 564.436 196.342L560.277 176.779ZM86.913 162.686C83.2252 163.47 80.1201 165.941 78.529 169.36L96.6606 177.8C95.5998 180.079 93.5298 181.727 91.0712 182.249L86.913 162.686ZM252.105 214.745C253.158 212.483 255.205 210.842 257.642 210.307L261.932 229.842C265.587 229.039 268.658 226.577 270.237 223.185L252.105 214.745ZM413.92 60.248C409.743 69.2209 417.612 79.1079 427.294 77.0501L423.135 57.4872C429.59 56.1153 434.836 62.7067 432.051 68.6886L413.92 60.248ZM282.792 279.474C279.098 280.259 275.988 282.738 274.4 286.165L292.545 294.576C291.486 296.86 289.413 298.513 286.95 299.036L282.792 279.474ZM635.992 180.165C639.98 171.208 632.125 161.508 622.535 163.546L626.693 183.109C620.299 184.468 615.063 178.001 617.721 172.03L635.992 180.165ZM121.558 174.951C125.717 165.979 117.849 156.111 108.176 158.167L112.334 177.729C105.886 179.1 100.64 172.521 103.413 166.54L121.558 174.951ZM266.567 213.967C260.122 215.308 254.907 208.726 257.685 202.759L275.816 211.199C279.983 202.248 272.16 192.376 262.494 194.386L266.567 213.967ZM461.798 197.046C458.04 197.845 454.893 200.394 453.33 203.903L471.601 212.038C470.56 214.377 468.461 216.077 465.956 216.609L461.798 197.046ZM444.539 24.8273C438.085 26.1991 432.839 19.6077 435.623 13.6258L453.755 22.0665C457.932 13.0936 450.062 3.2065 440.381 5.26431L444.539 24.8273Z" fill="url(#paint0_linear_584_32308)" mask="url(#path-1-outside-1_584_32308)"/>
<mask id="path-3-outside-2_584_32308" maskUnits="userSpaceOnUse" x="0" y="0" width="809" height="330" fill="black">
<rect fill="white" width="809" height="330"/>
<path fill-rule="evenodd" clip-rule="evenodd" d="M399.043 27.5763C401.695 21.8796 406.87 17.7605 413.017 16.454L438.46 11.0458C440.074 10.7028 441.385 12.3507 440.689 13.8462L418.986 60.4683C418.289 61.9638 419.601 63.6116 421.215 63.2686L452.162 56.6906C452.163 56.6904 452.164 56.6914 452.163 56.6923C452.163 56.6932 452.164 56.6942 452.165 56.694L478.575 51.0803C480.187 50.7376 481.499 52.3824 480.806 53.8777L434.123 154.584C431.476 160.295 426.294 164.427 420.136 165.736L394.705 171.142C393.092 171.484 391.781 169.839 392.474 168.344L424.334 99.6144C425.027 98.1191 423.715 96.4743 422.103 96.817L400.84 101.337C400.225 101.467 399.708 101.879 399.443 102.449L368.685 168.52C366.033 174.217 360.858 178.336 354.712 179.642L329.268 185.051C327.655 185.394 326.343 183.746 327.039 182.25L399.043 27.5763ZM83.1952 94.7073C85.8471 89.0106 91.0221 84.8915 97.1685 83.585L122.612 78.1768C124.226 77.8338 125.537 79.4817 124.841 80.9771L103.138 127.599C102.441 129.095 103.753 130.743 105.367 130.4L136.314 123.822C136.315 123.821 136.316 123.822 136.315 123.823C136.315 123.824 136.316 123.825 136.317 123.825L162.727 118.211C164.339 117.869 165.651 119.513 164.958 121.009L118.275 221.715C115.628 227.426 110.446 231.558 104.288 232.867L78.8565 238.273C77.2445 238.615 75.9331 236.97 76.6262 235.475L108.486 166.745C109.179 165.25 107.867 163.605 106.255 163.948L84.9921 168.468C84.3775 168.598 83.86 169.01 83.5948 169.58L52.8372 235.651C50.1853 241.348 45.0102 245.467 38.8638 246.773L13.4201 252.182C11.8065 252.525 10.4949 250.877 11.1911 249.381L83.1952 94.7073ZM199.023 111.008C192.865 112.316 187.683 116.448 185.036 122.159L138.353 222.866C137.66 224.361 138.972 226.006 140.584 225.663L166.016 220.258C172.173 218.949 177.355 214.817 180.003 209.106L226.685 108.399C227.378 106.904 226.066 105.259 224.454 105.602L199.023 111.008ZM208.312 70.102C210.973 64.436 216.134 60.3429 222.257 59.0414L247.725 53.6279C249.342 53.2843 250.654 54.9385 249.951 56.4344L238.284 81.2754C235.623 86.9413 230.462 91.0345 224.34 92.336L198.871 97.7495C197.254 98.0931 195.942 96.4389 196.645 94.9429L208.312 70.102ZM289.99 91.6718L282.171 93.3338L260.646 97.9092C254.488 99.218 249.306 103.35 246.659 109.061L199.977 209.767C199.284 211.263 200.595 212.907 202.207 212.565L237.363 205.092C237.399 205.084 237.43 205.06 237.445 205.027C237.461 204.993 237.491 204.969 237.528 204.961L260.53 200.177C262.141 199.842 263.445 201.487 262.751 202.979L257.171 214.965C256.908 215.53 256.396 215.941 255.787 216.074L203.708 227.513C197.64 228.846 192.536 232.923 189.895 238.546L178.21 263.43C177.505 264.932 178.829 266.59 180.449 266.234L248.7 251.243L268.722 246.988C274.869 245.681 280.044 241.562 282.696 235.865L354.7 81.1915C355.396 79.6961 354.084 78.0482 352.471 78.3912L321.291 85.0187L317.265 85.8743L289.99 91.6718ZM278.913 166.338C279.535 166.212 280.059 165.798 280.327 165.223L298.144 126.95C298.84 125.455 297.528 123.807 295.915 124.15L273.62 128.889C273.005 129.02 272.486 129.433 272.222 130.004L254.59 168.04C253.9 169.528 255.197 171.168 256.804 170.841L278.913 166.338ZM419.096 187.907C419.789 186.412 418.478 184.767 416.866 185.11L381.653 192.595L355.651 198.122L326.306 204.359C320.149 205.668 314.967 209.799 312.319 215.511L286.605 270.984C285.912 272.479 287.223 274.124 288.835 273.781L334.965 263.976C336.564 263.636 337.873 265.253 337.208 266.746L334.409 273.033C334.149 273.617 333.624 274.042 332.998 274.175L280.871 285.255C280.256 285.386 279.737 285.799 279.473 286.37L265.637 316.217C264.944 317.712 266.255 319.357 267.867 319.015L303.081 311.53L329.083 306.003L358.427 299.766C364.585 298.457 369.767 294.325 372.414 288.614L399.813 229.507C400.506 228.012 399.195 226.367 397.583 226.71L349.51 236.928C347.912 237.268 346.602 235.651 347.267 234.158L350.066 227.871C350.327 227.286 350.851 226.862 351.477 226.728L405.547 215.236C406.162 215.105 406.681 214.692 406.945 214.12L419.096 187.907ZM507.752 165.388L542.965 157.903C544.577 157.561 545.888 159.206 545.195 160.701L515.696 224.339C515.431 224.91 514.913 225.323 514.297 225.454L442.297 240.758C441.67 240.891 441.146 241.316 440.885 241.901L438.086 248.188C437.422 249.681 438.731 251.297 440.329 250.958L506.333 236.928C507.945 236.586 509.257 238.23 508.564 239.726L498.513 261.407C495.866 267.119 490.684 271.25 484.526 272.559L455.182 278.796L429.18 284.323L393.966 291.808C392.354 292.151 391.043 290.506 391.736 289.011L438.418 188.304C441.066 182.593 446.248 178.461 452.405 177.153L481.75 170.915L507.752 165.388ZM455.667 210.257C455.002 211.75 456.311 213.367 457.91 213.027L494.655 205.217C495.276 205.085 495.796 204.667 496.059 204.09L498.934 197.787C499.615 196.292 498.305 194.659 496.698 195.001L459.877 202.828C459.251 202.961 458.726 203.385 458.466 203.97L455.667 210.257ZM798.535 106.852C799.228 105.356 797.917 103.712 796.305 104.054L761.092 111.539L735.09 117.066L705.745 123.303C699.588 124.612 694.406 128.744 691.758 134.455L666.044 189.928C665.351 191.423 666.662 193.068 668.274 192.725L714.404 182.92C716.003 182.58 717.312 184.197 716.647 185.69L713.848 191.977C713.588 192.562 713.063 192.987 712.437 193.12L660.31 204.199C659.694 204.33 659.176 204.743 658.911 205.314L645.076 235.162C644.383 236.657 645.694 238.302 647.306 237.959L682.52 230.474L708.522 224.947L737.866 218.71C744.024 217.401 749.206 213.269 751.853 207.558L779.252 148.451C779.945 146.956 778.634 145.311 777.021 145.654L728.949 155.872C727.35 156.212 726.041 154.595 726.706 153.102L729.505 146.816C729.765 146.231 730.29 145.806 730.916 145.673L784.986 134.18C785.601 134.049 786.12 133.636 786.384 133.065L798.535 106.852ZM555.361 257.503L520.148 264.987C518.536 265.33 517.224 263.685 517.917 262.19L548.994 195.15C549.258 194.579 549.777 194.165 550.392 194.035L618.646 179.527C619.273 179.394 619.797 178.969 620.058 178.384L622.857 172.097C623.521 170.604 622.212 168.988 620.614 169.328L558.357 182.56C556.744 182.903 555.433 181.258 556.126 179.763L564.6 161.484C567.247 155.772 572.429 151.641 578.587 150.332L607.931 144.094L633.933 138.568L669.146 131.083C670.758 130.74 672.07 132.385 671.377 133.88L624.695 234.587C622.047 240.298 616.865 244.43 610.708 245.738L581.363 251.976L555.361 257.503ZM605.844 209.907C606.509 208.414 605.2 206.798 603.601 207.137L566.855 214.948C566.235 215.08 565.714 215.498 565.451 216.074L562.577 222.378C561.896 223.872 563.206 225.505 564.813 225.164L601.634 217.337C602.26 217.204 602.785 216.779 603.045 216.194L605.844 209.907Z"/>
</mask>
<path fill-rule="evenodd" clip-rule="evenodd" d="M399.043 27.5763C401.695 21.8796 406.87 17.7605 413.017 16.454L438.46 11.0458C440.074 10.7028 441.385 12.3507 440.689 13.8462L418.986 60.4683C418.289 61.9638 419.601 63.6116 421.215 63.2686L452.162 56.6906C452.163 56.6904 452.164 56.6914 452.163 56.6923C452.163 56.6932 452.164 56.6942 452.165 56.694L478.575 51.0803C480.187 50.7376 481.499 52.3824 480.806 53.8777L434.123 154.584C431.476 160.295 426.294 164.427 420.136 165.736L394.705 171.142C393.092 171.484 391.781 169.839 392.474 168.344L424.334 99.6144C425.027 98.1191 423.715 96.4743 422.103 96.817L400.84 101.337C400.225 101.467 399.708 101.879 399.443 102.449L368.685 168.52C366.033 174.217 360.858 178.336 354.712 179.642L329.268 185.051C327.655 185.394 326.343 183.746 327.039 182.25L399.043 27.5763ZM83.1952 94.7073C85.8471 89.0106 91.0221 84.8915 97.1685 83.585L122.612 78.1768C124.226 77.8338 125.537 79.4817 124.841 80.9771L103.138 127.599C102.441 129.095 103.753 130.743 105.367 130.4L136.314 123.822C136.315 123.821 136.316 123.822 136.315 123.823C136.315 123.824 136.316 123.825 136.317 123.825L162.727 118.211C164.339 117.869 165.651 119.513 164.958 121.009L118.275 221.715C115.628 227.426 110.446 231.558 104.288 232.867L78.8565 238.273C77.2445 238.615 75.9331 236.97 76.6262 235.475L108.486 166.745C109.179 165.25 107.867 163.605 106.255 163.948L84.9921 168.468C84.3775 168.598 83.86 169.01 83.5948 169.58L52.8372 235.651C50.1853 241.348 45.0102 245.467 38.8638 246.773L13.4201 252.182C11.8065 252.525 10.4949 250.877 11.1911 249.381L83.1952 94.7073ZM199.023 111.008C192.865 112.316 187.683 116.448 185.036 122.159L138.353 222.866C137.66 224.361 138.972 226.006 140.584 225.663L166.016 220.258C172.173 218.949 177.355 214.817 180.003 209.106L226.685 108.399C227.378 106.904 226.066 105.259 224.454 105.602L199.023 111.008ZM208.312 70.102C210.973 64.436 216.134 60.3429 222.257 59.0414L247.725 53.6279C249.342 53.2843 250.654 54.9385 249.951 56.4344L238.284 81.2754C235.623 86.9413 230.462 91.0345 224.34 92.336L198.871 97.7495C197.254 98.0931 195.942 96.4389 196.645 94.9429L208.312 70.102ZM289.99 91.6718L282.171 93.3338L260.646 97.9092C254.488 99.218 249.306 103.35 246.659 109.061L199.977 209.767C199.284 211.263 200.595 212.907 202.207 212.565L237.363 205.092C237.399 205.084 237.43 205.06 237.445 205.027C237.461 204.993 237.491 204.969 237.528 204.961L260.53 200.177C262.141 199.842 263.445 201.487 262.751 202.979L257.171 214.965C256.908 215.53 256.396 215.941 255.787 216.074L203.708 227.513C197.64 228.846 192.536 232.923 189.895 238.546L178.21 263.43C177.505 264.932 178.829 266.59 180.449 266.234L248.7 251.243L268.722 246.988C274.869 245.681 280.044 241.562 282.696 235.865L354.7 81.1915C355.396 79.6961 354.084 78.0482 352.471 78.3912L321.291 85.0187L317.265 85.8743L289.99 91.6718ZM278.913 166.338C279.535 166.212 280.059 165.798 280.327 165.223L298.144 126.95C298.84 125.455 297.528 123.807 295.915 124.15L273.62 128.889C273.005 129.02 272.486 129.433 272.222 130.004L254.59 168.04C253.9 169.528 255.197 171.168 256.804 170.841L278.913 166.338ZM419.096 187.907C419.789 186.412 418.478 184.767 416.866 185.11L381.653 192.595L355.651 198.122L326.306 204.359C320.149 205.668 314.967 209.799 312.319 215.511L286.605 270.984C285.912 272.479 287.223 274.124 288.835 273.781L334.965 263.976C336.564 263.636 337.873 265.253 337.208 266.746L334.409 273.033C334.149 273.617 333.624 274.042 332.998 274.175L280.871 285.255C280.256 285.386 279.737 285.799 279.473 286.37L265.637 316.217C264.944 317.712 266.255 319.357 267.867 319.015L303.081 311.53L329.083 306.003L358.427 299.766C364.585 298.457 369.767 294.325 372.414 288.614L399.813 229.507C400.506 228.012 399.195 226.367 397.583 226.71L349.51 236.928C347.912 237.268 346.602 235.651 347.267 234.158L350.066 227.871C350.327 227.286 350.851 226.862 351.477 226.728L405.547 215.236C406.162 215.105 406.681 214.692 406.945 214.12L419.096 187.907ZM507.752 165.388L542.965 157.903C544.577 157.561 545.888 159.206 545.195 160.701L515.696 224.339C515.431 224.91 514.913 225.323 514.297 225.454L442.297 240.758C441.67 240.891 441.146 241.316 440.885 241.901L438.086 248.188C437.422 249.681 438.731 251.297 440.329 250.958L506.333 236.928C507.945 236.586 509.257 238.23 508.564 239.726L498.513 261.407C495.866 267.119 490.684 271.25 484.526 272.559L455.182 278.796L429.18 284.323L393.966 291.808C392.354 292.151 391.043 290.506 391.736 289.011L438.418 188.304C441.066 182.593 446.248 178.461 452.405 177.153L481.75 170.915L507.752 165.388ZM455.667 210.257C455.002 211.75 456.311 213.367 457.91 213.027L494.655 205.217C495.276 205.085 495.796 204.667 496.059 204.09L498.934 197.787C499.615 196.292 498.305 194.659 496.698 195.001L459.877 202.828C459.251 202.961 458.726 203.385 458.466 203.97L455.667 210.257ZM798.535 106.852C799.228 105.356 797.917 103.712 796.305 104.054L761.092 111.539L735.09 117.066L705.745 123.303C699.588 124.612 694.406 128.744 691.758 134.455L666.044 189.928C665.351 191.423 666.662 193.068 668.274 192.725L714.404 182.92C716.003 182.58 717.312 184.197 716.647 185.69L713.848 191.977C713.588 192.562 713.063 192.987 712.437 193.12L660.31 204.199C659.694 204.33 659.176 204.743 658.911 205.314L645.076 235.162C644.383 236.657 645.694 238.302 647.306 237.959L682.52 230.474L708.522 224.947L737.866 218.71C744.024 217.401 749.206 213.269 751.853 207.558L779.252 148.451C779.945 146.956 778.634 145.311 777.021 145.654L728.949 155.872C727.35 156.212 726.041 154.595 726.706 153.102L729.505 146.816C729.765 146.231 730.29 145.806 730.916 145.673L784.986 134.18C785.601 134.049 786.12 133.636 786.384 133.065L798.535 106.852ZM555.361 257.503L520.148 264.987C518.536 265.33 517.224 263.685 517.917 262.19L548.994 195.15C549.258 194.579 549.777 194.165 550.392 194.035L618.646 179.527C619.273 179.394 619.797 178.969 620.058 178.384L622.857 172.097C623.521 170.604 622.212 168.988 620.614 169.328L558.357 182.56C556.744 182.903 555.433 181.258 556.126 179.763L564.6 161.484C567.247 155.772 572.429 151.641 578.587 150.332L607.931 144.094L633.933 138.568L669.146 131.083C670.758 130.74 672.07 132.385 671.377 133.88L624.695 234.587C622.047 240.298 616.865 244.43 610.708 245.738L581.363 251.976L555.361 257.503ZM605.844 209.907C606.509 208.414 605.2 206.798 603.601 207.137L566.855 214.948C566.235 215.08 565.714 215.498 565.451 216.074L562.577 222.378C561.896 223.872 563.206 225.505 564.813 225.164L601.634 217.337C602.26 217.204 602.785 216.779 603.045 216.194L605.844 209.907Z" fill="#FEC2FB"/>
<path d="M413.017 16.454L410.937 6.67254V6.67254L413.017 16.454ZM399.043 27.5763L389.977 23.356V23.356L399.043 27.5763ZM434.123 154.584L443.196 158.79L443.196 158.79L434.123 154.584ZM420.136 165.736L422.216 175.517L420.136 165.736ZM368.685 168.52L359.619 164.3L359.619 164.3L368.685 168.52ZM354.712 179.642L356.791 189.424L354.712 179.642ZM97.1685 83.585L95.0894 73.8035L97.1685 83.585ZM83.1952 94.7073L92.261 98.9276L83.1952 94.7073ZM118.275 221.715L127.348 225.921H127.348L118.275 221.715ZM104.288 232.867L106.368 242.648H106.368L104.288 232.867ZM52.8372 235.651L61.903 239.871H61.903L52.8372 235.651ZM38.8638 246.773L36.7847 236.992L38.8638 246.773ZM185.036 122.159L194.108 126.365H194.108L185.036 122.159ZM199.023 111.008L201.102 120.789L199.023 111.008ZM166.016 220.258L168.095 230.039H168.095L166.016 220.258ZM180.003 209.106L170.93 204.9V204.9L180.003 209.106ZM222.257 59.0414L220.177 49.2599L222.257 59.0414ZM208.312 70.102L217.363 74.3532V74.3532L208.312 70.102ZM238.284 81.2754L229.233 77.0242L229.233 77.0242L238.284 81.2754ZM224.34 92.336L226.419 102.117L226.419 102.117L224.34 92.336ZM282.171 93.3338L284.251 103.115L284.251 103.115L282.171 93.3338ZM289.99 91.6718L287.911 81.8903L287.911 81.8904L289.99 91.6718ZM260.646 97.9092L262.725 107.691H262.725L260.646 97.9092ZM246.659 109.061L237.586 104.855V104.855L246.659 109.061ZM203.708 227.513L201.563 217.746L201.563 217.746L203.708 227.513ZM189.895 238.546L198.947 242.797L198.947 242.797L189.895 238.546ZM248.7 251.243L246.621 241.462L246.588 241.469L246.555 241.476L248.7 251.243ZM268.722 246.988L270.801 256.769L268.722 246.988ZM282.696 235.865L291.762 240.086V240.086L282.696 235.865ZM321.291 85.0187L323.37 94.8001H323.37L321.291 85.0187ZM317.265 85.8743L315.186 76.0928L317.265 85.8743ZM381.653 192.595L383.732 202.376H383.732L381.653 192.595ZM355.651 198.122L353.572 188.34L355.651 198.122ZM326.306 204.359L324.227 194.578H324.227L326.306 204.359ZM312.319 215.511L303.247 211.305L303.246 211.305L312.319 215.511ZM303.081 311.53L305.16 321.311L303.081 311.53ZM329.083 306.003L327.004 296.221H327.004L329.083 306.003ZM358.427 299.766L360.506 309.547H360.506L358.427 299.766ZM372.414 288.614L381.487 292.819H381.487L372.414 288.614ZM507.752 165.388L509.831 175.17L507.752 165.388ZM498.513 261.407L507.586 265.613L507.586 265.613L498.513 261.407ZM484.526 272.559L486.605 282.341H486.605L484.526 272.559ZM455.182 278.796L457.261 288.578L455.182 278.796ZM429.18 284.323L427.101 274.542H427.101L429.18 284.323ZM438.418 188.304L429.346 184.099L429.345 184.099L438.418 188.304ZM452.405 177.153L454.484 186.934H454.484L452.405 177.153ZM481.75 170.915L483.829 180.697L481.75 170.915ZM761.092 111.539L759.012 101.758V101.758L761.092 111.539ZM735.09 117.066L737.169 126.847L735.09 117.066ZM705.745 123.303L707.824 133.085L705.745 123.303ZM691.758 134.455L700.831 138.661L700.831 138.661L691.758 134.455ZM682.52 230.474L684.599 240.256L682.52 230.474ZM708.522 224.947L706.443 215.166L708.522 224.947ZM737.866 218.71L735.787 208.928L737.866 218.71ZM751.853 207.558L742.781 203.352V203.353L751.853 207.558ZM555.361 257.503L553.282 247.721L555.361 257.503ZM564.6 161.484L555.527 157.278V157.278L564.6 161.484ZM578.587 150.332L580.666 160.113L578.587 150.332ZM607.931 144.094L610.01 153.876L607.931 144.094ZM633.933 138.568L631.854 128.786L633.933 138.568ZM624.695 234.587L615.622 230.381V230.381L624.695 234.587ZM610.708 245.738L612.787 255.52L610.708 245.738ZM581.363 251.976L583.442 261.757L581.363 251.976ZM562.577 222.378L553.479 218.229L562.577 222.378ZM564.813 225.164L562.734 215.382L564.813 225.164ZM605.844 209.907L596.709 205.84L605.844 209.907ZM669.146 131.083L667.067 121.301L669.146 131.083ZM671.377 133.88L662.304 129.675L671.377 133.88ZM548.994 195.15L558.066 199.355L548.994 195.15ZM550.392 194.035L548.313 184.253L550.392 194.035ZM645.076 235.162L654.149 239.367L645.076 235.162ZM647.306 237.959L645.227 228.177L647.306 237.959ZM666.044 189.928L675.117 194.133L666.044 189.928ZM498.934 197.787L508.032 201.936L498.934 197.787ZM496.698 195.001L498.777 204.782L496.698 195.001ZM457.91 213.027L455.83 203.245L457.91 213.027ZM455.667 210.257L464.802 214.325L455.667 210.257ZM494.655 205.217L492.576 195.435L494.655 205.217ZM496.059 204.09L505.158 208.239L496.059 204.09ZM393.966 291.808L396.046 301.59L393.966 291.808ZM391.736 289.011L400.809 293.216L391.736 289.011ZM506.333 236.928L508.413 246.71L506.333 236.928ZM508.564 239.726L499.491 235.52L508.564 239.726ZM438.086 248.188L447.222 252.255L438.086 248.188ZM440.329 250.958L438.25 241.176L440.329 250.958ZM515.696 224.339L506.624 220.133L515.696 224.339ZM514.297 225.454L512.218 215.673L514.297 225.454ZM405.547 215.236L407.626 225.017L405.547 215.236ZM406.945 214.12L397.873 209.915L406.945 214.12ZM350.066 227.871L340.931 223.804L350.066 227.871ZM351.477 226.728L349.398 216.947L351.477 226.728ZM399.813 229.507L408.886 233.713L399.813 229.507ZM397.583 226.71L395.503 216.928L397.583 226.71ZM334.965 263.976L332.886 254.194L334.965 263.976ZM337.208 266.746L328.073 262.678L337.208 266.746ZM286.605 270.984L277.532 266.778L286.605 270.984ZM288.835 273.781L290.914 283.562L288.835 273.781ZM254.59 168.04L245.517 163.834L254.59 168.04ZM256.804 170.841L254.808 161.042L256.804 170.841ZM273.62 128.889L271.541 119.107L273.62 128.889ZM272.222 130.004L281.294 134.209L272.222 130.004ZM298.144 126.95L307.21 131.17L298.144 126.95ZM295.915 124.15L297.994 133.931L295.915 124.15ZM237.528 204.961L239.564 214.752L237.528 204.961ZM237.363 205.092L235.284 195.311L237.363 205.092ZM199.977 209.767L190.904 205.562L199.977 209.767ZM202.207 212.565L204.286 222.346L202.207 212.565ZM442.297 240.758L440.217 230.977L442.297 240.758ZM440.885 241.901L450.021 245.968L440.885 241.901ZM601.634 217.337L603.713 227.118L601.634 217.337ZM603.045 216.194L593.91 212.127L603.045 216.194ZM247.725 53.6279L249.804 63.4094L247.725 53.6279ZM249.951 56.4344L240.9 52.1832L249.951 56.4344ZM542.965 157.903L545.044 167.685L542.965 157.903ZM545.195 160.701L554.268 164.906L545.195 160.701ZM566.855 214.948L564.776 205.166L566.855 214.948ZM565.451 216.074L556.353 211.926L565.451 216.074ZM226.685 108.399L217.612 104.194L226.685 108.399ZM224.454 105.602L222.375 95.8204L224.454 105.602ZM334.409 273.033L325.274 268.965L334.409 273.033ZM332.998 274.175L330.919 264.394L332.998 274.175ZM618.646 179.527L620.725 189.308L618.646 179.527ZM620.058 178.384L610.922 174.317L620.058 178.384ZM78.8565 238.273L76.7774 228.491L78.8565 238.273ZM520.148 264.987L518.069 255.206L520.148 264.987ZM517.917 262.19L508.845 257.984L517.917 262.19ZM164.958 121.009L155.885 116.803L164.958 121.009ZM784.986 134.18L782.906 124.398L784.986 134.18ZM786.384 133.065L777.312 128.859L786.384 133.065ZM136.317 123.825L138.396 133.606L136.317 123.825ZM729.505 146.816L738.64 150.883L729.505 146.816ZM730.916 145.673L732.995 155.454L730.916 145.673ZM136.314 123.822L138.393 133.603L136.314 123.822ZM198.871 97.7495L196.792 87.968L198.871 97.7495ZM196.645 94.9429L205.696 99.1941L196.645 94.9429ZM416.866 185.11L414.787 175.329L416.866 185.11ZM419.096 187.907L428.169 192.113L419.096 187.907ZM726.706 153.102L717.57 149.035L726.706 153.102ZM103.138 127.599L94.0718 123.379L103.138 127.599ZM105.367 130.4L103.288 120.618L105.367 130.4ZM660.31 204.199L658.231 194.418L660.31 204.199ZM658.911 205.314L667.984 209.52L658.911 205.314ZM400.84 101.337L402.919 111.118L400.84 101.337ZM399.443 102.449L390.377 98.2285L399.443 102.449ZM354.7 81.1915L345.634 76.9712L354.7 81.1915ZM352.471 78.3912L354.55 88.1727L352.471 78.3912ZM713.848 191.977L704.712 187.909L713.848 191.977ZM712.437 193.12L714.516 202.901L712.437 193.12ZM424.334 99.6144L415.261 95.4088L424.334 99.6144ZM422.103 96.817L424.182 106.598L422.103 96.817ZM349.51 236.928L347.431 227.146L349.51 236.928ZM347.267 234.158L338.132 230.091L347.267 234.158ZM138.353 222.866L147.426 227.071L138.353 222.866ZM140.584 225.663L138.505 215.882L140.584 225.663ZM714.404 182.92L712.325 173.139L714.404 182.92ZM716.647 185.69L725.782 189.757L716.647 185.69ZM394.705 171.142L392.625 161.36L394.705 171.142ZM392.474 168.344L401.547 172.55L392.474 168.344ZM779.252 148.451L770.179 144.246L779.252 148.451ZM777.021 145.654L779.101 155.436L777.021 145.654ZM122.612 78.1768L124.691 87.9583L122.612 78.1768ZM124.841 80.9771L133.907 85.1975L124.841 80.9771ZM13.4201 252.182L15.4992 261.963L13.4201 252.182ZM178.21 263.43L187.262 267.681V267.681L178.21 263.43ZM180.449 266.234L178.304 256.467L180.449 266.234ZM480.806 53.8777L489.878 58.0833L480.806 53.8777ZM452.165 56.694L454.244 66.4755L452.165 56.694ZM796.305 104.054L794.226 94.2728L796.305 104.054ZM798.535 106.852L807.608 111.057L798.535 106.852ZM452.162 56.6906L454.241 66.4721L452.162 56.6906ZM280.327 165.223L289.393 169.443L280.327 165.223ZM278.913 166.338L276.917 156.54L278.913 166.338ZM329.268 185.051L331.347 194.832L329.268 185.051ZM327.039 182.25L317.973 178.03L327.039 182.25ZM265.637 316.217L256.564 312.012L265.637 316.217ZM558.357 182.56L556.277 172.779L558.357 182.56ZM556.126 179.763L565.199 183.969L556.126 179.763ZM84.9921 168.468L87.0712 178.249L84.9921 168.468ZM83.5948 169.58L92.6606 173.8L83.5948 169.58ZM257.171 214.965L266.237 219.185L257.171 214.965ZM255.787 216.074L253.642 206.307L255.787 216.074ZM418.986 60.4683L409.92 56.248L418.986 60.4683ZM421.215 63.2686L423.294 73.0501L421.215 63.2686ZM280.871 285.255L282.95 295.036L280.871 285.255ZM279.473 286.37L270.4 282.165L279.473 286.37ZM622.857 172.097L631.992 176.165L622.857 172.097ZM620.614 169.328L618.535 159.546L620.614 169.328ZM108.486 166.745L117.558 170.951L108.486 166.745ZM106.255 163.948L104.176 154.167L106.255 163.948ZM260.53 200.177L262.567 209.967L260.53 200.177ZM262.751 202.979L271.816 207.199L262.751 202.979ZM459.877 202.828L461.956 212.609L459.877 202.828ZM458.466 203.97L449.33 199.903L458.466 203.97ZM440.689 13.8462L449.755 18.0665L440.689 13.8462ZM410.937 6.67254C401.718 8.63223 393.955 14.8109 389.977 23.356L408.109 31.7967C409.435 28.9483 412.022 26.8887 415.096 26.2355L410.937 6.67254ZM436.381 1.26431L410.937 6.67254L415.096 26.2355L440.539 20.8273L436.381 1.26431ZM428.051 64.6886L449.755 18.0665L431.623 9.62582L409.92 56.248L428.051 64.6886ZM450.083 46.9091L419.135 53.4872L423.294 73.0501L454.241 66.4721L450.083 46.9091ZM476.496 41.2988L450.086 46.9125L454.244 66.4755L480.654 60.8618L476.496 41.2988ZM443.196 158.79L489.878 58.0833L471.733 49.6721L425.051 150.379L443.196 158.79ZM422.216 175.517C431.452 173.554 439.225 167.357 443.196 158.79L425.051 150.379C423.727 153.234 421.136 155.3 418.057 155.954L422.216 175.517ZM396.784 180.923L422.216 175.517L418.057 155.954L392.625 161.36L396.784 180.923ZM415.261 95.4088L383.402 164.139L401.547 172.55L433.406 103.82L415.261 95.4088ZM402.919 111.118L424.182 106.598L420.024 87.0355L398.761 91.5551L402.919 111.118ZM377.751 172.74L408.509 106.669L390.377 98.2285L359.619 164.3L377.751 172.74ZM356.791 189.424C366.011 187.464 373.773 181.285 377.751 172.74L359.619 164.3C358.293 167.148 355.706 169.208 352.633 169.861L356.791 189.424ZM331.347 194.832L356.791 189.424L352.633 169.861L327.189 175.269L331.347 194.832ZM389.977 23.356L317.973 178.03L336.105 186.471L408.109 31.7966L389.977 23.356ZM95.0894 73.8035C85.8698 75.7632 78.1073 81.9419 74.1294 90.487L92.261 98.9276C93.5869 96.0793 96.1745 94.0197 99.2477 93.3665L95.0894 73.8035ZM120.533 68.3953L95.0894 73.8035L99.2477 93.3665L124.691 87.9583L120.533 68.3953ZM112.203 131.82L133.907 85.1975L115.775 76.7568L94.0718 123.379L112.203 131.82ZM134.235 114.04L103.288 120.618L107.446 140.181L138.393 133.603L134.235 114.04ZM160.648 108.43L134.238 114.044L138.396 133.606L164.806 127.993L160.648 108.43ZM127.348 225.921L174.03 125.214L155.885 116.803L109.203 217.51L127.348 225.921ZM106.368 242.648C115.604 240.685 123.377 234.488 127.348 225.921L109.203 217.51C107.879 220.365 105.288 222.431 102.209 223.085L106.368 242.648ZM80.9357 248.054L106.368 242.648L102.209 223.085L76.7774 228.491L80.9357 248.054ZM99.4129 162.54L67.5535 231.27L85.6988 239.681L117.558 170.951L99.4129 162.54ZM87.0712 178.249L108.334 173.729L104.176 154.167L82.913 158.686L87.0712 178.249ZM61.903 239.871L92.6606 173.8L74.529 165.36L43.7714 231.431L61.903 239.871ZM40.9429 256.555C50.1625 254.595 57.9251 248.416 61.903 239.871L43.7714 231.431C42.4454 234.279 39.8579 236.339 36.7847 236.992L40.9429 256.555ZM15.4992 261.963L40.9429 256.555L36.7847 236.992L11.341 242.4L15.4992 261.963ZM74.1294 90.487L2.12529 245.161L20.2569 253.602L92.261 98.9276L74.1294 90.487ZM194.108 126.365C195.432 123.509 198.023 121.444 201.102 120.789L196.943 101.226C187.707 103.189 179.934 109.387 175.963 117.954L194.108 126.365ZM147.426 227.071L194.108 126.365L175.963 117.954L129.281 218.66L147.426 227.071ZM163.937 210.476L138.505 215.882L142.663 235.445L168.095 230.039L163.937 210.476ZM170.93 204.9C169.606 207.756 167.015 209.822 163.937 210.476L168.095 230.039C177.331 228.076 185.104 221.878 189.075 213.311L170.93 204.9ZM217.612 104.194L170.93 204.9L189.075 213.311L235.757 112.605L217.612 104.194ZM201.102 120.789L226.534 115.383L222.375 95.8204L196.943 101.226L201.102 120.789ZM220.177 49.2599C210.993 51.2121 203.252 57.3519 199.261 65.8508L217.363 74.3532C218.694 71.5202 221.274 69.4736 224.336 68.8229L220.177 49.2599ZM245.646 43.8464L220.177 49.2599L224.336 68.8229L249.804 63.4094L245.646 43.8464ZM247.335 85.5266L259.003 60.6856L240.9 52.1832L229.233 77.0242L247.335 85.5266ZM226.419 102.117C235.603 100.165 243.344 94.0255 247.335 85.5266L229.233 77.0242C227.902 79.8572 225.322 81.9037 222.26 82.5545L226.419 102.117ZM200.95 107.531L226.419 102.117L222.26 82.5545L196.792 87.968L200.95 107.531ZM199.261 65.8508L187.594 90.6917L205.696 99.1941L217.363 74.3532L199.261 65.8508ZM284.251 103.115L292.069 101.453L287.911 81.8904L280.092 83.5523L284.251 103.115ZM262.725 107.691L284.251 103.115L280.092 83.5523L258.567 88.1277L262.725 107.691ZM255.731 113.267C257.055 110.411 259.646 108.345 262.725 107.691L258.567 88.1277C249.33 90.0909 241.557 96.2883 237.586 104.855L255.731 113.267ZM209.049 213.973L255.731 113.267L237.586 104.855L190.904 205.562L209.049 213.973ZM235.284 195.311L200.128 202.783L204.286 222.346L239.442 214.874L235.284 195.311ZM258.494 190.386L235.491 195.171L239.564 214.752L262.567 209.967L258.494 190.386ZM266.237 219.185L271.816 207.199L253.685 198.759L248.105 210.745L266.237 219.185ZM205.853 237.28L257.932 225.842L253.642 206.307L201.563 217.746L205.853 237.28ZM198.947 242.797C200.267 239.985 202.819 237.946 205.853 237.28L201.563 217.746C192.461 219.745 184.804 225.86 180.843 234.296L198.947 242.797ZM187.262 267.681L198.947 242.797L180.843 234.296L169.158 259.18L187.262 267.681ZM246.555 241.476L178.304 256.467L182.594 276.001L250.846 261.011L246.555 241.476ZM266.643 237.206L246.621 241.462L250.78 261.025L270.801 256.769L266.643 237.206ZM273.63 231.645C272.304 234.493 269.716 236.553 266.643 237.206L270.801 256.769C280.021 254.809 287.784 248.631 291.762 240.086L273.63 231.645ZM345.634 76.9712L273.63 231.645L291.762 240.086L363.766 85.4119L345.634 76.9712ZM323.37 94.8001L354.55 88.1727L350.392 68.6097L319.212 75.2372L323.37 94.8001ZM319.345 95.6558L323.37 94.8001L319.212 75.2372L315.186 76.0928L319.345 95.6558ZM292.069 101.453L319.345 95.6558L315.186 76.0928L287.911 81.8903L292.069 101.453ZM289.078 122.73L271.261 161.002L289.393 169.443L307.21 131.17L289.078 122.73ZM275.699 138.67L297.994 133.931L293.836 114.368L271.541 119.107L275.699 138.67ZM263.663 172.246L281.294 134.209L263.149 125.798L245.517 163.834L263.663 172.246ZM276.917 156.54L254.808 161.042L258.799 180.64L280.908 176.137L276.917 156.54ZM383.732 202.376L418.945 194.891L414.787 175.329L379.574 182.813L383.732 202.376ZM357.73 207.903L383.732 202.376L379.574 182.813L353.572 188.34L357.73 207.903ZM328.385 214.141L357.73 207.903L353.572 188.34L324.227 194.578L328.385 214.141ZM321.392 219.716C322.716 216.861 325.307 214.795 328.385 214.141L324.227 194.578C314.991 196.541 307.218 202.738 303.247 211.305L321.392 219.716ZM295.678 275.189L321.392 219.716L303.246 211.305L277.532 266.778L295.678 275.189ZM332.886 254.194L286.756 263.999L290.914 283.562L337.044 273.757L332.886 254.194ZM343.545 277.1L346.344 270.813L328.073 262.678L325.274 268.965L343.545 277.1ZM282.95 295.036L335.077 283.957L330.919 264.394L278.792 275.474L282.95 295.036ZM274.71 320.423L288.545 290.576L270.4 282.165L256.564 312.012L274.71 320.423ZM301.002 301.748L265.788 309.233L269.947 328.796L305.16 321.311L301.002 301.748ZM327.004 296.221L301.002 301.748L305.16 321.311L331.162 315.784L327.004 296.221ZM356.348 289.984L327.004 296.221L331.162 315.784L360.506 309.547L356.348 289.984ZM363.342 284.408C362.018 287.264 359.427 289.33 356.348 289.984L360.506 309.547C369.743 307.584 377.516 301.386 381.487 292.819L363.342 284.408ZM390.74 225.302L363.342 284.408L381.487 292.819L408.886 233.713L390.74 225.302ZM351.589 246.709L399.662 236.491L395.503 216.928L347.431 227.146L351.589 246.709ZM340.931 223.804L338.132 230.091L356.403 238.225L359.202 231.939L340.931 223.804ZM403.468 205.454L349.398 216.947L353.557 236.51L407.626 225.017L403.468 205.454ZM410.024 183.702L397.873 209.915L416.018 218.326L428.169 192.113L410.024 183.702ZM540.886 148.122L505.673 155.607L509.831 175.17L545.044 167.685L540.886 148.122ZM524.769 228.545L554.268 164.906L536.123 156.495L506.624 220.133L524.769 228.545ZM444.376 250.54L516.377 235.236L512.218 215.673L440.217 230.977L444.376 250.54ZM447.222 252.255L450.021 245.968L431.75 237.834L428.951 244.12L447.222 252.255ZM504.254 227.147L438.25 241.176L442.408 260.739L508.413 246.71L504.254 227.147ZM507.586 265.613L517.636 243.931L499.491 235.52L489.441 257.202L507.586 265.613ZM486.605 282.341C495.842 280.377 503.615 274.18 507.586 265.613L489.441 257.202C488.117 260.057 485.526 262.123 482.447 262.778L486.605 282.341ZM457.261 288.578L486.605 282.341L482.447 262.778L453.103 269.015L457.261 288.578ZM431.259 294.105L457.261 288.578L453.103 269.015L427.101 274.542L431.259 294.105ZM396.046 301.59L431.259 294.105L427.101 274.542L391.887 282.027L396.046 301.59ZM429.345 184.099L382.663 284.805L400.809 293.216L447.491 192.51L429.345 184.099ZM450.326 167.371C441.09 169.334 433.317 175.532 429.346 184.099L447.491 192.51C448.815 189.654 451.406 187.588 454.484 186.934L450.326 167.371ZM479.671 161.134L450.326 167.371L454.484 186.934L483.829 180.697L479.671 161.134ZM505.673 155.607L479.671 161.134L483.829 180.697L509.831 175.17L505.673 155.607ZM492.576 195.435L455.83 203.245L459.989 222.808L496.735 214.998L492.576 195.435ZM489.835 193.638L486.961 199.941L505.158 208.239L508.032 201.936L489.835 193.638ZM461.956 212.609L498.777 204.782L494.619 185.219L457.798 193.046L461.956 212.609ZM464.802 214.325L467.601 208.038L449.33 199.903L446.531 206.19L464.802 214.325ZM763.171 121.321L798.384 113.836L794.226 94.2728L759.012 101.758L763.171 121.321ZM737.169 126.847L763.171 121.321L759.012 101.758L733.01 107.285L737.169 126.847ZM707.824 133.085L737.169 126.847L733.01 107.285L703.666 113.522L707.824 133.085ZM700.831 138.661C702.154 135.805 704.745 133.739 707.824 133.085L703.666 113.522C694.43 115.485 686.657 121.682 682.685 130.25L700.831 138.661ZM675.117 194.133L700.831 138.661L682.685 130.25L656.971 185.722L675.117 194.133ZM712.325 173.139L666.195 182.944L670.353 202.507L716.483 192.702L712.325 173.139ZM722.983 196.044L725.782 189.757L707.512 181.623L704.712 187.909L722.983 196.044ZM662.389 213.981L714.516 202.901L710.358 183.338L658.231 194.418L662.389 213.981ZM654.149 239.367L667.984 209.52L649.839 201.109L636.003 230.956L654.149 239.367ZM680.441 220.693L645.227 228.177L649.385 247.74L684.599 240.256L680.441 220.693ZM706.443 215.166L680.441 220.693L684.599 240.256L710.601 234.729L706.443 215.166ZM735.787 208.928L706.443 215.166L710.601 234.729L739.945 228.491L735.787 208.928ZM742.781 203.353C741.457 206.208 738.866 208.274 735.787 208.928L739.945 228.491C749.182 226.528 756.955 220.331 760.926 211.764L742.781 203.353ZM770.179 144.246L742.781 203.352L760.926 211.764L788.324 152.657L770.179 144.246ZM731.028 165.654L779.101 155.436L774.942 135.873L726.87 146.091L731.028 165.654ZM720.37 142.748L717.57 149.035L735.841 157.17L738.64 150.883L720.37 142.748ZM782.906 124.398L728.837 135.891L732.995 155.454L787.065 143.961L782.906 124.398ZM789.463 102.646L777.312 128.859L795.457 137.27L807.608 111.057L789.463 102.646ZM522.227 274.769L557.44 267.284L553.282 247.721L518.069 255.206L522.227 274.769ZM539.921 190.944L508.845 257.984L526.99 266.396L558.066 199.355L539.921 190.944ZM616.567 169.745L548.313 184.253L552.472 203.816L620.725 189.308L616.567 169.745ZM613.721 168.03L610.922 174.317L629.193 182.452L631.992 176.165L613.721 168.03ZM560.436 192.342L622.693 179.109L618.535 159.546L556.277 172.779L560.436 192.342ZM555.527 157.278L547.054 175.557L565.199 183.969L573.672 165.689L555.527 157.278ZM576.508 140.55C567.271 142.514 559.498 148.711 555.527 157.278L573.672 165.689C574.996 162.834 577.587 160.768 580.666 160.113L576.508 140.55ZM605.852 134.313L576.508 140.55L580.666 160.113L610.01 153.876L605.852 134.313ZM631.854 128.786L605.852 134.313L610.01 153.876L636.012 148.349L631.854 128.786ZM667.067 121.301L631.854 128.786L636.012 148.349L671.226 140.864L667.067 121.301ZM633.767 238.792L680.449 138.086L662.304 129.675L615.622 230.381L633.767 238.792ZM612.787 255.52C622.023 253.557 629.796 247.359 633.767 238.792L615.622 230.381C614.298 233.237 611.707 235.302 608.629 235.957L612.787 255.52ZM583.442 261.757L612.787 255.52L608.629 235.957L579.284 242.194L583.442 261.757ZM557.44 267.284L583.442 261.757L579.284 242.194L553.282 247.721L557.44 267.284ZM568.934 224.729L605.68 216.919L601.522 197.356L564.776 205.166L568.934 224.729ZM571.676 226.527L574.55 220.223L556.353 211.926L553.479 218.229L571.676 226.527ZM599.555 207.555L562.734 215.382L566.892 234.945L603.713 227.118L599.555 207.555ZM596.709 205.84L593.91 212.127L612.181 220.261L614.98 213.975L596.709 205.84ZM553.479 218.229C549.39 227.195 557.253 236.994 566.892 234.945L562.734 215.382C569.159 214.016 574.401 220.549 571.676 226.527L553.479 218.229ZM605.68 216.919C599.287 218.278 594.05 211.811 596.709 205.84L614.98 213.975C618.968 205.017 611.113 195.318 601.522 197.356L605.68 216.919ZM671.226 140.864C664.777 142.235 659.532 135.656 662.304 129.675L680.449 138.086C684.608 129.114 676.74 119.245 667.067 121.301L671.226 140.864ZM558.066 199.355C557.007 201.64 554.935 203.292 552.472 203.816L548.313 184.253C544.619 185.038 541.51 187.517 539.921 190.944L558.066 199.355ZM636.003 230.956C631.845 239.927 639.713 249.796 649.385 247.74L645.227 228.177C651.676 226.807 656.921 233.386 654.149 239.367L636.003 230.956ZM656.971 185.722C652.812 194.694 660.681 204.563 670.353 202.507L666.195 182.944C672.643 181.573 677.889 188.152 675.117 194.133L656.971 185.722ZM508.032 201.936C512.121 192.97 504.258 183.17 494.619 185.219L498.777 204.782C492.351 206.148 487.109 199.615 489.835 193.638L508.032 201.936ZM455.83 203.245C462.224 201.886 467.461 208.353 464.802 214.325L446.531 206.19C442.543 215.147 450.398 224.847 459.989 222.808L455.83 203.245ZM496.735 214.998C500.455 214.207 503.58 211.7 505.158 208.239L486.961 199.941C488.013 197.634 490.096 195.962 492.576 195.435L496.735 214.998ZM391.887 282.027C398.336 280.656 403.581 287.235 400.809 293.216L382.663 284.805C378.505 293.777 386.373 303.646 396.046 301.59L391.887 282.027ZM508.413 246.71C501.964 248.08 496.719 241.501 499.491 235.52L517.636 243.931C521.795 234.96 513.927 225.091 504.254 227.147L508.413 246.71ZM428.951 244.12C424.963 253.078 432.818 262.778 442.408 260.739L438.25 241.176C444.644 239.817 449.88 246.284 447.222 252.255L428.951 244.12ZM506.624 220.133C507.683 217.849 509.755 216.196 512.218 215.673L516.377 235.236C520.071 234.45 523.18 231.971 524.769 228.545L506.624 220.133ZM407.626 225.017C411.32 224.232 414.43 221.753 416.018 218.326L397.873 209.915C398.932 207.63 401.005 205.978 403.468 205.454L407.626 225.017ZM359.202 231.939C358.16 234.278 356.061 235.978 353.557 236.51L349.398 216.947C345.641 217.746 342.493 220.295 340.931 223.804L359.202 231.939ZM408.886 233.713C413.044 224.741 405.176 214.872 395.503 216.928L399.662 236.491C393.213 237.862 387.968 231.283 390.74 225.302L408.886 233.713ZM337.044 273.757C330.651 275.116 325.414 268.65 328.073 262.678L346.344 270.813C350.332 261.856 342.477 252.156 332.886 254.194L337.044 273.757ZM277.532 266.778C273.374 275.75 281.242 285.618 290.914 283.562L286.756 263.999C293.204 262.629 298.45 269.208 295.678 275.189L277.532 266.778ZM245.517 163.834C241.379 172.763 249.156 182.604 258.799 180.64L254.808 161.042C261.237 159.733 266.422 166.293 263.663 172.246L245.517 163.834ZM271.541 119.107C267.847 119.892 264.737 122.371 263.149 125.798L281.294 134.209C280.235 136.494 278.163 138.147 275.699 138.67L271.541 119.107ZM307.21 131.17C311.387 122.198 303.517 112.311 293.836 114.368L297.994 133.931C291.54 135.303 286.293 128.712 289.078 122.73L307.21 131.17ZM246.518 209.233C245.203 212.068 242.624 214.115 239.564 214.752L235.491 195.171C232.358 195.822 229.718 197.918 228.373 200.821L246.518 209.233ZM239.442 214.874C242.557 214.212 245.178 212.122 246.518 209.233L228.373 200.821C229.681 197.999 232.241 195.957 235.284 195.311L239.442 214.874ZM190.904 205.562C186.745 214.533 194.614 224.402 204.286 222.346L200.128 202.783C206.576 201.413 211.822 207.992 209.049 213.973L190.904 205.562ZM440.217 230.977C436.46 231.775 433.312 234.324 431.75 237.834L450.021 245.968C448.979 248.308 446.881 250.007 444.376 250.54L440.217 230.977ZM603.713 227.118C607.47 226.32 610.618 223.771 612.181 220.261L593.91 212.127C594.951 209.787 597.05 208.088 599.555 207.555L603.713 227.118ZM249.804 63.4094C243.338 64.7839 238.089 58.167 240.9 52.1832L259.003 60.6856C263.218 51.71 255.346 41.7847 245.646 43.8464L249.804 63.4094ZM545.044 167.685C538.596 169.056 533.35 162.476 536.123 156.495L554.268 164.906C558.427 155.935 550.558 146.066 540.886 148.122L545.044 167.685ZM564.776 205.166C561.056 205.957 557.931 208.465 556.353 211.926L574.55 220.223C573.498 222.53 571.415 224.202 568.934 224.729L564.776 205.166ZM235.757 112.605C239.916 103.633 232.048 93.7645 222.375 95.8204L226.534 115.383C220.085 116.754 214.84 110.175 217.612 104.194L235.757 112.605ZM325.274 268.965C326.315 266.626 328.414 264.926 330.919 264.394L335.077 283.957C338.834 283.158 341.982 280.609 343.545 277.1L325.274 268.965ZM620.725 189.308C624.483 188.51 627.631 185.961 629.193 182.452L610.922 174.317C611.964 171.977 614.062 170.278 616.567 169.745L620.725 189.308ZM76.7774 228.491C83.2257 227.12 88.4713 233.7 85.6988 239.681L67.5535 231.27C63.3948 240.241 71.2632 250.11 80.9357 248.054L76.7774 228.491ZM518.069 255.206C524.517 253.835 529.763 260.415 526.99 266.396L508.845 257.984C504.686 266.956 512.555 276.825 522.227 274.769L518.069 255.206ZM164.806 127.993C158.358 129.363 153.112 122.784 155.885 116.803L174.03 125.214C178.189 116.243 170.32 106.374 160.648 108.43L164.806 127.993ZM787.065 143.961C790.759 143.176 793.868 140.697 795.457 137.27L777.312 128.859C778.371 126.575 780.443 124.922 782.906 124.398L787.065 143.961ZM127.265 119.571C123.752 127.047 130.306 135.326 138.396 133.606L134.238 114.044C142.325 112.324 148.878 120.602 145.366 128.076L127.265 119.571ZM738.64 150.883C737.599 153.222 735.5 154.922 732.995 155.454L728.837 135.891C725.08 136.69 721.932 139.239 720.37 142.748L738.64 150.883ZM138.393 133.603C130.31 135.321 123.75 127.05 127.265 119.571L145.366 128.076C148.881 120.595 142.32 112.322 134.235 114.04L138.393 133.603ZM196.792 87.968C203.258 86.5935 208.507 93.2104 205.696 99.1941L187.594 90.6917C183.378 99.6674 191.25 109.593 200.95 107.531L196.792 87.968ZM418.945 194.891C412.497 196.262 407.251 189.683 410.024 183.702L428.169 192.113C432.328 183.141 424.459 173.273 414.787 175.329L418.945 194.891ZM726.87 146.091C733.263 144.732 738.5 151.198 735.841 157.17L717.57 149.035C713.582 157.992 721.437 167.692 731.028 165.654L726.87 146.091ZM94.0718 123.379C89.8948 132.352 97.7645 142.239 107.446 140.181L103.288 120.618C109.742 119.246 114.988 125.838 112.203 131.82L94.0718 123.379ZM658.231 194.418C654.536 195.203 651.427 197.682 649.839 201.109L667.984 209.52C666.925 211.805 664.852 213.457 662.389 213.981L658.231 194.418ZM398.761 91.5551C395.073 92.339 391.968 94.8105 390.377 98.2285L408.509 106.669C407.448 108.948 405.378 110.596 402.919 111.118L398.761 91.5551ZM363.766 85.4119C367.943 76.439 360.073 66.5519 350.392 68.6097L354.55 88.1727C348.096 89.5445 342.849 82.9531 345.634 76.9712L363.766 85.4119ZM704.712 187.909C705.754 185.57 707.853 183.871 710.358 183.338L714.516 202.901C718.273 202.102 721.421 199.553 722.983 196.044L704.712 187.909ZM433.406 103.82C437.565 94.8484 429.697 84.9796 420.024 87.0355L424.182 106.598C417.734 107.969 412.488 101.39 415.261 95.4088L433.406 103.82ZM347.431 227.146C353.825 225.787 359.061 232.254 356.403 238.225L338.132 230.091C334.144 239.048 341.999 248.748 351.589 246.709L347.431 227.146ZM129.281 218.66C125.122 227.632 132.99 237.501 142.663 235.445L138.505 215.882C144.953 214.511 150.199 221.09 147.426 227.071L129.281 218.66ZM716.483 192.702C710.089 194.061 704.853 187.594 707.512 181.623L725.782 189.757C729.77 180.8 721.916 171.1 712.325 173.139L716.483 192.702ZM392.625 161.36C399.074 159.989 404.319 166.569 401.547 172.55L383.402 164.139C379.243 173.11 387.111 182.979 396.784 180.923L392.625 161.36ZM788.324 152.657C792.483 143.686 784.615 133.817 774.942 135.873L779.101 155.436C772.652 156.806 767.407 150.227 770.179 144.246L788.324 152.657ZM124.691 87.9583C118.237 89.3301 112.991 82.7388 115.775 76.7568L133.907 85.1975C138.084 76.2246 130.214 66.3375 120.533 68.3953L124.691 87.9583ZM11.341 242.4C17.7951 241.028 23.0416 247.62 20.2569 253.602L2.12529 245.161C-2.05182 254.134 5.818 264.021 15.4992 261.963L11.341 242.4ZM169.158 259.18C164.927 268.189 172.873 278.136 182.594 276.001L178.304 256.467C184.785 255.043 190.082 261.674 187.262 267.681L169.158 259.18ZM480.654 60.8618C474.206 62.2324 468.96 55.6531 471.733 49.6721L489.878 58.0833C494.037 49.1117 486.168 39.2429 476.496 41.2988L480.654 60.8618ZM443.107 52.4524C439.608 59.9245 446.157 68.1944 454.244 66.4755L450.086 46.9125C458.17 45.1941 464.717 53.4619 461.22 60.9322L443.107 52.4524ZM798.384 113.836C791.936 115.206 786.69 108.627 789.463 102.646L807.608 111.057C811.767 102.086 803.898 92.2168 794.226 94.2728L798.384 113.836ZM454.241 66.4721C446.165 68.1888 439.606 59.9303 443.107 52.4524L461.22 60.9322C464.722 53.4524 458.161 45.192 450.083 46.9091L454.241 66.4721ZM271.261 161.002C272.332 158.702 274.431 157.046 276.917 156.54L280.908 176.137C284.638 175.378 287.786 172.894 289.393 169.443L271.261 161.002ZM327.189 175.269C333.643 173.897 338.89 180.489 336.105 186.471L317.973 178.03C313.796 187.003 321.666 196.89 331.347 194.832L327.189 175.269ZM256.564 312.012C252.406 320.983 260.274 330.852 269.947 328.796L265.788 309.233C272.237 307.863 277.482 314.442 274.71 320.423L256.564 312.012ZM556.277 172.779C562.726 171.408 567.971 177.988 565.199 183.969L547.054 175.557C542.895 184.529 550.763 194.398 560.436 192.342L556.277 172.779ZM82.913 158.686C79.2252 159.47 76.1201 161.941 74.529 165.36L92.6606 173.8C91.5998 176.079 89.5298 177.727 87.0712 178.249L82.913 158.686ZM248.105 210.745C249.158 208.483 251.205 206.842 253.642 206.307L257.932 225.842C261.587 225.039 264.658 222.577 266.237 219.185L248.105 210.745ZM409.92 56.248C405.743 65.2209 413.612 75.1079 423.294 73.0501L419.135 53.4872C425.59 52.1153 430.836 58.7067 428.051 64.6886L409.92 56.248ZM278.792 275.474C275.098 276.259 271.988 278.738 270.4 282.165L288.545 290.576C287.486 292.86 285.413 294.513 282.95 295.036L278.792 275.474ZM631.992 176.165C635.98 167.208 628.125 157.508 618.535 159.546L622.693 179.109C616.299 180.468 611.063 174.001 613.721 168.03L631.992 176.165ZM117.558 170.951C121.717 161.979 113.849 152.111 104.176 154.167L108.334 173.729C101.886 175.1 96.6405 168.521 99.4129 162.54L117.558 170.951ZM262.567 209.967C256.122 211.308 250.907 204.726 253.685 198.759L271.816 207.199C275.983 198.248 268.16 188.376 258.494 190.386L262.567 209.967ZM457.798 193.046C454.04 193.845 450.893 196.394 449.33 199.903L467.601 208.038C466.56 210.377 464.461 212.077 461.956 212.609L457.798 193.046ZM440.539 20.8273C434.085 22.1991 428.839 15.6077 431.623 9.62582L449.755 18.0665C453.932 9.09358 446.062 -0.793502 436.381 1.26431L440.539 20.8273Z" fill="url(#paint1_linear_584_32308)" mask="url(#path-3-outside-2_584_32308)"/>
<defs>
<linearGradient id="paint0_linear_584_32308" x1="408.862" y1="15" x2="408.862" y2="323.06" gradientUnits="userSpaceOnUse">
<stop offset="0.495" stop-color="#003146"/>
<stop offset="1" stop-color="#3449AD"/>
</linearGradient>
<linearGradient id="paint1_linear_584_32308" x1="404.862" y1="11" x2="404.862" y2="319.06" gradientUnits="userSpaceOnUse">
<stop offset="0.495" stop-color="#003146"/>
<stop offset="1" stop-color="#3449AD"/>
</linearGradient>
</defs>
</svg>
