<svg xmlns="http://www.w3.org/2000/svg" width="813" height="334" fill="none"><mask id="b" width="809" height="330" x="4" y="4" fill="#000" maskUnits="userSpaceOnUse"><path fill="#fff" d="M4 4h809v330H4z"/><path fill-rule="evenodd" d="M403.043 31.576a20 20 0 0 1 13.974-11.122l25.443-5.408c1.614-.343 2.925 1.305 2.229 2.8l-21.703 46.622c-.697 1.496.615 3.144 2.229 2.8l30.947-6.577q.002 0 .001.001l.002.002 26.41-5.614c1.612-.342 2.924 1.302 2.231 2.798l-46.683 100.706a20 20 0 0 1-13.987 11.152l-25.431 5.406c-1.613.342-2.924-1.303-2.231-2.798l31.86-68.73c.693-1.495-.619-3.14-2.231-2.797l-21.263 4.52a2 2 0 0 0-1.397 1.112l-30.758 66.071a20 20 0 0 1-13.973 11.122l-25.444 5.409c-1.613.343-2.925-1.305-2.229-2.801zM87.195 98.707a20 20 0 0 1 13.974-11.122l25.443-5.408c1.614-.343 2.925 1.305 2.229 2.8L107.138 131.6c-.697 1.496.615 3.144 2.229 2.801l30.947-6.578q.002-.001.001.001l.002.002 26.41-5.614c1.612-.342 2.924 1.302 2.231 2.798l-46.683 100.706a20 20 0 0 1-13.987 11.152l-25.431 5.406c-1.612.342-2.924-1.303-2.23-2.798l31.859-68.73c.693-1.495-.619-3.14-2.231-2.797l-21.263 4.52a2 2 0 0 0-1.397 1.112l-30.758 66.071a20 20 0 0 1-13.973 11.122l-25.444 5.409c-1.614.343-2.925-1.305-2.229-2.801zm115.828 16.301a20 20 0 0 0-13.987 11.151l-46.683 100.707c-.693 1.495.619 3.14 2.231 2.797l25.432-5.405a20 20 0 0 0 13.987-11.152l46.682-100.707c.693-1.495-.619-3.14-2.231-2.797zm9.289-40.906a20 20 0 0 1 13.945-11.06l25.468-5.414c1.617-.344 2.929 1.31 2.226 2.806l-11.667 24.841a20 20 0 0 1-13.944 11.061l-25.469 5.413c-1.617.344-2.929-1.31-2.226-2.806zm81.678 21.57-7.819 1.662-21.525 4.575a20 20 0 0 0-13.987 11.152l-46.682 100.706c-.693 1.496.618 3.14 2.23 2.798l35.156-7.473a.12.12 0 0 0 .082-.065.12.12 0 0 1 .083-.066l23.002-4.784c1.611-.335 2.915 1.31 2.221 2.802l-5.58 11.986a2 2 0 0 1-1.384 1.109l-52.079 11.439a20 20 0 0 0-13.813 11.033L182.21 267.43c-.705 1.502.619 3.16 2.239 2.804l68.251-14.991 20.022-4.255a20 20 0 0 0 13.974-11.123L358.7 85.192c.696-1.496-.616-3.144-2.229-2.8l-31.18 6.627-4.026.855zm-11.077 74.666a2 2 0 0 0 1.414-1.115l17.817-38.273c.696-1.495-.616-3.143-2.229-2.8l-22.295 4.739a2 2 0 0 0-1.398 1.115L258.59 172.04c-.69 1.488.607 3.128 2.214 2.801zm140.183 21.569c.693-1.495-.618-3.14-2.23-2.797l-35.213 7.485-26.002 5.527-29.345 6.237a20 20 0 0 0-13.987 11.152l-25.714 55.473c-.693 1.495.618 3.14 2.23 2.797l46.13-9.805c1.599-.34 2.908 1.277 2.243 2.77l-2.799 6.287a2 2 0 0 1-1.411 1.142l-52.127 11.08a2 2 0 0 0-1.398 1.115l-13.836 29.847c-.693 1.495.618 3.14 2.23 2.798l35.214-7.485 26.002-5.527 29.344-6.237a20 20 0 0 0 13.987-11.152l27.399-59.107c.693-1.495-.618-3.14-2.23-2.797l-48.073 10.218c-1.598.34-2.908-1.277-2.243-2.77l2.799-6.287a2 2 0 0 1 1.411-1.143l54.07-11.492a2 2 0 0 0 1.398-1.116zm88.656-22.519 35.213-7.485c1.612-.342 2.923 1.303 2.23 2.798l-29.499 63.638a2 2 0 0 1-1.399 1.115l-72 15.304a2 2 0 0 0-1.412 1.143l-2.799 6.287c-.664 1.493.645 3.109 2.243 2.77l66.004-14.03c1.612-.342 2.924 1.302 2.231 2.798l-10.051 21.681a20 20 0 0 1-13.987 11.152l-29.344 6.237-26.002 5.527-35.214 7.485c-1.612.343-2.923-1.302-2.23-2.797l46.682-100.707a20 20 0 0 1 13.987-11.151l29.345-6.238zm-52.085 44.869c-.665 1.493.644 3.11 2.243 2.77l36.745-7.81a2 2 0 0 0 1.404-1.127l2.875-6.303c.681-1.495-.629-3.128-2.236-2.786l-36.821 7.827a2 2 0 0 0-1.411 1.142zm342.868-103.405c.693-1.496-.618-3.14-2.23-2.798l-35.213 7.485-26.002 5.527-29.345 6.237a20 20 0 0 0-13.987 11.152l-25.714 55.473c-.693 1.495.618 3.14 2.23 2.797l46.13-9.805c1.599-.34 2.908 1.277 2.243 2.77l-2.799 6.287a2 2 0 0 1-1.411 1.143l-52.127 11.079a2 2 0 0 0-1.399 1.115l-13.835 29.848c-.693 1.495.618 3.14 2.23 2.797l35.214-7.485 26.002-5.527 29.344-6.237a20 20 0 0 0 13.987-11.152l27.399-59.107c.693-1.495-.618-3.14-2.231-2.797l-48.072 10.218c-1.599.34-2.908-1.277-2.243-2.77l2.799-6.286c.26-.585.785-1.01 1.411-1.143l54.07-11.493a2 2 0 0 0 1.398-1.115zM559.361 261.503l-35.213 7.484c-1.612.343-2.924-1.302-2.231-2.797l31.077-67.04a2 2 0 0 1 1.398-1.115l68.254-14.508a2 2 0 0 0 1.412-1.143l2.799-6.287c.664-1.493-.645-3.109-2.243-2.769l-62.257 13.232c-1.613.343-2.924-1.302-2.231-2.797l8.474-18.279a20 20 0 0 1 13.987-11.152l29.344-6.238 26.002-5.526 35.213-7.485c1.612-.343 2.924 1.302 2.231 2.797l-46.682 100.707a20 20 0 0 1-13.987 11.151l-29.345 6.238zm50.483-47.596c.665-1.493-.644-3.109-2.243-2.77l-36.746 7.811c-.62.132-1.141.55-1.404 1.126l-2.874 6.304c-.681 1.494.629 3.127 2.236 2.786l36.821-7.827a2 2 0 0 0 1.411-1.143z" clip-rule="evenodd"/></mask><path fill="#FEC2FB" fill-rule="evenodd" d="M403.043 31.576a20 20 0 0 1 13.974-11.122l25.443-5.408c1.614-.343 2.925 1.305 2.229 2.8l-21.703 46.622c-.697 1.496.615 3.144 2.229 2.8l30.947-6.577q.002 0 .001.001l.002.002 26.41-5.614c1.612-.342 2.924 1.302 2.231 2.798l-46.683 100.706a20 20 0 0 1-13.987 11.152l-25.431 5.406c-1.613.342-2.924-1.303-2.231-2.798l31.86-68.73c.693-1.495-.619-3.14-2.231-2.797l-21.263 4.52a2 2 0 0 0-1.397 1.112l-30.758 66.071a20 20 0 0 1-13.973 11.122l-25.444 5.409c-1.613.343-2.925-1.305-2.229-2.801zM87.195 98.707a20 20 0 0 1 13.974-11.122l25.443-5.408c1.614-.343 2.925 1.305 2.229 2.8L107.138 131.6c-.697 1.496.615 3.144 2.229 2.801l30.947-6.578q.002-.001.001.001l.002.002 26.41-5.614c1.612-.342 2.924 1.302 2.231 2.798l-46.683 100.706a20 20 0 0 1-13.987 11.152l-25.431 5.406c-1.612.342-2.924-1.303-2.23-2.798l31.859-68.73c.693-1.495-.619-3.14-2.231-2.797l-21.263 4.52a2 2 0 0 0-1.397 1.112l-30.758 66.071a20 20 0 0 1-13.973 11.122l-25.444 5.409c-1.614.343-2.925-1.305-2.229-2.801zm115.828 16.301a20 20 0 0 0-13.987 11.151l-46.683 100.707c-.693 1.495.619 3.14 2.231 2.797l25.432-5.405a20 20 0 0 0 13.987-11.152l46.682-100.707c.693-1.495-.619-3.14-2.231-2.797zm9.289-40.906a20 20 0 0 1 13.945-11.06l25.468-5.414c1.617-.344 2.929 1.31 2.226 2.806l-11.667 24.841a20 20 0 0 1-13.944 11.061l-25.469 5.413c-1.617.344-2.929-1.31-2.226-2.806zm81.678 21.57-7.819 1.662-21.525 4.575a20 20 0 0 0-13.987 11.152l-46.682 100.706c-.693 1.496.618 3.14 2.23 2.798l35.156-7.473a.12.12 0 0 0 .082-.065.12.12 0 0 1 .083-.066l23.002-4.784c1.611-.335 2.915 1.31 2.221 2.802l-5.58 11.986a2 2 0 0 1-1.384 1.109l-52.079 11.439a20 20 0 0 0-13.813 11.033L182.21 267.43c-.705 1.502.619 3.16 2.239 2.804l68.251-14.991 20.022-4.255a20 20 0 0 0 13.974-11.123L358.7 85.192c.696-1.496-.616-3.144-2.229-2.8l-31.18 6.627-4.026.855zm-11.077 74.666a2 2 0 0 0 1.414-1.115l17.817-38.273c.696-1.495-.616-3.143-2.229-2.8l-22.295 4.739a2 2 0 0 0-1.398 1.115L258.59 172.04c-.69 1.488.607 3.128 2.214 2.801zm140.183 21.569c.693-1.495-.618-3.14-2.23-2.797l-35.213 7.485-26.002 5.527-29.345 6.237a20 20 0 0 0-13.987 11.152l-25.714 55.473c-.693 1.495.618 3.14 2.23 2.797l46.13-9.805c1.599-.34 2.908 1.277 2.243 2.77l-2.799 6.287a2 2 0 0 1-1.411 1.142l-52.127 11.08a2 2 0 0 0-1.398 1.115l-13.836 29.847c-.693 1.495.618 3.14 2.23 2.798l35.214-7.485 26.002-5.527 29.344-6.237a20 20 0 0 0 13.987-11.152l27.399-59.107c.693-1.495-.618-3.14-2.23-2.797l-48.073 10.218c-1.598.34-2.908-1.277-2.243-2.77l2.799-6.287a2 2 0 0 1 1.411-1.143l54.07-11.492a2 2 0 0 0 1.398-1.116zm88.656-22.519 35.213-7.485c1.612-.342 2.923 1.303 2.23 2.798l-29.499 63.638a2 2 0 0 1-1.399 1.115l-72 15.304a2 2 0 0 0-1.412 1.143l-2.799 6.287c-.664 1.493.645 3.109 2.243 2.77l66.004-14.03c1.612-.342 2.924 1.302 2.231 2.798l-10.051 21.681a20 20 0 0 1-13.987 11.152l-29.344 6.237-26.002 5.527-35.214 7.485c-1.612.343-2.923-1.302-2.23-2.797l46.682-100.707a20 20 0 0 1 13.987-11.151l29.345-6.238zm-52.085 44.869c-.665 1.493.644 3.11 2.243 2.77l36.745-7.81a2 2 0 0 0 1.404-1.127l2.875-6.303c.681-1.495-.629-3.128-2.236-2.786l-36.821 7.827a2 2 0 0 0-1.411 1.142zm342.868-103.405c.693-1.496-.618-3.14-2.23-2.798l-35.213 7.485-26.002 5.527-29.345 6.237a20 20 0 0 0-13.987 11.152l-25.714 55.473c-.693 1.495.618 3.14 2.23 2.797l46.13-9.805c1.599-.34 2.908 1.277 2.243 2.77l-2.799 6.287a2 2 0 0 1-1.411 1.143l-52.127 11.079a2 2 0 0 0-1.399 1.115l-13.835 29.848c-.693 1.495.618 3.14 2.23 2.797l35.214-7.485 26.002-5.527 29.344-6.237a20 20 0 0 0 13.987-11.152l27.399-59.107c.693-1.495-.618-3.14-2.231-2.797l-48.072 10.218c-1.599.34-2.908-1.277-2.243-2.77l2.799-6.286c.26-.585.785-1.01 1.411-1.143l54.07-11.493a2 2 0 0 0 1.398-1.115zM559.361 261.503l-35.213 7.484c-1.612.343-2.924-1.302-2.231-2.797l31.077-67.04a2 2 0 0 1 1.398-1.115l68.254-14.508a2 2 0 0 0 1.412-1.143l2.799-6.287c.664-1.493-.645-3.109-2.243-2.769l-62.257 13.232c-1.613.343-2.924-1.302-2.231-2.797l8.474-18.279a20 20 0 0 1 13.987-11.152l29.344-6.238 26.002-5.526 35.213-7.485c1.612-.343 2.924 1.302 2.231 2.797l-46.682 100.707a20 20 0 0 1-13.987 11.151l-29.345 6.238zm50.483-47.596c.665-1.493-.644-3.109-2.243-2.77l-36.746 7.811c-.62.132-1.141.55-1.404 1.126l-2.874 6.304c-.681 1.494.629 3.127 2.236 2.786l36.821-7.827a2 2 0 0 0 1.411-1.143z" clip-rule="evenodd"/><path fill="url(#a)" d="m417.017 20.454-2.08-9.782zm-13.974 11.122-9.066-4.22zm35.08 127.008 9.073 4.206zm-13.987 11.152 2.08 9.781zm-51.451 2.784-9.066-4.22zm-13.973 11.122 2.079 9.782zM101.169 87.585l-2.08-9.781zM87.195 98.707l9.066 4.221zm35.08 127.008 9.073 4.206zm-13.987 11.152 2.08 9.781zm-51.45 2.784 9.065 4.22zm-13.974 11.122-2.08-9.781zm146.172-124.614 9.072 4.206zm13.987-11.151 2.079 9.781zm-33.007 109.25 2.079 9.781zm13.987-11.152-9.073-4.206zm42.254-150.065-2.08-9.781zm-13.945 11.061 9.051 4.251zm29.972 11.173-9.051-4.25zM228.34 96.336l2.079 9.781zm57.831.998 2.08 9.781zm7.819-1.662-2.079-9.782zm-29.344 6.237 2.079 9.782zm-13.987 11.152-9.073-4.206zm-42.951 118.452-2.145-9.767zm-13.813 11.033 9.052 4.251zm58.805 12.697-2.079-9.781-.033.007-.033.007zm20.022-4.255 2.079 9.781zm13.974-11.123 9.066 4.221zm38.595-150.846 2.079 9.781zm-4.026.855-2.079-9.781zm64.388 106.721 2.079 9.781zm-26.002 5.527-2.079-9.782zm-29.345 6.237-2.079-9.781zm-13.987 11.152-9.072-4.206h-.001zm-9.238 96.019 2.079 9.781zm26.002-5.527-2.079-9.782zm29.344-6.237 2.079 9.781zm13.987-11.152 9.073 4.205zm135.338-123.226 2.079 9.782zm-9.239 96.019 9.073 4.206zm-13.987 11.152 2.079 9.782zm-29.344 6.237 2.079 9.782zm-26.002 5.527-2.079-9.781zm9.238-96.019-9.072-4.205h-.001zm13.987-11.151 2.079 9.781zm29.345-6.238 2.079 9.782zm279.342-59.376-2.08-9.781zm-26.002 5.527 2.079 9.781zm-29.345 6.237 2.079 9.782zm-13.987 11.152 9.073 4.206zm-9.238 96.019 2.079 9.782zm26.002-5.527-2.079-9.781zm29.344-6.237-2.079-9.782zm13.987-11.152-9.072-4.206v.001zm-196.492 49.945-2.079-9.782zm9.239-96.019-9.073-4.206zm13.987-11.152 2.079 9.781zm29.344-6.238 2.079 9.782zm26.002-5.526-2.079-9.782zm-9.238 96.019-9.073-4.206zm-13.987 11.151 2.079 9.782zm-29.345 6.238 2.079 9.781zm-18.786-29.598-9.098-4.149zm2.236 2.786-2.079-9.782zm41.031-15.257-9.135-4.067zm63.302-78.824-2.079-9.782zm2.231 2.797-9.073-4.205zm-122.383 61.27 9.072 4.205zm1.398-1.115-2.079-9.782zm94.684 41.127 9.073 4.205zm2.23 2.797-2.079-9.782zm18.738-48.031 9.073 4.205zm-167.11 7.859 9.098 4.149zm-2.236-2.786 2.079 9.781zm-38.788 18.026-2.08-9.782zm-2.243-2.77 9.135 4.068zm38.988-5.04-2.079-9.782zm1.404-1.127 9.099 4.149zm-102.093 87.718 2.08 9.782zm-2.23-2.797 9.073 4.205zm114.597-52.083 2.08 9.782zm2.231 2.798-9.073-4.206zm-70.478 8.462 9.136 4.067zm2.243 2.77-2.079-9.782zm75.367-26.619-9.072-4.206zm-1.399 1.115-2.079-9.781zm-108.75-10.218 2.079 9.781zm1.398-1.116-9.072-4.205zm-56.879 13.751-9.135-4.067zm1.411-1.143-2.079-9.781zm48.336 2.779 9.073 4.206zm-2.23-2.797-2.08-9.782zm-62.618 37.266-2.079-9.782zm2.243 2.77-9.135-4.068zm-50.603 4.238-9.073-4.206zm2.23 2.797 2.079 9.781zM258.59 172.04l-9.073-4.206zm2.214 2.801-1.996-9.799zm16.816-41.952-2.079-9.782zm-1.398 1.115 9.072 4.205zm25.922-3.054 9.066 4.22zm-2.229-2.8 2.079 9.781zm-58.387 80.811 2.036 9.791zm-.165.131-2.079-9.781zm-37.386 4.675-9.073-4.205zm2.23 2.798 2.079 9.781zm240.09 28.193-2.08-9.781zm-1.412 1.143 9.136 4.067zm160.749-24.564 2.079 9.781zm1.411-1.143-9.135-4.067zM251.725 57.628l2.079 9.781zm2.226 2.806-9.051-4.25zm293.014 101.469 2.079 9.782zm2.23 2.798 9.073 4.205zm21.66 54.247-2.079-9.782zm-1.404 1.126-9.098-4.148zM230.685 112.399l-9.073-4.205zm-2.231-2.797-2.079-9.782zm109.955 167.431-9.135-4.068zm-1.411 1.142-2.079-9.781zm285.648-94.648 2.079 9.781zm1.412-1.143-9.136-4.067zM82.857 242.273l-2.08-9.782zm441.291 26.714-2.079-9.781zm-2.231-2.797-9.072-4.206zM168.958 125.009l-9.073-4.206zm620.028 13.171-2.08-9.782zm1.398-1.115-9.072-4.206zm-650.067-9.24 2.079 9.781zm593.188 22.991 9.135 4.067zm1.411-1.143 2.079 9.781zm-594.602-21.851 2.079 9.781zm62.557-26.073-2.079-9.781zm-2.226-2.806 9.051 4.251zm220.221 90.167-2.079-9.781zm2.23 2.797 9.073 4.206zm307.61-34.805-9.136-4.067zm-623.568-25.503-9.066-4.22zm2.229 2.801-2.079-9.782zm554.943 73.799-2.079-9.781zm-1.399 1.115 9.073 4.206zM404.84 105.337l2.079 9.781zm-1.397 1.112-9.066-4.22zM358.7 85.192l-9.066-4.22zm-2.229-2.8 2.079 9.78zm361.377 113.585-9.136-4.068zm-1.411 1.143 2.079 9.781zm-288.103-93.506-9.073-4.205zm-2.231-2.797 2.079 9.781zM353.51 240.928l-2.079-9.782zm-2.243-2.77-9.135-4.067zm-208.914-11.292 9.073 4.205zm2.231 2.797-2.079-9.781zm573.82-42.743-2.079-9.781zm2.243 2.77 9.135 4.067zm-321.942-14.548-2.08-9.782zm-2.231-2.798 9.073 4.206zm386.778-19.893-9.073-4.205zm-2.231-2.797 2.08 9.782zM126.612 82.177l2.079 9.781zm2.229 2.8 9.066 4.22zM17.421 256.182l2.078 9.781zM182.21 267.43l9.052 4.251zm2.239 2.804-2.145-9.767zM484.806 57.878l9.072 4.205zm-28.641 2.816 2.079 9.781zm344.14 47.36-2.079-9.781zm2.23 2.798 9.073 4.205zM456.162 60.691l2.079 9.781zM284.327 169.223l9.066 4.22zm-1.414 1.115-1.996-9.798zm50.355 18.713 2.079 9.781zm-2.229-2.801-9.066-4.22zm-61.402 133.967-9.073-4.205zm292.72-133.657-2.08-9.781zm-2.231-2.797 9.073 4.206zM88.992 172.468l2.08 9.781zm-1.397 1.112 9.066 4.22zm173.576 45.385 9.066 4.22zm-1.384 1.109-2.145-9.767zM422.986 64.468l-9.066-4.22zm2.229 2.8 2.079 9.782zM284.871 289.256l2.079 9.781zm-1.398 1.115-9.073-4.205zm343.384-114.273 9.135 4.068zm-2.243-2.769-2.079-9.782zm-512.128-2.583 9.072 4.206zm-2.231-2.797-2.079-9.781zm154.275 36.229 2.037 9.79zm2.221 2.802 9.065 4.22zm197.126-.151 2.079 9.781zm-1.411 1.142-9.136-4.067zM444.689 17.846l9.066 4.22zm-29.752-7.174a30 30 0 0 0-20.96 16.684l18.132 8.44a10 10 0 0 1 6.987-5.56zm25.444-5.408-25.444 5.408 4.159 19.563 25.443-5.408zm-8.33 63.425 21.704-46.622-18.132-8.441-21.703 46.622zm22.032-17.78-30.948 6.578 4.159 19.563 30.947-6.578zm26.413-5.61-26.41 5.614 4.158 19.563 26.41-5.614zm-33.3 117.491 46.682-100.707-18.145-8.41-46.682 100.706zm-20.98 16.727a30 30 0 0 0 20.98-16.727l-18.145-8.411a10 10 0 0 1-6.994 5.575zm-25.432 5.406 25.432-5.406-4.159-19.563-25.432 5.406zm18.477-85.514-31.859 68.73 18.145 8.411 31.859-68.73zm-12.342 15.709 21.263-4.52-4.158-19.562-21.263 4.52zm-25.168 61.622 30.758-66.071-18.132-8.44-30.758 66.071zm-20.96 16.684a30 30 0 0 0 20.96-16.684l-18.132-8.44a10 10 0 0 1-6.986 5.561zm-25.444 5.408 25.444-5.408-4.158-19.563-25.444 5.408zm58.63-171.476L321.973 182.03l18.132 8.441 72.004-154.674zM99.089 77.804a30 30 0 0 0-20.96 16.683l18.132 8.441a10 10 0 0 1 6.987-5.561zm25.444-5.409-25.444 5.409 4.159 19.563 25.443-5.409zm-8.33 63.425 21.704-46.622-18.132-8.441-21.703 46.622zm22.032-17.78-30.947 6.578 4.158 19.563 30.947-6.578zm26.413-5.61-26.41 5.614 4.158 19.562 26.41-5.613zm-33.3 117.491 46.682-100.707-18.145-8.411-46.682 100.707zm-20.98 16.727a30 30 0 0 0 20.98-16.727l-18.145-8.411a10 10 0 0 1-6.994 5.575zm-25.432 5.406 25.432-5.406-4.159-19.563-25.432 5.406zm18.477-85.514-31.86 68.73 18.146 8.411 31.859-68.73zm-12.342 15.709 21.263-4.52-4.158-19.562-21.263 4.519zm-25.168 61.622L96.661 177.8l-18.132-8.44-30.758 66.071zm-20.96 16.684a30 30 0 0 0 20.96-16.684l-18.132-8.44a10 10 0 0 1-6.986 5.561zm-25.444 5.408 25.444-5.408-4.158-19.563L15.34 246.4zM78.13 94.487 6.125 249.161l18.132 8.441L96.26 102.928zm119.979 35.878a10 10 0 0 1 6.994-5.576l-4.159-19.563a30 30 0 0 0-20.98 16.728zm-46.682 100.706 46.682-100.706-18.145-8.411-46.682 100.706zm16.511-16.595-25.432 5.406 4.158 19.563 25.432-5.406zm6.993-5.576a10 10 0 0 1-6.993 5.576l4.158 19.563a30 30 0 0 0 20.98-16.728zm46.682-100.706L174.93 208.9l18.145 8.411 46.682-100.706zm-16.51 16.595 25.432-5.406-4.159-19.563-25.432 5.406zm19.075-71.53a30 30 0 0 0-20.916 16.592l18.102 8.502a10 10 0 0 1 6.973-5.53zm25.469-5.413-25.469 5.414 4.159 19.563 25.468-5.414zm1.689 41.68 11.668-24.84-18.103-8.503-11.667 24.841zm-20.916 16.591a30 30 0 0 0 20.916-16.59l-18.102-8.503a10 10 0 0 1-6.973 5.53zm-25.469 5.414 25.469-5.414-4.159-19.562-25.468 5.413zm-1.689-41.68-11.667 24.84 18.102 8.503 11.667-24.84zm84.99 37.264 7.818-1.662-4.158-19.563-7.819 1.662zm-21.526 4.576 21.526-4.576-4.159-19.563-21.525 4.576zm-6.994 5.576a10 10 0 0 1 6.994-5.576l-4.158-19.563a30 30 0 0 0-20.981 16.727zm-46.682 100.706 46.682-100.706-18.145-8.412-46.682 100.707zm26.235-18.662-35.156 7.472 4.158 19.563 35.156-7.472zm23.21-4.925-23.003 4.785 4.073 19.581 23.003-4.785zm7.743 28.799 5.579-11.986-18.131-8.44-5.58 11.986zm-60.384 18.095 52.079-11.438-4.29-19.535-52.079 11.439zm-6.906 5.517a10 10 0 0 1 6.906-5.517l-4.29-19.534a30 30 0 0 0-20.72 16.55zm-11.685 24.884 11.685-24.884-18.104-8.501-11.685 24.884zm59.293-26.205-68.251 14.991 4.29 19.534 68.252-14.99zm20.088-4.27-20.022 4.256 4.159 19.563 20.021-4.256zm6.987-5.561a10 10 0 0 1-6.987 5.561l4.158 19.563a30 30 0 0 0 20.961-16.683zm72.004-154.674L277.63 235.645l18.132 8.441 72.004-154.674zm-22.264 17.83 31.18-6.628-4.158-19.563-31.18 6.627zm-4.025.855 4.025-.856-4.158-19.563-4.026.856zm-27.276 5.797 27.276-5.797-4.159-19.563-27.275 5.797zm-2.991 21.277-17.817 38.272 18.132 8.441 17.817-38.273zm-13.379 15.94 22.295-4.739-4.158-19.563-22.295 4.739zm-12.036 33.576 17.631-38.037-18.145-8.411-17.632 38.036zm13.254-15.706-22.109 4.502 3.991 19.598 22.109-4.503zm106.815 45.836 35.213-7.485-4.158-19.562-35.213 7.484zm-26.002 5.527 26.002-5.527-4.158-19.563-26.002 5.527zm-29.345 6.238 29.345-6.238-4.158-19.563-29.345 6.238zm-6.993 5.575a10 10 0 0 1 6.993-5.575l-4.158-19.563a30 30 0 0 0-20.98 16.727zm-25.714 55.473 25.714-55.473-18.146-8.411-25.714 55.473zm37.208-20.995-46.13 9.805 4.158 19.563 46.13-9.805zm10.659 22.906 2.799-6.287-18.271-8.135-2.799 6.287zm-60.595 17.936 52.127-11.079-4.158-19.563-52.127 11.08zm-8.24 25.387 13.835-29.847-18.145-8.411-13.836 29.847zm26.292-18.675-35.214 7.485 4.159 19.563 35.213-7.485zm26.002-5.527-26.002 5.527 4.158 19.563 26.002-5.527zm29.344-6.237-29.344 6.237 4.158 19.563 29.344-6.237zm6.994-5.576a10 10 0 0 1-6.994 5.576l4.158 19.563a30 30 0 0 0 20.981-16.728zm27.398-59.106-27.398 59.106 18.145 8.411 27.399-59.106zm-39.151 21.407 48.073-10.218-4.159-19.563-48.072 10.218zm-10.658-22.905-2.799 6.287 18.271 8.134 2.799-6.286zm62.537-18.35-54.07 11.493 4.159 19.563 54.069-11.493zm6.556-21.752-12.151 26.213 18.145 8.411 12.151-26.213zm130.862-35.58-35.213 7.485 4.158 19.563 35.213-7.485zm-16.117 80.423 29.499-63.639-18.145-8.411-29.499 63.638zm-80.393 21.995 72.001-15.304-4.159-19.563-72.001 15.304zm2.846 1.715 2.799-6.287-18.271-8.134-2.799 6.286zm57.032-25.108-66.004 14.029 4.158 19.563 66.005-14.029zm3.332 38.466 10.05-21.682-18.145-8.411-10.05 21.682zm-20.981 16.728a30 30 0 0 0 20.981-16.728l-18.145-8.411a10 10 0 0 1-6.994 5.576zm-29.344 6.237 29.344-6.237-4.158-19.563-29.344 6.237zm-26.002 5.527 26.002-5.527-4.158-19.563-26.002 5.527zm-35.213 7.485 35.213-7.485-4.158-19.563-35.214 7.485zm33.299-117.491-46.682 100.706 18.146 8.411 46.682-100.706zm20.981-16.728a30 30 0 0 0-20.98 16.728l18.145 8.411a10 10 0 0 1 6.993-5.576zm29.345-6.237-29.345 6.237 4.158 19.563 29.345-6.237zm26.002-5.527-26.002 5.527 4.158 19.563 26.002-5.527zm-13.097 39.828-36.746 7.81 4.159 19.563 36.746-7.81zm-2.741-1.797-2.874 6.303 18.197 8.298 2.874-6.303zm-27.879 18.971 36.821-7.827-4.158-19.563-36.821 7.827zm2.846 1.716 2.799-6.287-18.271-8.135-2.799 6.287zm298.369-93.004 35.213-7.485-4.158-19.563-35.214 7.485zm-26.002 5.526 26.002-5.526-4.159-19.563-26.002 5.527zm-29.345 6.238 29.345-6.238-4.159-19.562-29.344 6.237zm-6.993 5.576a10 10 0 0 1 6.993-5.576l-4.158-19.563a30 30 0 0 0-20.981 16.728zm-25.714 55.472 25.714-55.472-18.146-8.411-25.714 55.472zm37.208-20.994-46.13 9.805 4.158 19.563 46.13-9.805zm10.658 22.905 2.799-6.287-18.27-8.134-2.8 6.286zm-60.594 17.937 52.127-11.08-4.158-19.563-52.127 11.08zm-8.24 25.386 13.835-29.847-18.145-8.411-13.836 29.847zm26.292-18.674-35.214 7.484 4.158 19.563 35.214-7.484zm26.002-5.527-26.002 5.527 4.158 19.563 26.002-5.527zm29.344-6.238-29.344 6.238 4.158 19.563 29.344-6.238zm6.994-5.575a10 10 0 0 1-6.994 5.575l4.158 19.563a30 30 0 0 0 20.981-16.727zm27.398-59.107-27.398 59.106 18.145 8.412 27.398-59.107zm-39.151 21.408 48.073-10.218-4.159-19.563-48.072 10.218zm-10.658-22.906-2.8 6.287 18.271 8.135 2.799-6.287zm62.536-18.35-54.069 11.493 4.158 19.563 54.07-11.493zm6.557-21.752-12.151 26.213 18.145 8.411 12.151-26.213zM526.227 278.769l35.213-7.485-4.158-19.563-35.213 7.485zm17.694-83.825-31.076 67.04 18.145 8.412 31.076-67.041zm76.646-21.199-68.254 14.508 4.159 19.563 68.253-14.508zm-2.846-1.715-2.799 6.287 18.271 8.135 2.799-6.287zm-53.285 24.312 62.257-13.233-4.158-19.563-62.258 13.233zm-4.909-35.064-8.473 18.279 18.145 8.412 8.473-18.28zm20.981-16.728a30 30 0 0 0-20.981 16.728l18.145 8.411a10 10 0 0 1 6.994-5.576zm29.344-6.237-29.344 6.237 4.158 19.563 29.344-6.237zm26.002-5.527-26.002 5.527 4.158 19.563 26.002-5.527zm35.213-7.485-35.213 7.485 4.158 19.563 35.214-7.485zm-33.3 117.491 46.682-100.706-18.145-8.411-46.682 100.706zm-20.98 16.728a30 30 0 0 0 20.98-16.728l-18.145-8.411a10 10 0 0 1-6.993 5.576zm-29.345 6.237 29.345-6.237-4.158-19.563-29.345 6.237zm-26.002 5.527 26.002-5.527-4.158-19.563-26.002 5.527zm11.494-42.555 36.746-7.81-4.158-19.563-36.746 7.81zm2.742 1.798 2.874-6.304-18.197-8.297-2.874 6.303zm27.879-18.972-36.821 7.827 4.158 19.563 36.821-7.827zm-2.846-1.715-2.799 6.287 18.271 8.134 2.799-6.286zm-43.23 12.389c-4.089 8.966 3.774 18.765 13.413 16.716l-4.158-19.563c6.425-1.366 11.667 5.167 8.942 11.145zm52.201-1.31c-6.393 1.359-11.63-5.108-8.971-11.079l18.271 8.135c3.988-8.958-3.867-18.657-13.458-16.619zm65.546-76.055c-6.449 1.371-11.694-5.208-8.922-11.189l18.145 8.411c4.159-8.972-3.709-18.841-13.382-16.785zm-113.16 58.491a8 8 0 0 1-5.594 4.461l-4.159-19.563a12 12 0 0 0-8.392 6.691zm77.937 31.601c-4.158 8.971 3.71 18.84 13.382 16.784l-4.158-19.563c6.449-1.37 11.694 5.209 8.922 11.19zm20.968-45.234c-4.159 8.972 3.71 18.841 13.382 16.785l-4.158-19.563c6.448-1.371 11.694 5.208 8.922 11.189zm-148.939 16.214c4.089-8.966-3.774-18.766-13.413-16.717l4.158 19.563c-6.426 1.366-11.668-5.167-8.942-11.144zm-52.202 1.309c6.394-1.359 11.631 5.108 8.972 11.08l-18.271-8.135c-3.988 8.957 3.867 18.657 13.458 16.618zm40.905 11.753a12 12 0 0 0 8.423-6.759l-18.197-8.298a8 8 0 0 1 5.615-4.506zm-104.848 67.029c6.449-1.371 11.694 5.208 8.922 11.189l-18.146-8.411c-4.158 8.972 3.71 18.841 13.383 16.785zm116.526-35.317c-6.449 1.37-11.694-5.209-8.922-11.19l18.145 8.411c4.159-8.971-3.709-18.84-13.382-16.784zm-79.462-2.59c-3.988 8.958 3.867 18.658 13.457 16.619l-4.158-19.563c6.394-1.359 11.63 5.108 8.972 11.079zm77.673-23.987a8 8 0 0 1 5.594-4.46l4.159 19.563a12 12 0 0 0 8.392-6.691zm-98.998 4.884a12 12 0 0 0 8.392-6.691l-18.145-8.411a8 8 0 0 1 5.595-4.461zm-48.424 6.922a8 8 0 0 1-5.645 4.571l-4.159-19.563a12 12 0 0 0-8.467 6.857zm49.684 1.774c4.158-8.972-3.71-18.841-13.383-16.785l4.159 19.563c-6.449 1.371-11.694-5.208-8.922-11.189zm-71.842 40.044c-6.393 1.359-11.63-5.107-8.971-11.079l18.271 8.135c3.988-8.957-3.867-18.657-13.458-16.619zm-59.512-6.979c-4.158 8.972 3.71 18.84 13.382 16.784l-4.158-19.563c6.448-1.37 11.694 5.209 8.922 11.19zm-32.015-102.944c-4.138 8.929 3.639 18.77 13.282 16.806l-3.991-19.598c6.429-1.309 11.614 5.251 8.855 11.204zm26.024-44.727a12 12 0 0 0-8.392 6.691l18.145 8.411a8 8 0 0 1-5.595 4.461zm35.669 12.063c4.177-8.972-3.693-18.859-13.374-16.802l4.158 19.563c-6.454 1.372-11.701-5.219-8.916-11.201zm-60.692 78.063a9.89 9.89 0 0 1-6.954 5.519l-4.073-19.581a10.11 10.11 0 0 0-7.118 5.65zm-7.076 5.641a10.12 10.12 0 0 0 7.076-5.641l-18.145-8.412a9.88 9.88 0 0 1 6.911-5.51zm-48.538-9.312c-4.159 8.971 3.71 18.84 13.382 16.784l-4.158-19.563c6.448-1.37 11.694 5.209 8.921 11.19zm249.313 25.415a12 12 0 0 0-8.467 6.857l18.271 8.134a8 8 0 0 1-5.645 4.572zm163.496-3.859a12 12 0 0 0 8.468-6.857l-18.271-8.134a8 8 0 0 1 5.645-4.572zM253.804 67.409c-6.466 1.375-11.715-5.242-8.904-11.226l18.103 8.503c4.215-8.976-3.657-18.901-13.357-16.84zm295.24 104.276c-6.448 1.371-11.694-5.209-8.921-11.19l18.145 8.411c4.159-8.971-3.71-18.84-13.382-16.784zm19.732 37.481a12 12 0 0 0-8.423 6.76l18.197 8.297a8 8 0 0 1-5.616 4.506zm-329.019-92.561c4.159-8.972-3.709-18.84-13.382-16.785l4.159 19.563c-6.449 1.371-11.694-5.208-8.922-11.189zm89.517 156.36a8 8 0 0 1 5.645-4.571l4.158 19.563a12 12 0 0 0 8.468-6.857zm295.451-79.657a12 12 0 0 0 8.468-6.856l-18.271-8.135a8 8 0 0 1 5.645-4.572zM80.777 232.491c6.449-1.371 11.694 5.209 8.922 11.19l-18.145-8.411c-4.16 8.971 3.71 18.84 13.382 16.784zm441.292 26.715c6.448-1.371 11.694 5.209 8.921 11.19l-18.145-8.412c-4.159 8.972 3.71 18.841 13.382 16.785zM168.806 131.993c-6.448 1.37-11.694-5.209-8.921-11.19l18.145 8.411c4.159-8.971-3.71-18.84-13.382-16.784zm622.259 15.968a12 12 0 0 0 8.392-6.691l-18.145-8.411a8 8 0 0 1 5.594-4.461zm-659.8-24.39c-3.513 7.476 3.041 15.755 11.131 14.035l-4.158-19.562c8.087-1.72 14.64 6.558 11.128 14.032zm611.375 31.312a8 8 0 0 1-5.645 4.571l-4.158-19.563a12 12 0 0 0-8.467 6.857zm-600.247-17.28c-8.083 1.718-14.643-6.553-11.128-14.032l18.101 8.505c3.515-7.481-3.046-15.754-11.131-14.036zm58.399-45.635c6.466-1.374 11.715 5.242 8.904 11.226l-18.102-8.502c-4.216 8.975 3.656 18.901 13.356 16.839zm222.153 106.923c-6.448 1.371-11.694-5.208-8.921-11.189l18.145 8.411c4.159-8.972-3.71-18.84-13.382-16.784zm307.925-48.8c6.393-1.359 11.63 5.107 8.971 11.079l-18.271-8.135c-3.988 8.957 3.867 18.657 13.458 16.619zM98.072 127.379c-4.177 8.973 3.692 18.86 13.374 16.802l-4.158-19.563c6.454-1.372 11.7 5.22 8.915 11.202zm564.159 71.039a12 12 0 0 0-8.392 6.691l18.145 8.411a8 8 0 0 1-5.595 4.461zM402.761 95.555a12 12 0 0 0-8.384 6.674l18.132 8.44a8 8 0 0 1-5.59 4.449zm-34.995-6.143c4.177-8.973-3.693-18.86-13.374-16.802l4.158 19.563c-6.454 1.371-11.701-5.22-8.916-11.202zm340.946 102.497a8 8 0 0 1 5.646-4.571l4.158 19.563a12 12 0 0 0 8.467-6.857zM437.406 107.82c4.159-8.972-3.709-18.84-13.382-16.784l4.158 19.562c-6.448 1.371-11.694-5.208-8.921-11.19zm-85.975 123.326c6.394-1.359 11.63 5.108 8.972 11.079l-18.271-8.134c-3.988 8.957 3.867 18.657 13.457 16.618zm-218.15-8.486c-4.159 8.972 3.709 18.841 13.382 16.785l-4.158-19.563c6.448-1.371 11.694 5.208 8.921 11.189zm587.202-25.958c-6.394 1.359-11.63-5.108-8.971-11.079l18.27 8.134c3.988-8.957-3.866-18.657-13.457-16.618zM396.625 165.36c6.449-1.371 11.694 5.209 8.922 11.19l-18.145-8.411c-4.159 8.971 3.709 18.84 13.382 16.784zm395.699-8.703c4.159-8.971-3.709-18.84-13.382-16.784l4.159 19.563c-6.449 1.37-11.694-5.209-8.922-11.19zM128.691 91.958c-6.454 1.372-11.7-5.22-8.916-11.201l18.132 8.44c4.177-8.972-3.693-18.86-13.374-16.802zM15.341 246.4c6.454-1.372 11.7 5.22 8.916 11.202l-18.132-8.441c-4.177 8.973 3.693 18.86 13.374 16.802zm157.817 16.78c-4.231 9.009 3.715 18.956 13.436 16.821l-4.29-19.534c6.481-1.424 11.778 5.207 8.958 11.214zM484.654 64.862c-6.448 1.37-11.694-5.209-8.921-11.19l18.145 8.411c4.159-8.971-3.71-18.84-13.382-16.784zm-37.547-8.41c-3.499 7.473 3.05 15.742 11.137 14.023l-4.158-19.562c8.084-1.719 14.631 6.549 11.134 14.02zm355.277 61.384c-6.448 1.37-11.694-5.209-8.921-11.19l18.145 8.411c4.159-8.971-3.71-18.84-13.382-16.784zM458.241 70.472c-8.076 1.717-14.635-6.542-11.134-14.02l18.113 8.48c3.502-7.48-3.059-15.74-11.137-14.023zm-182.98 94.53a8 8 0 0 1 5.656-4.462l3.991 19.597a12 12 0 0 0 8.485-6.694zm55.928 14.267c6.454-1.372 11.701 5.22 8.916 11.202l-18.132-8.441c-4.177 8.973 3.693 18.86 13.374 16.802zm-70.625 136.743c-4.158 8.971 3.71 18.84 13.383 16.784l-4.159-19.563c6.449-1.37 11.694 5.209 8.922 11.19zm299.713-139.233c6.449-1.371 11.694 5.209 8.922 11.19l-18.145-8.412c-4.159 8.972 3.709 18.841 13.382 16.785zM86.913 162.686a12 12 0 0 0-8.384 6.674l18.132 8.44a8 8 0 0 1-5.59 4.449zm165.192 52.059a8 8 0 0 1 5.537-4.438l4.29 19.535a12 12 0 0 0 8.305-6.657zM413.92 60.248c-4.177 8.973 3.692 18.86 13.374 16.802l-4.159-19.563c6.455-1.372 11.701 5.22 8.916 11.202zM282.792 279.474a12 12 0 0 0-8.392 6.691l18.145 8.411a8 8 0 0 1-5.595 4.46zm353.2-99.309c3.988-8.957-3.867-18.657-13.457-16.619l4.158 19.563c-6.394 1.359-11.63-5.108-8.972-11.079zm-514.434-5.214c4.159-8.972-3.709-18.84-13.382-16.784l4.158 19.562c-6.448 1.371-11.694-5.208-8.921-11.189zm145.009 39.016c-6.445 1.341-11.66-5.241-8.882-11.208l18.131 8.44c4.167-8.951-3.656-18.823-13.322-16.813zm195.231-16.921a12 12 0 0 0-8.468 6.857l18.271 8.135a8 8 0 0 1-5.645 4.571zM444.539 24.827c-6.454 1.372-11.7-5.22-8.916-11.201l18.132 8.44c4.177-8.972-3.693-18.86-13.374-16.802z" mask="url(#b)"/><mask id="d" width="809" height="330" x="0" y="0" fill="#000" maskUnits="userSpaceOnUse"><path fill="#fff" d="M0 0h809v330H0z"/><path fill-rule="evenodd" d="M399.043 27.576a20 20 0 0 1 13.974-11.122l25.443-5.408c1.614-.343 2.925 1.305 2.229 2.8l-21.703 46.622c-.697 1.496.615 3.144 2.229 2.8l30.947-6.577q.002 0 .001.001l.002.002 26.41-5.614c1.612-.342 2.924 1.302 2.231 2.798l-46.683 100.706a20 20 0 0 1-13.987 11.152l-25.431 5.406c-1.613.342-2.924-1.303-2.231-2.798l31.86-68.73c.693-1.495-.619-3.14-2.231-2.797l-21.263 4.52a2 2 0 0 0-1.397 1.112l-30.758 66.071a20 20 0 0 1-13.973 11.122l-25.444 5.409c-1.613.343-2.925-1.305-2.229-2.801zM83.195 94.707A20 20 0 0 1 97.17 83.585l25.443-5.408c1.614-.343 2.925 1.305 2.229 2.8L103.138 127.6c-.697 1.496.615 3.144 2.229 2.801l30.947-6.578q.002-.001.001.001l.002.002 26.41-5.614c1.612-.342 2.924 1.302 2.231 2.798l-46.683 100.706a20 20 0 0 1-13.987 11.152l-25.431 5.406c-1.612.342-2.924-1.303-2.23-2.798l31.859-68.73c.693-1.495-.619-3.14-2.231-2.797l-21.263 4.52a2 2 0 0 0-1.397 1.112l-30.758 66.071a20 20 0 0 1-13.973 11.122l-25.444 5.409c-1.614.343-2.925-1.305-2.229-2.801zm115.828 16.301a20 20 0 0 0-13.987 11.151l-46.683 100.707c-.693 1.495.619 3.14 2.231 2.797l25.432-5.405a20 20 0 0 0 13.987-11.152l46.682-100.707c.693-1.495-.619-3.14-2.231-2.797zm9.289-40.906a20 20 0 0 1 13.945-11.06l25.468-5.414c1.617-.344 2.929 1.31 2.226 2.806l-11.667 24.841a20 20 0 0 1-13.944 11.061l-25.469 5.413c-1.617.344-2.929-1.31-2.226-2.806zm81.678 21.57-7.819 1.662-21.525 4.575a20 20 0 0 0-13.987 11.152l-46.682 100.706c-.693 1.496.618 3.14 2.23 2.798l35.156-7.473a.12.12 0 0 0 .082-.065.12.12 0 0 1 .083-.066l23.002-4.784c1.611-.335 2.915 1.31 2.221 2.802l-5.58 11.986a2 2 0 0 1-1.384 1.109l-52.079 11.439a20 20 0 0 0-13.813 11.033L178.21 263.43c-.705 1.502.619 3.16 2.239 2.804l68.251-14.991 20.022-4.255a20 20 0 0 0 13.974-11.123L354.7 81.192c.696-1.496-.616-3.144-2.229-2.8l-31.18 6.627-4.026.855zm-11.077 74.666a2 2 0 0 0 1.414-1.115l17.817-38.273c.696-1.495-.616-3.143-2.229-2.8l-22.295 4.739a2 2 0 0 0-1.398 1.115L254.59 168.04c-.69 1.488.607 3.128 2.214 2.801zm140.183 21.569c.693-1.495-.618-3.14-2.23-2.797l-35.213 7.485-26.002 5.527-29.345 6.237a20 20 0 0 0-13.987 11.152l-25.714 55.473c-.693 1.495.618 3.14 2.23 2.797l46.13-9.805c1.599-.34 2.908 1.277 2.243 2.77l-2.799 6.287a2 2 0 0 1-1.411 1.142l-52.127 11.08a2 2 0 0 0-1.398 1.115l-13.836 29.847c-.693 1.495.618 3.14 2.23 2.798l35.214-7.485 26.002-5.527 29.344-6.237a20 20 0 0 0 13.987-11.152l27.399-59.107c.693-1.495-.618-3.14-2.23-2.797l-48.073 10.218c-1.598.34-2.908-1.277-2.243-2.77l2.799-6.287a2 2 0 0 1 1.411-1.143l54.07-11.492a2 2 0 0 0 1.398-1.116zm88.656-22.519 35.213-7.485c1.612-.342 2.923 1.303 2.23 2.798l-29.499 63.638a2 2 0 0 1-1.399 1.115l-72 15.304a2 2 0 0 0-1.412 1.143l-2.799 6.287c-.664 1.493.645 3.109 2.243 2.77l66.004-14.03c1.612-.342 2.924 1.302 2.231 2.798l-10.051 21.681a20 20 0 0 1-13.987 11.152l-29.344 6.237-26.002 5.527-35.214 7.485c-1.612.343-2.923-1.302-2.23-2.797l46.682-100.707a20 20 0 0 1 13.987-11.151l29.345-6.238zm-52.085 44.869c-.665 1.493.644 3.11 2.243 2.77l36.745-7.81a2 2 0 0 0 1.404-1.127l2.875-6.303c.681-1.495-.629-3.128-2.236-2.786l-36.821 7.827a2 2 0 0 0-1.411 1.142zm342.868-103.405c.693-1.496-.618-3.14-2.23-2.798l-35.213 7.485-26.002 5.527-29.345 6.237a20 20 0 0 0-13.987 11.152l-25.714 55.473c-.693 1.495.618 3.14 2.23 2.797l46.13-9.805c1.599-.34 2.908 1.277 2.243 2.77l-2.799 6.287a2 2 0 0 1-1.411 1.143l-52.127 11.079a2 2 0 0 0-1.399 1.115l-13.835 29.848c-.693 1.495.618 3.14 2.23 2.797l35.214-7.485 26.002-5.527 29.344-6.237a20 20 0 0 0 13.987-11.152l27.399-59.107c.693-1.495-.618-3.14-2.231-2.797l-48.072 10.218c-1.599.34-2.908-1.277-2.243-2.77l2.799-6.286c.26-.585.785-1.01 1.411-1.143l54.07-11.493a2 2 0 0 0 1.398-1.115zM555.361 257.503l-35.213 7.484c-1.612.343-2.924-1.302-2.231-2.797l31.077-67.04a2 2 0 0 1 1.398-1.115l68.254-14.508a2 2 0 0 0 1.412-1.143l2.799-6.287c.664-1.493-.645-3.109-2.243-2.769l-62.257 13.232c-1.613.343-2.924-1.302-2.231-2.797l8.474-18.279a20 20 0 0 1 13.987-11.152l29.344-6.238 26.002-5.526 35.213-7.485c1.612-.343 2.924 1.302 2.231 2.797l-46.682 100.707a20 20 0 0 1-13.987 11.151l-29.345 6.238zm50.483-47.596c.665-1.493-.644-3.109-2.243-2.77l-36.746 7.811c-.62.132-1.141.55-1.404 1.126l-2.874 6.304c-.681 1.494.629 3.127 2.236 2.786l36.821-7.827a2 2 0 0 0 1.411-1.143z" clip-rule="evenodd"/></mask><path fill="#FEC2FB" fill-rule="evenodd" d="M399.043 27.576a20 20 0 0 1 13.974-11.122l25.443-5.408c1.614-.343 2.925 1.305 2.229 2.8l-21.703 46.622c-.697 1.496.615 3.144 2.229 2.8l30.947-6.577q.002 0 .001.001l.002.002 26.41-5.614c1.612-.342 2.924 1.302 2.231 2.798l-46.683 100.706a20 20 0 0 1-13.987 11.152l-25.431 5.406c-1.613.342-2.924-1.303-2.231-2.798l31.86-68.73c.693-1.495-.619-3.14-2.231-2.797l-21.263 4.52a2 2 0 0 0-1.397 1.112l-30.758 66.071a20 20 0 0 1-13.973 11.122l-25.444 5.409c-1.613.343-2.925-1.305-2.229-2.801zM83.195 94.707A20 20 0 0 1 97.17 83.585l25.443-5.408c1.614-.343 2.925 1.305 2.229 2.8L103.138 127.6c-.697 1.496.615 3.144 2.229 2.801l30.947-6.578q.002-.001.001.001l.002.002 26.41-5.614c1.612-.342 2.924 1.302 2.231 2.798l-46.683 100.706a20 20 0 0 1-13.987 11.152l-25.431 5.406c-1.612.342-2.924-1.303-2.23-2.798l31.859-68.73c.693-1.495-.619-3.14-2.231-2.797l-21.263 4.52a2 2 0 0 0-1.397 1.112l-30.758 66.071a20 20 0 0 1-13.973 11.122l-25.444 5.409c-1.614.343-2.925-1.305-2.229-2.801zm115.828 16.301a20 20 0 0 0-13.987 11.151l-46.683 100.707c-.693 1.495.619 3.14 2.231 2.797l25.432-5.405a20 20 0 0 0 13.987-11.152l46.682-100.707c.693-1.495-.619-3.14-2.231-2.797zm9.289-40.906a20 20 0 0 1 13.945-11.06l25.468-5.414c1.617-.344 2.929 1.31 2.226 2.806l-11.667 24.841a20 20 0 0 1-13.944 11.061l-25.469 5.413c-1.617.344-2.929-1.31-2.226-2.806zm81.678 21.57-7.819 1.662-21.525 4.575a20 20 0 0 0-13.987 11.152l-46.682 100.706c-.693 1.496.618 3.14 2.23 2.798l35.156-7.473a.12.12 0 0 0 .082-.065.12.12 0 0 1 .083-.066l23.002-4.784c1.611-.335 2.915 1.31 2.221 2.802l-5.58 11.986a2 2 0 0 1-1.384 1.109l-52.079 11.439a20 20 0 0 0-13.813 11.033L178.21 263.43c-.705 1.502.619 3.16 2.239 2.804l68.251-14.991 20.022-4.255a20 20 0 0 0 13.974-11.123L354.7 81.192c.696-1.496-.616-3.144-2.229-2.8l-31.18 6.627-4.026.855zm-11.077 74.666a2 2 0 0 0 1.414-1.115l17.817-38.273c.696-1.495-.616-3.143-2.229-2.8l-22.295 4.739a2 2 0 0 0-1.398 1.115L254.59 168.04c-.69 1.488.607 3.128 2.214 2.801zm140.183 21.569c.693-1.495-.618-3.14-2.23-2.797l-35.213 7.485-26.002 5.527-29.345 6.237a20 20 0 0 0-13.987 11.152l-25.714 55.473c-.693 1.495.618 3.14 2.23 2.797l46.13-9.805c1.599-.34 2.908 1.277 2.243 2.77l-2.799 6.287a2 2 0 0 1-1.411 1.142l-52.127 11.08a2 2 0 0 0-1.398 1.115l-13.836 29.847c-.693 1.495.618 3.14 2.23 2.798l35.214-7.485 26.002-5.527 29.344-6.237a20 20 0 0 0 13.987-11.152l27.399-59.107c.693-1.495-.618-3.14-2.23-2.797l-48.073 10.218c-1.598.34-2.908-1.277-2.243-2.77l2.799-6.287a2 2 0 0 1 1.411-1.143l54.07-11.492a2 2 0 0 0 1.398-1.116zm88.656-22.519 35.213-7.485c1.612-.342 2.923 1.303 2.23 2.798l-29.499 63.638a2 2 0 0 1-1.399 1.115l-72 15.304a2 2 0 0 0-1.412 1.143l-2.799 6.287c-.664 1.493.645 3.109 2.243 2.77l66.004-14.03c1.612-.342 2.924 1.302 2.231 2.798l-10.051 21.681a20 20 0 0 1-13.987 11.152l-29.344 6.237-26.002 5.527-35.214 7.485c-1.612.343-2.923-1.302-2.23-2.797l46.682-100.707a20 20 0 0 1 13.987-11.151l29.345-6.238zm-52.085 44.869c-.665 1.493.644 3.11 2.243 2.77l36.745-7.81a2 2 0 0 0 1.404-1.127l2.875-6.303c.681-1.495-.629-3.128-2.236-2.786l-36.821 7.827a2 2 0 0 0-1.411 1.142zm342.868-103.405c.693-1.496-.618-3.14-2.23-2.798l-35.213 7.485-26.002 5.527-29.345 6.237a20 20 0 0 0-13.987 11.152l-25.714 55.473c-.693 1.495.618 3.14 2.23 2.797l46.13-9.805c1.599-.34 2.908 1.277 2.243 2.77l-2.799 6.287a2 2 0 0 1-1.411 1.143l-52.127 11.079a2 2 0 0 0-1.399 1.115l-13.835 29.848c-.693 1.495.618 3.14 2.23 2.797l35.214-7.485 26.002-5.527 29.344-6.237a20 20 0 0 0 13.987-11.152l27.399-59.107c.693-1.495-.618-3.14-2.231-2.797l-48.072 10.218c-1.599.34-2.908-1.277-2.243-2.77l2.799-6.286c.26-.585.785-1.01 1.411-1.143l54.07-11.493a2 2 0 0 0 1.398-1.115zM555.361 257.503l-35.213 7.484c-1.612.343-2.924-1.302-2.231-2.797l31.077-67.04a2 2 0 0 1 1.398-1.115l68.254-14.508a2 2 0 0 0 1.412-1.143l2.799-6.287c.664-1.493-.645-3.109-2.243-2.769l-62.257 13.232c-1.613.343-2.924-1.302-2.231-2.797l8.474-18.279a20 20 0 0 1 13.987-11.152l29.344-6.238 26.002-5.526 35.213-7.485c1.612-.343 2.924 1.302 2.231 2.797l-46.682 100.707a20 20 0 0 1-13.987 11.151l-29.345 6.238zm50.483-47.596c.665-1.493-.644-3.109-2.243-2.77l-36.746 7.811c-.62.132-1.141.55-1.404 1.126l-2.874 6.304c-.681 1.494.629 3.127 2.236 2.786l36.821-7.827a2 2 0 0 0 1.411-1.143z" clip-rule="evenodd"/><path fill="url(#c)" d="m413.017 16.454-2.08-9.781zm-13.974 11.122-9.066-4.22zm35.08 127.008 9.073 4.206zm-13.987 11.152 2.08 9.781zm-51.451 2.784-9.066-4.22zm-13.973 11.122 2.079 9.782zM97.169 83.585l-2.08-9.781zM83.194 94.707l9.066 4.22zm35.08 127.008 9.073 4.206zm-13.987 11.152 2.08 9.781zm-51.45 2.784 9.065 4.22zm-13.974 11.122-2.08-9.781zm146.172-124.614 9.072 4.206zm13.987-11.151 2.079 9.781zm-33.007 109.25 2.079 9.781zm13.987-11.152-9.073-4.206zm42.254-150.065-2.08-9.781zm-13.945 11.061 9.051 4.251zm29.972 11.173-9.051-4.25zM224.34 92.336l2.079 9.781zm57.831.998 2.08 9.781zm7.819-1.662-2.079-9.782zm-29.344 6.237 2.079 9.782zm-13.987 11.152-9.073-4.206zm-42.951 118.452-2.145-9.767zm-13.813 11.033 9.052 4.251zm58.805 12.697-2.079-9.781-.033.007-.033.007zm20.022-4.255 2.079 9.781zm13.974-11.123 9.066 4.221zm38.595-150.846 2.079 9.781zm-4.026.855-2.079-9.781zm64.388 106.721 2.079 9.781zm-26.002 5.527-2.079-9.782zm-29.345 6.237-2.079-9.781zm-13.987 11.152-9.072-4.206h-.001zm-9.238 96.019 2.079 9.781zm26.002-5.527-2.079-9.782zm29.344-6.237 2.079 9.781zm13.987-11.152 9.073 4.205zm135.338-123.226 2.079 9.782zm-9.239 96.019 9.073 4.206zm-13.987 11.152 2.079 9.782zm-29.344 6.237 2.079 9.782zm-26.002 5.527-2.079-9.781zm9.238-96.019-9.072-4.205h-.001zm13.987-11.151 2.079 9.781zm29.345-6.238 2.079 9.782zm279.342-59.376-2.08-9.781zm-26.002 5.527 2.079 9.781zm-29.345 6.237 2.079 9.782zm-13.987 11.152 9.073 4.206zm-9.238 96.019 2.079 9.782zm26.002-5.527-2.079-9.781zm29.344-6.237-2.079-9.782zm13.987-11.152-9.072-4.206v.001zm-196.492 49.945-2.079-9.782zm9.239-96.019-9.073-4.206zm13.987-11.152 2.079 9.781zm29.344-6.238 2.079 9.782zm26.002-5.526-2.079-9.782zm-9.238 96.019-9.073-4.206zm-13.987 11.151 2.079 9.782zm-29.345 6.238 2.079 9.781zm-18.786-29.598-9.098-4.149zm2.236 2.786-2.079-9.782zm41.031-15.257-9.135-4.067zm63.302-78.824-2.079-9.782zm2.231 2.797-9.073-4.205zm-122.383 61.27 9.072 4.205zm1.398-1.115-2.079-9.782zm94.684 41.127 9.073 4.205zm2.23 2.797-2.079-9.782zm18.738-48.031 9.073 4.205zm-167.11 7.859 9.098 4.149zm-2.236-2.786 2.079 9.781zm-38.788 18.026-2.08-9.782zm-2.243-2.77 9.135 4.068zm38.988-5.04-2.079-9.782zm1.404-1.127 9.099 4.149zm-102.093 87.718 2.08 9.782zm-2.23-2.797 9.073 4.205zm114.597-52.083 2.08 9.782zm2.231 2.798-9.073-4.206zm-70.478 8.462 9.136 4.067zm2.243 2.77-2.079-9.782zm75.367-26.619-9.072-4.206zm-1.399 1.115-2.079-9.781zm-108.75-10.218 2.079 9.781zm1.398-1.116-9.072-4.205zm-56.879 13.751-9.135-4.067zm1.411-1.143-2.079-9.781zm48.336 2.779 9.073 4.206zm-2.23-2.797-2.08-9.782zm-62.618 37.266-2.079-9.782zm2.243 2.77-9.135-4.068zm-50.603 4.238-9.073-4.206zm2.23 2.797 2.079 9.781zM254.59 168.04l-9.073-4.206zm2.214 2.801-1.996-9.799zm16.816-41.952-2.079-9.782zm-1.398 1.115 9.072 4.205zm25.922-3.054 9.066 4.22zm-2.229-2.8 2.079 9.781zm-58.387 80.811 2.036 9.791zm-.165.131-2.079-9.781zm-37.386 4.675-9.073-4.205zm2.23 2.798 2.079 9.781zm240.09 28.193-2.08-9.781zm-1.412 1.143 9.136 4.067zm160.749-24.564 2.079 9.781zm1.411-1.143-9.135-4.067zM247.725 53.628l2.079 9.781zm2.226 2.806-9.051-4.25zm293.014 101.469 2.079 9.782zm2.23 2.798 9.073 4.205zm21.66 54.247-2.079-9.782zm-1.404 1.126-9.098-4.148zM226.685 108.399l-9.073-4.205zm-2.231-2.797-2.079-9.782zm109.955 167.431-9.135-4.068zm-1.411 1.142-2.079-9.781zm285.648-94.648 2.079 9.781zm1.412-1.143-9.136-4.067zM78.857 238.273l-2.08-9.782zm441.291 26.714-2.079-9.781zm-2.231-2.797-9.072-4.206zM164.958 121.009l-9.073-4.206zm620.028 13.171-2.08-9.782zm1.398-1.115-9.072-4.206zm-650.067-9.24 2.079 9.781zm593.188 22.991 9.135 4.067zm1.411-1.143 2.079 9.781zm-594.602-21.851 2.079 9.781zm62.557-26.073-2.079-9.781zm-2.226-2.806 9.051 4.251zm220.221 90.167-2.079-9.781zm2.23 2.797 9.073 4.206zm307.61-34.805-9.136-4.067zm-623.568-25.503-9.066-4.22zm2.229 2.801-2.079-9.782zm554.943 73.799-2.079-9.781zm-1.399 1.115 9.073 4.206zM400.84 101.337l2.079 9.781zm-1.397 1.112-9.066-4.22zM354.7 81.192l-9.066-4.22zm-2.229-2.8 2.079 9.78zm361.377 113.585-9.136-4.068zm-1.411 1.143 2.079 9.781zM424.334 99.614l-9.073-4.205zm-2.231-2.797 2.079 9.781zM349.51 236.928l-2.079-9.782zm-2.243-2.77-9.135-4.067zm-208.914-11.292 9.073 4.205zm2.231 2.797-2.079-9.781zm573.82-42.743-2.079-9.781zm2.243 2.77 9.135 4.067zm-321.942-14.548-2.08-9.782zm-2.231-2.798 9.073 4.206zm386.778-19.893-9.073-4.205zm-2.231-2.797 2.08 9.782zM122.612 78.177l2.079 9.781zm2.229 2.8 9.066 4.22zM13.421 252.182l2.078 9.781zM178.21 263.43l9.052 4.251zm2.239 2.804-2.145-9.767zM480.806 53.878l9.072 4.205zm-28.641 2.816 2.079 9.781zm344.14 47.36-2.079-9.781zm2.23 2.798 9.073 4.205zM452.162 56.691l2.079 9.781zM280.327 165.223l9.066 4.22zm-1.414 1.115-1.996-9.798zm50.355 18.713 2.079 9.781zm-2.229-2.801-9.066-4.22zm-61.402 133.967-9.073-4.205zm292.72-133.657-2.08-9.781zm-2.231-2.797 9.073 4.206zM84.992 168.468l2.08 9.781zm-1.397 1.112 9.066 4.22zm173.576 45.385 9.066 4.22zm-1.384 1.109-2.145-9.767zM418.986 60.468l-9.066-4.22zm2.229 2.8 2.079 9.782zM280.871 285.256l2.079 9.781zm-1.398 1.115-9.073-4.205zm343.384-114.273 9.135 4.068zm-2.243-2.769-2.079-9.782zm-512.128-2.583 9.072 4.206zm-2.231-2.797-2.079-9.781zm154.275 36.229 2.037 9.79zm2.221 2.802 9.065 4.22zm197.126-.151 2.079 9.781zm-1.411 1.142-9.136-4.067zM440.689 13.846l9.066 4.22zm-29.752-7.173a30 30 0 0 0-20.96 16.683l18.132 8.44a10 10 0 0 1 6.987-5.56zm25.444-5.409-25.444 5.409 4.159 19.562 25.443-5.408zm-8.33 63.425 21.704-46.622-18.132-8.441-21.703 46.622zm22.032-17.78-30.948 6.578 4.159 19.563 30.947-6.578zm26.413-5.61-26.41 5.614 4.158 19.563 26.41-5.614zm-33.3 117.491 46.682-100.707-18.145-8.41-46.682 100.706zm-20.98 16.727a30 30 0 0 0 20.98-16.727l-18.145-8.411a10 10 0 0 1-6.994 5.575zm-25.432 5.406 25.432-5.406-4.159-19.563-25.432 5.406zm18.477-85.514-31.859 68.73 18.145 8.411 31.859-68.73zm-12.342 15.709 21.263-4.52-4.158-19.562-21.263 4.52zm-25.168 61.622 30.758-66.071-18.132-8.44-30.758 66.071zm-20.96 16.684a30 30 0 0 0 20.96-16.684l-18.132-8.44a10 10 0 0 1-6.986 5.561zm-25.444 5.408 25.444-5.408-4.158-19.563-25.444 5.408zm58.63-171.476L317.973 178.03l18.132 8.441 72.004-154.674zM95.089 73.804a30 30 0 0 0-20.96 16.683l18.132 8.44a10 10 0 0 1 6.987-5.56zm25.444-5.409-25.444 5.409 4.159 19.563 25.443-5.409zm-8.33 63.425 21.704-46.622-18.132-8.441-21.703 46.622zm22.032-17.78-30.947 6.578 4.158 19.563 30.947-6.578zm26.413-5.61-26.41 5.614 4.158 19.562 26.41-5.613zm-33.3 117.491 46.682-100.707-18.145-8.411-46.682 100.707zm-20.98 16.727a30 30 0 0 0 20.98-16.727l-18.145-8.411a10 10 0 0 1-6.994 5.575zm-25.432 5.406 25.432-5.406-4.159-19.563-25.432 5.406zm18.477-85.514-31.86 68.73 18.146 8.411 31.859-68.73zM87.07 178.249l21.263-4.52-4.158-19.562-21.263 4.519zm-25.168 61.622L92.661 173.8l-18.132-8.44-30.758 66.071zm-20.96 16.684a30 30 0 0 0 20.96-16.684l-18.132-8.44a10 10 0 0 1-6.986 5.561zm-25.444 5.408 25.444-5.408-4.158-19.563L11.34 242.4zM74.13 90.487 2.125 245.161l18.132 8.441L92.26 98.928zm119.979 35.878a10 10 0 0 1 6.994-5.576l-4.159-19.563a30 30 0 0 0-20.98 16.728zm-46.682 100.706 46.682-100.706-18.145-8.411-46.682 100.706zm16.511-16.595-25.432 5.406 4.158 19.563 25.432-5.406zm6.993-5.576a10 10 0 0 1-6.993 5.576l4.158 19.563a30 30 0 0 0 20.98-16.728zm46.682-100.706L170.93 204.9l18.145 8.411 46.682-100.706zm-16.51 16.595 25.432-5.406-4.159-19.563-25.432 5.406zm19.075-71.53a30 30 0 0 0-20.916 16.592l18.102 8.502a10 10 0 0 1 6.973-5.53zm25.469-5.413-25.469 5.414 4.159 19.563 25.468-5.414zm1.689 41.68 11.668-24.84-18.103-8.503-11.667 24.841zm-20.916 16.591a30 30 0 0 0 20.916-16.59l-18.102-8.503a10 10 0 0 1-6.973 5.53zm-25.469 5.414 25.469-5.414-4.159-19.562-25.468 5.413zm-1.689-41.68-11.667 24.84 18.102 8.503 11.667-24.84zm84.99 37.264 7.818-1.662-4.158-19.563-7.819 1.662zm-21.526 4.576 21.526-4.576-4.159-19.563-21.525 4.576zm-6.994 5.576a10 10 0 0 1 6.994-5.576l-4.158-19.563a30 30 0 0 0-20.981 16.727zm-46.682 100.706 46.682-100.706-18.145-8.412-46.682 100.707zm26.235-18.662-35.156 7.472 4.158 19.563 35.156-7.472zm23.21-4.925-23.003 4.785 4.073 19.581 23.003-4.785zm7.743 28.799 5.579-11.986-18.131-8.44-5.58 11.986zm-60.384 18.095 52.079-11.438-4.29-19.535-52.079 11.439zm-6.906 5.517a10 10 0 0 1 6.906-5.517l-4.29-19.534a30 30 0 0 0-20.72 16.55zm-11.685 24.884 11.685-24.884-18.104-8.501-11.685 24.884zm59.293-26.205-68.251 14.991 4.29 19.534 68.252-14.99zm20.088-4.27-20.022 4.256 4.159 19.563 20.021-4.256zm6.987-5.561a10 10 0 0 1-6.987 5.561l4.158 19.563a30 30 0 0 0 20.961-16.683zm72.004-154.674L273.63 231.645l18.132 8.441 72.004-154.674zm-22.264 17.83 31.18-6.628-4.158-19.563-31.18 6.627zm-4.025.855 4.025-.856-4.158-19.563-4.026.856zm-27.276 5.797 27.276-5.797-4.159-19.563-27.275 5.797zm-2.991 21.277-17.817 38.272 18.132 8.441 17.817-38.273zm-13.379 15.94 22.295-4.739-4.158-19.563-22.295 4.739zm-12.036 33.576 17.631-38.037-18.145-8.411-17.632 38.036zm13.254-15.706-22.109 4.502 3.991 19.598 22.109-4.503zm106.815 45.836 35.213-7.485-4.158-19.562-35.213 7.484zm-26.002 5.527 26.002-5.527-4.158-19.563-26.002 5.527zm-29.345 6.238 29.345-6.238-4.158-19.563-29.345 6.238zm-6.993 5.575a10 10 0 0 1 6.993-5.575l-4.158-19.563a30 30 0 0 0-20.98 16.727zm-25.714 55.473 25.714-55.473-18.146-8.411-25.714 55.473zm37.208-20.995-46.13 9.805 4.158 19.563 46.13-9.805zm10.659 22.906 2.799-6.287-18.271-8.135-2.799 6.287zm-60.595 17.936 52.127-11.079-4.158-19.563-52.127 11.08zm-8.24 25.387 13.835-29.847-18.145-8.411-13.836 29.847zm26.292-18.675-35.214 7.485 4.159 19.563 35.213-7.485zm26.002-5.527-26.002 5.527 4.158 19.563 26.002-5.527zm29.344-6.237-29.344 6.237 4.158 19.563 29.344-6.237zm6.994-5.576a10 10 0 0 1-6.994 5.576l4.158 19.563a30 30 0 0 0 20.981-16.728zm27.398-59.106-27.398 59.106 18.145 8.411 27.399-59.106zm-39.151 21.407 48.073-10.218-4.159-19.563-48.072 10.218zm-10.658-22.905-2.799 6.287 18.271 8.134 2.799-6.286zm62.537-18.35-54.07 11.493 4.159 19.563 54.069-11.493zm6.556-21.752-12.151 26.213 18.145 8.411 12.151-26.213zm130.862-35.58-35.213 7.485 4.158 19.563 35.213-7.485zm-16.117 80.423 29.499-63.639-18.145-8.411-29.499 63.638zm-80.393 21.995 72.001-15.304-4.159-19.563-72.001 15.304zm2.846 1.715 2.799-6.287-18.271-8.134-2.799 6.286zm57.032-25.108-66.004 14.029 4.158 19.563 66.005-14.029zm3.332 38.466 10.05-21.682-18.145-8.411-10.05 21.682zm-20.981 16.728a30 30 0 0 0 20.981-16.728l-18.145-8.411a10 10 0 0 1-6.994 5.576zm-29.344 6.237 29.344-6.237-4.158-19.563-29.344 6.237zm-26.002 5.527 26.002-5.527-4.158-19.563-26.002 5.527zm-35.213 7.485 35.213-7.485-4.158-19.563-35.214 7.485zm33.299-117.491-46.682 100.706 18.146 8.411 46.682-100.706zm20.981-16.728a30 30 0 0 0-20.98 16.728l18.145 8.411a10 10 0 0 1 6.993-5.576zm29.345-6.237-29.345 6.237 4.158 19.563 29.345-6.237zm26.002-5.527-26.002 5.527 4.158 19.563 26.002-5.527zm-13.097 39.828-36.746 7.81 4.159 19.563 36.746-7.81zm-2.741-1.797-2.874 6.303 18.197 8.298 2.874-6.303zm-27.879 18.971 36.821-7.827-4.158-19.563-36.821 7.827zm2.846 1.716 2.799-6.287-18.271-8.135-2.799 6.287zm298.369-93.004 35.213-7.485-4.158-19.563-35.214 7.485zm-26.002 5.526 26.002-5.526-4.159-19.563-26.002 5.527zm-29.345 6.238 29.345-6.238-4.159-19.562-29.344 6.237zm-6.993 5.576a10 10 0 0 1 6.993-5.576l-4.158-19.563a30 30 0 0 0-20.981 16.728zm-25.714 55.472 25.714-55.472-18.146-8.411-25.714 55.472zm37.208-20.994-46.13 9.805 4.158 19.563 46.13-9.805zm10.658 22.905 2.799-6.287-18.27-8.134-2.8 6.286zm-60.594 17.937 52.127-11.08-4.158-19.563-52.127 11.08zm-8.24 25.386 13.835-29.847-18.145-8.411-13.836 29.847zm26.292-18.674-35.214 7.484 4.158 19.563 35.214-7.484zm26.002-5.527-26.002 5.527 4.158 19.563 26.002-5.527zm29.344-6.238-29.344 6.238 4.158 19.563 29.344-6.238zm6.994-5.575a10 10 0 0 1-6.994 5.575l4.158 19.563a30 30 0 0 0 20.981-16.727zm27.398-59.107-27.398 59.106 18.145 8.412 27.398-59.107zm-39.151 21.408 48.073-10.218-4.159-19.563-48.072 10.218zm-10.658-22.906-2.8 6.287 18.271 8.135 2.799-6.287zm62.536-18.35-54.069 11.493 4.158 19.563 54.07-11.493zm6.557-21.752-12.151 26.213 18.145 8.411 12.151-26.213zM522.227 274.769l35.213-7.485-4.158-19.563-35.213 7.485zm17.694-83.825-31.076 67.04 18.145 8.412 31.076-67.041zm76.646-21.199-68.254 14.508 4.159 19.563 68.253-14.508zm-2.846-1.715-2.799 6.287 18.271 8.135 2.799-6.287zm-53.285 24.312 62.257-13.233-4.158-19.563-62.258 13.233zm-4.909-35.064-8.473 18.279 18.145 8.412 8.473-18.28zm20.981-16.728a30 30 0 0 0-20.981 16.728l18.145 8.411a10 10 0 0 1 6.994-5.576zm29.344-6.237-29.344 6.237 4.158 19.563 29.344-6.237zm26.002-5.527-26.002 5.527 4.158 19.563 26.002-5.527zm35.213-7.485-35.213 7.485 4.158 19.563 35.214-7.485zm-33.3 117.491 46.682-100.706-18.145-8.411-46.682 100.706zm-20.98 16.728a30 30 0 0 0 20.98-16.728l-18.145-8.411a10 10 0 0 1-6.993 5.576zm-29.345 6.237 29.345-6.237-4.158-19.563-29.345 6.237zm-26.002 5.527 26.002-5.527-4.158-19.563-26.002 5.527zm11.494-42.555 36.746-7.81-4.158-19.563-36.746 7.81zm2.742 1.798 2.874-6.304-18.197-8.297-2.874 6.303zm27.879-18.972-36.821 7.827 4.158 19.563 36.821-7.827zm-2.846-1.715-2.799 6.287 18.271 8.134 2.799-6.286zm-43.23 12.389c-4.089 8.966 3.774 18.765 13.413 16.716l-4.158-19.563c6.425-1.366 11.667 5.167 8.942 11.145zm52.201-1.31c-6.393 1.359-11.63-5.108-8.971-11.079l18.271 8.135c3.988-8.958-3.867-18.657-13.458-16.619zm65.546-76.055c-6.449 1.371-11.694-5.208-8.922-11.189l18.145 8.411c4.159-8.972-3.709-18.841-13.382-16.785zm-113.16 58.491a8 8 0 0 1-5.594 4.461l-4.159-19.563a12 12 0 0 0-8.392 6.691zm77.937 31.601c-4.158 8.971 3.71 18.84 13.382 16.784l-4.158-19.563c6.449-1.37 11.694 5.209 8.922 11.19zm20.968-45.234c-4.159 8.972 3.71 18.841 13.382 16.785l-4.158-19.563c6.448-1.371 11.694 5.208 8.922 11.189zm-148.939 16.214c4.089-8.966-3.774-18.766-13.413-16.717l4.158 19.563c-6.426 1.366-11.668-5.167-8.942-11.144zm-52.202 1.309c6.394-1.359 11.631 5.108 8.972 11.08l-18.271-8.135c-3.988 8.957 3.867 18.657 13.458 16.618zm40.905 11.753a12 12 0 0 0 8.423-6.759l-18.197-8.298a8 8 0 0 1 5.615-4.506zm-104.848 67.029c6.449-1.371 11.694 5.208 8.922 11.189l-18.146-8.411c-4.158 8.972 3.71 18.841 13.383 16.785zm116.526-35.317c-6.449 1.37-11.694-5.209-8.922-11.19l18.145 8.411c4.159-8.971-3.709-18.84-13.382-16.784zm-79.462-2.59c-3.988 8.958 3.867 18.658 13.457 16.619l-4.158-19.563c6.394-1.359 11.63 5.108 8.972 11.079zm77.673-23.987a8 8 0 0 1 5.594-4.46l4.159 19.563a12 12 0 0 0 8.392-6.691zm-98.998 4.884a12 12 0 0 0 8.392-6.691l-18.145-8.411a8 8 0 0 1 5.595-4.461zm-48.424 6.922a8 8 0 0 1-5.645 4.571l-4.159-19.563a12 12 0 0 0-8.467 6.857zm49.684 1.774c4.158-8.972-3.71-18.841-13.383-16.785l4.159 19.563c-6.449 1.371-11.694-5.208-8.922-11.189zm-71.842 40.044c-6.393 1.359-11.63-5.107-8.971-11.079l18.271 8.135c3.988-8.957-3.867-18.657-13.458-16.619zm-59.512-6.979c-4.158 8.972 3.71 18.84 13.382 16.784l-4.158-19.563c6.448-1.37 11.694 5.209 8.922 11.19zm-32.015-102.944c-4.138 8.929 3.639 18.77 13.282 16.806l-3.991-19.598c6.429-1.309 11.614 5.251 8.855 11.204zm26.024-44.727a12 12 0 0 0-8.392 6.691l18.145 8.411a8 8 0 0 1-5.595 4.461zm35.669 12.063c4.177-8.972-3.693-18.859-13.374-16.802l4.158 19.563c-6.454 1.372-11.701-5.219-8.916-11.201zm-60.692 78.063a9.89 9.89 0 0 1-6.954 5.519l-4.073-19.581a10.11 10.11 0 0 0-7.118 5.65zm-7.076 5.641a10.12 10.12 0 0 0 7.076-5.641l-18.145-8.412a9.88 9.88 0 0 1 6.911-5.51zm-48.538-9.312c-4.159 8.971 3.71 18.84 13.382 16.784l-4.158-19.563c6.448-1.37 11.694 5.209 8.921 11.19zm249.313 25.415a12 12 0 0 0-8.467 6.857l18.271 8.134a8 8 0 0 1-5.645 4.572zm163.496-3.859a12 12 0 0 0 8.468-6.857l-18.271-8.134a8 8 0 0 1 5.645-4.572zM249.804 63.409c-6.466 1.375-11.715-5.242-8.904-11.226l18.103 8.503c4.215-8.976-3.657-18.901-13.357-16.84zm295.24 104.276c-6.448 1.371-11.694-5.209-8.921-11.19l18.145 8.411c4.159-8.971-3.71-18.84-13.382-16.784zm19.732 37.481a12 12 0 0 0-8.423 6.76l18.197 8.297a8 8 0 0 1-5.616 4.506zm-329.019-92.561c4.159-8.972-3.709-18.84-13.382-16.785l4.159 19.563c-6.449 1.371-11.694-5.208-8.922-11.189zm89.517 156.36a8 8 0 0 1 5.645-4.571l4.158 19.563a12 12 0 0 0 8.468-6.857zm295.451-79.657a12 12 0 0 0 8.468-6.856l-18.271-8.135a8 8 0 0 1 5.645-4.572zM76.777 228.491c6.449-1.371 11.694 5.209 8.922 11.19l-18.145-8.411c-4.16 8.971 3.71 18.84 13.382 16.784zm441.292 26.715c6.448-1.371 11.694 5.209 8.921 11.19l-18.145-8.412c-4.159 8.972 3.71 18.841 13.382 16.785zM164.806 127.993c-6.448 1.37-11.694-5.209-8.921-11.19l18.145 8.411c4.159-8.971-3.71-18.84-13.382-16.784zm622.259 15.968a12 12 0 0 0 8.392-6.691l-18.145-8.411a8 8 0 0 1 5.594-4.461zm-659.8-24.39c-3.513 7.476 3.041 15.755 11.131 14.035l-4.158-19.562c8.087-1.72 14.64 6.558 11.128 14.032zm611.375 31.312a8 8 0 0 1-5.645 4.571l-4.158-19.563a12 12 0 0 0-8.467 6.857zm-600.247-17.28c-8.083 1.718-14.643-6.553-11.128-14.032l18.101 8.505c3.515-7.481-3.046-15.754-11.131-14.036zm58.399-45.635c6.466-1.374 11.715 5.242 8.904 11.226l-18.102-8.502c-4.216 8.975 3.656 18.901 13.356 16.839zm222.153 106.923c-6.448 1.371-11.694-5.208-8.921-11.189l18.145 8.411c4.159-8.972-3.71-18.84-13.382-16.784zm307.925-48.8c6.393-1.359 11.63 5.107 8.971 11.079l-18.271-8.135c-3.988 8.957 3.867 18.657 13.458 16.619zM94.072 123.379c-4.177 8.973 3.692 18.86 13.374 16.802l-4.158-19.563c6.454-1.372 11.7 5.22 8.915 11.202zm564.159 71.039a12 12 0 0 0-8.392 6.691l18.145 8.411a8 8 0 0 1-5.595 4.461zM398.761 91.555a12 12 0 0 0-8.384 6.673l18.132 8.441a8 8 0 0 1-5.59 4.449zm-34.995-6.143c4.177-8.973-3.693-18.86-13.374-16.802l4.158 19.563c-6.454 1.371-11.701-5.22-8.916-11.202zm340.946 102.497a8 8 0 0 1 5.646-4.571l4.158 19.563a12 12 0 0 0 8.467-6.857zM433.406 103.82c4.159-8.972-3.709-18.84-13.382-16.784l4.158 19.562c-6.448 1.371-11.694-5.208-8.921-11.19zm-85.975 123.326c6.394-1.359 11.63 5.108 8.972 11.079l-18.271-8.134c-3.988 8.957 3.867 18.657 13.457 16.618zm-218.15-8.486c-4.159 8.972 3.709 18.841 13.382 16.785l-4.158-19.563c6.448-1.371 11.694 5.208 8.921 11.189zm587.202-25.958c-6.394 1.359-11.63-5.108-8.971-11.079l18.27 8.134c3.988-8.957-3.866-18.657-13.457-16.618zM392.625 161.36c6.449-1.371 11.694 5.209 8.922 11.19l-18.145-8.411c-4.159 8.971 3.709 18.84 13.382 16.784zm395.699-8.703c4.159-8.971-3.709-18.84-13.382-16.784l4.159 19.563c-6.449 1.37-11.694-5.209-8.922-11.19zM124.691 87.958c-6.454 1.372-11.7-5.22-8.916-11.201l18.132 8.44c4.177-8.972-3.693-18.86-13.374-16.802zM11.341 242.4c6.454-1.372 11.7 5.22 8.916 11.202l-18.132-8.441c-4.177 8.973 3.693 18.86 13.374 16.802zm157.817 16.78c-4.231 9.009 3.715 18.956 13.436 16.821l-4.29-19.534c6.481-1.424 11.778 5.207 8.958 11.214zM480.654 60.862c-6.448 1.37-11.694-5.209-8.921-11.19l18.145 8.411c4.159-8.971-3.71-18.84-13.382-16.784zm-37.547-8.41c-3.499 7.473 3.05 15.742 11.137 14.023l-4.158-19.562c8.084-1.719 14.631 6.549 11.134 14.02zm355.277 61.384c-6.448 1.37-11.694-5.209-8.921-11.19l18.145 8.411c4.159-8.971-3.71-18.84-13.382-16.784zM454.241 66.472c-8.076 1.717-14.635-6.542-11.134-14.02l18.113 8.48c3.502-7.48-3.059-15.74-11.137-14.023zm-182.98 94.53a8 8 0 0 1 5.656-4.462l3.991 19.597a12 12 0 0 0 8.485-6.694zm55.928 14.267c6.454-1.372 11.701 5.22 8.916 11.202l-18.132-8.441c-4.177 8.973 3.693 18.86 13.374 16.802zm-70.625 136.743c-4.158 8.971 3.71 18.84 13.383 16.784l-4.159-19.563c6.449-1.37 11.694 5.209 8.922 11.19zm299.713-139.233c6.449-1.371 11.694 5.209 8.922 11.19l-18.145-8.412c-4.159 8.972 3.709 18.841 13.382 16.785zM82.913 158.686a12 12 0 0 0-8.384 6.674l18.132 8.44a8 8 0 0 1-5.59 4.449zm165.192 52.059a8 8 0 0 1 5.537-4.438l4.29 19.535a12 12 0 0 0 8.305-6.657zM409.92 56.248c-4.177 8.973 3.692 18.86 13.374 16.802l-4.159-19.563c6.455-1.372 11.701 5.22 8.916 11.202zM278.792 275.474a12 12 0 0 0-8.392 6.691l18.145 8.411a8 8 0 0 1-5.595 4.46zm353.2-99.309c3.988-8.957-3.867-18.657-13.457-16.619l4.158 19.563c-6.394 1.359-11.63-5.108-8.972-11.079zm-514.434-5.214c4.159-8.972-3.709-18.84-13.382-16.784l4.158 19.562c-6.448 1.371-11.693-5.208-8.921-11.189zm145.009 39.016c-6.445 1.341-11.66-5.241-8.882-11.208l18.131 8.44c4.167-8.951-3.656-18.823-13.322-16.813zm195.231-16.921a12 12 0 0 0-8.468 6.857l18.271 8.135a8 8 0 0 1-5.645 4.571zM440.539 20.827c-6.454 1.372-11.7-5.22-8.916-11.201l18.132 8.44c4.177-8.972-3.693-18.86-13.374-16.802z" mask="url(#d)"/><defs><linearGradient id="a" x1="408.862" x2="408.862" y1="15" y2="323.06" gradientUnits="userSpaceOnUse"><stop offset=".495" stop-color="#003146"/><stop offset="1" stop-color="#3449AD"/></linearGradient><linearGradient id="c" x1="404.862" x2="404.862" y1="11" y2="319.06" gradientUnits="userSpaceOnUse"><stop offset=".495" stop-color="#003146"/><stop offset="1" stop-color="#3449AD"/></linearGradient></defs></svg>