<svg xmlns="http://www.w3.org/2000/svg" width="706" height="341" fill="none"><path fill="#48BBFE" fill-opacity=".41" d="M19.313 306.669 5.81 334.987a1 1 0 0 0 .858 1.43l20.741.927q.105.005.208-.012l23.936-3.966q.103-.017.208-.012l66.957 2.995 67.061-5.5 116.24 5.5c7.451 0 23.606-.6 28.613-3 4.969-2.382 12.697-1.021 16.019-.023a1 1 0 0 0 .157.034l22.171 2.975a1 1 0 0 0 .204.007l41.923-2.993 126.888 2.998q.082.001.162-.009l21.253-2.971a1 1 0 0 1 .253-.003l25.703 2.973a1 1 0 0 0 .202.003l33.877-2.991 57.095 2.993a1 1 0 0 0 .258-.02l13.911-2.917a1 1 0 0 0 .47-.241l9.309-8.518a1 1 0 0 0 .325-.737v-14.338a1 1 0 0 0-.094-.423l-5.178-11.098a1 1 0 0 1-.093-.423v-30.515c0-.172.044-.342.129-.492l4.976-8.811a1 1 0 0 0 .027-.933l-9.435-19.184a1 1 0 0 1-.065-.711l4.331-15.5q.037-.131.037-.269v-50.6c0-.172.044-.342.129-.492l4.988-8.832a1 1 0 0 0 .042-.899l-4.99-11.161a1 1 0 0 1-.021-.766l5.141-13.415c.05-.13.072-.27.065-.409l-5.341-103.54a1 1 0 0 1 .092-.474l5.013-10.745a1 1 0 0 0-.093-1.005l-4.839-6.764a1 1 0 0 1-.186-.582V7.124a1 1 0 0 0-.75-.968l-10.67-2.754a1 1 0 0 0-.412-.019l-36.32 5.944a1 1 0 0 1-.266.008l-56.976-5.974a1 1 0 0 0-.229.003c-7.799 1.007-24.594 3.29-30.289 4.485-5.67 1.19-16.49-1.45-21.327-2.958a1 1 0 0 0-.275-.045L469.31 3.351a1 1 0 0 0-.168.01L438.824 7.85 358.49 9.347a1 1 0 0 1-.275-.034l-16.728-4.43a1 1 0 0 0-.256-.034h-61.567c-3.874.5-12.16 1.5-14.306 1.5-2.099 0-8.928-1.912-12.295-2.932a1 1 0 0 0-.455-.029l-26.495 4.445q-.098.015-.197.013L80.268 3.35 37.467 6.341a1 1 0 0 1-.235-.011l-16.84-2.826a1 1 0 0 0-1.14.76L16.834 14.63a1 1 0 0 1-.19.395l-2.817 3.543a1 1 0 0 0 .159 1.404l4.622 3.692a1 1 0 0 1 .097 1.475l-5.104 5.3a1 1 0 0 0-.243.959l3.39 12.32q.035.13.035.266v30.767q0 .097.02.195l2.634 13.258a1 1 0 0 1 .014.292l-2.668 27.353c-1.192 6.667-3.576 20.7-3.576 23.5 0 2.775 4.096 21.487 6.2 30.746a1 1 0 0 1-.02.509l-6.11 20.014a1 1 0 0 0-.028.469l6.17 34.5c.03.172.016.349-.043.513l-6.066 16.961a1 1 0 0 0-.028.584l3.45 13.506q.05.198.02.401l-3.515 22.602a1 1 0 0 0 .016.387l6.13 25.464a1 1 0 0 1-.07.664"/><path fill="url(#a)" fill-opacity=".41" d="M15.112 37.307.723 9.124a.98.98 0 0 1 .813-1.437l20.71-1.13q.105-.005.208.01L46.51 10.3q.105.015.209.01l66.853-3.646 67.223 4.846 116.05-6.63c7.45-.072 23.621.37 28.703 2.721 5.043 2.333 12.727.898 16.017-.133a1 1 0 0 1 .155-.035l22.075-3.19a1 1 0 0 1 .204-.01l42.01 2.585 126.775-4.232q.082-.003.163.008l21.342 2.763q.127.017.254 0l25.605-3.222a1 1 0 0 1 .203-.005l33.964 2.66 56.994-3.548q.13-.008.258.018l14 2.781c.177.035.342.117.478.236l9.574 8.427c.212.187.339.453.347.734l.449 14.336a1 1 0 0 1-.08.423l-4.83 11.147a1 1 0 0 0-.08.423l.541 17.276.414 13.235c.006.172.055.341.145.49l5.251 8.763c.171.285.192.634.056.931l-8.833 19.274a1 1 0 0 0-.043.71l4.816 15.456q.04.132.045.269l.575 18.36 1.009 32.232c.005.172.055.341.144.49l5.264 8.783c.164.274.19.608.07.898l-4.64 11.208a1 1 0 0 0 .003.766l5.56 13.363c.054.13.081.269.078.409l-2.1 103.576c-.003.163.034.325.107.473l5.349 10.695a.99.99 0 0 1-.062 1.004l-4.626 6.811a.98.98 0 0 0-.168.583l.138 4.404a.97.97 0 0 1-.72.975l-10.582 2.857a1 1 0 0 1-.411.023l-36.501-5.59a1 1 0 0 0-.266-.005l-56.78 6.527a1 1 0 0 1-.229 0c-7.83-.931-24.693-3.051-30.425-4.19-5.706-1.134-16.442 1.611-21.231 3.166a1 1 0 0 1-.274.047l-68.565 2.163a1 1 0 0 1-.169-.009l-30.453-4.192-80.369-.716q-.14 0-.274.036l-16.586 4.593a1 1 0 0 1-.255.036l-61.557.599c-3.89-.462-12.206-1.381-14.351-1.36-2.099.02-8.867 1.999-12.202 3.051a1 1 0 0 1-.454.033l-26.63-4.186a1 1 0 0 0-.197-.011l-145.485 5.913-42.888-2.575q-.12-.007-.235.014l-16.75 2.989a1.025 1.025 0 0 1-1.162-.748l-2.743-10.342a1 1 0 0 0-.203-.393l-2.927-3.515a.994.994 0 0 1 .115-1.404l4.507-3.738a.997.997 0 0 0 .05-1.475l-5.269-5.25a1.01 1.01 0 0 1-.274-.956l3.004-12.352a1 1 0 0 0 .028-.266l-.7-22.361-.263-8.401a1 1 0 0 1 .013-.194l2.219-13.283a1 1 0 0 0 .005-.292l-3.524-27.323c-1.4-6.654-4.224-20.661-4.311-23.461-.087-2.774 3.423-21.524 5.238-30.802a1 1 0 0 0-.036-.508l-6.737-19.952a1 1 0 0 1-.042-.468l5.089-34.555a1 1 0 0 0-.06-.512l-6.596-16.9a1 1 0 0 1-.045-.584l3.027-13.537a1 1 0 0 0 .006-.4L9.867 63.876a1 1 0 0 1 .003-.388l5.333-25.519a1 1 0 0 0-.09-.663"/><path fill="url(#b)" fill-opacity=".41" d="m690.548 298.96 14.06 27.411a.98.98 0 0 1-.813 1.439l-20.242 1.1q-.105.005-.208-.011l-23.551-3.633q-.103-.017-.208-.011l-65.461 3.558-65.823-4.717-113.638 6.468c-7.295.072-23.129-.359-28.104-2.649-4.937-2.272-12.461-.873-15.683.131a1 1 0 0 1-.155.035l-21.613 3.11a1 1 0 0 1-.204.008l-41.133-2.514-124.138 4.132a1 1 0 0 1-.161-.007l-20.894-2.691a1 1 0 0 0-.253 0l-25.069 3.141a1 1 0 0 1-.202.005l-33.256-2.59-55.936 3.47h-18.61c-.802 0-1.297-.897-.861-1.561l1.98-3.014c.272-.413.192-.97-.186-1.304l-5.99-5.286a1.02 1.02 0 0 1-.348-.733l-.435-13.95a1 1 0 0 1 .081-.425l4.727-10.849a1 1 0 0 0 .08-.425l-.524-16.824-.403-12.887a1 1 0 0 0-.145-.492l-5.128-8.516a1 1 0 0 1-.056-.936l8.642-18.753a1 1 0 0 0 .044-.714l-4.707-15.042a1 1 0 0 1-.046-.27l-.558-17.883-.98-31.395a1 1 0 0 0-.146-.492l-5.14-8.537a1 1 0 0 1-.07-.902l4.535-10.895a1 1 0 0 0-.003-.768l-5.433-13.002a1 1 0 0 1-.079-.41l2.081-100.896a1 1 0 0 0-.108-.475l-5.223-10.397a1 1 0 0 1 .062-1.009l4.517-6.614a1 1 0 0 0 .17-.585l-.134-4.26a.97.97 0 0 1 .721-.976L30.533 9.89a1 1 0 0 1 .41-.022l35.734 5.442q.132.02.264.005l55.597-6.363a1 1 0 0 1 .228 0c7.668.907 24.177 2.97 29.789 4.08 5.586 1.103 16.097-1.57 20.788-3.085a1 1 0 0 1 .272-.047l67.136-2.112q.084-.003.168.009l29.817 4.081 78.695.691a1 1 0 0 0 .272-.035l16.239-4.475a1 1 0 0 1 .253-.036l60.275-.588c3.809.45 11.951 1.345 14.052 1.324 2.054-.02 8.678-1.947 11.945-2.972a1 1 0 0 1 .452-.033l26.07 4.075a1 1 0 0 0 .195.012l142.459-5.773 41.993 2.505q.119.007.234-.013l16.382-2.91a1.025 1.025 0 0 1 1.162.747l2.675 10.048q.058.218.205.394l2.842 3.398a.994.994 0 0 1-.115 1.407l-4.37 3.605a.997.997 0 0 0-.05 1.479l5.124 5.08c.254.253.359.617.275.96l-2.939 12.014q-.031.131-.028.267l.68 21.781.256 8.182a1 1 0 0 1-.014.195L683.78 86.14a1 1 0 0 0-.005.293l3.443 26.615c1.37 6.482 4.132 20.13 4.217 22.857.084 2.702-3.356 20.96-5.135 30.002a1 1 0 0 0 .036.51l6.586 19.424a1 1 0 0 1 .043.469l-4.989 33.652c-.026.172-.005.35.059.514l6.449 16.448a1 1 0 0 1 .046.587l-2.964 13.173a1 1 0 0 0-.007.403l4.126 21.971a1 1 0 0 1-.004.39l-5.223 24.846c-.048.225-.015.46.09.666"/><defs><linearGradient id="a" x1="298.585" x2="349.48" y1="5.005" y2="344.399" gradientUnits="userSpaceOnUse"><stop stop-color="#48BBFE"/><stop offset="1" stop-color="#2B7098"/></linearGradient><linearGradient id="b" x1="345.5" x2="361.597" y1="324.218" y2="8.397" gradientUnits="userSpaceOnUse"><stop stop-color="#48FEEC"/><stop offset="1" stop-color="#1AFBFF"/></linearGradient></defs></svg>