<svg xmlns="http://www.w3.org/2000/svg" width="347" height="184" fill="none"><path fill="url(#a)" d="m340.593 84.035-51.256 12.437L245 69.5 197 52l-72.5 11L82 88.935H29L.5 81.425v59.93L29 149.5h53l42.5-25.515 72.5-10.553 31 10.553 22.894 18.844 3.392 10.93 18.845 3.392 41.834 26.382h12.814l7.538-15.829-2.262-10.553-5.276 10.553h-12.814l-33.166-29.774v-11.684l58.794-12.814 4.146 10.553L347 108.91l-2.261-12.438L347 88.935z"/><circle cx="282.666" cy="96.666" r="15.341" fill="#F3F6BC" transform="rotate(-15 282.666 96.666)"/><mask id="c" width="20" height="20" x="274.857" y="85.173" fill="#000" maskUnits="userSpaceOnUse"><path fill="#fff" d="M274.857 85.173h20v20h-20z"/><path fill-rule="evenodd" d="M277.837 93.287c.494 0 .946.18 1.293.48.311.269.675.51 1.086.51h2.408c.636 0 1.152-.516 1.152-1.152v-2.41c0-.41-.241-.774-.51-1.085a1.98 1.98 0 1 1 2.998 0c-.268.311-.509.675-.509 1.086v2.409c0 .636.516 1.151 1.152 1.151h2.407c.411 0 .775-.24 1.086-.509a1.98 1.98 0 1 1 0 2.998c-.311-.268-.675-.509-1.086-.509h-2.407c-.636 0-1.152.516-1.152 1.152v2.406c0 .411.241.775.509 1.086a1.98 1.98 0 1 1-2.998.001c.269-.312.51-.675.51-1.087v-2.406c0-.636-.516-1.152-1.152-1.152h-2.408c-.411 0-.775.24-1.086.51a1.98 1.98 0 1 1-1.293-3.479" clip-rule="evenodd"/></mask><g filter="url(#b)"><path fill="#4E3A3A" fill-rule="evenodd" d="M277.837 93.287c.494 0 .946.18 1.293.48.311.269.675.51 1.086.51h2.408c.636 0 1.152-.516 1.152-1.152v-2.41c0-.41-.241-.774-.51-1.085a1.98 1.98 0 1 1 2.998 0c-.268.311-.509.675-.509 1.086v2.409c0 .636.516 1.151 1.152 1.151h2.407c.411 0 .775-.24 1.086-.509a1.98 1.98 0 1 1 0 2.998c-.311-.268-.675-.509-1.086-.509h-2.407c-.636 0-1.152.516-1.152 1.152v2.406c0 .411.241.775.509 1.086a1.98 1.98 0 1 1-2.998.001c.269-.312.51-.675.51-1.087v-2.406c0-.636-.516-1.152-1.152-1.152h-2.408c-.411 0-.775.24-1.086.51a1.98 1.98 0 1 1-1.293-3.479" clip-rule="evenodd"/></g><path fill="#F4FB71" d="M284.765 104.173v.384zm-5.635-7.408-.251-.29zm7.134 4.135-.29.251zm4.136-7.133.251.29zm-7.134 7.134.291.25zm2.998-11.271.291.25zm4.136 7.135-.25.29zm-11.27-2.998-.251.29zm.251-.29a2.36 2.36 0 0 0-1.544-.574v.767c.399 0 .762.146 1.042.388zm3.243.416h-2.408v.767h2.408zm.768-3.177v2.409h.768v-2.41zm-.99-2.379c0 .59.217 1.13.574 1.544l.581-.502a1.6 1.6 0 0 1-.387-1.042zm2.363-2.363a2.363 2.363 0 0 0-2.363 2.363h.768c0-.881.714-1.596 1.595-1.596zm2.364 2.363a2.363 2.363 0 0 0-2.364-2.363v.767c.882 0 1.596.715 1.596 1.596zm-.574 1.544c.357-.414.574-.954.574-1.544h-.768c0 .399-.146.762-.387 1.042zm-.416 3.244v-2.409h-.768v2.409zm3.175.768h-2.407v.767h2.407zm2.379-.99c-.59 0-1.13.216-1.544.574l.502.58a1.6 1.6 0 0 1 1.042-.386zm2.364 2.363a2.363 2.363 0 0 0-2.364-2.363v.767c.881 0 1.596.715 1.596 1.596zm-2.364 2.364a2.364 2.364 0 0 0 2.364-2.364h-.768c0 .881-.715 1.596-1.596 1.596zm-1.543-.574c.413.357.954.574 1.543.574v-.768a1.6 1.6 0 0 1-1.042-.387zm-3.243-.416h2.407v-.768h-2.407zm-.768 3.174v-2.406h-.768v2.406zm.99 2.379a2.36 2.36 0 0 0-.574-1.544l-.581.502c.241.28.387.644.387 1.042zm-2.364 2.364a2.363 2.363 0 0 0 2.364-2.364h-.768c0 .882-.714 1.596-1.596 1.596zm-2.363-2.364a2.363 2.363 0 0 0 2.363 2.364v-.768a1.595 1.595 0 0 1-1.595-1.596zm.574-1.543a2.36 2.36 0 0 0-.574 1.543h.768c0-.398.146-.762.387-1.042zm.416-3.242v2.406h.768v-2.406zm-3.176-.768h2.408v-.768h-2.408zm-2.379.99c.59 0 1.13-.217 1.544-.574l-.502-.581c-.28.241-.643.387-1.042.387zm-2.363-2.364a2.363 2.363 0 0 0 2.363 2.364v-.768a1.596 1.596 0 0 1-1.596-1.596zm2.363-2.363a2.363 2.363 0 0 0-2.363 2.363h.767c0-.881.715-1.596 1.596-1.596zm2.379 2.97c-.559 0-1.014.323-1.337.602l.502.58c.299-.258.571-.415.835-.415zm5.155 3.941c0 .559.324 1.014.603 1.337l.581-.502c-.259-.299-.416-.571-.416-.835zm-1.211-2.406c0-.848-.688-1.536-1.536-1.536v.768c.424 0 .768.344.768.768zm5.154-2.748c.559 0 1.014-.323 1.337-.602l-.502-.581c-.299.258-.571.416-.835.416zm-5.757 6.491c.279-.322.603-.778.603-1.337h-.768c0 .264-.158.536-.416.836zm1.814-8.026c0 .848.688 1.535 1.536 1.535v-.767a.77.77 0 0 1-.768-.768zm1.536 2.747c-.848 0-1.536.688-1.536 1.536h.768c0-.424.344-.768.768-.768zm-2.747-5.156c0-.559-.324-1.014-.603-1.337l-.581.502c.258.3.416.571.416.835zm1.814-1.337c-.279.323-.603.779-.603 1.337h.768c0-.264.157-.535.416-.835zm4.677 7.096c-.323-.279-.778-.603-1.337-.603v.768c.264 0 .536.157.836.416zm-8.027-1.815c.848 0 1.536-.687 1.536-1.535h-.768a.77.77 0 0 1-.768.768zm-3.745-.602c.323.278.779.602 1.337.602v-.767c-.264 0-.536-.158-.835-.416z" mask="url(#c)"/><path fill="url(#d)" d="m187.471 86.689-4.384-20.605-7.453-14.468-16.221-4.822-48.913 8.33L82 66.084 1 106.417V61l81-45.333L105.5 7l42-7 64.96 15.667 8.33 7.453 10.083 23.674 14.468 8.33-3.069 10.96 11.398 10.96 8.33 4.384-6.138 15.344-10.521 9.645v-7.453l-28.058-10.522 7.891 25.866 5.699 1.754-13.59 11.398-7.015-3.507-7.453-27.18z"/><circle cx="225.166" cy="56.666" r="15.341" fill="#F3F6BC" transform="rotate(-15 225.166 56.666)"/><mask id="f" width="20" height="20" x="217.357" y="45.173" fill="#000" maskUnits="userSpaceOnUse"><path fill="#fff" d="M217.357 45.173h20v20h-20z"/><path fill-rule="evenodd" d="M220.337 53.287c.494 0 .946.18 1.293.48.311.269.675.51 1.086.51h2.408c.636 0 1.152-.516 1.152-1.152v-2.41c0-.41-.241-.774-.51-1.085a1.98 1.98 0 1 1 2.998 0c-.268.311-.509.675-.509 1.086v2.409c0 .636.516 1.151 1.152 1.151h2.407c.411 0 .775-.24 1.086-.509a1.98 1.98 0 1 1 0 2.998c-.311-.268-.675-.509-1.086-.509h-2.407c-.636 0-1.152.516-1.152 1.152v2.406c0 .411.241.775.509 1.086a1.98 1.98 0 1 1-2.998 0c.269-.31.51-.674.51-1.085v-2.407c0-.636-.516-1.152-1.152-1.152h-2.408c-.411 0-.775.24-1.086.51a1.98 1.98 0 1 1-1.293-3.479" clip-rule="evenodd"/></mask><g filter="url(#e)"><path fill="#4E3A3A" fill-rule="evenodd" d="M220.337 53.287c.494 0 .946.18 1.293.48.311.269.675.51 1.086.51h2.408c.636 0 1.152-.516 1.152-1.152v-2.41c0-.41-.241-.774-.51-1.085a1.98 1.98 0 1 1 2.998 0c-.268.311-.509.675-.509 1.086v2.409c0 .636.516 1.151 1.152 1.151h2.407c.411 0 .775-.24 1.086-.509a1.98 1.98 0 1 1 0 2.998c-.311-.268-.675-.509-1.086-.509h-2.407c-.636 0-1.152.516-1.152 1.152v2.406c0 .411.241.775.509 1.086a1.98 1.98 0 1 1-2.998 0c.269-.31.51-.674.51-1.085v-2.407c0-.636-.516-1.152-1.152-1.152h-2.408c-.411 0-.775.24-1.086.51a1.98 1.98 0 1 1-1.293-3.479" clip-rule="evenodd"/></g><path fill="#F4FB71" d="M225.286 62.193h.384zm-3.656-5.428-.251-.29zm7.134 4.135-.29.251zm4.136-7.133.251.29zm-7.134-4.137-.29.25zm2.998 0 .291.25zm4.136 7.135-.25.29zm-11.27-2.998-.251.29zm.251-.29a2.36 2.36 0 0 0-1.544-.574v.767c.399 0 .762.146 1.042.388zm3.243.416h-2.408v.767h2.408zm.768-3.177v2.409h.768v-2.41zm-.99-2.379c0 .59.217 1.13.574 1.544l.581-.502a1.6 1.6 0 0 1-.387-1.042zm2.363-2.363a2.363 2.363 0 0 0-2.363 2.363h.768c0-.881.714-1.596 1.595-1.596zm2.364 2.363a2.363 2.363 0 0 0-2.364-2.363v.767c.882 0 1.596.715 1.596 1.596zm-.574 1.544c.357-.414.574-.954.574-1.544h-.768c0 .399-.146.762-.387 1.042zm-.416 3.244v-2.409h-.768v2.409zm3.175.768h-2.407v.767h2.407zm2.379-.99c-.59 0-1.13.216-1.544.574l.502.58a1.6 1.6 0 0 1 1.042-.387zm2.364 2.363a2.363 2.363 0 0 0-2.364-2.363v.767c.881 0 1.596.715 1.596 1.596zm-2.364 2.364a2.364 2.364 0 0 0 2.364-2.364h-.768c0 .881-.715 1.596-1.596 1.596zm-1.543-.574c.413.357.954.574 1.543.574v-.768a1.6 1.6 0 0 1-1.042-.387zm-3.243-.416h2.407v-.768h-2.407zm-.768 3.174v-2.406h-.768v2.406zm.99 2.38c0-.59-.217-1.13-.574-1.544l-.581.501c.241.28.387.644.387 1.042zm-2.364 2.363a2.364 2.364 0 0 0 2.364-2.364h-.768c0 .882-.714 1.596-1.596 1.596zm-2.363-2.364a2.363 2.363 0 0 0 2.363 2.364v-.768a1.595 1.595 0 0 1-1.595-1.596zm.574-1.543a2.36 2.36 0 0 0-.574 1.543h.768c0-.398.146-.762.387-1.042zm.416-3.242v2.407h.768v-2.407zm-3.176-.768h2.408v-.768h-2.408zm-2.379.99c.59 0 1.13-.217 1.544-.574l-.502-.581c-.28.241-.643.387-1.042.387zm-2.363-2.364a2.363 2.363 0 0 0 2.363 2.364v-.768a1.596 1.596 0 0 1-1.596-1.596zm2.363-2.363a2.363 2.363 0 0 0-2.363 2.363h.767c0-.881.715-1.596 1.596-1.596zm2.379 2.97c-.559 0-1.014.323-1.337.602l.502.58c.299-.258.571-.415.835-.415zm5.155 3.941c0 .559.324 1.014.603 1.337l.581-.502c-.259-.3-.416-.571-.416-.835zm-1.211-2.406c0-.848-.688-1.536-1.536-1.536v.768c.424 0 .768.344.768.768zm5.154-2.748c.559 0 1.014-.323 1.337-.602l-.502-.581c-.299.258-.571.416-.835.416zm-5.757 6.491c.279-.322.603-.778.603-1.337h-.768c0 .264-.158.536-.416.836zm1.814-8.026c0 .848.688 1.535 1.536 1.535v-.767a.77.77 0 0 1-.768-.768zm1.536 2.747c-.848 0-1.536.688-1.536 1.536h.768c0-.424.344-.768.768-.768zm-2.747-5.156c0-.559-.324-1.014-.603-1.337l-.581.502c.258.3.416.571.416.835zm1.814-1.337c-.279.323-.603.779-.603 1.337h.768c0-.264.157-.535.416-.835zm4.677 7.096c-.323-.279-.778-.603-1.337-.603v.768c.264 0 .536.157.836.416zm-8.027-1.815c.848 0 1.536-.687 1.536-1.535h-.768a.77.77 0 0 1-.768.768zm-3.745-.602c.323.279.779.602 1.337.602v-.767c-.264 0-.536-.158-.835-.416z" mask="url(#f)"/><defs><linearGradient id="a" x1="173.75" x2="173.75" y1="52" y2="183.533" gradientUnits="userSpaceOnUse"><stop stop-color="#2CB59C"/><stop offset="1" stop-color="#207B85"/></linearGradient><linearGradient id="d" x1="131.5" x2="131.5" y1="0" y2="127.46" gradientUnits="userSpaceOnUse"><stop stop-color="#238F7B"/><stop offset="1" stop-color="#145C4F"/></linearGradient><filter id="b" width="18.583" height="18.583" x="275.474" y="85.974" color-interpolation-filters="sRGB" filterUnits="userSpaceOnUse"><feFlood flood-opacity="0" result="BackgroundImageFix"/><feBlend in="SourceGraphic" in2="BackgroundImageFix" result="shape"/><feColorMatrix in="SourceAlpha" result="hardAlpha" values="0 0 0 0 0 0 0 0 0 0 0 0 0 0 0 0 0 0 127 0"/><feOffset/><feGaussianBlur stdDeviation=".768"/><feComposite in2="hardAlpha" k2="-1" k3="1" operator="arithmetic"/><feColorMatrix values="0 0 0 0 0.956863 0 0 0 0 0.984314 0 0 0 0 0.443137 0 0 0 1 0"/><feBlend in2="shape" result="effect1_innerShadow_900_8713"/></filter><filter id="e" width="18.583" height="18.583" x="217.974" y="45.974" color-interpolation-filters="sRGB" filterUnits="userSpaceOnUse"><feFlood flood-opacity="0" result="BackgroundImageFix"/><feBlend in="SourceGraphic" in2="BackgroundImageFix" result="shape"/><feColorMatrix in="SourceAlpha" result="hardAlpha" values="0 0 0 0 0 0 0 0 0 0 0 0 0 0 0 0 0 0 127 0"/><feOffset/><feGaussianBlur stdDeviation=".768"/><feComposite in2="hardAlpha" k2="-1" k3="1" operator="arithmetic"/><feColorMatrix values="0 0 0 0 0.956863 0 0 0 0 0.984314 0 0 0 0 0.443137 0 0 0 1 0"/><feBlend in2="shape" result="effect1_innerShadow_900_8713"/></filter></defs></svg>