<svg xmlns="http://www.w3.org/2000/svg" width="349" height="194" fill="none"><g clip-path="url(#a)"><path fill="url(#b)" d="m345.2 93.935-6.407-4.9L307.7 96.5l-7-5-11-1-2.163 10.972L243.2 74.5l-48-17.5-72.5 11-42.5 25.935h-53l-28.5-7.51v59.93l28.5 8.145h53l42.5-25.515 72.5-10.553 31 10.553 22.895 18.844 3.392 10.93 18.844 3.392 41.834 26.382h12.814l7.538-15.829-2.262-10.553-5.276 10.553h-12.814l-33.166-29.774v-11.684l58.794-12.814 4.146 10.553 2.261-15.075-2.261-12.438z"/><circle cx="280.866" cy="101.666" r="15.341" fill="#F3F6BC" transform="rotate(-15 280.866 101.666)"/><mask id="d" width="20" height="20" x="273.058" y="90.173" fill="#000" maskUnits="userSpaceOnUse"><path fill="#fff" d="M273.058 90.173h20v20h-20z"/><path fill-rule="evenodd" d="M276.037 98.287c.494 0 .946.181 1.293.48.312.27.675.51 1.087.51h2.407c.636 0 1.151-.515 1.151-1.151v-2.41c0-.411-.24-.775-.509-1.086a1.98 1.98 0 1 1 2.998 0c-.268.311-.509.675-.509 1.086v2.41c0 .636.516 1.151 1.152 1.151h2.407c.411 0 .775-.24 1.086-.51a1.98 1.98 0 1 1 .001 2.998c-.311-.268-.675-.508-1.086-.508h-2.408c-.636 0-1.152.515-1.152 1.152v2.405c0 .411.241.775.509 1.086a1.98 1.98 0 1 1-2.998.001c.269-.311.509-.675.509-1.086v-2.406a1.15 1.15 0 0 0-1.151-1.152h-2.408c-.411 0-.775.24-1.086.509a1.979 1.979 0 1 1-1.293-3.479" clip-rule="evenodd"/></mask><g filter="url(#c)"><path fill="#4E3A3A" fill-rule="evenodd" d="M276.037 98.287c.494 0 .946.181 1.293.48.312.27.675.51 1.087.51h2.407c.636 0 1.151-.515 1.151-1.151v-2.41c0-.411-.24-.775-.509-1.086a1.98 1.98 0 1 1 2.998 0c-.268.311-.509.675-.509 1.086v2.41c0 .636.516 1.151 1.152 1.151h2.407c.411 0 .775-.24 1.086-.51a1.98 1.98 0 1 1 .001 2.998c-.311-.268-.675-.508-1.086-.508h-2.408c-.636 0-1.152.515-1.152 1.152v2.405c0 .411.241.775.509 1.086a1.98 1.98 0 1 1-2.998.001c.269-.311.509-.675.509-1.086v-2.406a1.15 1.15 0 0 0-1.151-1.152h-2.408c-.411 0-.775.24-1.086.509a1.979 1.979 0 1 1-1.293-3.479" clip-rule="evenodd"/></g><path fill="#F4FB71" d="M280.986 107.193h.384zm3.478-1.293.291-.251zm4.136-7.132.251.29zm-7.134-4.138-.29.25zm2.998 0-.29-.25zm4.137 7.136.251-.291zm-11.271-2.998.251-.29zm.251-.29a2.36 2.36 0 0 0-1.544-.575v.768c.399 0 .763.146 1.042.387zm3.243.415h-2.407v.768h2.407zm.768-3.177v2.41h.767v-2.41zm-.99-2.379c0 .59.217 1.13.574 1.543l.581-.501a1.6 1.6 0 0 1-.387-1.042zm2.364-2.363a2.363 2.363 0 0 0-2.364 2.363h.768c0-.881.714-1.596 1.596-1.596zm2.363 2.363a2.363 2.363 0 0 0-2.363-2.363v.767c.881 0 1.595.715 1.595 1.596zm-.574 1.544c.358-.414.574-.954.574-1.544h-.768c0 .399-.145.763-.387 1.042zm-.416 3.245v-2.41h-.768v2.41zm3.175.767h-2.407v.768h2.407zm2.379-.99c-.589 0-1.13.217-1.544.574l.502.581c.28-.241.644-.387 1.042-.387zm2.364 2.364a2.364 2.364 0 0 0-2.364-2.364v.768c.882 0 1.596.714 1.596 1.596zm-2.364 2.363a2.363 2.363 0 0 0 2.364-2.363h-.768c0 .881-.714 1.595-1.596 1.595zm-1.543-.574c.414.358.954.574 1.543.574v-.768c-.398 0-.762-.145-1.041-.387zm-3.243-.415h2.408v-.768h-2.408zm-.768 3.173v-2.405h-.768v2.405zm.99 2.379c0-.59-.216-1.13-.574-1.544l-.581.502c.242.28.387.644.387 1.042zm-2.363 2.364a2.363 2.363 0 0 0 2.363-2.364h-.768c0 .882-.714 1.596-1.595 1.596zm-2.364-2.364a2.363 2.363 0 0 0 2.364 2.364v-.768a1.595 1.595 0 0 1-1.596-1.596zm.574-1.543a2.36 2.36 0 0 0-.574 1.543h.768c0-.398.146-.762.387-1.041zm.416-3.241v2.406h.767v-2.406zm-3.176-.768h2.408v-.768h-2.408zm-2.379.989c.59 0 1.13-.216 1.544-.574l-.502-.581c-.28.242-.643.387-1.042.387zm-2.363-2.363a2.363 2.363 0 0 0 2.363 2.363v-.768a1.595 1.595 0 0 1-1.595-1.595zm2.363-2.364a2.363 2.363 0 0 0-2.363 2.364h.768c0-.882.714-1.596 1.595-1.596zm2.379 2.97c-.559 0-1.014.324-1.337.602l.502.581c.299-.258.571-.415.835-.415zm5.155 3.941c0 .558.324 1.014.603 1.337l.581-.502c-.259-.299-.416-.571-.416-.835zm-1.212-2.405c0-.849-.687-1.536-1.535-1.536v.768c.424 0 .768.344.768.768zm5.155-2.748c.559 0 1.014-.324 1.337-.603l-.502-.58c-.299.258-.571.415-.835.415zm-5.757 6.491c.279-.323.602-.779.602-1.337h-.767c0 .264-.158.535-.416.835zm1.814-8.026c0 .848.688 1.535 1.536 1.535v-.768a.77.77 0 0 1-.768-.767zm1.536 2.747c-.848 0-1.536.687-1.536 1.536h.768c0-.424.344-.768.768-.768zm-2.748-5.157c0-.559-.323-1.014-.602-1.337l-.581.501c.258.3.416.572.416.836zm1.815-1.337c-.279.323-.603.779-.603 1.337h.768c0-.263.157-.535.416-.835zm4.678 7.096c-.323-.278-.779-.602-1.337-.602v.768c.264 0 .535.157.835.415zm-8.028-1.814c.848 0 1.535-.687 1.535-1.535h-.767a.77.77 0 0 1-.768.767zm-3.745-.603c.323.28.779.603 1.338.603v-.768c-.264 0-.536-.157-.836-.416z" mask="url(#d)"/><path fill="url(#e)" d="m185.171 91.689-4.384-20.605-7.453-14.468L142 50l-33.8 10.124-28.5 10.96-81 40.333V49l47.8-19.5L74 18l29.2-6 42-7 33.8 5.5 31.16 10.167 8.33 7.453 10.083 23.674 14.468 8.33-3.069 10.96 11.398 10.96 8.33 4.384-6.138 15.344-10.521 9.645v-7.453l-28.058-10.522 7.891 25.866 5.699 1.754-13.59 11.398-7.015-3.507-7.453-27.181z"/><circle cx="222.866" cy="61.666" r="15.341" fill="#F3F6BC" transform="rotate(-15 222.866 61.666)"/><mask id="g" width="20" height="20" x="215.058" y="50.173" fill="#000" maskUnits="userSpaceOnUse"><path fill="#fff" d="M215.058 50.173h20v20h-20z"/><path fill-rule="evenodd" d="M218.037 58.287c.494 0 .946.18 1.293.48.311.269.675.51 1.086.51h2.408c.636 0 1.152-.516 1.152-1.152v-2.41c0-.41-.241-.774-.509-1.085a1.98 1.98 0 1 1 2.998 0c-.269.311-.51.675-.51 1.086v2.409c0 .636.516 1.151 1.152 1.151h2.407c.411 0 .775-.24 1.086-.509a1.98 1.98 0 1 1 .001 2.998c-.312-.268-.675-.509-1.086-.509h-2.408c-.636 0-1.152.516-1.152 1.152v2.406c0 .411.241.775.51 1.086a1.98 1.98 0 1 1-2.998 0c.268-.31.509-.674.509-1.085v-2.407c0-.636-.516-1.152-1.152-1.152h-2.408c-.411 0-.775.24-1.086.51a1.98 1.98 0 1 1-1.293-3.479" clip-rule="evenodd"/></mask><g filter="url(#f)"><path fill="#4E3A3A" fill-rule="evenodd" d="M218.037 58.287c.494 0 .946.18 1.293.48.311.269.675.51 1.086.51h2.408c.636 0 1.152-.516 1.152-1.152v-2.41c0-.41-.241-.774-.509-1.085a1.98 1.98 0 1 1 2.998 0c-.269.311-.51.675-.51 1.086v2.409c0 .636.516 1.151 1.152 1.151h2.407c.411 0 .775-.24 1.086-.509a1.98 1.98 0 1 1 .001 2.998c-.312-.268-.675-.509-1.086-.509h-2.408c-.636 0-1.152.516-1.152 1.152v2.406c0 .411.241.775.51 1.086a1.98 1.98 0 1 1-2.998 0c.268-.31.509-.674.509-1.085v-2.407c0-.636-.516-1.152-1.152-1.152h-2.408c-.411 0-.775.24-1.086.51a1.98 1.98 0 1 1-1.293-3.479" clip-rule="evenodd"/></g><path fill="#F4FB71" d="M222.986 67.193h.384zm-3.656-5.428-.251-.29zm7.135 4.135-.291.251zm4.135-7.133.251.29zm-7.133-4.137-.291.25zm2.998 0 .29.25zm4.136 7.135-.251.29zm-11.271-2.998-.251.29zm.251-.29a2.36 2.36 0 0 0-1.544-.574v.767c.399 0 .762.146 1.042.388zm3.243.416h-2.408v.767h2.408zm.768-3.177v2.409h.768v-2.41zm-.99-2.379c0 .59.217 1.13.574 1.544l.581-.502a1.6 1.6 0 0 1-.387-1.042zm2.364-2.363a2.363 2.363 0 0 0-2.364 2.363h.768c0-.881.714-1.596 1.596-1.596zm2.363 2.363a2.363 2.363 0 0 0-2.363-2.363v.767c.881 0 1.595.715 1.595 1.596zm-.574 1.544c.358-.414.574-.954.574-1.544h-.768c0 .399-.145.762-.387 1.042zm-.416 3.244v-2.409h-.768v2.409zm3.175.768h-2.407v.767h2.407zm2.379-.99c-.589 0-1.129.216-1.543.574l.501.58a1.6 1.6 0 0 1 1.042-.387zm2.364 2.363a2.363 2.363 0 0 0-2.364-2.363v.767c.882 0 1.596.715 1.596 1.596zm-2.364 2.364a2.364 2.364 0 0 0 2.364-2.364h-.768c0 .881-.714 1.596-1.596 1.596zm-1.543-.574c.414.357.954.574 1.543.574v-.768a1.6 1.6 0 0 1-1.042-.387zm-3.243-.416h2.408v-.768h-2.408zm-.768 3.174v-2.406h-.768v2.406zm.99 2.38c0-.59-.216-1.13-.574-1.544l-.581.501c.242.28.387.644.387 1.042zm-2.363 2.363a2.363 2.363 0 0 0 2.363-2.364h-.768c0 .882-.714 1.596-1.595 1.596zm-2.364-2.364a2.364 2.364 0 0 0 2.364 2.364v-.768a1.595 1.595 0 0 1-1.596-1.596zm.574-1.543a2.36 2.36 0 0 0-.574 1.543h.768c0-.398.146-.762.387-1.042zm.416-3.242v2.406h.768v-2.406zm-3.176-.768h2.408v-.768h-2.408zm-2.379.99c.59 0 1.13-.217 1.544-.574l-.502-.581c-.28.241-.643.387-1.042.387zm-2.363-2.364a2.363 2.363 0 0 0 2.363 2.364v-.768a1.595 1.595 0 0 1-1.595-1.596zm2.363-2.363a2.363 2.363 0 0 0-2.363 2.363h.768c0-.881.714-1.596 1.595-1.596zm2.379 2.97c-.558 0-1.014.323-1.337.602l.502.58c.299-.258.571-.415.835-.415zm5.155 3.941c0 .559.324 1.015.603 1.337l.581-.501c-.258-.3-.416-.572-.416-.836zm-1.211-2.406c0-.848-.688-1.536-1.536-1.536v.768c.424 0 .768.344.768.768zm5.154-2.748c.559 0 1.015-.323 1.337-.602l-.501-.581c-.3.258-.572.416-.836.416zm-5.757 6.491c.279-.322.603-.778.603-1.337h-.768c0 .264-.157.536-.416.836zm1.814-8.026c0 .848.688 1.535 1.536 1.535v-.767a.77.77 0 0 1-.768-.768zm1.536 2.747c-.848 0-1.536.688-1.536 1.536h.768c0-.424.344-.768.768-.768zm-2.747-5.156c0-.559-.324-1.014-.603-1.337l-.581.502c.259.3.416.571.416.835zm1.814-1.337c-.279.323-.603.779-.603 1.337h.768c0-.264.158-.535.416-.835zm4.677 7.096c-.322-.279-.778-.603-1.336-.603v.768c.263 0 .535.157.835.416zm-8.027-1.815c.848 0 1.536-.687 1.536-1.535h-.768a.77.77 0 0 1-.768.768zm-3.745-.602c.323.279.779.602 1.337.602v-.767c-.264 0-.535-.158-.835-.416z" mask="url(#g)"/><path fill="url(#h)" d="m151.5 186.2-20.747-3.654-16.206 1.491-19.536 2.163-21.266-2.163-24.5-5.014-22-8.76-28.5-15.5v-61.5l27 23 34.5 14.75 34.766 5.412 10.03-4.931 25.727-.48 13.143-10.294 9.013 6.951 14.432-6.463 7.185-6.081 11.928 11.439 5.001 13.369-6.91-2.792-20.267 22.073 26.939 2.373 3.761-4.627 5.477 16.871-5.879 5.19-27.994-3.272z"/><circle cx="137.788" cy="140.003" r="15.341" fill="#F3F6BC" transform="rotate(-83 137.788 140.003)"/><mask id="j" width="26.036" height="26.036" x="124.204" y="124.395" fill="#000" maskUnits="userSpaceOnUse"><path fill="#fff" d="M124.204 124.395h26.036v26.036h-26.036z"/><path fill-rule="evenodd" d="M132.843 143.215c.185-.458.523-.809.93-1.018.366-.188.726-.435.88-.817l.902-2.232a1.15 1.15 0 0 0-.637-1.499l-2.234-.903c-.381-.154-.808-.067-1.198.065a1.98 1.98 0 1 1 1.124-2.779c.188.366.435.725.816.879l2.234.903a1.15 1.15 0 0 0 1.499-.637l.902-2.232c.154-.381.067-.809-.066-1.198a1.979 1.979 0 1 1 2.78 1.122c-.365.188-.724.435-.878.816l-.903 2.234a1.15 1.15 0 0 0 .637 1.499l2.23.901c.382.154.809.067 1.198-.065a1.98 1.98 0 1 1-1.122 2.78c-.188-.366-.435-.725-.816-.879l-2.232-.902a1.15 1.15 0 0 0-1.499.637l-.902 2.233c-.154.381-.067.808.065 1.197a1.98 1.98 0 1 1-3.71-.105" clip-rule="evenodd"/></mask><g filter="url(#i)"><path fill="#4E3A3A" fill-rule="evenodd" d="M132.843 143.215c.185-.458.523-.809.93-1.018.366-.188.726-.435.88-.817l.902-2.232a1.15 1.15 0 0 0-.637-1.499l-2.234-.903c-.381-.154-.808-.067-1.198.065a1.98 1.98 0 1 1 1.124-2.779c.188.366.435.725.816.879l2.234.903a1.15 1.15 0 0 0 1.499-.637l.902-2.232c.154-.381.067-.809-.066-1.198a1.979 1.979 0 1 1 2.78 1.122c-.365.188-.724.435-.878.816l-.903 2.234a1.15 1.15 0 0 0 .637 1.499l2.23.901c.382.154.809.067 1.198-.065a1.98 1.98 0 1 1-1.122 2.78c-.188-.366-.435-.725-.816-.879l-2.232-.902a1.15 1.15 0 0 0-1.499.637l-.902 2.233c-.154.381-.067.808.065 1.197a1.98 1.98 0 1 1-3.71-.105" clip-rule="evenodd"/></g><path fill="#F4FB71" d="m145.532 140.869.356.144zm-9.044 1.254-.356-.144zm.065 1.197.363-.124zm5.308-5.001.144-.356zm1.198-.065-.123-.364zm-5.669 1.636.356.144zm.671-6.945.356.144zm3.06 7.21.144-.356zm-5.461-4.341.143-.356zm-2.976.932-.144.356zm.742-1.835-.144.356zm7.349-2.042-.175-.341zm-.878.816.356.144zm-6.124 8.512-.175-.342zm-.175-.342c-.486.25-.89.67-1.111 1.217l.712.287c.15-.369.421-.652.75-.821zm1.601-2.851-.902 2.232.712.288.901-2.232zm-2.659-1.902 2.234.903.288-.712-2.234-.903zm-2.576.026a2.36 2.36 0 0 0 1.646.047l-.247-.727a1.6 1.6 0 0 1-1.111-.031zm-1.306-3.076a2.363 2.363 0 0 0 1.306 3.076l.288-.711a1.597 1.597 0 0 1-.882-2.078zm3.077-1.306a2.364 2.364 0 0 0-3.077 1.306l.712.287a1.595 1.595 0 0 1 2.077-.881zm1.216 1.11a2.36 2.36 0 0 0-1.216-1.11l-.288.712c.37.149.652.42.821.749zm2.852 1.602-2.233-.903-.288.712 2.234.902zm1.902-2.657-.902 2.232.712.288.902-2.232zm-.027-2.577a2.35 2.35 0 0 0-.046 1.647l.726-.248a1.58 1.58 0 0 1 .032-1.111zm3.076-1.306a2.363 2.363 0 0 0-3.076 1.306l.712.288a1.596 1.596 0 0 1 2.077-.882zm1.306 3.077a2.363 2.363 0 0 0-1.306-3.077l-.287.712c.817.33 1.212 1.26.882 2.077zm-1.109 1.216c.486-.25.889-.67 1.109-1.216l-.711-.288c-.15.37-.421.652-.749.821zm-1.601 2.851.903-2.233-.712-.287-.903 2.233zm2.655 1.901-2.23-.901-.288.712 2.23.901zm2.577-.027a2.36 2.36 0 0 0-1.646-.046l.247.727c.35-.119.742-.118 1.112.031zm1.306 3.077a2.363 2.363 0 0 0-1.306-3.077l-.287.712c.817.33 1.212 1.26.882 2.077zm-3.076 1.306a2.363 2.363 0 0 0 3.076-1.306l-.711-.288a1.597 1.597 0 0 1-2.078.882zm-1.216-1.11c.25.486.669.889 1.216 1.11l.287-.712a1.6 1.6 0 0 1-.821-.749zm-2.851-1.6 2.232.902.288-.712-2.232-.902zm-1.901 2.657.902-2.232-.712-.288-.902 2.233zm.026 2.576a2.35 2.35 0 0 0 .046-1.646l-.726.248c.119.35.117.741-.032 1.111zm-3.077 1.306a2.363 2.363 0 0 0 3.077-1.306l-.712-.287a1.594 1.594 0 0 1-2.077.881zm-1.306-3.076a2.363 2.363 0 0 0 1.306 3.076l.288-.712a1.596 1.596 0 0 1-.882-2.077zm3.645-1.093c-.209.517-.08 1.061.058 1.465l.726-.248c-.127-.374-.171-.685-.072-.93zm5.585-3.304c.518.209 1.062.08 1.466-.058l-.247-.727c-.375.128-.686.172-.931.073zm-2.684.222a1.537 1.537 0 0 0-1.999.849l.712.288a.767.767 0 0 1 .999-.425zm-.616-5.808c.209-.518.079-1.062-.059-1.466l-.726.248c.127.375.172.686.073.93zm3.861 7.769c-.194-.379-.496-.85-1.013-1.059l-.288.712c.245.099.438.346.619.698zm-6.762-4.689a1.536 1.536 0 0 0 1.999-.848l-.712-.288a.77.77 0 0 1-1 .425zm3.122-.394a1.537 1.537 0 0 0 .849 1.999l.288-.712a.77.77 0 0 1-.425-1zm-5.81.615c-.518-.209-1.062-.079-1.465.058l.247.727c.375-.128.686-.172.93-.073zm-.56-2.183c.195.38.496.851 1.014 1.06l.288-.712c-.245-.099-.438-.346-.619-.699zm8.332-1.679c-.38.195-.85.496-1.059 1.014l.712.287c.098-.244.346-.437.698-.618zm-4.69 6.764a1.536 1.536 0 0 0-.848-1.999l-.288.712a.77.77 0 0 1 .425.999zm-1.961 3.246c.379-.195.85-.496 1.06-1.014l-.712-.288c-.099.245-.347.438-.699.619z" mask="url(#j)"/></g><defs><linearGradient id="b" x1="171.95" x2="171.95" y1="57" y2="188.533" gradientUnits="userSpaceOnUse"><stop stop-color="#2CB59C"/><stop offset="1" stop-color="#207B85"/></linearGradient><linearGradient id="e" x1="129.2" x2="129.2" y1="5" y2="132.46" gradientUnits="userSpaceOnUse"><stop stop-color="#238F7B"/><stop offset="1" stop-color="#145C4F"/></linearGradient><linearGradient id="h" x1="50.16" x2="168.34" y1="205.628" y2="253.376" gradientUnits="userSpaceOnUse"><stop stop-color="#166153"/><stop offset="1" stop-color="#145C4F"/></linearGradient><filter id="c" width="18.583" height="18.583" x="273.674" y="90.974" color-interpolation-filters="sRGB" filterUnits="userSpaceOnUse"><feFlood flood-opacity="0" result="BackgroundImageFix"/><feBlend in="SourceGraphic" in2="BackgroundImageFix" result="shape"/><feColorMatrix in="SourceAlpha" result="hardAlpha" values="0 0 0 0 0 0 0 0 0 0 0 0 0 0 0 0 0 0 127 0"/><feOffset/><feGaussianBlur stdDeviation=".768"/><feComposite in2="hardAlpha" k2="-1" k3="1" operator="arithmetic"/><feColorMatrix values="0 0 0 0 0.956863 0 0 0 0 0.984314 0 0 0 0 0.443137 0 0 0 1 0"/><feBlend in2="shape" result="effect1_innerShadow_1297_10206"/></filter><filter id="f" width="18.583" height="18.583" x="215.674" y="50.974" color-interpolation-filters="sRGB" filterUnits="userSpaceOnUse"><feFlood flood-opacity="0" result="BackgroundImageFix"/><feBlend in="SourceGraphic" in2="BackgroundImageFix" result="shape"/><feColorMatrix in="SourceAlpha" result="hardAlpha" values="0 0 0 0 0 0 0 0 0 0 0 0 0 0 0 0 0 0 127 0"/><feOffset/><feGaussianBlur stdDeviation=".768"/><feComposite in2="hardAlpha" k2="-1" k3="1" operator="arithmetic"/><feColorMatrix values="0 0 0 0 0.956863 0 0 0 0 0.984314 0 0 0 0 0.443137 0 0 0 1 0"/><feBlend in2="shape" result="effect1_innerShadow_1297_10206"/></filter><filter id="i" width="17.576" height="17.576" x="128.485" y="128.745" color-interpolation-filters="sRGB" filterUnits="userSpaceOnUse"><feFlood flood-opacity="0" result="BackgroundImageFix"/><feBlend in="SourceGraphic" in2="BackgroundImageFix" result="shape"/><feColorMatrix in="SourceAlpha" result="hardAlpha" values="0 0 0 0 0 0 0 0 0 0 0 0 0 0 0 0 0 0 127 0"/><feOffset/><feGaussianBlur stdDeviation=".768"/><feComposite in2="hardAlpha" k2="-1" k3="1" operator="arithmetic"/><feColorMatrix values="0 0 0 0 0.956863 0 0 0 0 0.984314 0 0 0 0 0.443137 0 0 0 1 0"/><feBlend in2="shape" result="effect1_innerShadow_1297_10206"/></filter><clipPath id="a"><path fill="#fff" d="M0 0h349v194H0z"/></clipPath></defs></svg>