<svg width="349" height="194" viewBox="0 0 349 194" fill="none" xmlns="http://www.w3.org/2000/svg">
<g clip-path="url(#clip0_1297_10206)">
<path d="M345.2 93.9347L338.793 89.0352L307.7 96.5L300.7 91.5L289.7 90.5L287.537 101.472L243.2 74.5L195.2 57L122.7 68L80.2002 93.9347H27.2002L-1.2998 86.4253V146.355L27.2002 154.5H80.2002L122.7 128.985L195.2 118.432L226.2 128.985L249.095 147.829L252.487 158.759L271.331 162.151L313.165 188.533H325.979L333.517 172.704L331.255 162.151L325.979 172.704H313.165L279.999 142.93V131.246L338.793 118.432L342.939 128.985L345.2 113.91L342.939 101.472L345.2 93.9347Z" fill="url(#paint0_linear_1297_10206)"/>
<circle cx="280.866" cy="101.666" r="15.3412" transform="rotate(-15 280.866 101.666)" fill="#F3F6BC"/>
<mask id="path-3-outside-1_1297_10206" maskUnits="userSpaceOnUse" x="273.058" y="90.1729" width="20" height="20" fill="black">
<rect fill="white" x="273.058" y="90.1729" width="20" height="20"/>
<path fill-rule="evenodd" clip-rule="evenodd" d="M276.037 98.2871C276.531 98.2871 276.983 98.4682 277.33 98.7678C277.642 99.0366 278.005 99.2773 278.417 99.2773H280.824C281.46 99.2773 281.975 98.7617 281.975 98.1256V95.7155C281.975 95.3045 281.735 94.9408 281.466 94.6297C281.167 94.2829 280.986 93.8311 280.986 93.337C280.986 92.2438 281.872 91.3575 282.966 91.3575C284.059 91.3575 284.945 92.2438 284.945 93.337C284.945 93.8313 284.764 94.2833 284.464 94.6302C284.196 94.9415 283.955 95.3053 283.955 95.7165V98.1256C283.955 98.7617 284.471 99.2773 285.107 99.2773H287.514C287.925 99.2773 288.289 99.0366 288.6 98.7678C288.947 98.4682 289.399 98.2871 289.893 98.2871C290.987 98.2871 291.873 99.1733 291.873 100.267C291.873 101.36 290.987 102.246 289.893 102.246C289.399 102.246 288.948 102.065 288.601 101.766C288.29 101.497 287.926 101.257 287.515 101.257H285.107C284.471 101.257 283.955 101.772 283.955 102.409V104.814C283.955 105.225 284.196 105.589 284.464 105.9C284.764 106.247 284.945 106.699 284.945 107.193C284.945 108.287 284.059 109.173 282.966 109.173C281.872 109.173 280.986 108.287 280.986 107.193C280.986 106.699 281.167 106.248 281.466 105.901C281.735 105.59 281.975 105.226 281.975 104.815V102.409C281.975 101.772 281.46 101.257 280.824 101.257H278.416C278.005 101.257 277.641 101.497 277.33 101.766C276.983 102.065 276.531 102.246 276.037 102.246C274.944 102.246 274.058 101.36 274.058 100.267C274.058 99.1733 274.944 98.2871 276.037 98.2871Z"/>
</mask>
<g filter="url(#filter0_i_1297_10206)">
<path fill-rule="evenodd" clip-rule="evenodd" d="M276.037 98.2871C276.531 98.2871 276.983 98.4682 277.33 98.7678C277.642 99.0366 278.005 99.2773 278.417 99.2773H280.824C281.46 99.2773 281.975 98.7617 281.975 98.1256V95.7155C281.975 95.3045 281.735 94.9408 281.466 94.6297C281.167 94.2829 280.986 93.8311 280.986 93.337C280.986 92.2438 281.872 91.3575 282.966 91.3575C284.059 91.3575 284.945 92.2438 284.945 93.337C284.945 93.8313 284.764 94.2833 284.464 94.6302C284.196 94.9415 283.955 95.3053 283.955 95.7165V98.1256C283.955 98.7617 284.471 99.2773 285.107 99.2773H287.514C287.925 99.2773 288.289 99.0366 288.6 98.7678C288.947 98.4682 289.399 98.2871 289.893 98.2871C290.987 98.2871 291.873 99.1733 291.873 100.267C291.873 101.36 290.987 102.246 289.893 102.246C289.399 102.246 288.948 102.065 288.601 101.766C288.29 101.497 287.926 101.257 287.515 101.257H285.107C284.471 101.257 283.955 101.772 283.955 102.409V104.814C283.955 105.225 284.196 105.589 284.464 105.9C284.764 106.247 284.945 106.699 284.945 107.193C284.945 108.287 284.059 109.173 282.966 109.173C281.872 109.173 280.986 108.287 280.986 107.193C280.986 106.699 281.167 106.248 281.466 105.901C281.735 105.59 281.975 105.226 281.975 104.815V102.409C281.975 101.772 281.46 101.257 280.824 101.257H278.416C278.005 101.257 277.641 101.497 277.33 101.766C276.983 102.065 276.531 102.246 276.037 102.246C274.944 102.246 274.058 101.36 274.058 100.267C274.058 99.1733 274.944 98.2871 276.037 98.2871Z" fill="#4E3A3A"/>
</g>
<path d="M280.986 107.193L281.37 107.193V107.193H280.986ZM284.464 105.9L284.755 105.649L284.464 105.9ZM288.6 98.7678L288.851 99.0584L288.6 98.7678ZM281.466 94.6297L281.176 94.8805L281.466 94.6297ZM284.464 94.6302L284.174 94.3793L284.464 94.6302ZM288.601 101.766L288.852 101.475L288.601 101.766ZM277.33 98.7678L277.581 98.4773L277.33 98.7678ZM277.581 98.4773C277.167 98.1198 276.627 97.9032 276.037 97.9032V98.671C276.436 98.671 276.8 98.8167 277.079 99.0584L277.581 98.4773ZM280.824 98.8934H278.417V99.6612H280.824V98.8934ZM281.592 95.7155V98.1256H282.359V95.7155H281.592ZM280.602 93.337C280.602 93.9266 280.819 94.4666 281.176 94.8805L281.757 94.3789C281.516 94.0991 281.37 93.7356 281.37 93.337H280.602ZM282.966 90.9736C281.66 90.9736 280.602 92.0318 280.602 93.337H281.37C281.37 92.4558 282.084 91.7414 282.966 91.7414V90.9736ZM285.329 93.337C285.329 92.0318 284.271 90.9736 282.966 90.9736V91.7414C283.847 91.7414 284.561 92.4558 284.561 93.337H285.329ZM284.755 94.8811C285.113 94.4672 285.329 93.9269 285.329 93.337H284.561C284.561 93.7358 284.416 94.0995 284.174 94.3793L284.755 94.8811ZM284.339 98.1256V95.7165H283.571V98.1256H284.339ZM287.514 98.8934H285.107V99.6612H287.514V98.8934ZM289.893 97.9032C289.304 97.9032 288.763 98.1198 288.349 98.4773L288.851 99.0584C289.131 98.8167 289.495 98.671 289.893 98.671V97.9032ZM292.257 100.267C292.257 98.9613 291.199 97.9032 289.893 97.9032V98.671C290.775 98.671 291.489 99.3853 291.489 100.267H292.257ZM289.893 102.63C291.199 102.63 292.257 101.572 292.257 100.267H291.489C291.489 101.148 290.775 101.862 289.893 101.862V102.63ZM288.35 102.056C288.764 102.414 289.304 102.63 289.893 102.63V101.862C289.495 101.862 289.131 101.717 288.852 101.475L288.35 102.056ZM285.107 101.641H287.515V100.873H285.107V101.641ZM284.339 104.814V102.409H283.571V104.814H284.339ZM285.329 107.193C285.329 106.603 285.113 106.063 284.755 105.649L284.174 106.151C284.416 106.431 284.561 106.795 284.561 107.193H285.329ZM282.966 109.557C284.271 109.557 285.329 108.499 285.329 107.193H284.561C284.561 108.075 283.847 108.789 282.966 108.789V109.557ZM280.602 107.193C280.602 108.499 281.66 109.557 282.966 109.557V108.789C282.084 108.789 281.37 108.075 281.37 107.193L280.602 107.193ZM281.176 105.65C280.819 106.064 280.602 106.604 280.602 107.193H281.37C281.37 106.795 281.516 106.431 281.757 106.152L281.176 105.65ZM281.592 102.409V104.815H282.359V102.409H281.592ZM278.416 101.641H280.824V100.873H278.416V101.641ZM276.037 102.63C276.627 102.63 277.167 102.414 277.581 102.056L277.079 101.475C276.799 101.717 276.436 101.862 276.037 101.862V102.63ZM273.674 100.267C273.674 101.572 274.732 102.63 276.037 102.63V101.862C275.156 101.862 274.442 101.148 274.442 100.267H273.674ZM276.037 97.9032C274.732 97.9032 273.674 98.9613 273.674 100.267H274.442C274.442 99.3853 275.156 98.671 276.037 98.671V97.9032ZM278.416 100.873C277.857 100.873 277.402 101.197 277.079 101.475L277.581 102.056C277.88 101.798 278.152 101.641 278.416 101.641V100.873ZM283.571 104.814C283.571 105.372 283.895 105.828 284.174 106.151L284.755 105.649C284.496 105.35 284.339 105.078 284.339 104.814H283.571ZM282.359 102.409C282.359 101.56 281.672 100.873 280.824 100.873V101.641C281.248 101.641 281.592 101.985 281.592 102.409H282.359ZM287.514 99.6612C288.073 99.6612 288.528 99.3371 288.851 99.0584L288.349 98.4773C288.05 98.736 287.778 98.8934 287.514 98.8934V99.6612ZM281.757 106.152C282.036 105.829 282.359 105.373 282.359 104.815H281.592C281.592 105.079 281.434 105.35 281.176 105.65L281.757 106.152ZM283.571 98.1256C283.571 98.9737 284.259 99.6612 285.107 99.6612V98.8934C284.683 98.8934 284.339 98.5497 284.339 98.1256H283.571ZM285.107 100.873C284.259 100.873 283.571 101.56 283.571 102.409H284.339C284.339 101.985 284.683 101.641 285.107 101.641V100.873ZM282.359 95.7155C282.359 95.1572 282.036 94.7016 281.757 94.3789L281.176 94.8805C281.434 95.1801 281.592 95.4519 281.592 95.7155H282.359ZM284.174 94.3793C283.895 94.7021 283.571 95.1579 283.571 95.7165H284.339C284.339 95.4527 284.496 95.1808 284.755 94.8811L284.174 94.3793ZM288.852 101.475C288.529 101.197 288.073 100.873 287.515 100.873V101.641C287.779 101.641 288.05 101.798 288.35 102.056L288.852 101.475ZM280.824 99.6612C281.672 99.6612 282.359 98.9737 282.359 98.1256H281.592C281.592 98.5497 281.248 98.8934 280.824 98.8934V99.6612ZM277.079 99.0584C277.402 99.3371 277.858 99.6612 278.417 99.6612V98.8934C278.153 98.8934 277.881 98.736 277.581 98.4773L277.079 99.0584Z" fill="#F4FB71" mask="url(#path-3-outside-1_1297_10206)"/>
<path d="M185.171 91.6887L180.787 71.0837L173.334 56.6163L142 50L108.2 60.1235L79.7002 71.0837L-1.2998 111.417V49L46.5 29.5L74 18L103.2 12L145.2 5L179 10.5L210.16 20.667L218.49 28.1199L228.573 51.7938L243.041 60.1235L239.972 71.0837L251.37 82.0438L259.7 86.4279L253.562 101.772L243.041 111.417V103.964L214.983 93.4424L222.874 119.308L228.573 121.062L214.983 132.46L207.968 128.953L200.515 101.772L185.171 91.6887Z" fill="url(#paint1_linear_1297_10206)"/>
<circle cx="222.866" cy="61.6662" r="15.3412" transform="rotate(-15 222.866 61.6662)" fill="#F3F6BC"/>
<mask id="path-7-outside-2_1297_10206" maskUnits="userSpaceOnUse" x="215.058" y="50.1729" width="20" height="20" fill="black">
<rect fill="white" x="215.058" y="50.1729" width="20" height="20"/>
<path fill-rule="evenodd" clip-rule="evenodd" d="M218.037 58.2866C218.531 58.2866 218.983 58.4677 219.33 58.7672C219.641 59.0359 220.005 59.2765 220.416 59.2765H222.824C223.46 59.2765 223.976 58.7609 223.976 58.1248V55.7159C223.976 55.3048 223.735 54.9411 223.467 54.6299C223.167 54.283 222.986 53.8312 222.986 53.337C222.986 52.2438 223.872 51.3575 224.966 51.3575C226.059 51.3575 226.945 52.2438 226.945 53.337C226.945 53.8313 226.764 54.2832 226.465 54.63C226.196 54.9412 225.955 55.305 225.955 55.7162V58.1248C225.955 58.7609 226.471 59.2765 227.107 59.2765H229.514C229.925 59.2765 230.289 59.0359 230.6 58.7672C230.947 58.4677 231.399 58.2866 231.893 58.2866C232.987 58.2866 233.873 59.1729 233.873 60.2661C233.873 61.3594 232.987 62.2457 231.893 62.2457C231.399 62.2457 230.947 62.0646 230.601 61.7652C230.289 61.4966 229.926 61.256 229.515 61.256H227.107C226.471 61.256 225.955 61.7717 225.955 62.4077V64.8142C225.955 65.2254 226.196 65.5892 226.465 65.9004C226.764 66.2472 226.945 66.6991 226.945 67.1933C226.945 68.2866 226.059 69.1729 224.966 69.1729C223.872 69.1729 222.986 68.2866 222.986 67.1933C222.986 66.6992 223.167 66.2474 223.467 65.9005C223.735 65.5893 223.976 65.2256 223.976 64.8145V62.4077C223.976 61.7717 223.46 61.256 222.824 61.256H220.416C220.005 61.256 219.641 61.4966 219.33 61.7652C218.983 62.0646 218.531 62.2457 218.037 62.2457C216.944 62.2457 216.058 61.3594 216.058 60.2661C216.058 59.1729 216.944 58.2866 218.037 58.2866Z"/>
</mask>
<g filter="url(#filter1_i_1297_10206)">
<path fill-rule="evenodd" clip-rule="evenodd" d="M218.037 58.2866C218.531 58.2866 218.983 58.4677 219.33 58.7672C219.641 59.0359 220.005 59.2765 220.416 59.2765H222.824C223.46 59.2765 223.976 58.7609 223.976 58.1248V55.7159C223.976 55.3048 223.735 54.9411 223.467 54.6299C223.167 54.283 222.986 53.8312 222.986 53.337C222.986 52.2438 223.872 51.3575 224.966 51.3575C226.059 51.3575 226.945 52.2438 226.945 53.337C226.945 53.8313 226.764 54.2832 226.465 54.63C226.196 54.9412 225.955 55.305 225.955 55.7162V58.1248C225.955 58.7609 226.471 59.2765 227.107 59.2765H229.514C229.925 59.2765 230.289 59.0359 230.6 58.7672C230.947 58.4677 231.399 58.2866 231.893 58.2866C232.987 58.2866 233.873 59.1729 233.873 60.2661C233.873 61.3594 232.987 62.2457 231.893 62.2457C231.399 62.2457 230.947 62.0646 230.601 61.7652C230.289 61.4966 229.926 61.256 229.515 61.256H227.107C226.471 61.256 225.955 61.7717 225.955 62.4077V64.8142C225.955 65.2254 226.196 65.5892 226.465 65.9004C226.764 66.2472 226.945 66.6991 226.945 67.1933C226.945 68.2866 226.059 69.1729 224.966 69.1729C223.872 69.1729 222.986 68.2866 222.986 67.1933C222.986 66.6992 223.167 66.2474 223.467 65.9005C223.735 65.5893 223.976 65.2256 223.976 64.8145V62.4077C223.976 61.7717 223.46 61.256 222.824 61.256H220.416C220.005 61.256 219.641 61.4966 219.33 61.7652C218.983 62.0646 218.531 62.2457 218.037 62.2457C216.944 62.2457 216.058 61.3594 216.058 60.2661C216.058 59.1729 216.944 58.2866 218.037 58.2866Z" fill="#4E3A3A"/>
</g>
<path d="M222.986 67.1933L223.37 67.1933V67.1933H222.986ZM219.33 61.7652L219.079 61.4746L219.33 61.7652ZM226.465 65.9004L226.174 66.1513L226.465 65.9004ZM230.6 58.7672L230.851 59.0578L230.6 58.7672ZM223.467 54.6299L223.176 54.8807L223.467 54.6299ZM226.465 54.63L226.755 54.8809L226.465 54.63ZM230.601 61.7652L230.35 62.0558L230.601 61.7652ZM219.33 58.7672L219.079 59.0578L219.33 58.7672ZM219.581 58.4766C219.167 58.1192 218.627 57.9027 218.037 57.9027V58.6705C218.436 58.6705 218.799 58.8162 219.079 59.0578L219.581 58.4766ZM222.824 58.8926H220.416V59.6604H222.824V58.8926ZM223.592 55.7159V58.1248H224.36V55.7159H223.592ZM222.602 53.337C222.602 53.9267 222.819 54.4668 223.176 54.8807L223.757 54.379C223.516 54.0992 223.37 53.7356 223.37 53.337H222.602ZM224.966 50.9736C223.66 50.9736 222.602 52.0318 222.602 53.337H223.37C223.37 52.4558 224.084 51.7414 224.966 51.7414V50.9736ZM227.329 53.337C227.329 52.0318 226.271 50.9736 224.966 50.9736V51.7414C225.847 51.7414 226.561 52.4558 226.561 53.337H227.329ZM226.755 54.8809C227.113 54.467 227.329 53.9268 227.329 53.337H226.561C226.561 53.7357 226.416 54.0993 226.174 54.3791L226.755 54.8809ZM226.339 58.1248V55.7162H225.571V58.1248H226.339ZM229.514 58.8926H227.107V59.6604H229.514V58.8926ZM231.893 57.9027C231.304 57.9027 230.764 58.1192 230.35 58.4766L230.851 59.0578C231.131 58.8162 231.495 58.6705 231.893 58.6705V57.9027ZM234.257 60.2661C234.257 58.9609 233.199 57.9027 231.893 57.9027V58.6705C232.775 58.6705 233.489 59.3849 233.489 60.2661H234.257ZM231.893 62.6296C233.199 62.6296 234.257 61.5714 234.257 60.2661H233.489C233.489 61.1474 232.775 61.8617 231.893 61.8617V62.6296ZM230.35 62.0558C230.764 62.4131 231.304 62.6296 231.893 62.6296V61.8617C231.495 61.8617 231.131 61.7161 230.851 61.4746L230.35 62.0558ZM227.107 61.6399H229.515V60.8721H227.107V61.6399ZM226.339 64.8142V62.4077H225.571V64.8142H226.339ZM227.329 67.1933C227.329 66.6036 227.113 66.0634 226.755 65.6495L226.174 66.1513C226.416 66.431 226.561 66.7947 226.561 67.1933H227.329ZM224.966 69.5568C226.271 69.5568 227.329 68.4986 227.329 67.1933H226.561C226.561 68.0746 225.847 68.7889 224.966 68.7889V69.5568ZM222.602 67.1933C222.602 68.4986 223.66 69.5568 224.966 69.5568V68.7889C224.084 68.7889 223.37 68.0746 223.37 67.1933L222.602 67.1933ZM223.176 65.6497C222.819 66.0636 222.602 66.6037 222.602 67.1933H223.37C223.37 66.7947 223.516 66.4311 223.757 66.1514L223.176 65.6497ZM223.592 62.4077V64.8145H224.36V62.4077H223.592ZM220.416 61.6399H222.824V60.8721H220.416V61.6399ZM218.037 62.6296C218.627 62.6296 219.167 62.4131 219.581 62.0558L219.079 61.4746C218.799 61.7161 218.436 61.8617 218.037 61.8617V62.6296ZM215.674 60.2661C215.674 61.5714 216.732 62.6296 218.037 62.6296V61.8617C217.156 61.8617 216.442 61.1474 216.442 60.2661H215.674ZM218.037 57.9027C216.732 57.9027 215.674 58.9609 215.674 60.2661H216.442C216.442 59.3849 217.156 58.6705 218.037 58.6705V57.9027ZM220.416 60.8721C219.858 60.8721 219.402 61.196 219.079 61.4746L219.581 62.0558C219.88 61.7972 220.152 61.6399 220.416 61.6399V60.8721ZM225.571 64.8142C225.571 65.3728 225.895 65.8285 226.174 66.1513L226.755 65.6495C226.497 65.3498 226.339 65.078 226.339 64.8142H225.571ZM224.36 62.4077C224.36 61.5596 223.672 60.8721 222.824 60.8721V61.6399C223.248 61.6399 223.592 61.9837 223.592 62.4077H224.36ZM229.514 59.6604C230.073 59.6604 230.529 59.3365 230.851 59.0578L230.35 58.4766C230.05 58.7353 229.778 58.8926 229.514 58.8926V59.6604ZM223.757 66.1514C224.036 65.8286 224.36 65.3729 224.36 64.8145H223.592C223.592 65.0782 223.435 65.35 223.176 65.6497L223.757 66.1514ZM225.571 58.1248C225.571 58.9729 226.259 59.6604 227.107 59.6604V58.8926C226.683 58.8926 226.339 58.5489 226.339 58.1248H225.571ZM227.107 60.8721C226.259 60.8721 225.571 61.5596 225.571 62.4077H226.339C226.339 61.9837 226.683 61.6399 227.107 61.6399V60.8721ZM224.36 55.7159C224.36 55.1574 224.036 54.7018 223.757 54.379L223.176 54.8807C223.435 55.1803 223.592 55.4522 223.592 55.7159H224.36ZM226.174 54.3791C225.895 54.7019 225.571 55.1576 225.571 55.7162H226.339C226.339 55.4524 226.497 55.1805 226.755 54.8809L226.174 54.3791ZM230.851 61.4746C230.529 61.196 230.073 60.8721 229.515 60.8721V61.6399C229.778 61.6399 230.05 61.7972 230.35 62.0558L230.851 61.4746ZM222.824 59.6604C223.672 59.6604 224.36 58.9729 224.36 58.1248H223.592C223.592 58.5489 223.248 58.8926 222.824 58.8926V59.6604ZM219.079 59.0578C219.402 59.3365 219.858 59.6604 220.416 59.6604V58.8926C220.152 58.8926 219.881 58.7353 219.581 58.4766L219.079 59.0578Z" fill="#F4FB71" mask="url(#path-7-outside-2_1297_10206)"/>
<path d="M151.5 186.2L130.753 182.546L114.547 184.037L95.0106 186.2L73.7451 184.037L49.2451 179.023L27.2452 170.263L-1.25481 154.763L-1.2549 93.2625L25.7451 116.263L60.2446 131.013L95.0106 136.425L105.041 131.494L130.768 131.014L143.911 120.72L152.924 127.671L167.356 121.208L174.541 115.127L186.469 126.566L191.47 139.935L184.56 137.143L164.293 159.216L191.232 161.589L194.993 156.962L200.47 173.833L194.591 179.023L166.597 175.751L151.5 186.2Z" fill="url(#paint2_linear_1297_10206)"/>
<circle cx="137.788" cy="140.003" r="15.3412" transform="rotate(-83 137.788 140.003)" fill="#F3F6BC"/>
<mask id="path-11-outside-3_1297_10206" maskUnits="userSpaceOnUse" x="124.204" y="124.395" width="26.0358" height="26.0358" fill="black">
<rect fill="white" x="124.204" y="124.395" width="26.0358" height="26.0358"/>
<path fill-rule="evenodd" clip-rule="evenodd" d="M132.843 143.215C133.028 142.757 133.366 142.406 133.773 142.197C134.139 142.009 134.499 141.762 134.653 141.38L135.555 139.148C135.793 138.558 135.508 137.887 134.918 137.649L132.684 136.746C132.303 136.592 131.876 136.679 131.486 136.811C131.053 136.959 130.566 136.958 130.108 136.773C129.094 136.363 128.605 135.209 129.014 134.196C129.424 133.182 130.577 132.692 131.591 133.102C132.049 133.287 132.4 133.624 132.61 134.032C132.798 134.398 133.045 134.757 133.426 134.911L135.66 135.814C136.249 136.052 136.921 135.767 137.159 135.177L138.061 132.945C138.215 132.564 138.128 132.136 137.995 131.747C137.847 131.313 137.849 130.826 138.034 130.368C138.443 129.354 139.597 128.864 140.611 129.274C141.624 129.684 142.114 130.837 141.705 131.851C141.519 132.309 141.182 132.66 140.775 132.869C140.41 133.057 140.051 133.304 139.897 133.685L138.994 135.919C138.756 136.508 139.041 137.18 139.631 137.418L141.861 138.319C142.243 138.473 142.67 138.386 143.059 138.254C143.493 138.106 143.98 138.107 144.439 138.292C145.452 138.702 145.942 139.855 145.532 140.869C145.123 141.883 143.969 142.373 142.956 141.963C142.498 141.778 142.146 141.441 141.937 141.034C141.749 140.668 141.502 140.309 141.121 140.155L138.889 139.253C138.299 139.015 137.628 139.3 137.39 139.89L136.488 142.123C136.334 142.504 136.421 142.931 136.553 143.32C136.701 143.754 136.699 144.24 136.514 144.699C136.105 145.712 134.951 146.202 133.937 145.792C132.924 145.383 132.434 144.229 132.843 143.215Z"/>
</mask>
<g filter="url(#filter2_i_1297_10206)">
<path fill-rule="evenodd" clip-rule="evenodd" d="M132.843 143.215C133.028 142.757 133.366 142.406 133.773 142.197C134.139 142.009 134.499 141.762 134.653 141.38L135.555 139.148C135.793 138.558 135.508 137.887 134.918 137.649L132.684 136.746C132.303 136.592 131.876 136.679 131.486 136.811C131.053 136.959 130.566 136.958 130.108 136.773C129.094 136.363 128.605 135.209 129.014 134.196C129.424 133.182 130.577 132.692 131.591 133.102C132.049 133.287 132.4 133.624 132.61 134.032C132.798 134.398 133.045 134.757 133.426 134.911L135.66 135.814C136.249 136.052 136.921 135.767 137.159 135.177L138.061 132.945C138.215 132.564 138.128 132.136 137.995 131.747C137.847 131.313 137.849 130.826 138.034 130.368C138.443 129.354 139.597 128.864 140.611 129.274C141.624 129.684 142.114 130.837 141.705 131.851C141.519 132.309 141.182 132.66 140.775 132.869C140.41 133.057 140.051 133.304 139.897 133.685L138.994 135.919C138.756 136.508 139.041 137.18 139.631 137.418L141.861 138.319C142.243 138.473 142.67 138.386 143.059 138.254C143.493 138.106 143.98 138.107 144.439 138.292C145.452 138.702 145.942 139.855 145.532 140.869C145.123 141.883 143.969 142.373 142.956 141.963C142.498 141.778 142.146 141.441 141.937 141.034C141.749 140.668 141.502 140.309 141.121 140.155L138.889 139.253C138.299 139.015 137.628 139.3 137.39 139.89L136.488 142.123C136.334 142.504 136.421 142.931 136.553 143.32C136.701 143.754 136.699 144.24 136.514 144.699C136.105 145.712 134.951 146.202 133.937 145.792C132.924 145.383 132.434 144.229 132.843 143.215Z" fill="#4E3A3A"/>
</g>
<path d="M145.532 140.869L145.888 141.013L145.532 140.869ZM136.488 142.123L136.132 141.979L136.488 142.123ZM136.553 143.32L136.916 143.196L136.553 143.32ZM141.861 138.319L142.005 137.963L141.861 138.319ZM143.059 138.254L142.936 137.89L143.059 138.254ZM137.39 139.89L137.746 140.034L137.39 139.89ZM138.061 132.945L138.417 133.089L138.061 132.945ZM141.121 140.155L141.265 139.799L141.121 140.155ZM135.66 135.814L135.803 135.458L135.66 135.814ZM132.684 136.746L132.54 137.102L132.684 136.746ZM133.426 134.911L133.282 135.267L133.426 134.911ZM140.775 132.869L140.6 132.528L140.775 132.869ZM139.897 133.685L140.253 133.829L139.897 133.685ZM133.773 142.197L133.598 141.855L133.773 142.197ZM133.598 141.855C133.112 142.105 132.708 142.525 132.487 143.072L133.199 143.359C133.349 142.99 133.62 142.707 133.949 142.538L133.598 141.855ZM135.199 139.004L134.297 141.236L135.009 141.524L135.91 139.292L135.199 139.004ZM132.54 137.102L134.774 138.005L135.062 137.293L132.828 136.39L132.54 137.102ZM129.964 137.128C130.511 137.349 131.093 137.351 131.61 137.175L131.363 136.448C131.013 136.567 130.621 136.566 130.252 136.417L129.964 137.128ZM128.658 134.052C128.169 135.262 128.754 136.64 129.964 137.128L130.252 136.417C129.435 136.086 129.04 135.157 129.37 134.339L128.658 134.052ZM131.735 132.746C130.525 132.257 129.147 132.842 128.658 134.052L129.37 134.339C129.7 133.522 130.63 133.128 131.447 133.458L131.735 132.746ZM132.951 133.856C132.701 133.37 132.282 132.967 131.735 132.746L131.447 133.458C131.817 133.607 132.099 133.878 132.268 134.207L132.951 133.856ZM135.803 135.458L133.57 134.555L133.282 135.267L135.516 136.169L135.803 135.458ZM137.705 132.801L136.803 135.033L137.515 135.321L138.417 133.089L137.705 132.801ZM137.678 130.224C137.457 130.771 137.455 131.353 137.632 131.871L138.358 131.623C138.239 131.273 138.24 130.881 138.39 130.512L137.678 130.224ZM140.754 128.918C139.544 128.429 138.167 129.014 137.678 130.224L138.39 130.512C138.72 129.695 139.65 129.3 140.467 129.63L140.754 128.918ZM142.06 131.995C142.549 130.784 141.965 129.407 140.754 128.918L140.467 129.63C141.284 129.96 141.679 130.89 141.349 131.707L142.06 131.995ZM140.951 133.211C141.437 132.961 141.84 132.541 142.06 131.995L141.349 131.707C141.199 132.077 140.928 132.359 140.6 132.528L140.951 133.211ZM139.35 136.062L140.253 133.829L139.541 133.542L138.638 135.775L139.35 136.062ZM142.005 137.963L139.775 137.062L139.487 137.774L141.717 138.675L142.005 137.963ZM144.582 137.936C144.035 137.715 143.453 137.714 142.936 137.89L143.183 138.617C143.533 138.498 143.925 138.499 144.295 138.648L144.582 137.936ZM145.888 141.013C146.377 139.803 145.793 138.425 144.582 137.936L144.295 138.648C145.112 138.978 145.507 139.908 145.177 140.725L145.888 141.013ZM142.812 142.319C144.022 142.808 145.399 142.223 145.888 141.013L145.177 140.725C144.846 141.542 143.916 141.937 143.099 141.607L142.812 142.319ZM141.596 141.209C141.846 141.695 142.265 142.098 142.812 142.319L143.099 141.607C142.73 141.458 142.447 141.187 142.278 140.858L141.596 141.209ZM138.745 139.609L140.977 140.511L141.265 139.799L139.033 138.897L138.745 139.609ZM136.844 142.266L137.746 140.034L137.034 139.746L136.132 141.979L136.844 142.266ZM136.87 144.842C137.091 144.296 137.093 143.714 136.916 143.196L136.19 143.444C136.309 143.794 136.307 144.185 136.158 144.555L136.87 144.842ZM133.793 146.148C135.004 146.637 136.381 146.053 136.87 144.842L136.158 144.555C135.828 145.372 134.898 145.767 134.081 145.436L133.793 146.148ZM132.487 143.072C131.998 144.282 132.583 145.659 133.793 146.148L134.081 145.436C133.264 145.106 132.869 144.176 133.199 143.359L132.487 143.072ZM136.132 141.979C135.923 142.496 136.052 143.04 136.19 143.444L136.916 143.196C136.789 142.822 136.745 142.511 136.844 142.266L136.132 141.979ZM141.717 138.675C142.235 138.884 142.779 138.755 143.183 138.617L142.936 137.89C142.561 138.018 142.25 138.062 142.005 137.963L141.717 138.675ZM139.033 138.897C138.247 138.58 137.352 138.96 137.034 139.746L137.746 140.034C137.905 139.64 138.352 139.45 138.745 139.609L139.033 138.897ZM138.417 133.089C138.626 132.571 138.496 132.027 138.358 131.623L137.632 131.871C137.759 132.246 137.804 132.557 137.705 132.801L138.417 133.089ZM142.278 140.858C142.084 140.479 141.782 140.008 141.265 139.799L140.977 140.511C141.222 140.61 141.415 140.857 141.596 141.209L142.278 140.858ZM135.516 136.169C136.302 136.487 137.197 136.107 137.515 135.321L136.803 135.033C136.644 135.426 136.197 135.616 135.803 135.458L135.516 136.169ZM138.638 135.775C138.321 136.561 138.701 137.456 139.487 137.774L139.775 137.062C139.381 136.903 139.191 136.456 139.35 136.062L138.638 135.775ZM132.828 136.39C132.31 136.181 131.766 136.311 131.363 136.448L131.61 137.175C131.985 137.047 132.296 137.003 132.54 137.102L132.828 136.39ZM132.268 134.207C132.463 134.587 132.764 135.058 133.282 135.267L133.57 134.555C133.325 134.456 133.132 134.209 132.951 133.856L132.268 134.207ZM140.6 132.528C140.22 132.723 139.75 133.024 139.541 133.542L140.253 133.829C140.351 133.585 140.599 133.392 140.951 133.211L140.6 132.528ZM135.91 139.292C136.228 138.506 135.848 137.611 135.062 137.293L134.774 138.005C135.167 138.164 135.357 138.611 135.199 139.004L135.91 139.292ZM133.949 142.538C134.328 142.343 134.799 142.042 135.009 141.524L134.297 141.236C134.198 141.481 133.95 141.674 133.598 141.855L133.949 142.538Z" fill="#F4FB71" mask="url(#path-11-outside-3_1297_10206)"/>
</g>
<defs>
<filter id="filter0_i_1297_10206" x="273.674" y="90.9736" width="18.583" height="18.583" filterUnits="userSpaceOnUse" color-interpolation-filters="sRGB">
<feFlood flood-opacity="0" result="BackgroundImageFix"/>
<feBlend mode="normal" in="SourceGraphic" in2="BackgroundImageFix" result="shape"/>
<feColorMatrix in="SourceAlpha" type="matrix" values="0 0 0 0 0 0 0 0 0 0 0 0 0 0 0 0 0 0 127 0" result="hardAlpha"/>
<feOffset/>
<feGaussianBlur stdDeviation="0.767811"/>
<feComposite in2="hardAlpha" operator="arithmetic" k2="-1" k3="1"/>
<feColorMatrix type="matrix" values="0 0 0 0 0.956863 0 0 0 0 0.984314 0 0 0 0 0.443137 0 0 0 1 0"/>
<feBlend mode="normal" in2="shape" result="effect1_innerShadow_1297_10206"/>
</filter>
<filter id="filter1_i_1297_10206" x="215.674" y="50.9736" width="18.583" height="18.583" filterUnits="userSpaceOnUse" color-interpolation-filters="sRGB">
<feFlood flood-opacity="0" result="BackgroundImageFix"/>
<feBlend mode="normal" in="SourceGraphic" in2="BackgroundImageFix" result="shape"/>
<feColorMatrix in="SourceAlpha" type="matrix" values="0 0 0 0 0 0 0 0 0 0 0 0 0 0 0 0 0 0 127 0" result="hardAlpha"/>
<feOffset/>
<feGaussianBlur stdDeviation="0.767811"/>
<feComposite in2="hardAlpha" operator="arithmetic" k2="-1" k3="1"/>
<feColorMatrix type="matrix" values="0 0 0 0 0.956863 0 0 0 0 0.984314 0 0 0 0 0.443137 0 0 0 1 0"/>
<feBlend mode="normal" in2="shape" result="effect1_innerShadow_1297_10206"/>
</filter>
<filter id="filter2_i_1297_10206" x="128.485" y="128.745" width="17.5762" height="17.5762" filterUnits="userSpaceOnUse" color-interpolation-filters="sRGB">
<feFlood flood-opacity="0" result="BackgroundImageFix"/>
<feBlend mode="normal" in="SourceGraphic" in2="BackgroundImageFix" result="shape"/>
<feColorMatrix in="SourceAlpha" type="matrix" values="0 0 0 0 0 0 0 0 0 0 0 0 0 0 0 0 0 0 127 0" result="hardAlpha"/>
<feOffset/>
<feGaussianBlur stdDeviation="0.767811"/>
<feComposite in2="hardAlpha" operator="arithmetic" k2="-1" k3="1"/>
<feColorMatrix type="matrix" values="0 0 0 0 0.956863 0 0 0 0 0.984314 0 0 0 0 0.443137 0 0 0 1 0"/>
<feBlend mode="normal" in2="shape" result="effect1_innerShadow_1297_10206"/>
</filter>
<linearGradient id="paint0_linear_1297_10206" x1="171.95" y1="57" x2="171.95" y2="188.533" gradientUnits="userSpaceOnUse">
<stop stopColor="#2CB59C"/>
<stop offset="1" stopColor="#207B85"/>
</linearGradient>
<linearGradient id="paint1_linear_1297_10206" x1="129.2" y1="5" x2="129.2" y2="132.46" gradientUnits="userSpaceOnUse">
<stop stopColor="#238F7B"/>
<stop offset="1" stopColor="#145C4F"/>
</linearGradient>
<linearGradient id="paint2_linear_1297_10206" x1="50.1605" y1="205.628" x2="168.34" y2="253.376" gradientUnits="userSpaceOnUse">
<stop stopColor="#166153"/>
<stop offset="1" stopColor="#145C4F"/>
</linearGradient>
<clipPath id="clip0_1297_10206">
<rect width="349" height="194" fill="white"/>
</clipPath>
</defs>
</svg>
