<svg width="347" height="184" viewBox="0 0 347 184" fill="none" xmlns="http://www.w3.org/2000/svg">
<path d="M340.593 84.0352L289.337 96.4724L245 69.5L197 52L124.5 63L82 88.9347H29L0.5 81.4253V141.355L29 149.5H82L124.5 123.985L197 113.432L228 123.985L250.894 142.829L254.286 153.759L273.131 157.151L314.965 183.533H327.779L335.317 167.704L333.055 157.151L327.779 167.704H314.965L281.799 137.93V126.246L340.593 113.432L344.739 123.985L347 108.91L344.739 96.4724L347 88.9347L340.593 84.0352Z" fill="url(#paint0_linear_900_8713)"/>
<circle cx="282.666" cy="96.6663" r="15.3412" transform="rotate(-15 282.666 96.6663)" fill="#F3F6BC"/>
<mask id="path-3-outside-1_900_8713" maskUnits="userSpaceOnUse" x="274.857" y="85.1729" width="20" height="20" fill="black">
<rect fill="white" x="274.857" y="85.1729" width="20" height="20"/>
<path fill-rule="evenodd" clip-rule="evenodd" d="M277.837 93.2866C278.331 93.2866 278.783 93.4677 279.13 93.7672C279.441 94.0359 279.805 94.2765 280.216 94.2765H282.624C283.26 94.2765 283.776 93.7609 283.776 93.1248V90.7159C283.776 90.3048 283.535 89.9411 283.266 89.6299C282.967 89.283 282.786 88.8312 282.786 88.337C282.786 87.2438 283.672 86.3575 284.765 86.3575C285.859 86.3575 286.745 87.2438 286.745 88.337C286.745 88.8313 286.564 89.2832 286.264 89.63C285.996 89.9412 285.755 90.305 285.755 90.7162V93.1248C285.755 93.7609 286.271 94.2765 286.907 94.2765H289.314C289.725 94.2765 290.089 94.0359 290.4 93.7672C290.747 93.4677 291.199 93.2866 291.693 93.2866C292.786 93.2866 293.673 94.1729 293.673 95.2661C293.673 96.3594 292.786 97.2457 291.693 97.2457C291.199 97.2457 290.747 97.0646 290.4 96.7652C290.089 96.4966 289.725 96.256 289.314 96.256H286.907C286.271 96.256 285.755 96.7717 285.755 97.4077V99.8142C285.755 100.225 285.996 100.589 286.264 100.9C286.564 101.247 286.745 101.699 286.745 102.193C286.745 103.287 285.859 104.173 284.765 104.173C283.672 104.173 282.786 103.287 282.786 102.193C282.786 101.699 282.967 101.247 283.266 100.901C283.535 100.589 283.776 100.226 283.776 99.8145V97.4077C283.776 96.7717 283.26 96.256 282.624 96.256H280.216C279.805 96.256 279.441 96.4966 279.13 96.7652C278.783 97.0646 278.331 97.2457 277.837 97.2457C276.744 97.2457 275.857 96.3594 275.857 95.2661C275.857 94.1729 276.744 93.2866 277.837 93.2866Z"/>
</mask>
<g filter="url(#filter0_i_900_8713)">
<path fill-rule="evenodd" clip-rule="evenodd" d="M277.837 93.2866C278.331 93.2866 278.783 93.4677 279.13 93.7672C279.441 94.0359 279.805 94.2765 280.216 94.2765H282.624C283.26 94.2765 283.776 93.7609 283.776 93.1248V90.7159C283.776 90.3048 283.535 89.9411 283.266 89.6299C282.967 89.283 282.786 88.8312 282.786 88.337C282.786 87.2438 283.672 86.3575 284.765 86.3575C285.859 86.3575 286.745 87.2438 286.745 88.337C286.745 88.8313 286.564 89.2832 286.264 89.63C285.996 89.9412 285.755 90.305 285.755 90.7162V93.1248C285.755 93.7609 286.271 94.2765 286.907 94.2765H289.314C289.725 94.2765 290.089 94.0359 290.4 93.7672C290.747 93.4677 291.199 93.2866 291.693 93.2866C292.786 93.2866 293.673 94.1729 293.673 95.2661C293.673 96.3594 292.786 97.2457 291.693 97.2457C291.199 97.2457 290.747 97.0646 290.4 96.7652C290.089 96.4966 289.725 96.256 289.314 96.256H286.907C286.271 96.256 285.755 96.7717 285.755 97.4077V99.8142C285.755 100.225 285.996 100.589 286.264 100.9C286.564 101.247 286.745 101.699 286.745 102.193C286.745 103.287 285.859 104.173 284.765 104.173C283.672 104.173 282.786 103.287 282.786 102.193C282.786 101.699 282.967 101.247 283.266 100.901C283.535 100.589 283.776 100.226 283.776 99.8145V97.4077C283.776 96.7717 283.26 96.256 282.624 96.256H280.216C279.805 96.256 279.441 96.4966 279.13 96.7652C278.783 97.0646 278.331 97.2457 277.837 97.2457C276.744 97.2457 275.857 96.3594 275.857 95.2661C275.857 94.1729 276.744 93.2866 277.837 93.2866Z" fill="#4E3A3A"/>
</g>
<path d="M284.765 104.173L284.765 104.557L284.765 104.173ZM279.13 96.7652L278.879 96.4746L279.13 96.7652ZM286.264 100.9L285.974 101.151L286.264 100.9ZM290.4 93.7672L290.651 94.0578L290.4 93.7672ZM283.266 100.901L283.557 101.151L283.266 100.901ZM286.264 89.63L286.555 89.8809L286.264 89.63ZM290.4 96.7652L290.15 97.0558L290.4 96.7652ZM279.13 93.7672L278.879 94.0578L279.13 93.7672ZM279.381 93.4766C278.967 93.1192 278.427 92.9027 277.837 92.9027V93.6705C278.236 93.6705 278.599 93.8162 278.879 94.0578L279.381 93.4766ZM282.624 93.8926H280.216V94.6604H282.624V93.8926ZM283.392 90.7159V93.1248H284.16V90.7159H283.392ZM282.402 88.337C282.402 88.9267 282.619 89.4668 282.976 89.8807L283.557 89.379C283.316 89.0992 283.17 88.7356 283.17 88.337H282.402ZM284.765 85.9736C283.46 85.9736 282.402 87.0318 282.402 88.337H283.17C283.17 87.4558 283.884 86.7414 284.765 86.7414V85.9736ZM287.129 88.337C287.129 87.0318 286.071 85.9736 284.765 85.9736V86.7414C285.647 86.7414 286.361 87.4558 286.361 88.337H287.129ZM286.555 89.8809C286.912 89.467 287.129 88.9268 287.129 88.337H286.361C286.361 88.7357 286.215 89.0993 285.974 89.3791L286.555 89.8809ZM286.139 93.1248V90.7162H285.371V93.1248H286.139ZM289.314 93.8926H286.907V94.6604H289.314V93.8926ZM291.693 92.9027C291.103 92.9027 290.563 93.1192 290.149 93.4766L290.651 94.0578C290.931 93.8162 291.295 93.6705 291.693 93.6705V92.9027ZM294.057 95.2661C294.057 93.9609 292.999 92.9027 291.693 92.9027V93.6705C292.574 93.6705 293.289 94.3849 293.289 95.2661H294.057ZM291.693 97.6296C292.999 97.6296 294.057 96.5714 294.057 95.2661H293.289C293.289 96.1474 292.574 96.8617 291.693 96.8617V97.6296ZM290.15 97.0558C290.563 97.4131 291.104 97.6296 291.693 97.6296V96.8617C291.295 96.8617 290.931 96.7161 290.651 96.4746L290.15 97.0558ZM286.907 96.6399H289.314V95.8721H286.907V96.6399ZM286.139 99.8142V97.4077H285.371V99.8142H286.139ZM287.129 102.193C287.129 101.604 286.912 101.063 286.555 100.649L285.974 101.151C286.215 101.431 286.361 101.795 286.361 102.193H287.129ZM284.765 104.557C286.071 104.557 287.129 103.499 287.129 102.193H286.361C286.361 103.075 285.647 103.789 284.765 103.789L284.765 104.557ZM282.402 102.193C282.402 103.499 283.46 104.557 284.765 104.557L284.765 103.789C283.884 103.789 283.17 103.075 283.17 102.193H282.402ZM282.976 100.65C282.619 101.064 282.402 101.604 282.402 102.193H283.17C283.17 101.795 283.316 101.431 283.557 101.151L282.976 100.65ZM283.392 97.4077V99.8145H284.16V97.4077H283.392ZM280.216 96.6399H282.624V95.8721H280.216V96.6399ZM277.837 97.6296C278.427 97.6296 278.967 97.4131 279.381 97.0558L278.879 96.4746C278.599 96.7161 278.236 96.8617 277.837 96.8617V97.6296ZM275.474 95.2661C275.474 96.5714 276.532 97.6296 277.837 97.6296V96.8617C276.956 96.8617 276.241 96.1474 276.241 95.2661H275.474ZM277.837 92.9027C276.532 92.9027 275.474 93.9609 275.474 95.2661H276.241C276.241 94.3849 276.956 93.6705 277.837 93.6705V92.9027ZM280.216 95.8721C279.657 95.8721 279.202 96.196 278.879 96.4746L279.381 97.0558C279.68 96.7972 279.952 96.6399 280.216 96.6399V95.8721ZM285.371 99.8142C285.371 100.373 285.695 100.828 285.974 101.151L286.555 100.649C286.296 100.35 286.139 100.078 286.139 99.8142H285.371ZM284.16 97.4077C284.16 96.5596 283.472 95.8721 282.624 95.8721V96.6399C283.048 96.6399 283.392 96.9837 283.392 97.4077H284.16ZM289.314 94.6604C289.873 94.6604 290.328 94.3365 290.651 94.0578L290.149 93.4766C289.85 93.7353 289.578 93.8926 289.314 93.8926V94.6604ZM283.557 101.151C283.836 100.829 284.16 100.373 284.16 99.8145H283.392C283.392 100.078 283.234 100.35 282.976 100.65L283.557 101.151ZM285.371 93.1248C285.371 93.9729 286.059 94.6604 286.907 94.6604V93.8926C286.483 93.8926 286.139 93.5489 286.139 93.1248H285.371ZM286.907 95.8721C286.059 95.8721 285.371 96.5596 285.371 97.4077H286.139C286.139 96.9837 286.483 96.6399 286.907 96.6399V95.8721ZM284.16 90.7159C284.16 90.1574 283.836 89.7018 283.557 89.379L282.976 89.8807C283.234 90.1803 283.392 90.4522 283.392 90.7159H284.16ZM285.974 89.3791C285.695 89.7019 285.371 90.1576 285.371 90.7162H286.139C286.139 90.4524 286.296 90.1805 286.555 89.8809L285.974 89.3791ZM290.651 96.4746C290.328 96.196 289.873 95.8721 289.314 95.8721V96.6399C289.578 96.6399 289.85 96.7972 290.15 97.0558L290.651 96.4746ZM282.624 94.6604C283.472 94.6604 284.16 93.9729 284.16 93.1248H283.392C283.392 93.5489 283.048 93.8926 282.624 93.8926V94.6604ZM278.879 94.0578C279.202 94.3365 279.658 94.6604 280.216 94.6604V93.8926C279.952 93.8926 279.68 93.7353 279.381 93.4766L278.879 94.0578Z" fill="#F4FB71" mask="url(#path-3-outside-1_900_8713)"/>
<path d="M187.471 86.6887L183.087 66.0837L175.634 51.6163L159.413 46.7938L110.5 55.1235L82 66.0837L1 106.417V61L82 15.667L105.5 7L147.5 0L212.46 15.667L220.79 23.1199L230.873 46.7938L245.341 55.1235L242.272 66.0837L253.67 77.0438L262 81.4279L255.862 96.7721L245.341 106.417V98.9641L217.283 88.4424L225.174 114.308L230.873 116.062L217.283 127.46L210.268 123.953L202.815 96.7721L187.471 86.6887Z" fill="url(#paint1_linear_900_8713)"/>
<circle cx="225.166" cy="56.6662" r="15.3412" transform="rotate(-15 225.166 56.6662)" fill="#F3F6BC"/>
<mask id="path-7-outside-2_900_8713" maskUnits="userSpaceOnUse" x="217.357" y="45.1729" width="20" height="20" fill="black">
<rect fill="white" x="217.357" y="45.1729" width="20" height="20"/>
<path fill-rule="evenodd" clip-rule="evenodd" d="M220.337 53.2866C220.831 53.2866 221.283 53.4677 221.63 53.7672C221.941 54.0359 222.305 54.2765 222.716 54.2765H225.124C225.76 54.2765 226.276 53.7609 226.276 53.1248V50.7159C226.276 50.3048 226.035 49.9411 225.766 49.6299C225.467 49.283 225.286 48.8312 225.286 48.337C225.286 47.2438 226.172 46.3575 227.265 46.3575C228.359 46.3575 229.245 47.2438 229.245 48.337C229.245 48.8313 229.064 49.2832 228.764 49.63C228.496 49.9412 228.255 50.305 228.255 50.7162V53.1248C228.255 53.7609 228.771 54.2765 229.407 54.2765H231.814C232.225 54.2765 232.589 54.0359 232.9 53.7672C233.247 53.4677 233.699 53.2866 234.193 53.2866C235.286 53.2866 236.173 54.1729 236.173 55.2661C236.173 56.3594 235.286 57.2457 234.193 57.2457C233.699 57.2457 233.247 57.0646 232.9 56.7652C232.589 56.4966 232.225 56.256 231.814 56.256H229.407C228.771 56.256 228.255 56.7717 228.255 57.4077V59.8142C228.255 60.2254 228.496 60.5892 228.764 60.9004C229.064 61.2472 229.245 61.6991 229.245 62.1933C229.245 63.2866 228.359 64.1729 227.265 64.1729C226.172 64.1729 225.286 63.2866 225.286 62.1933C225.286 61.6992 225.467 61.2474 225.766 60.9005C226.035 60.5893 226.276 60.2256 226.276 59.8145V57.4077C226.276 56.7717 225.76 56.256 225.124 56.256H222.716C222.305 56.256 221.941 56.4966 221.63 56.7652C221.283 57.0646 220.831 57.2457 220.337 57.2457C219.244 57.2457 218.357 56.3594 218.357 55.2661C218.357 54.1729 219.244 53.2866 220.337 53.2866Z"/>
</mask>
<g filter="url(#filter1_i_900_8713)">
<path fill-rule="evenodd" clip-rule="evenodd" d="M220.337 53.2866C220.831 53.2866 221.283 53.4677 221.63 53.7672C221.941 54.0359 222.305 54.2765 222.716 54.2765H225.124C225.76 54.2765 226.276 53.7609 226.276 53.1248V50.7159C226.276 50.3048 226.035 49.9411 225.766 49.6299C225.467 49.283 225.286 48.8312 225.286 48.337C225.286 47.2438 226.172 46.3575 227.265 46.3575C228.359 46.3575 229.245 47.2438 229.245 48.337C229.245 48.8313 229.064 49.2832 228.764 49.63C228.496 49.9412 228.255 50.305 228.255 50.7162V53.1248C228.255 53.7609 228.771 54.2765 229.407 54.2765H231.814C232.225 54.2765 232.589 54.0359 232.9 53.7672C233.247 53.4677 233.699 53.2866 234.193 53.2866C235.286 53.2866 236.173 54.1729 236.173 55.2661C236.173 56.3594 235.286 57.2457 234.193 57.2457C233.699 57.2457 233.247 57.0646 232.9 56.7652C232.589 56.4966 232.225 56.256 231.814 56.256H229.407C228.771 56.256 228.255 56.7717 228.255 57.4077V59.8142C228.255 60.2254 228.496 60.5892 228.764 60.9004C229.064 61.2472 229.245 61.6991 229.245 62.1933C229.245 63.2866 228.359 64.1729 227.265 64.1729C226.172 64.1729 225.286 63.2866 225.286 62.1933C225.286 61.6992 225.467 61.2474 225.766 60.9005C226.035 60.5893 226.276 60.2256 226.276 59.8145V57.4077C226.276 56.7717 225.76 56.256 225.124 56.256H222.716C222.305 56.256 221.941 56.4966 221.63 56.7652C221.283 57.0646 220.831 57.2457 220.337 57.2457C219.244 57.2457 218.357 56.3594 218.357 55.2661C218.357 54.1729 219.244 53.2866 220.337 53.2866Z" fill="#4E3A3A"/>
</g>
<path d="M225.286 62.1933L225.67 62.1933V62.1933H225.286ZM221.63 56.7652L221.379 56.4746L221.63 56.7652ZM228.764 60.9004L228.474 61.1513L228.764 60.9004ZM232.9 53.7672L233.151 54.0578L232.9 53.7672ZM225.766 49.6299L225.476 49.8807L225.766 49.6299ZM228.764 49.63L229.055 49.8809L228.764 49.63ZM232.9 56.7652L232.65 57.0558L232.9 56.7652ZM221.63 53.7672L221.379 54.0578L221.63 53.7672ZM221.881 53.4766C221.467 53.1192 220.927 52.9027 220.337 52.9027V53.6705C220.736 53.6705 221.099 53.8162 221.379 54.0578L221.881 53.4766ZM225.124 53.8926H222.716V54.6604H225.124V53.8926ZM225.892 50.7159V53.1248H226.66V50.7159H225.892ZM224.902 48.337C224.902 48.9267 225.119 49.4668 225.476 49.8807L226.057 49.379C225.816 49.0992 225.67 48.7356 225.67 48.337H224.902ZM227.265 45.9736C225.96 45.9736 224.902 47.0318 224.902 48.337H225.67C225.67 47.4558 226.384 46.7414 227.265 46.7414V45.9736ZM229.629 48.337C229.629 47.0318 228.571 45.9736 227.265 45.9736V46.7414C228.147 46.7414 228.861 47.4558 228.861 48.337H229.629ZM229.055 49.8809C229.412 49.467 229.629 48.9268 229.629 48.337H228.861C228.861 48.7357 228.715 49.0993 228.474 49.3791L229.055 49.8809ZM228.639 53.1248V50.7162H227.871V53.1248H228.639ZM231.814 53.8926H229.407V54.6604H231.814V53.8926ZM234.193 52.9027C233.603 52.9027 233.063 53.1192 232.649 53.4766L233.151 54.0578C233.431 53.8162 233.795 53.6705 234.193 53.6705V52.9027ZM236.557 55.2661C236.557 53.9609 235.499 52.9027 234.193 52.9027V53.6705C235.074 53.6705 235.789 54.3849 235.789 55.2661H236.557ZM234.193 57.6296C235.499 57.6296 236.557 56.5714 236.557 55.2661H235.789C235.789 56.1474 235.074 56.8617 234.193 56.8617V57.6296ZM232.65 57.0558C233.063 57.4131 233.604 57.6296 234.193 57.6296V56.8617C233.795 56.8617 233.431 56.7161 233.151 56.4746L232.65 57.0558ZM229.407 56.6399H231.814V55.8721H229.407V56.6399ZM228.639 59.8142V57.4077H227.871V59.8142H228.639ZM229.629 62.1933C229.629 61.6036 229.412 61.0634 229.055 60.6495L228.474 61.1513C228.715 61.431 228.861 61.7947 228.861 62.1933H229.629ZM227.265 64.5568C228.571 64.5568 229.629 63.4986 229.629 62.1933H228.861C228.861 63.0746 228.147 63.7889 227.265 63.7889V64.5568ZM224.902 62.1933C224.902 63.4986 225.96 64.5568 227.265 64.5568V63.7889C226.384 63.7889 225.67 63.0746 225.67 62.1933L224.902 62.1933ZM225.476 60.6497C225.119 61.0636 224.902 61.6037 224.902 62.1933H225.67C225.67 61.7947 225.816 61.4311 226.057 61.1514L225.476 60.6497ZM225.892 57.4077V59.8145H226.66V57.4077H225.892ZM222.716 56.6399H225.124V55.8721H222.716V56.6399ZM220.337 57.6296C220.927 57.6296 221.467 57.4131 221.881 57.0558L221.379 56.4746C221.099 56.7161 220.736 56.8617 220.337 56.8617V57.6296ZM217.974 55.2661C217.974 56.5714 219.032 57.6296 220.337 57.6296V56.8617C219.456 56.8617 218.741 56.1474 218.741 55.2661H217.974ZM220.337 52.9027C219.032 52.9027 217.974 53.9609 217.974 55.2661H218.741C218.741 54.3849 219.456 53.6705 220.337 53.6705V52.9027ZM222.716 55.8721C222.157 55.8721 221.702 56.196 221.379 56.4746L221.881 57.0558C222.18 56.7972 222.452 56.6399 222.716 56.6399V55.8721ZM227.871 59.8142C227.871 60.3728 228.195 60.8285 228.474 61.1513L229.055 60.6495C228.796 60.3498 228.639 60.078 228.639 59.8142H227.871ZM226.66 57.4077C226.66 56.5596 225.972 55.8721 225.124 55.8721V56.6399C225.548 56.6399 225.892 56.9837 225.892 57.4077H226.66ZM231.814 54.6604C232.373 54.6604 232.828 54.3365 233.151 54.0578L232.649 53.4766C232.35 53.7353 232.078 53.8926 231.814 53.8926V54.6604ZM226.057 61.1514C226.336 60.8286 226.66 60.3729 226.66 59.8145H225.892C225.892 60.0782 225.734 60.35 225.476 60.6497L226.057 61.1514ZM227.871 53.1248C227.871 53.9729 228.559 54.6604 229.407 54.6604V53.8926C228.983 53.8926 228.639 53.5489 228.639 53.1248H227.871ZM229.407 55.8721C228.559 55.8721 227.871 56.5596 227.871 57.4077H228.639C228.639 56.9837 228.983 56.6399 229.407 56.6399V55.8721ZM226.66 50.7159C226.66 50.1574 226.336 49.7018 226.057 49.379L225.476 49.8807C225.734 50.1803 225.892 50.4522 225.892 50.7159H226.66ZM228.474 49.3791C228.195 49.7019 227.871 50.1576 227.871 50.7162H228.639C228.639 50.4524 228.796 50.1805 229.055 49.8809L228.474 49.3791ZM233.151 56.4746C232.828 56.196 232.373 55.8721 231.814 55.8721V56.6399C232.078 56.6399 232.35 56.7972 232.65 57.0558L233.151 56.4746ZM225.124 54.6604C225.972 54.6604 226.66 53.9729 226.66 53.1248H225.892C225.892 53.5489 225.548 53.8926 225.124 53.8926V54.6604ZM221.379 54.0578C221.702 54.3365 222.158 54.6604 222.716 54.6604V53.8926C222.452 53.8926 222.18 53.7353 221.881 53.4766L221.379 54.0578Z" fill="#F4FB71" mask="url(#path-7-outside-2_900_8713)"/>
<defs>
<filter id="filter0_i_900_8713" x="275.474" y="85.9736" width="18.583" height="18.583" filterUnits="userSpaceOnUse" color-interpolation-filters="sRGB">
<feFlood flood-opacity="0" result="BackgroundImageFix"/>
<feBlend mode="normal" in="SourceGraphic" in2="BackgroundImageFix" result="shape"/>
<feColorMatrix in="SourceAlpha" type="matrix" values="0 0 0 0 0 0 0 0 0 0 0 0 0 0 0 0 0 0 127 0" result="hardAlpha"/>
<feOffset/>
<feGaussianBlur stdDeviation="0.767811"/>
<feComposite in2="hardAlpha" operator="arithmetic" k2="-1" k3="1"/>
<feColorMatrix type="matrix" values="0 0 0 0 0.956863 0 0 0 0 0.984314 0 0 0 0 0.443137 0 0 0 1 0"/>
<feBlend mode="normal" in2="shape" result="effect1_innerShadow_900_8713"/>
</filter>
<filter id="filter1_i_900_8713" x="217.974" y="45.9736" width="18.583" height="18.583" filterUnits="userSpaceOnUse" color-interpolation-filters="sRGB">
<feFlood flood-opacity="0" result="BackgroundImageFix"/>
<feBlend mode="normal" in="SourceGraphic" in2="BackgroundImageFix" result="shape"/>
<feColorMatrix in="SourceAlpha" type="matrix" values="0 0 0 0 0 0 0 0 0 0 0 0 0 0 0 0 0 0 127 0" result="hardAlpha"/>
<feOffset/>
<feGaussianBlur stdDeviation="0.767811"/>
<feComposite in2="hardAlpha" operator="arithmetic" k2="-1" k3="1"/>
<feColorMatrix type="matrix" values="0 0 0 0 0.956863 0 0 0 0 0.984314 0 0 0 0 0.443137 0 0 0 1 0"/>
<feBlend mode="normal" in2="shape" result="effect1_innerShadow_900_8713"/>
</filter>
<linearGradient id="paint0_linear_900_8713" x1="173.75" y1="52" x2="173.75" y2="183.533" gradientUnits="userSpaceOnUse">
<stop stop-color="#2CB59C"/>
<stop offset="1" stop-color="#207B85"/>
</linearGradient>
<linearGradient id="paint1_linear_900_8713" x1="131.5" y1="0" x2="131.5" y2="127.46" gradientUnits="userSpaceOnUse">
<stop stop-color="#238F7B"/>
<stop offset="1" stop-color="#145C4F"/>
</linearGradient>
</defs>
</svg>
