<svg xmlns="http://www.w3.org/2000/svg" width="403" height="575" fill="none"><path fill="#48BBFE" fill-opacity=".41" d="M40.446 16.124 6.629 5.045a1.185 1.185 0 0 0-1.55 1.049l-1.075 16.49q-.01.181.03.356l4.656 19.3q.042.175.03.355L5.184 96.892q-.006.109.006.217l6.49 54.366q.014.111.006.222l-6.509 94.504c0 6.065.711 19.214 3.555 23.289 2.802 4.016 1.232 10.245.052 12.981a1.2 1.2 0 0 0-.078.251l-3.495 17.89a1.2 1.2 0 0 0-.015.35l3.536 34.031-3.55 103.208q-.004.14.023.277l3.483 17.114c.029.143.031.29.007.433l-3.488 20.716q-.03.173-.007.348l3.516 27.362q.015.12.007.241l-3.529 46.236q-.016.222.049.436l3.376 11.062c.073.24.221.451.422.602l10.038 7.536c.205.154.455.237.711.237h17.192q.186 0 .361-.056l13.273-4.254q.176-.056.362-.056H87.3q.22 0 .428.08l10.648 4.131c.26.1.545.107.808.018l22.993-7.768c.194-.066.402-.08.603-.042l18.539 3.559q.111.022.224.022h60.09q.222 0 .429.08l10.665 4.138c.249.096.522.106.777.028l13.502-4.147c.211-.065.436-.07.649-.013l16.092 4.236q.17.044.343.038l122.839-4.353a1.2 1.2 0 0 1 .403.056l12.974 4.158c.292.093.608.07.884-.065l8.21-4.035a1.2 1.2 0 0 1 .522-.121h5.421c.493 0 .935-.307 1.109-.769l3.138-8.354a1.2 1.2 0 0 0 .044-.691l-6.972-29.263a1.2 1.2 0 0 1-.018-.453l7.043-46.152q.03-.197-.006-.393c-1.203-6.392-3.888-19.941-5.295-24.552-1.396-4.574 1.664-13.266 3.457-17.253q.098-.216.105-.453l1.765-55.657a1.2 1.2 0 0 0-.026-.287l-5.278-24.496a1.2 1.2 0 0 1-.026-.217l-1.768-65.156a1.2 1.2 0 0 1 .079-.458l5.167-13.401c.052-.136.079-.281.079-.427v-49.887q0-.11-.02-.217c-.598-3.196-1.757-9.811-1.757-11.538 0-1.671 2.167-7.023 3.392-9.822.106-.24.129-.506.067-.76l-5.196-21.277a1.2 1.2 0 0 1-.032-.334l5.32-118.376a1 1 0 0 0-.005-.173l-3.525-34.646a1.2 1.2 0 0 1 .028-.4l3.201-13.111a1.185 1.185 0 0 0-.964-1.45l-12.155-1.949a1.2 1.2 0 0 1-.381-.13l-4.433-2.42a1.19 1.19 0 0 0-1.341.14l-4.623 3.977a1.184 1.184 0 0 1-1.426.09l-6.553-4.335a1.19 1.19 0 0 0-.874-.176l-14.821 2.801q-.11.02-.22.02h-36.618l-15.876 2.168q-.119.016-.239.008l-32.462-2.175c-7.899-.97-24.526-2.911-27.843-2.911-3.296 0-25.582 3.353-36.52 5.062a1.2 1.2 0 0 1-.421-.012l-23.884-5.01a1.2 1.2 0 0 0-.388-.016l-41.057 5.044a1.2 1.2 0 0 1-.427-.026l-20.281-4.983a1.2 1.2 0 0 0-.487-.016l-16.177 2.839q-.165.03-.331.011l-26.924-2.876a1.2 1.2 0 0 0-.32.009l-30.36 5.02a1.2 1.2 0 0 1-.561-.042"/><path fill="url(#a)" fill-opacity=".41" d="M359.381 12.705 393.035.902a1.176 1.176 0 0 1 1.566 1.016l1.308 16.465a1.2 1.2 0 0 1-.026.355l-4.38 19.398a1.2 1.2 0 0 0-.025.355l4.306 54.213a1 1 0 0 1-.003.217l-5.717 54.497a1.3 1.3 0 0 0-.002.222l7.85 94.35c.086 6.064-.437 19.226-3.223 23.362-2.744 4.075-1.087 10.27.132 12.98q.055.12.082.25l3.748 17.812q.036.173.021.349l-3.052 34.102 5.015 103.116q.006.14-.019.278l-3.239 17.186c-.027.143-.028.29-.001.433l3.782 20.638q.031.173.012.348l-3.128 27.433q-.014.12-.002.241l4.184 46.153q.02.222-.042.437l-3.219 11.133a1.2 1.2 0 0 1-.413.611l-9.929 7.75a1.2 1.2 0 0 1-.708.253l-17.189.368a1.2 1.2 0 0 1-.363-.049l-13.331-3.968a1.2 1.2 0 0 0-.362-.049l-36.316.779a1.2 1.2 0 0 0-.428.089l-10.588 4.359a1.18 1.18 0 0 1-.807.035l-23.1-7.274a1.2 1.2 0 0 0-.603-.028l-18.486 3.956a1.2 1.2 0 0 1-.223.026l-60.082 1.288a1.2 1.2 0 0 0-.427.09l-10.605 4.366c-.247.101-.52.117-.776.044l-13.559-3.856a1.2 1.2 0 0 0-.649 0l-16.029 4.581a1.2 1.2 0 0 1-.343.046l-122.882-1.719a1.2 1.2 0 0 0-.403.064l-12.912 4.436c-.29.1-.607.083-.884-.046l-8.267-3.858a1.2 1.2 0 0 0-.524-.11l-5.42.116c-.493.01-.94-.286-1.12-.744l-3.256-8.286a1.2 1.2 0 0 1-.053-.69l6.554-29.408a1.2 1.2 0 0 0 .013-.454l-7.698-45.994a1.2 1.2 0 0 1 0-.393c1.112-6.416 3.604-20.021 4.946-24.661 1.33-4.604-1.852-13.229-3.702-17.177a1.2 1.2 0 0 1-.111-.45l-2.556-55.611a1.2 1.2 0 0 1 .022-.288l4.93-24.605q.02-.108.022-.218l.842-65.183a1.2 1.2 0 0 0-.085-.457l-5.357-13.288a1.2 1.2 0 0 1-.085-.425l-.709-49.88a1 1 0 0 1 .017-.217c.553-3.208 1.618-9.847 1.593-11.574-.024-1.67-2.266-6.975-3.531-9.747a1.2 1.2 0 0 1-.077-.759l4.892-21.385a1.2 1.2 0 0 0 .028-.335l-7-118.244a1 1 0 0 1 .002-.173l3.032-34.716c.012-.134 0-.27-.033-.4L.488 21.739a1.194 1.194 0 0 1 .942-1.471l12.127-2.209q.2-.036.378-.138l4.399-2.515c.429-.246.963-.2 1.341.113l4.68 3.876c.407.337.99.361 1.427.06l6.49-4.475a1.2 1.2 0 0 1 .872-.195l14.858 2.483q.11.018.22.016l36.613-.785 15.904 1.826q.119.014.239.003l32.426-2.87c7.884-1.14 24.481-3.437 27.798-3.509 3.296-.07 25.626 2.805 36.586 4.279q.212.028.421-.021l23.809-5.521q.192-.045.387-.025l41.123 4.163c.143.014.288.003.427-.035l20.207-5.417c.159-.043.325-.052.487-.027l16.215 2.492q.165.025.331.004l26.879-3.453q.16-.02.319.002l30.427 4.37c.188.027.381.008.561-.055"/><path fill="url(#b)" fill-opacity=".41" d="m49.575 562.412-32.74 11.537a1.176 1.176 0 0 1-1.567-1.015l-1.272-16.086q-.014-.178.025-.354l4.264-18.987q.04-.176.026-.354l-4.2-53.081a1 1 0 0 1 .003-.216l5.566-53.359q.012-.111.002-.221l-7.654-92.386c-.085-5.938.425-18.826 3.138-22.876 2.673-3.989 1.06-10.053-.128-12.707a1.2 1.2 0 0 1-.081-.249l-3.652-17.438a1.2 1.2 0 0 1-.02-.347l2.97-33.389-4.893-100.97a1.2 1.2 0 0 1 .019-.276l3.153-16.823q.04-.215.001-.431L8.85 112.182a1.2 1.2 0 0 1-.012-.346l3.045-26.857q.014-.12.002-.24l-4.1-45.41V24.492c0-.863.895-1.443 1.68-1.089l3.944 1.781c.4.18.87.124 1.218-.147l6.423-5c.203-.159.45-.247.706-.252l16.732-.36q.186-.003.364.05l12.977 3.884q.178.053.364.05l35.37-.759a1.2 1.2 0 0 0 .429-.09l10.297-4.26c.258-.107.545-.119.81-.035l22.485 7.119c.196.061.405.071.606.028l17.997-3.869q.111-.024.224-.026l58.525-1.255a1.2 1.2 0 0 0 .429-.09l10.314-4.267c.248-.103.523-.118.78-.045l13.188 3.772c.213.06.439.06.652 0l15.601-4.48q.17-.05.345-.046l119.707 1.696q.207.002.404-.066l12.56-4.334c.292-.101.611-.085.889.046l8.033 3.769c.165.077.345.115.527.111l5.249-.112c.494-.011.941.286 1.12.746l3.165 8.09c.085.218.104.458.053.687l-6.382 28.786a1.2 1.2 0 0 0-.012.452l7.502 45.031q.033.195 0 .391c-1.084 6.284-3.51 19.602-4.817 24.145-1.296 4.506 1.804 12.948 3.606 16.815q.1.213.111.449l2.493 54.448q.006.145-.022.286l-4.799 24.089a1 1 0 0 0-.023.217l-.816 63.822c-.002.156.027.31.085.454l5.217 13.006q.08.202.084.423l.694 48.837q.002.108-.017.215c-.538 3.143-1.575 9.642-1.551 11.332.024 1.634 2.205 6.823 3.439 9.539.107.237.134.501.076.756l-4.763 20.93q-.038.166-.027.334l6.828 115.78q.006.087-.002.172l-2.951 33.989q-.018.203.033.398l3.293 12.742a1.193 1.193 0 0 1-.942 1.47l-11.778 2.155a1.2 1.2 0 0 0-.379.139l-4.259 2.448a1.18 1.18 0 0 1-1.347-.114l-4.522-3.765a1.18 1.18 0 0 0-1.431-.06l-6.29 4.359c-.256.177-.57.247-.875.196l-14.458-2.43a1 1 0 0 0-.222-.016l-35.666.764-15.491-1.789a1 1 0 0 0-.241-.003l-31.587 2.807c-7.681 1.115-23.85 3.363-27.082 3.432-3.21.069-24.957-2.748-35.638-4.192a1.2 1.2 0 0 0-.423.021l-23.184 5.401a1.2 1.2 0 0 1-.389.025l-40.052-4.08a1.2 1.2 0 0 0-.428.035l-19.673 5.299c-.16.043-.326.052-.489.027l-15.786-2.44a1.2 1.2 0 0 0-.332-.004l-26.177 3.377a1.2 1.2 0 0 1-.321-.002l-29.63-4.28a1.2 1.2 0 0 0-.564.055"/><defs><linearGradient id="a" x1="201.339" x2="201.339" y1=".834" y2="574.503" gradientUnits="userSpaceOnUse"><stop stop-color="#48BBFE"/><stop offset="1" stop-color="#2B7098"/></linearGradient><linearGradient id="b" x1="199.098" x2="210.984" y1="15.982" y2="570.264" gradientUnits="userSpaceOnUse"><stop stop-color="#4857FE"/><stop offset="1" stop-color="#982B7B"/></linearGradient></defs></svg>