<svg xmlns="http://www.w3.org/2000/svg" width="511" height="81" fill="none"><path fill="#389EAF" fill-opacity=".8" d="M4 11.5 0 1l7.5-1L15 3.5 27 0l9.5 1.5 4-.5 4 2.5L53 0l16 3.5L93 0l14.5 3.5 7-2.5 5 2.5L136 0l34 3.5L187.5 0l11 3.5 3.5-2 6.5 2 4.5-2L306.5 0l18 3.5 9-2 9.5 2L412.5 0l22 3.5 12-2 11.5 2 8.5-3.5L491 3.5l9.5-3.5h8.5l.5 6.5-1.5 3-1 5.5 1 6 2.5 8-1.5 11-3.5 3.5 1.5 11 2.5 6-2.5 5 3 10-.5 4.5-5.5-2-2 2-7.5-.5-6 1c-4.833-.667-6.3-2.5-7.5-2.5h-1.5l-9-1-4 3-26-3.5-6 3.5h-12l-16-3.5-5 1.5-14 2-15.5-3.5-6 3.5-6-3.5-14.5 3.5-49-3.5-19 3.5-7-3.5L243 80l-17.5-3.5L221 80h-6l-5-3.5-40 3.5-23.5-3.5-3 3.5H136l-35.5-3.5L90 80l-53.5-3.5L20 80 9.5 76.5l-3.5 2H2L0 74l2-13 1.5-7.5L0 42l2-11 1.5-5-3-7z"/><path fill="#3889AF" fill-opacity=".8" d="m506.5 11.5 4-10.5-7.5-1-7.5 3.5-12-3.5-9.5 1.5-4-.5-4 2.5-8.5-3.5-16 3.5-24-3.5L403 3.5 396 1l-5 2.5L374.5 0l-34 3.5L323 0l-11 3.5-3.5-2-6.5 2-4.5-2L204 0l-18 3.5-9-2-9.5 2L98 0 76 3.5l-12-2-11.5 2L44 0 19.5 3.5 10 0H1.5L1 6.5l1.5 3 1 5.5-1 6L0 29l1.5 11L5 43.5l-1.5 11-2.5 6 2.5 5-3 10L1 80l5.5-2 2 2 7.5-.5 6 1c4.833-.667 6.3-2.5 7.5-2.5H31l9-1 4 3 26-3.5 6 3.5h12l16-3.5 5 1.5 14 2 15.5-3.5 6 3.5 6-3.5L165 80l49-3.5 19 3.5 7-3.5 27.5 3.5 17.5-3.5 4.5 3.5h6l5-3.5 40 3.5 23.5-3.5 3 3.5h7.5l35.5-3.5 10.5 3.5 53.5-3.5 16.5 3.5 10.5-3.5 3.5 2h4l2-4.5-2-13-1.5-7.5 3.5-11.5-2-11-1.5-5 3-7z"/><path fill="url(#a)" fill-opacity=".8" d="m506.5 69 4 10.5-7.5 1-7.5-3.5-12 3.5L474 79l-4 .5-4-2.5-8.5 3.5-16-3.5-24 3.5L403 77l-7 2.5-5-2.5-16.5 3.5-34-3.5-17.5 3.5-11-3.5-3.5 2-6.5-2-4.5 2-93.5 1.5-18-3.5-9 2-9.5-2L98 80.5 76 77l-12 2-11.5-2-8.5 3.5L19.5 77 10 80.5H1.5L1 74l1.5-3 1-5.5-1-6-2.5-8 1.5-11L5 37 3.5 26 1 20l2.5-5-3-10L1 .5l5.5 2 2-2L16 1l6-1c4.833.667 6.3 2.5 7.5 2.5H31l9 1 4-3L70 4l6-3.5h12L104 4l5-1.5 14-2L138.5 4l6-3.5 6 3.5L165 .5 214 4l19-3.5 7 3.5L267.5.5 285 4l4.5-3.5h6l5 3.5 40-3.5L364 4l3-3.5h7.5L410 4 420.5.5 474 4 490.5.5 501 4l3.5-2h4l2 4.5-2 13L507 27l3.5 11.5-2 11-1.5 5 3 7z"/><defs><linearGradient id="a" x1="510.5" x2="0" y1="40.25" y2="40.25" gradientUnits="userSpaceOnUse"><stop stop-color="#385FAE"/><stop offset="1" stop-color="#3870AF"/></linearGradient></defs></svg>