<svg xmlns="http://www.w3.org/2000/svg" width="539" height="500" fill="none"><g filter="url(#a)"><path fill="url(#b)" d="m368.93 56.724 82.058-3.222-66.839 111.087L508 127.836l-29.613 72.793 7.239 95.098-66.808 91.429L189.086 477v-81.241L31.002 428.228l74.808-142.063L31 265.219 152.92 69.664 276.453 23z"/></g><mask id="d" width="477" height="454" x="31" y="23" maskUnits="userSpaceOnUse" style="mask-type:alpha"><path fill="url(#c)" d="m368.93 56.724 82.058-3.222-66.839 111.087L508 127.836l-29.613 72.793 7.239 95.098-66.808 91.429L189.086 477v-81.241L31.002 428.228l74.808-142.063L31 265.219 152.92 69.664 276.453 23z"/></mask><g fill-opacity=".2" mask="url(#d)"><path fill="#4DFFDE" d="m296.5 338.5-19.5 134h136L657.5 374 697-12.5 261-174 10.5 147 196 242l-35.5 96.5z"/><path fill="#4DFFB8" d="m371 230.5-19.5 134h136L732 266l39.5-386.5-436-161.5L85 39l185.5 95-35.5 96.5z"/></g><defs><linearGradient id="b" x1="457" x2="90.5" y1="106" y2="386.5" gradientUnits="userSpaceOnUse"><stop stop-color="#65AA8B"/><stop offset="1" stop-color="#4E8E81"/></linearGradient><linearGradient id="c" x1="457" x2="90.5" y1="106" y2="386.5" gradientUnits="userSpaceOnUse"><stop stop-color="#65AA8B"/><stop offset="1" stop-color="#4E8E81"/></linearGradient><filter id="a" width="507" height="484" x="16" y="8" color-interpolation-filters="sRGB" filterUnits="userSpaceOnUse"><feFlood flood-opacity="0" result="BackgroundImageFix"/><feColorMatrix in="SourceAlpha" result="hardAlpha" values="0 0 0 0 0 0 0 0 0 0 0 0 0 0 0 0 0 0 127 0"/><feOffset/><feGaussianBlur stdDeviation="7.5"/><feComposite in2="hardAlpha" operator="out"/><feColorMatrix values="0 0 0 0 0 0 0 0 0 0 0 0 0 0 0 0 0 0 0.25 0"/><feBlend in2="BackgroundImageFix" result="effect1_dropShadow_565_1063"/><feBlend in="SourceGraphic" in2="effect1_dropShadow_565_1063" result="shape"/></filter></defs></svg>