<svg xmlns="http://www.w3.org/2000/svg" width="654" height="395" fill="none"><path fill="#48BBFE" fill-opacity=".41" d="M65.864 10.87 9.363 3.02a1 1 0 0 0-1.126.84L6.52 15.04a1 1 0 0 0 .119.646l7.333 12.896a1 1 0 0 1 .12.646L8.419 66.17a1 1 0 0 0 .026.422l10.438 37.079c.04.14.048.287.024.431L8.4 168.805a1 1 0 0 0-.013.158c.015 4.201 1.18 13.139 5.758 15.922 4.5 2.735 2.041 6.964.136 8.868a1.1 1.1 0 0 0-.215.305l-5.533 12.01a1 1 0 0 0-.063.656l5.637 23.004a1 1 0 0 1 .025.318l-5.723 70.569c-.014.177.019.354.095.514l5.452 11.361a1 1 0 0 1 .028.802L8.515 327.06a1 1 0 0 0-.027.659l5.587 18.436a1 1 0 0 1 .027.467l-5.64 31.346a1 1 0 0 0 .172.761l5.317 7.388a1 1 0 0 0 .508.368l16.812 5.353q.148.047.303.047h28.635l22.073-3H141.7q.083 0 .162.013l18.002 2.962a1 1 0 0 0 .304.003l38.124-5.462a1 1 0 0 1 .223-.007l30.598 2.491h97.806q.081 0 .162.013l18.008 2.963q.146.024.291.005l22.767-2.965a1 1 0 0 1 .24-.003l26.751 2.987 199.538-2.999q.075-.001.15.009l21.828 2.967q.17.022.338-.012l14.126-2.944q.101-.021.204-.021h10.004a1 1 0 0 0 .748-.337l4.988-5.631a1 1 0 0 0 .123-1.152l-10.943-19.482a1 1 0 0 1-.07-.828l11.226-31.193a1 1 0 0 0-.026-.742c-1.996-4.479-6.235-13.522-8.475-16.635-2.229-3.097 2.552-8.94 5.472-11.731a1.02 1.02 0 0 0 .315-.661l2.829-37.83a1 1 0 0 0-.106-.527l-8.417-16.568a1 1 0 0 1-.106-.389l-2.839-44.371a1 1 0 0 1 .258-.737l8.092-8.9c.167-.184.26-.424.26-.673v-33.902q0-.21-.085-.404c-.984-2.238-2.794-6.642-2.794-7.807 0-1.092 3.176-4.472 5.195-6.454.328-.323.401-.827.171-1.226l-8.083-14.039a1 1 0 0 1-.128-.604l8.585-81.006a1 1 0 0 0-.022-.339l-5.625-23.445c-.06-.248-.022-.51.105-.732l4.761-8.267a1 1 0 0 0-.799-1.497L625.541 9.39a1 1 0 0 1-.158-.023l-8.27-1.915a1 1 0 0 0-.568.035l-9.015 3.287a1 1 0 0 1-.613.024l-11.994-3.365a1 1 0 0 0-.35-.034L569.8 9.385h-59.501l-25.911 1.5-52.782-1.5c-12.796-.667-39.731-2-45.105-2-5.367 0-41.803 2.327-59.426 3.495a1 1 0 0 1-.152-.002l-39.27-3.493-67.099 3.496a1 1 0 0 1-.156-.004l-33.422-3.483a1 1 0 0 0-.178-.002l-26.782 1.993-44.146-2-49.799 3.493a1 1 0 0 1-.207-.008"/><path fill="url(#a)" fill-opacity=".41" d="M581.85 8.524 638.079.162a1.03 1.03 0 0 1 1.154.828l2.091 11.165a1 1 0 0 1-.097.647l-6.901 12.96a.98.98 0 0 0-.097.647l6.909 36.885c.026.14.022.285-.012.423l-9.194 37.168a1 1 0 0 0-.01.431l12.674 64.597q.015.078.018.158c.126 4.2-.74 13.147-5.224 15.971-4.407 2.775-1.807 6.981.162 8.868q.139.132.225.303l5.934 11.958c.101.204.131.435.085.655l-4.865 23.052a1 1 0 0 0-.015.318l8.086 70.507a1 1 0 0 1-.078.514l-5.07 11.41a1 1 0 0 0-.001.801l5.928 13.717c.09.209.108.441.05.658l-4.969 18.484a1 1 0 0 0-.012.467l6.69 31.29a.98.98 0 0 1-.147.762l-5.069 7.435a.97.97 0 0 1-.496.374l-16.629 5.504a1 1 0 0 1-.302.05l-28.631.26-22.17-2.798-33.583.305-25.826.235a1 1 0 0 0-.162.015l-17.899 3.125q-.151.026-.305.006l-38.3-5.115a1 1 0 0 0-.224-.005l-30.509 2.769-35.503.323-62.288.566a1 1 0 0 0-.162.015l-17.906 3.126a1 1 0 0 1-.291.007l-22.862-2.757a1 1 0 0 0-.241 0l-26.647 3.229-199.608-1.184q-.075 0-.15.01l-21.724 3.165a1 1 0 0 1-.34-.009l-14.222-2.815a1 1 0 0 0-.205-.019l-10.001.091a1.03 1.03 0 0 1-.76-.33l-5.176-5.585a1.01 1.01 0 0 1-.162-1.151l10.29-19.578a1 1 0 0 0 .041-.828l-12.269-31.087a1 1 0 0 1 .002-.741c1.845-4.497 5.78-13.578 7.916-16.711 2.125-3.116-2.85-8.915-5.864-11.679a1.05 1.05 0 0 1-.337-.658l-4.096-37.798a1 1 0 0 1 .088-.528l7.861-16.642a1 1 0 0 0 .093-.39l1.352-44.391a1.02 1.02 0 0 0-.282-.733l-8.39-8.826a1.02 1.02 0 0 1-.282-.67l-1.135-33.897a1 1 0 0 1 .071-.405c.909-2.246 2.571-6.666 2.532-7.831-.036-1.092-3.326-4.444-5.41-6.407a1.02 1.02 0 0 1-.213-1.223l7.613-14.111a1 1 0 0 0 .107-.605L1.431 47.994a1 1 0 0 1 .01-.339l4.84-23.493a1 1 0 0 0-.13-.731l-5.038-8.223c-.39-.637.013-1.446.75-1.503l20.345-1.571a1 1 0 0 0 .157-.025l8.204-1.99c.187-.046.385-.035.57.03l9.123 3.205c.2.07.414.076.614.018l11.879-3.474a1 1 0 0 1 .349-.037l24.836 1.76 43.179-.392 16.312-.149 25.958 1.264 52.724-1.98c12.772-.782 39.658-2.36 45.032-2.41 5.365-.048 41.873 1.947 59.533 2.955a1 1 0 0 0 .152-.003l39.147-3.85 67.206 2.885q.078.004.156-.005l33.3-3.786q.089-.01.178-.004l26.845 1.75 44.071-2.402 49.909 3.04q.105.005.208-.01"/><path fill="url(#b)" fill-opacity=".41" d="m80.658 386.07-54.75 8.181a1.03 1.03 0 0 1-1.156-.828l-2.034-10.906a1 1 0 0 1 .097-.644l6.715-12.68a1 1 0 0 0 .097-.644L22.89 332.44a1 1 0 0 1 .011-.421l8.95-36.387a1 1 0 0 0 .01-.429l-12.357-63.249a1 1 0 0 1-.018-.157c-.124-4.113.719-12.874 5.086-15.638 4.291-2.716 1.762-6.832-.155-8.68a1.1 1.1 0 0 1-.225-.304l-5.779-11.7a1 1 0 0 1-.084-.653l4.735-22.563a1 1 0 0 0 .014-.318l-7.889-69.033a1 1 0 0 1 .077-.511l4.934-11.162a1 1 0 0 0 0-.798l-5.772-13.42a1 1 0 0 1-.05-.655l4.836-18.09a1 1 0 0 0 .011-.465l-6.586-30.94a1 1 0 0 1-.023-.209V16.484a.973.973 0 0 1 1.166-.958l8.743 1.674c.168.032.34.022.5-.031l11.439-3.777a1 1 0 0 1 .3-.05l27.89-.253 21.6 2.741 32.719-.297 25.159-.229q.082 0 .163-.015l17.431-3.058q.151-.026.305-.006l37.308 5.01a1 1 0 0 0 .224.004l29.721-2.71 34.589-.314 60.682-.552a1 1 0 0 0 .162-.015l17.438-3.059q.145-.026.293-.007l22.265 2.7q.122.015.242 0l25.957-3.16 194.468 1.168q.075 0 .15-.01l21.158-3.097q.17-.025.341.009l13.848 2.755q.102.02.206.02l9.727-.089c.288-.003.565.118.762.332l5.027 5.45c.291.316.355.776.161 1.147L624.748 36.96a1 1 0 0 0-.041.825l11.954 30.427a1 1 0 0 1-.002.738c-1.798 4.405-5.628 13.29-7.707 16.356-2.069 3.05 2.772 8.723 5.709 11.432.187.172.308.405.335.656l3.996 37.001a1 1 0 0 1-.088.526l-7.652 16.287a1 1 0 0 0-.093.389l-1.309 43.457a1.02 1.02 0 0 0 .281.731l8.163 8.631c.173.182.273.42.281.668l1.112 33.182q.006.21-.071.403c-.885 2.201-2.502 6.525-2.464 7.665.035 1.067 3.229 4.339 5.261 6.263.338.32.427.82.212 1.22l-7.405 13.8a1 1 0 0 0-.107.603l11.019 79.225a1 1 0 0 1-.011.337l-4.708 22.995a1 1 0 0 0 .129.728l4.889 8.02c.388.637-.015 1.444-.75 1.501l-19.782 1.534a1 1 0 0 0-.158.025l-7.982 1.946a1 1 0 0 1-.572-.03l-8.871-3.133a1 1 0 0 0-.617-.018l-11.558 3.396a1 1 0 0 1-.351.038l-24.191-1.724-42.068.382-15.892.145-25.29-1.239-51.367 1.936c-12.442.766-38.636 2.31-43.871 2.357-5.227.048-40.793-1.907-57.999-2.895a1 1 0 0 0-.153.004l-38.066 3.76a1 1 0 0 1-.141.004l-65.404-2.825q-.078-.003-.156.005l-32.437 3.706a1 1 0 0 1-.179.004l-26.151-1.714-42.937 2.349-48.621-2.978a1 1 0 0 0-.209.009"/><defs><linearGradient id="a" x1="320.485" x2="324.023" y1="2.915" y2="391.942" gradientUnits="userSpaceOnUse"><stop stop-color="#48BBFE"/><stop offset="1" stop-color="#2B7098"/></linearGradient><linearGradient id="b" x1="322.539" x2="326.004" y1="10.724" y2="391.659" gradientUnits="userSpaceOnUse"><stop stop-color="#48FEDD"/><stop offset="1" stop-color="#2B9884"/></linearGradient></defs></svg>