<svg xmlns="http://www.w3.org/2000/svg" width="341" height="395" fill="none"><path fill="#48BBFE" fill-opacity=".41" d="M34.176 10.833 5.528 3.193a1 1 0 0 0-1.254.887l-.89 11.12a1 1 0 0 0 .038.363l3.894 13.143a1 1 0 0 1 .038.364L4.378 66.272a1 1 0 0 0 .008.225l5.466 37.274a1 1 0 0 1 .007.229l-5.49 64.885c0 4.167.6 13.2 3 16 2.351 2.743 1.056 6.989.062 8.884a1 1 0 0 0-.093.245l-2.926 12.193a1 1 0 0 0-.02.36l2.966 23.234q.011.084.008.169l-2.99 70.77q-.007.145.028.285l2.91 11.638a1 1 0 0 1 .009.445l-2.917 14.098q-.036.179-.008.359l2.952 18.696a1 1 0 0 1 .007.249l-2.966 31.646a1 1 0 0 0 .059.444l2.798 7.462c.079.209.225.386.415.503l8.466 5.173a1 1 0 0 0 .521.147h14.59q.129 0 .253-.032l11.252-2.936q.124-.032.252-.032h30.718q.154 0 .301.046l9.072 2.865c.183.058.38.062.566.011l19.508-5.365a1 1 0 0 1 .419-.024l15.711 2.455q.077.012.155.012h50.768q.154 0 .301.046l9.084 2.869c.176.055.364.061.543.016l11.501-2.875a1 1 0 0 1 .452-.007l13.655 2.926q.119.025.239.021l103.736-2.992a1 1 0 0 1 .281.032l11.044 2.881c.207.054.425.04.624-.039l7.015-2.807c.118-.047.245-.071.372-.071h4.667a1 1 0 0 0 .908-.581l2.575-5.579a1 1 0 0 0 .052-.7l-5.828-19.91a1 1 0 0 1-.023-.465l5.918-31.56a1 1 0 0 0-.008-.405c-1.023-4.418-3.272-13.649-4.454-16.8-1.169-3.119 1.366-9.024 2.884-11.791a1 1 0 0 0 .126-.45l1.484-38.109q.006-.15-.032-.295l-4.433-16.746a1 1 0 0 1-.033-.222l-1.488-44.645a1 1 0 0 1 .096-.461l4.3-9.078c.063-.134.096-.28.096-.428v-34.161a1 1 0 0 0-.025-.223c-.508-2.21-1.475-6.711-1.475-7.891 0-1.125 1.758-4.682 2.802-6.633a1 1 0 0 0 .078-.767l-4.33-14.432a1 1 0 0 1-.04-.343l4.485-81.235q.004-.09-.006-.18l-2.963-23.7a1 1 0 0 1 .035-.412l2.601-8.671a1 1 0 0 0-.828-1.28l-10.19-1.328a1 1 0 0 1-.277-.078l-3.85-1.712a1 1 0 0 0-.98.095l-4.032 2.823c-.31.216-.715.24-1.048.06l-5.662-3.048a1 1 0 0 0-.626-.108l-12.593 1.937a1 1 0 0 1-.152.012h-30.924l-13.418 1.49a1 1 0 0 1-.165.005l-27.417-1.495c-6.667-.667-20.7-2-23.5-2-2.785 0-21.636 2.309-30.856 3.482a1 1 0 0 1-.291-.007l-20.22-3.452a1 1 0 0 0-.267-.01l-34.717 3.472a1 1 0 0 1-.296-.014L97.537 7.417a1 1 0 0 0-.337-.009L83.483 9.37a1 1 0 0 1-.228.006l-22.776-1.98a1 1 0 0 0-.22.005l-25.692 3.458a1 1 0 0 1-.39-.025"/><path fill="url(#a)" fill-opacity=".41" d="m303.286 8.485 28.51-8.138a1 1 0 0 1 1.27.864l1.083 11.102a1 1 0 0 1-.031.364l-3.665 13.21a1 1 0 0 0-.031.364l3.625 37.144a1 1 0 0 1-.004.225l-4.815 37.363a1 1 0 0 0-.003.23l6.621 64.779c.073 4.166-.369 13.209-2.72 16.05-2.303 2.783-.933 7.006.093 8.884q.064.115.097.243l3.139 12.14q.045.177.026.36l-2.56 23.282a1 1 0 0 0-.004.169l4.225 70.708a1 1 0 0 1-.024.285l-2.706 11.687a1 1 0 0 0-.002.445l3.163 14.045q.04.178.014.359l-2.625 18.744a1 1 0 0 0-.003.249l3.518 31.59c.017.15-.001.302-.051.445l-2.668 7.51c-.075.21-.218.389-.406.509l-8.374 5.321a1 1 0 0 1-.519.156l-14.588.254a1 1 0 0 1-.253-.028l-11.301-2.738a1 1 0 0 0-.253-.028l-17.369.303-13.344.233a1 1 0 0 0-.301.052l-9.02 3.022a1 1 0 0 1-.566.021l-19.598-5.024a1 1 0 0 0-.42-.016l-15.666 2.728a1 1 0 0 1-.154.015l-18.42.322-32.341.564a1 1 0 0 0-.3.052l-9.032 3.026a1 1 0 0 1-.543.026l-11.549-2.674a1 1 0 0 0-.452.001l-13.603 3.164a1 1 0 0 1-.237.025l-103.773-1.181a1 1 0 0 0-.281.037l-10.991 3.073a1 1 0 0 1-.625-.028l-7.064-2.684a1 1 0 0 0-.372-.065l-4.667.082a1 1 0 0 1-.918-.565l-2.672-5.533a1 1 0 0 1-.064-.699l5.48-20.009c.04-.152.046-.312.014-.466L5.75 332.984a1 1 0 0 1 0-.405c.947-4.436 3.034-13.704 4.16-16.876 1.116-3.138-1.522-8.998-3.088-11.738a1 1 0 0 1-.134-.448l-2.15-38.078a1 1 0 0 1 .028-.295l4.14-16.82q.027-.11.028-.224l.71-44.663a1 1 0 0 0-.105-.46l-4.457-9.001a1 1 0 0 1-.104-.427l-.596-34.156a1 1 0 0 1 .021-.223c.469-2.218 1.358-6.735 1.337-7.915-.02-1.125-1.84-4.651-2.917-6.583a1 1 0 0 1-.092-.766L6.607 129.4a1 1 0 0 0 .035-.343L.74 47.913a1 1 0 0 1 .003-.18l2.548-23.75a1 1 0 0 0-.041-.41L.497 14.949a1 1 0 0 1 .806-1.294l10.165-1.506a1 1 0 0 0 .275-.083l3.82-1.778a1 1 0 0 1 .982.077l4.08 2.752a1 1 0 0 0 1.049.043l5.608-3.148a1 1 0 0 1 .624-.118l12.626 1.717q.075.01.152.009l22.42-.391 8.499-.149 13.441 1.257q.082.007.165.002l27.387-1.974c6.654-.783 20.662-2.361 23.462-2.41 2.785-.049 21.673 1.931 30.912 2.943q.146.015.291-.012l20.156-3.805q.132-.024.268-.014l34.772 2.865a1 1 0 0 0 .295-.02l17.123-3.736a1 1 0 0 1 .337-.015l13.749 1.72q.114.014.228.002l22.737-2.377a1 1 0 0 1 .22.001l25.749 3.01c.131.015.264.004.391-.032"/><path fill="url(#b)" fill-opacity=".41" d="m41.884 386.11-27.739 7.956a1 1 0 0 1-1.27-.865L11.82 382.36a1 1 0 0 1 .031-.363l3.567-12.928q.05-.178.032-.363l-3.535-36.367a1 1 0 0 1 .004-.224l4.688-36.582a1 1 0 0 0 .003-.228l-6.457-63.43c-.071-4.08.359-12.934 2.649-15.716 2.242-2.724.91-6.857-.09-8.697a1 1 0 0 1-.097-.242l-3.058-11.883a1 1 0 0 1-.025-.358l2.492-22.793a1 1 0 0 0 .004-.168l-4.122-69.234a1 1 0 0 1 .023-.284l2.634-11.438a1 1 0 0 0 .002-.443L7.485 76.873a1 1 0 0 1-.015-.357l2.556-18.35q.017-.123.003-.248L6.574 26.764V16.735a1 1 0 0 1 1.345-.938l3.487 1.281a1 1 0 0 0 .88-.094l5.51-3.49a1 1 0 0 1 .517-.156l14.202-.248q.13-.002.254.028l11.003 2.68q.125.03.254.03l16.918-.296 12.996-.227q.155-.003.302-.052l8.774-2.955a1 1 0 0 1 .569-.02l19.08 4.917a1 1 0 0 0 .421.016l15.254-2.669q.077-.013.155-.015l17.943-.313 31.503-.55a1 1 0 0 0 .302-.052l8.787-2.959a1 1 0 0 1 .546-.026l11.236 2.616c.15.035.305.035.455 0l13.241-3.095a1 1 0 0 1 .239-.026l101.094 1.166q.143.002.282-.037l10.694-3.005a1 1 0 0 1 .627.029l6.868 2.623a1 1 0 0 0 .374.065l4.523-.079a1 1 0 0 1 .919.567l2.594 5.399a1 1 0 0 1 .063.696l-5.333 19.582a1 1 0 0 0-.015.464l6.302 30.79a1 1 0 0 1-.001.404c-.921 4.344-2.953 13.415-4.05 16.52-1.086 3.072 1.482 8.807 3.008 11.49q.118.209.132.448l2.098 37.279q.007.148-.027.294l-4.031 16.466a1 1 0 0 0-.029.222l-.686 43.728a1 1 0 0 0 .103.458l4.34 8.807c.065.133.1.278.103.425l.583 33.44a1 1 0 0 1-.021.223c-.456 2.172-1.321 6.593-1.301 7.748.019 1.101 1.789 4.547 2.839 6.44.129.233.163.506.091.763l-3.968 14.194a1 1 0 0 0-.035.342l5.758 79.452q.006.09-.003.179l-2.481 23.25a1 1 0 0 0 .041.409l2.675 8.42a1 1 0 0 1-.806 1.292l-9.871 1.47a1 1 0 0 0-.277.083l-3.702 1.732a1 1 0 0 1-.985-.078l-3.947-2.675a1 1 0 0 0-1.053-.043l-5.439 3.067a1 1 0 0 1-.627.12l-12.288-1.681a1 1 0 0 0-.153-.009l-21.84.381-8.28.145-13.093-1.232a1 1 0 0 0-.166-.001l-26.68 1.93c-6.482.766-20.129 2.31-22.857 2.357-2.713.048-21.109-1.892-30.112-2.883a1 1 0 0 0-.292.012l-19.629 3.722a1 1 0 0 1-.269.014l-33.868-2.808a1 1 0 0 0-.297.02l-16.672 3.655a1 1 0 0 1-.339.015l-13.386-1.684a1 1 0 0 0-.23-.002l-22.144 2.325a1 1 0 0 1-.222-.001l-25.076-2.948a1 1 0 0 0-.393.032"/><defs><linearGradient id="a" x1="166.975" x2="173.764" y1="2.915" y2="391.855" gradientUnits="userSpaceOnUse"><stop stop-color="#48BBFE"/><stop offset="1" stop-color="#28E8C8"/></linearGradient><linearGradient id="b" x1="168.045" x2="174.693" y1="10.724" y2="391.574" gradientUnits="userSpaceOnUse"><stop stop-color="#48CAFE"/><stop offset="1" stop-color="#1778CD"/></linearGradient></defs></svg>