<svg xmlns="http://www.w3.org/2000/svg" aria-hidden="true" viewBox="0 0 1085.147 1117.964"><path d="M976.609 500.358c15.491 7.742 30.515 15 45.294 22.722 10.636 5.56 20.918 11.794 31.413 17.629 4.1 2.277 8.351 4.269 12.518 6.419 7.852 4.052 16.278 7.491 19.313 18.676-2.572 2.347-5.176 5.627-8.538 7.644-23.352 14.01-46.919 27.66-70.285 41.646-7.611 4.556-14.828 9.771-22.689 14.992-7.016 21.37-13.968 42.675-21.008 63.952-9.187 27.764-18.359 55.533-27.7 83.244-5.178 15.358-10.436 30.7-16.134 45.869-4.779 12.723-9.1 25.838-15.768 37.563-5.593 9.838-13.637 18.555-21.715 26.651-18.875 18.916-38.536 37.045-57.646 55.731-8.409 8.222-17.9 14.625-28.9 18.477-8.788 3.078-18.207 4.472-26.812 7.937-30.68 12.354-62.819 19.657-94.639 28.039-22.683 5.974-45.552 11.243-69.927 17.216a12.2 12.2 0 0 0-2.59 3.555q-11.336 28.434-22.371 56.988c-1.309 3.383-3.118 7.016-2.947 10.447.595 11.949-7.886 19.134-14 27.279-4.743 6.318-14.73 6.18-23.12 1.758-10.63-5.6-15.209-15.7-19.062-26.005-7.134-19.086-13.417-38.49-20.553-57.576-1.932-5.166-5.651-9.663-8.895-15.04-26.818 6.814-51.663-.566-76.752-5.1-8.676-1.568-18.22-1.259-25.884-4.916-18.386-8.774-36.2-18.881-53.642-29.45-11.151-6.758-21.026-15.587-31.845-22.94a152 152 0 0 0-22.949-13.243c-15.5-6.956-28.947-16.569-41.611-27.8-21.939-19.451-43.9-38.947-66.9-57.1-12.068-9.522-21.143-20.588-25.831-34.676-13.6-40.876-35.337-78.214-50.6-118.339-3.532-9.289-7.544-18.436-10.411-27.927-2.854-9.448-4.545-19.247-7.148-30.654-7.9-3.471-16.7-7.913-25.916-11.221a169 169 0 0 0-25.643-6.89C10.67 623.271 2.728 615.111 0 602.065c1.944-8.546 7.745-13 13.966-17.1 15.713-10.359 31.425-20.721 47.914-31.595-6.075-29.919-3.839-60.768-2.526-91.523.892-20.879 2.831-41.75 5.2-62.522 3.29-28.87 15.314-54.3 33.643-76.557 10.642-12.922 22.532-24.815 33.807-37.219q25.9-28.494 51.736-57.053c.353-.389.693-.789 1.054-1.17 25.232-26.661 50.321-53.46 75.824-79.86 5-5.173 11.569-8.837 17.482-13.1 1.254-.9 3.3-1.03 4.134-2.149 12.033-16.223 31.06-16.137 48.016-19.964 26.976-6.089 54.3-10.632 81.454-15.938 10.759-2.1 21.436-4.626 32.2-6.715 7.164-1.39 14.412-2.35 21.812-3.533C480.7 58.56 488.154 26.884 508.483 0c3.292 3.165 6.362 5.125 8.066 7.918C526.9 24.894 537 42.025 547.062 59.179c4.238 7.221 7.932 14.777 12.338 21.889 1.885 3.039 4.969 5.335 7.978 8.456C590.7 93.246 614.43 97 637.071 105.362c12.737 4.705 25.583 9.131 38.2 14.131 11.186 4.432 21.9 10.123 33.221 14.131a345.5 345.5 0 0 1 71.908 34.989c16.694 10.74 32.4 23.025 48.425 34.788 10.126 7.433 20.552 14.581 29.929 22.888q40.519 35.9 80.212 72.723c10.224 9.459 11.964 23.093 14.322 35.849 7.216 39.022 13.06 78.279 21.22 117.156 2.471 11.775 7.271 24.347 1.081 36.971-1.154 2.358.451 6.069 1.02 11.37M297.3 443.91c-4.551 12.07-13.89 18.127-23.6 23.309-26.326 14.056-52.909 27.63-79.375 41.424q-8.357 4.356-16.61 8.913c-19.241 10.607-38.429 21.312-57.7 31.87q-32.343 17.724-64.8 35.234c-4.88 2.635-8.532 6.012-9.292 12.541 2.381 8.4 9.211 12.951 17.3 15.689 8.4 2.842 17.023 5.028 25.6 7.318 19.639 5.245 39.246 10.627 58.977 15.5 29.869 7.377 59.846 14.312 89.746 21.565 7.562 1.834 14.9 4.671 22.521 6.163 17.9 3.505 35.927 6.4 53.866 9.737 2.883.536 5.583 2.049 9.273 3.456-2.484 13.38-4.8 26.132-7.233 38.861-1.666 8.709-3.405 17.406-5.281 26.072-2.977 13.76-5.009 27.844-9.366 41.162-11.446 34.989-24.5 69.451-35.094 106.491 4.1-.395 7.915.225 10.621-1.225 5.966-3.2 12.07-6.718 16.882-11.382 16.722-16.211 36.262-28.169 56.084-40.053 29.636-17.767 58.635-36.6 87.869-55.033 2.785-1.756 5.316-3.913 8.571-6.335L430.2 761.314l22.673-61.665c-7.787-9.658-12.087-10.682-18.065-3.912-4.8 5.438-8.312 12.015-12.4 18.086-5.156 7.664-8.638 16.632-17.584 23.15l-40.863-36.615c2.461-5.953 4.731-10.632 6.36-15.526 6.707-20.145 10.106-41.544 22.756-59.421a7.6 7.6 0 0 0 1.085-2.936 27 27 0 0 0 .039-4.047l-9.8-6.3c-5.183 3.09-9.625 5.786-14.114 8.4-9.6 5.594-19.554 7.31-29.8 1.995-9.731-5.047-17.557-10.617-27.329-15.581-8.69-4.414-18.038-10.489-18.038-19.535V546.9c9.327-12.521 21.8-23.314 31.825-35.291 9.044-10.8 17.015-22.523 18.657-37.093 2.689-23.857 6.016-47.767.723-71.857-1.088-4.952-.362-10.348-.362-15.113 16.025-20.2 38.658-30.331 59.313-45.229-3.1-1.459-4.94-3.027-6.72-3.017-9.748.054-18.492-3.043-26.991-7.482-2.674-1.4-6.007-1.585-9.049-2.247-24-5.229-48.02-10.254-69.5-23.26-6.137-3.716-13.2-6.057-20.05-8.419-15.306-5.28-30.753-10.154-46.121-15.255-1.982-.658-3.8-1.817-5.773-2.5-4.128-1.43-8.26-1.966-11.7 1.572-3.89 4-3.466 8.583-1.129 13.055a48.8 48.8 0 0 0 5.922 9.2c30.1 35.15 56.27 72.711 72.635 116.451 3.088 8.227 7.167 16.085 10.5 23.495M739.722 677.9a53 53 0 0 1 5.73-2.418c22.107-6.357 44.171-12.873 66.372-18.887 17.128-4.64 35.009-7.07 51.55-13.2 51.512-19.082 102.494-39.391 153.651-59.424 5.216-2.043 14.951-5.434 14.951-8.306v-16.492c0-2.911-9.216-7.029-14.749-9.392-24.034-10.266-49.1-17.943-72.223-30.48-6.811-3.692-14.647-5.442-21.984-8.185q-51.366-19.2-102.7-38.455c-17.1-6.4-34.2-12.8-53.435-19.995l-9.452-10.184c.9-5.3 2.039-10.343 2.57-15.452 1.209-11.621 9.817-19.463 14.693-29.193 14.304-28.55 29.186-56.814 43.952-85.137 5.816-11.154 11.975-22.128 17.862-33.245a38.8 38.8 0 0 0 3.595-8.669c1.132-4.592-.178-8.322-5.877-9.963-14.882 3.8-28.371 11.716-42.03 19.515-13.156 7.511-26.875 14.049-40.441 20.826-14.045 7.015-28.338 13.543-42.273 20.764-13.619 7.057-26.925 14.719-41.285 22.621 9.858 11.842 21.319 19.393 32.617 26.495 12.955 8.143 15.933 19.279 12.627 32.352-3.43 13.563-2.378 27.093-2.349 40.653a40.2 40.2 0 0 0 3.217 15.167c6.591 15.584 15.416 29.943 28.1 41.293 12 10.743 24.786 20.614 37.858 31.39-1.337 13.218-2.568 27.262-4.238 41.254-1.172 9.816-3.165 19.533-4.4 29.344-1.848 14.72-9.508 23.635-24.187 27.2-10.128 2.463-19.887 6.423-29.854 9.577-3.357 1.062-6.847 1.7-9.793 2.416-8.22-9.762-16.51-17.418-29.652-19.283l-10.411 9.821c-.617 14.416-1.053 14.7 9.079 30.155 13.142 20.044 15.083 42.847 19.083 66.047l-30.725 23.37c-5.25-10.783-9.423-20.4-14.524-29.505a222 222 0 0 0-14.747-22.207c-3.7-5.052-8.626-7.555-15.816-3.413-4.416 21.9 10.555 37.882 16.358 54.9 11 4.961 21.775 7.152 28.575 13.561 8.588 8.094 18.236 13.962 27.943 19.939 36.582 22.523 73.368 44.716 110.13 66.946 10.337 6.25 12.418 5.623 19.407-4.416-3.939-10.553-7.088-21.175-11.816-31.04s-11.042-18.958-16.632-28.408c-.8-1.352-1.447-2.8-2.142-4.208-17.288-35.12-34.569-70.249-52.185-106.049m-187.207 403.591c7.2-25.656 14.1-49.121 20.319-72.764q6.761-25.689 12.007-51.768c2.666-13.261 3.7-26.848 6.325-40.12 2.727-13.8 7.971-27.125 6.966-41.562-.1-1.481.7-3.035 1.124-4.543 6.083-21.594 12.127-43.2 18.294-64.769 1.679-5.874 3.736-11.64 5.961-18.511-12.027 4.8-22.107 9.933-32.8 12.786-11.528 3.077-23.638 2.822-36.482 1.288-.231-5.179-.556-9.772-.617-14.369-.172-13.121-.106-26.246-.421-39.363a41 41 0 0 0-1.814-12.336c-3.761-10.812-9.986-11.823-20.19-3.2-1.167 11.452-1.632 22.606-3.811 34.371-2.221 11.993.194 25.837-4.707 35.164h-48.303c-4.77 0-10.536-10.079-17.973-17.848 2.58 15.649 4 29.008 6.911 41.554 8.037 34.586 17.587 69.012 28.939 102.671 6.157 18.254 13.712 36.227 18.7 54.785 7.349 27.364 15.8 54.278 28.154 79.793 2.844 5.884 4.552 12.815 13.418 18.741M433.739 321.315l2.686 2.218c9.267-6.663 18.285-13.712 27.869-19.882 10.163-6.542 20.683-12.994 33.675-7.089a9.3 9.3 0 0 0 4.613.474c15.032-1.579 30.023-3.7 45.09-4.718a85.7 85.7 0 0 1 23.257 1.62 303 303 0 0 1 34.651 9.69c6.281 2.137 11.932 6.1 17.91 9.162 2.386 1.221 4.886 2.221 10.264 4.638-3.717-8.7-5.694-14.516-8.562-19.85-18.562-34.522-30.511-72.225-51.96-105.426-20.277-31.387-33.518-66.186-45.489-101.451-4.253-12.528-9.1-24.852-14.255-38.832-1.881 3.392-3.281 5.042-3.772 6.928q-20.679 79.557-41.221 159.15c-4.988 19.17-9.32 38.408-18.078 56.583-7.147 14.83-11.234 31.134-16.678 46.785m-144.876-57.767c4.308-3.831 8.1-7.41 12.107-10.738 41.669-34.633 30.371-29.338 77.964-38.859 11.224-2.245 22.854-2.383 34.22-4.024 13.135-1.9 21.611-9.985 26.206-22.067 2.96-7.782 5.43-15.776 7.646-23.806 1.368-4.956 2.678-10.176 2.562-15.245-.288-12.6-7.834-20.463-20.568-21.272a137.4 137.4 0 0 0-23.516.8c-24.95 2.727-48.966 9.971-73.32 15.608a78.46 78.46 0 0 0-42.338 25.169c-1.384 1.571-2.914 3.015-4.3 4.587-15.545 17.655-31.178 35.236-46.528 53.06-3.27 3.8-5.5 8.491-8.857 13.8 4.163 4 6.893 8.674 10.756 9.965 15.645 5.23 30.875 12.494 47.966 13.022M98.1 528.261c3.912-2.015 7.69-3.742 11.252-5.835 12.562-7.381 23.41-17.608 38.027-21.621 6.135-1.684 7.809-7.6 9.138-13.568 3.745-16.811 7.837-33.55 12.091-50.241 6.991-27.436 17.888-53.531 27.66-80.02 8.341-22.608 8.039-22.72-.638-43.026-7.826-18.315-23.158-21.629-36.836-7.585q-25.8 26.493-50.954 53.611c-3.454 3.727-6.665 8.481-7.929 13.3-6.1 23.269-11.808 46.57-10.7 71.081A251.5 251.5 0 0 1 86 499.118c-1.673 9.634-2.928 22.517 12.1 29.143M813.451 238.8c-2.44-4.429-3.158-7.15-4.911-8.7-27.153-24-59.036-41.155-88.786-61.419-33.2-22.614-73.085-27.455-108.74-43.337-3.132-1.395-7.12-.866-12.927-1.456l-10.624 10.508c1.029 28.562 19.274 45.385 32.211 64.925 4.561.35 8.5-.24 11.681 1.048 15.864 6.432 31.654 13.082 47.211 20.221 8.045 3.692 15.344 8.995 23.344 12.8 16.678 7.942 32.027 17.473 42.688 32.779 3.157.282 5.8.933 8.325.638a28.3 28.3 0 0 0 9.011-2.4c16.666-8.132 33.225-16.486 51.517-25.607M112.764 672.181c4.728 15.907 8.134 30.923 16.372 44.767 10.4 17.47 17.594 36.825 27.665 54.516 7.566 13.29 14.023 26.743 18.5 41.349a37.94 37.94 0 0 0 8.513 14.7c16.636 17.32 34.185 33.673 55.395 46.595 1.348-1.479 3.356-2.732 3.932-4.463 5.614-16.846 10.914-33.8 16.471-50.661 1.989-6.037.491-11.23-2.64-16.4q-17.845-29.436-35.5-58.985c-7.222-12.148-14.894-24.114-20.966-36.83-4.224-8.846-10.839-13.931-19.094-17.525-15.323-6.671-30.934-12.686-46.2-19.484-7.931-3.524-15.028-3.937-22.448 2.421M835.373 343.8c30.546 30.166 33.309 71.869 44.679 109.929 24.156 2.679 43.3 15.157 63.918 27.7L923.694 333.5c-8.792-13.551-46.133-50.794-63.881-63.258zM291.117 918.983c4.168 15.454 16.091 21.989 28.447 27.837 9.894 4.683 20.279 8.354 30.066 13.236 30.93 15.428 62.651 28.366 97.235 32.926 11.193 1.476 22.392 2.9 34.513 4.474-4.208-10.171-8.533-18.54-11.1-27.418-2.587-8.946-3.2-18.444-5.126-27.607-1.022-4.866-2.992-9.532-4.291-13.536-43.488-7.256-78.834-31.213-118.7-44.382-17.946 9.793-36.538 19.097-51.044 34.47m335.7 62.593c15.676-5.208 29.867-10.41 44.345-14.621 23.555-6.851 47.205-13.419 70.986-19.435 26.637-6.738 52.891-13.676 67.172-40.647.487-.921 1.012-1.822 1.356-2.44l3.051-17.768-56.449-24.713c-18.98 17.58-44.24 29.153-69.167 41.232-14.539 7.045-29.289 13.549-45.575 15.9-4.371.632-8.415 3.535-12.418 5.31-.682 10.491-1.21 19.877-1.926 29.249-.674 8.819-8.114 17.227-1.374 27.933zm200.444-206.207c8.851 25.618 12.847 54.86 24.341 83.487 3.432-3.9 6.2-6.339 8.1-9.327 7.282-11.453 14.352-23.042 21.367-34.662 3.5-5.8 7.286-11.54 9.959-17.731 9.719-22.513 18.759-45.32 28.555-67.8 9.979-22.9 17.531-46.97 32.627-67.474 2.392-3.249 6.507-7.3 3.843-11.825L875.8 675.013c-1.529 6.311-3.356 11.307-3.877 16.436-2.324 22.876-9.4 43.693-24.932 61.152-5.777 6.499-11.391 13.137-19.73 22.768M388.4 523.23v17.913c0 3.568 7.937 8.624 13.988 10.863 18.076 6.686 35.187 13.22 53.838 17.951 12.675 3.215 24.85.885 35.252-9.872a112.8 112.8 0 0 0-12.9-40.445c-9.716-17.939-19.316-36.018-29.04-53.953-1.926-3.553-2.359-6.725-5.256-10.933-21.71 22.312-46.554 45.059-55.882 68.476m258.972-60.7c-13.025 21.326-23.968 40.331-36.053 58.578-6.165 9.308-9.342 18.487-6.654 30.6l12.841 17.139c10.208 0 20.026 2.488 27.741-.484 20.147-7.761 39.374-17.912 60.277-27.724-20.944-25.11-35.124-53.269-58.151-78.113zm8.56 336.668a431 431 0 0 0-24.3 81.652c4.862 9.218 11.793 11.574 20.344 8.966 26.447-8.066 48.9-23.566 71.3-39.04 4.917-3.4 8.48-8.053 5.49-15.97-1.807-1.707-4.041-5.143-7.187-6.577-21.389-9.75-42.979-19.074-65.646-29.035zm-465.326-321.6c9.067-5.118 17.522-10.188 26.244-14.746 13.4-7 27.087-13.443 40.442-20.519 9.82-5.2 11.08-10.58 5.9-20.47-5.809-11.1-11.361-22.333-17.342-33.336-2.41-4.434-5.663-8.41-8.609-12.705l-15.122.79c-1.961 1.66-3.006 2.181-3.511 3.026-14.257 23.841-25.787 48.928-33.082 75.761-1.901 7.001-1.942 14.592 5.081 22.196zm226.543-241.709c-15.784-3.936-28.877-.35-41.234 5.77-15.017 7.438-29.582 15.784-44.381 23.667-7.028 3.744-11.083 9.292-11.539 18.748 2.673 2.208 5.4 5.906 8.98 7.168 15.25 5.372 30.684 10.259 46.191 14.853 9.848 2.918 14.206.939 20.217-7.256 12.031-16.4 16.66-35.882 22.7-54.749.7-2.172-.51-4.956-.934-8.201m212.035-1.4c2.509 6.44 4.612 12.187 6.973 17.826 4.839 11.553 10.238 22.89 14.643 34.6 7.03 18.693 21.427 25.317 40.041 17.633 4.355-1.8 8.385-4.606 12.87-5.822 9.859-2.671 14.966-8.941 16.326-18.443-3.445-14.508-15.43-20.926-25.751-28.817-16.805-12.847-36.764-16.921-56.98-20.019-2.101-.317-4.551 1.639-8.121 3.043zM541.259 559.5c-3.365 4.041-8.036 7.469-9.678 12-7.4 20.4-18.087 39.657-22.94 61.687l10.915 10.481c5.108-2.05 8.959-2.037 12.81-3.582.043.53.086 3.149.13 3.149h47.276c9.551-9.327 10.827-14.821 5.694-23.271-8.646-14.233-17.1-29.362-25.7-43.625-3.985-6.614-7.191-14.891-18.507-16.839M434.8 830.413c-2.753 0-3.944-.354-4.756.052-18.221 9.108-36.364 18.371-54.613 27.421-4.141 2.054-6.629 4.757-6.4 9.477 23.026 18.113 64.187 31.562 85.95 27.853zm369.388-74.124c4.63-2.2 7.235-2.878 9.139-4.423 13.3-10.794 21.921-25.312 28.823-40.422 3.712-8.126 4.893-18.366-5.047-26.508-16.826 4.571-34.653 7.145-50.658 14.845-1.945 22.095 7.382 38.575 17.742 56.508zm-578.635-57.022c6.321 26.4 31.672 64.7 46.469 70.227l12.909-52.6c-10.703-7.865-40.905-16.96-59.378-17.627m593.963-322.824c-12.357 4.2-18.238 13.82-25.927 41.81l3.607 11.079c15.537 5.41 29.507 17.255 48.147 16.257.328-21.057-12.087-54.096-25.827-69.146M138.267 199.931c-3.389 4.651-6.112 9.035-9.465 12.869-10.653 12.182-21.7 24.019-32.285 36.26-8.179 9.459-14.309 10.107-24.008 2.265-14.628-11.825-24.151-27.086-31.165-44.289-3.673-9.008-3.47-17.911 1.747-25.566 10-14.668 20.711-28.882 31.77-42.773 5.056-6.351 8.615-5.888 20.193-.334 2.525 9.809 8.717 17.865 16.255 25.444 8.356 8.4 15.621 17.91 23.118 27.133 1.561 1.921 2.061 4.703 3.84 8.991M82.8 164.578c-5.366 5.7-9.845 10.028-13.808 14.785s-7.392 9.927-10.723 14.465c3.9 14.9 14.176 29.06 25.127 34.52 8.022-10.241 19.826-17.616 25.549-31.163zM933.181 902c14.97 7.874 22.789 20.033 30.271 31.325 8.43 12.721 16.437 26.675 15.348 44.775-7.168 6.791-14.944 13.784-22.264 21.226a174 174 0 0 0-13.106 15.462c-8.145 10.482-16.918 11.039-26.285 1.233a37 37 0 0 1-5.589-7.526c-5.8-10.5-11.764-20.928-16.937-31.734-5.1-10.66-4.866-22.192-3.727-34.764 14.116-12.161 26.13-27.419 42.289-39.997m-3.919 89.9c12.217-7.037 18.181-18.383 26.544-27.347-6.112-12.434-10.369-25.554-22.153-31.922l-25.1 24.639zm-707.586-35.868c1.056 7.188 2.037 14.013 3.139 21.519-7.615 15.362-23.888 20.116-33.5 38.77h-20.947c-1.559 0-3.694-2.392-4.717-4.064-5.9-9.639-14.532-16.173-23.674-22.462-5.446-3.747-10.381-8.935-11.07-17.334 13.939-19.368 25.53-41.329 46.809-54 19.631 4.324 27.402 11.131 43.96 37.571m-37.481-12.051-30.683 27.463 28.217 23.545c5.573-10.606 16.844-16.282 19.358-29.547zm842.646-738.055c-10.083 24.216-28.713 49.29-41.043 56.154-12.524-5.277-27.834-22.432-45.733-51.715 1.539-3.737 2.771-8.9 5.545-13.029 6.382-9.5 13.4-18.571 20.369-27.661 8.123-10.6 23.117-9.552 30.923-2.985a113 113 0 0 1 29.939 39.236m-43.628 26.806c5.6-6.643 10.158-11.655 14.215-17.043 1.805-2.4 2.6-5.555 4.459-9.721-8.236-5.791-8.075-18.788-20.1-22.4l-18.6 24.667z"/></svg>