<svg xmlns="http://www.w3.org/2000/svg" width="1513" height="1513" fill="none"><g fill="#fff" clip-path="url(#a)" opacity=".52"><circle cx="1176.35" cy="702.929" r="1.457" transform="rotate(-90 1176.35 702.929)"/><circle cx="340.445" cy="892.925" r="1.351" transform="rotate(-90 340.445 892.925)"/><circle cx="1012.9" cy="1050.27" r="1.292" transform="rotate(-90 1012.9 1050.27)"/><circle cx="902.841" cy="876.416" r="1.071" transform="rotate(-90 902.841 876.416)"/><circle cx="666.88" cy="857.447" r="1.318" transform="rotate(-90 666.88 857.447)"/><circle cx="1338.72" cy="1297.77" r="1.049" transform="rotate(-90 1338.72 1297.77)"/><circle cx="479.326" cy="685.113" r=".772" transform="rotate(-90 479.326 685.113)"/><circle cx="478.08" cy="1148.46" r="1.069" transform="rotate(-90 478.08 1148.46)"/><circle cx="346.569" cy="929.411" r="1.505" transform="rotate(-90 346.569 929.411)"/><circle cx="570.939" cy="1269.59" r="1.07" transform="rotate(-90 570.939 1269.59)"/><circle cx="258.756" cy="1137.43" r="1.146" transform="rotate(-90 258.756 1137.43)"/><circle cx="731.324" cy="91.885" r=".872" transform="rotate(-90 731.324 91.885)"/><circle cx="625.779" cy="1482.73" r=".799" transform="rotate(-90 625.779 1482.73)"/><circle cx="340.286" cy="676.515" r=".969" transform="rotate(-90 340.286 676.515)"/><circle cx="1362.84" cy="328.315" r="1.504" transform="rotate(-90 1362.84 328.315)"/><circle cx="823.766" cy="1487.77" r=".827" transform="rotate(-90 823.766 1487.77)"/><circle cx="1284.36" cy="238.896" r="1.23" transform="rotate(-90 1284.36 238.896)"/><circle cx="256.946" cy="1182.78" r=".911" transform="rotate(-90 256.946 1182.78)"/><circle cx="1454.13" cy="485.505" r=".973" transform="rotate(-90 1454.13 485.505)"/><circle cx="345.997" cy="563.44" r="1.443" transform="rotate(-90 345.997 563.44)"/><circle cx="1149.16" cy="742.45" r="1.313" transform="rotate(-90 1149.16 742.45)"/><circle cx="1491.9" cy="1252.09" r=".969" transform="rotate(-90 1491.9 1252.09)"/><circle cx="388.72" cy="195.352" r="1.374" transform="rotate(-90 388.72 195.352)"/><circle cx="1230.67" cy="1110.66" r="1.422" transform="rotate(-90 1230.67 1110.66)"/><circle cx="1497.43" cy="881.081" r="1.282" transform="rotate(-90 1497.43 881.081)"/><circle cx="134.784" cy="497.957" r="1.313" transform="rotate(-90 134.784 497.957)"/><circle cx="809.879" cy="271.807" r=".821" transform="rotate(-90 809.879 271.807)"/><circle cx="1427.02" cy="60.863" r="1.09" transform="rotate(-90 1427.02 60.863)"/><circle cx="298.696" cy="918.753" r=".872" transform="rotate(-90 298.696 918.753)"/><circle cx="1496.51" cy="737.953" r=".845" transform="rotate(-90 1496.51 737.953)"/><circle cx="867.507" cy="672.128" r=".914" transform="rotate(-90 867.507 672.128)"/><circle cx="779.895" cy="858.511" r="1.129" transform="rotate(-90 779.895 858.511)"/><circle cx="1230.6" cy="1346.65" r="1.206" transform="rotate(-90 1230.6 1346.65)"/><circle cx="386.815" cy="939.021" r="1.093" transform="rotate(-90 386.815 939.021)"/><circle cx="585.721" cy="544.665" r="1.428" transform="rotate(-90 585.721 544.665)"/><circle cx="736.519" cy="1310.8" r="1.108" transform="rotate(-90 736.519 1310.8)"/><circle cx="1.696" cy="1215.12" r="1.382" transform="rotate(-90 1.696 1215.12)"/><circle cx="114.768" cy="552.914" r="1.288" transform="rotate(-90 114.768 552.914)"/><circle cx="874.668" cy="1123.65" r="1.478" transform="rotate(-90 874.668 1123.65)"/><circle cx="1100.28" cy="76.839" r="1.335" transform="rotate(-90 1100.28 76.84)"/><circle cx="1428.3" cy="1099.17" r=".855" transform="rotate(-90 1428.3 1099.17)"/><circle cx="474.459" cy="1068.97" r=".807" transform="rotate(-90 474.459 1068.97)"/><circle cx="1294.36" cy="93.189" r="1.398" transform="rotate(-90 1294.36 93.189)"/><circle cx="507.865" cy="433.303" r="1.274" transform="rotate(-90 507.865 433.303)"/><circle cx="808.759" cy="1198.75" r="1.482" transform="rotate(-90 808.759 1198.75)"/><circle cx="1380.09" cy="1154.36" r="1.229" transform="rotate(-90 1380.09 1154.36)"/><circle cx="1252.02" cy="1150.82" r="1.384" transform="rotate(-90 1252.02 1150.82)"/><circle cx="1079.14" cy="1056.6" r="1.22" transform="rotate(-90 1079.14 1056.6)"/><circle cx="1138.13" cy="892.61" r=".996" transform="rotate(-90 1138.13 892.61)"/><circle cx="434.552" cy="1383.69" r="1.244" transform="rotate(-90 434.552 1383.69)"/><circle cx="785.335" cy="1403.02" r="1.238" transform="rotate(-90 785.335 1403.02)"/><circle cx="1226.27" cy="289.458" r="1.079" transform="rotate(-90 1226.27 289.458)"/><circle cx="268.305" cy="911.989" r="1.454" transform="rotate(-90 268.305 911.989)"/><circle cx="1040.46" cy="1369.26" r="1.42" transform="rotate(-90 1040.46 1369.26)"/><circle cx="1394.58" cy="1434.4" r="1.409" transform="rotate(-90 1394.58 1434.4)"/><circle cx="1088" cy="645.37" r=".934" transform="rotate(-90 1088 645.37)"/><circle cx="107.642" cy="1467.48" r="1.222" transform="rotate(-90 107.642 1467.48)"/><circle cx="712.059" cy="595.278" r="1.16" transform="rotate(-90 712.059 595.278)"/><circle cx="41.873" cy="496.176" r="1.113" transform="rotate(-90 41.873 496.176)"/><circle cx="104.336" cy="1360.43" r="1.047" transform="rotate(-90 104.336 1360.43)"/><circle cx="640.59" cy="416.002" r="1.488" transform="rotate(-90 640.59 416.002)"/><circle cx="1054.49" cy="1009.57" r=".923" transform="rotate(-90 1054.49 1009.57)"/><circle cx="1483.79" cy="944.016" r="1.381" transform="rotate(-90 1483.79 944.016)"/><circle cx="961.189" cy="485.221" r="1.453" transform="rotate(-90 961.189 485.221)"/><circle cx="1148.15" cy="259.362" r="1.176" transform="rotate(-90 1148.15 259.362)"/><circle cx="1385.06" cy="1423.05" r="1.246" transform="rotate(-90 1385.06 1423.05)"/><circle cx="1290.86" cy="1496" r="1.379" transform="rotate(-90 1290.86 1496)"/><circle cx="254.801" cy="94.585" r=".924" transform="rotate(-90 254.801 94.585)"/><circle cx="810.598" cy="815.707" r="1.022" transform="rotate(-90 810.598 815.707)"/><circle cx="1445.56" cy="981.73" r="1.216" transform="rotate(-90 1445.56 981.73)"/><circle cx="982.255" cy="905.976" r=".831" transform="rotate(-90 982.255 905.976)"/><circle cx="471.618" cy="1035.83" r="1.217" transform="rotate(-90 471.618 1035.83)"/><circle cx="821.112" cy="1080.08" r="1.292" transform="rotate(-90 821.112 1080.08)"/><circle cx="989.518" cy="632.061" r="1.348" transform="rotate(-90 989.518 632.061)"/><circle cx="1143.27" cy="96.361" r="1.363" transform="rotate(-90 1143.27 96.361)"/><circle cx="1029.18" cy="1106.52" r="1.485" transform="rotate(-90 1029.18 1106.52)"/><circle cx="130.368" cy="93.344" r="1.354" transform="rotate(-90 130.368 93.344)"/><circle cx="1365.98" cy="84.697" r="1.15" transform="rotate(-90 1365.98 84.697)"/><circle cx="1164.94" cy="796.87" r="1.218" transform="rotate(-90 1164.94 796.87)"/><circle cx="1062.78" cy="795.323" r=".987" transform="rotate(-90 1062.78 795.323)"/><circle cx="1348.03" cy="1401.89" r="1.388" transform="rotate(-90 1348.03 1401.89)"/><circle cx="490.665" cy="601.807" r="1.023" transform="rotate(-90 490.665 601.807)"/><circle cx="327.807" cy="942.595" r=".758" transform="rotate(-90 327.807 942.595)"/><circle cx="1312.59" cy="709.691" r="1.347" transform="rotate(-90 1312.59 709.691)"/><circle cx="650.428" cy="786.266" r=".764" transform="rotate(-90 650.428 786.266)"/><circle cx="91.417" cy="236.227" r="1.081" transform="rotate(-90 91.417 236.227)"/><circle cx="95.519" cy="1124.13" r="1.369" transform="rotate(-90 95.52 1124.13)"/><circle cx="726.357" cy="403.915" r=".8" transform="rotate(-90 726.357 403.915)"/><circle cx="41.604" cy="594.848" r="1.426" transform="rotate(-90 41.604 594.848)"/><circle cx="59.492" cy="1303.72" r="1.449" transform="rotate(-90 59.492 1303.72)"/><circle cx="1108.45" cy="1040.55" r="1.182" transform="rotate(-90 1108.45 1040.55)"/><circle cx="380.903" cy="1004.18" r="1.151" transform="rotate(-90 380.903 1004.18)"/><circle cx="619.379" cy="812.69" r="1.078" transform="rotate(-90 619.379 812.69)"/><circle cx="1439.79" cy="56.968" r="1.298" transform="rotate(-90 1439.79 56.968)"/><circle cx="1159.39" cy="1368.45" r="1.34" transform="rotate(-90 1159.39 1368.45)"/><circle cx="101.165" cy="1387.48" r="1.387" transform="rotate(-90 101.165 1387.48)"/><circle cx="138.01" cy="914.514" r=".784" transform="rotate(-90 138.01 914.514)"/><circle cx="386.712" cy="459.803" r="1.317" transform="rotate(-90 386.712 459.803)"/><circle cx="233.21" cy="840.568" r="1.366" transform="rotate(-90 233.21 840.568)"/><circle cx="683.706" cy="866.324" r="1.156" transform="rotate(-90 683.706 866.324)"/><circle cx="379.39" cy="990.188" r="1.252" transform="rotate(-90 379.39 990.188)"/><circle cx="477.3" cy="1385.08" r="1.366" transform="rotate(-90 477.3 1385.08)"/><circle cx="55.528" cy="680.152" r="1.116" transform="rotate(-90 55.528 680.152)"/><circle cx="409.099" cy="295.176" r="1.466" transform="rotate(-90 409.099 295.176)"/><circle cx="251.588" cy="171.087" r="1.09" transform="rotate(-90 251.588 171.087)"/><circle cx="1257.68" cy="405.072" r="1.284" transform="rotate(-90 1257.68 405.072)"/><circle cx="581.03" cy="19.222" r="1.313" transform="rotate(-90 581.03 19.222)"/><circle cx="1174.56" cy="168.733" r="1.397" transform="rotate(-90 1174.56 168.733)"/><circle cx="145.677" cy="989.593" r="1.216" transform="rotate(-90 145.677 989.593)"/><circle cx="632.661" cy="1334.08" r="1.056" transform="rotate(-90 632.661 1334.08)"/><circle cx="231.567" cy="115.449" r="1.005" transform="rotate(-90 231.567 115.449)"/><circle cx="96.784" cy="1410.56" r="1.47" transform="rotate(-90 96.784 1410.56)"/><circle cx="332.021" cy="1133.9" r=".798" transform="rotate(-90 332.021 1133.9)"/><circle cx="311.764" cy="298.241" r=".946" transform="rotate(-90 311.764 298.241)"/><circle cx="66.149" cy="193.608" r=".86" transform="rotate(-90 66.149 193.608)"/><circle cx="1148.3" cy="1014.34" r="1.468" transform="rotate(-90 1148.3 1014.34)"/><circle cx="116.18" cy="840.778" r=".927" transform="rotate(-90 116.18 840.778)"/><circle cx="993.613" cy="1176.09" r="1.507" transform="rotate(-90 993.613 1176.09)"/><circle cx="662.182" cy="1163.91" r=".92" transform="rotate(-90 662.182 1163.91)"/><circle cx="912.833" cy="959.186" r=".829" transform="rotate(-90 912.833 959.186)"/><circle cx="926.598" cy="958.279" r=".971" transform="rotate(-90 926.598 958.279)"/><circle cx="1357.75" cy="856.319" r=".863" transform="rotate(-90 1357.75 856.319)"/><circle cx="226.592" cy="955.197" r="1.35" transform="rotate(-90 226.592 955.197)"/><circle cx="582.027" cy="250.19" r="1.002" transform="rotate(-90 582.027 250.19)"/><circle cx="193.964" cy="1045.95" r="1.112" transform="rotate(-90 193.964 1045.95)"/><circle cx="314.832" cy="1121.19" r="1.205" transform="rotate(-90 314.832 1121.19)"/><circle cx="1332.1" cy="401.104" r=".909" transform="rotate(-90 1332.1 401.104)"/><circle cx="1328.82" cy="270.558" r="1.264" transform="rotate(-90 1328.82 270.558)"/><circle cx="1034.38" cy="1453.13" r="1.253" transform="rotate(-90 1034.38 1453.13)"/><circle cx="703.397" cy="215.046" r="1.416" transform="rotate(-90 703.397 215.046)"/><circle cx="1221.85" cy="1326.85" r="1.429" transform="rotate(-90 1221.85 1326.85)"/><circle cx="1455.08" cy="619.865" r="1.092" transform="rotate(-90 1455.08 619.865)"/><circle cx="597.684" cy="186.199" r="1.448" transform="rotate(-90 597.684 186.199)"/><circle cx="1009.09" cy="538.245" r="1.061" transform="rotate(-90 1009.09 538.245)"/><circle cx="1500.65" cy="1414.45" r=".764" transform="rotate(-90 1500.65 1414.45)"/><circle cx="832.095" cy="921.852" r="1.337" transform="rotate(-90 832.095 921.852)"/><circle cx="1448.4" cy="1292.32" r="1.014" transform="rotate(-90 1448.4 1292.32)"/><circle cx="1170.45" cy="785.071" r=".831" transform="rotate(-90 1170.45 785.071)"/><circle cx="1474.86" cy="617.285" r="1.384" transform="rotate(-90 1474.86 617.285)"/><circle cx="812.997" cy="1258.43" r="1.337" transform="rotate(-90 812.997 1258.43)"/><circle cx="1437.09" cy="1454.4" r="1.25" transform="rotate(-90 1437.09 1454.4)"/><circle cx="1164.42" cy="836.189" r="1.206" transform="rotate(-90 1164.42 836.189)"/><circle cx="1501.1" cy="1115.4" r=".916" transform="rotate(-90 1501.1 1115.4)"/><circle cx="1491.06" cy="19.462" r="1.179" transform="rotate(-90 1491.06 19.462)"/><circle cx="1168.08" cy="1291.25" r="1.086" transform="rotate(-90 1168.08 1291.25)"/><circle cx="758.96" cy="1231.23" r=".813" transform="rotate(-90 758.96 1231.23)"/><circle cx="695.971" cy="1461.86" r="1.208" transform="rotate(-90 695.971 1461.86)"/><circle cx="1470.23" cy="1126.08" r=".795" transform="rotate(-90 1470.23 1126.08)"/><circle cx="433.606" cy="1023.5" r=".807" transform="rotate(-90 433.606 1023.5)"/><circle cx="130.365" cy="203.95" r="1.409" transform="rotate(-90 130.365 203.95)"/><circle cx="134.074" cy="1460.07" r=".863" transform="rotate(-90 134.074 1460.07)"/><circle cx="643.72" cy="600.572" r=".976" transform="rotate(-90 643.72 600.572)"/><circle cx="554.737" cy="1135.93" r=".897" transform="rotate(-90 554.737 1135.93)"/><circle cx="182.273" cy="1197.48" r="1.345" transform="rotate(-90 182.273 1197.48)"/><circle cx="483.487" cy="482.009" r="1.214" transform="rotate(-90 483.487 482.009)"/><circle cx="411.233" cy="1509.67" r="1.374" transform="rotate(-90 411.233 1509.67)"/><circle cx="1150.56" cy="962.593" r="1.394" transform="rotate(-90 1150.56 962.593)"/><circle cx="858.066" cy="3.637" r=".892" transform="rotate(-90 858.066 3.637)"/><circle cx="450.835" cy="169.18" r=".785" transform="rotate(-90 450.835 169.18)"/><circle cx="807.35" cy="393.816" r=".961" transform="rotate(-90 807.35 393.816)"/><circle cx="979.575" cy="981.854" r="1.295" transform="rotate(-90 979.575 981.854)"/><circle cx="1334.32" cy="572.608" r="1.104" transform="rotate(-90 1334.32 572.608)"/><circle cx="459.735" cy="1473.79" r=".889" transform="rotate(-90 459.735 1473.79)"/><circle cx="612.826" cy="1215.23" r="1.22" transform="rotate(-90 612.826 1215.23)"/><circle cx="1391.56" cy="708.663" r="1.504" transform="rotate(-90 1391.56 708.663)"/><circle cx="1020.05" cy="650.144" r="1.177" transform="rotate(-90 1020.05 650.144)"/><circle cx="595.212" cy="1130.05" r="1.153" transform="rotate(-90 595.212 1130.05)"/><circle cx="217.005" cy="467.379" r="1.416" transform="rotate(-90 217.005 467.379)"/><circle cx="427.29" cy="1043.08" r="1.028" transform="rotate(-90 427.29 1043.08)"/><circle cx="707.444" cy="832.737" r="1.177" transform="rotate(-90 707.444 832.737)"/><circle cx="372.663" cy="1451.93" r=".999" transform="rotate(-90 372.663 1451.93)"/><circle cx="281.522" cy="425.654" r="1.461" transform="rotate(-90 281.522 425.654)"/><circle cx="1473.62" cy="965.909" r=".878" transform="rotate(-90 1473.62 965.909)"/><circle cx="101.211" cy="214.113" r="1.125" transform="rotate(-90 101.211 214.113)"/><circle cx="894.679" cy="325.648" r="1.158" transform="rotate(-90 894.679 325.648)"/><circle cx="852.759" cy="262.509" r="1.493" transform="rotate(-90 852.759 262.509)"/><circle cx="133.557" cy="313.391" r="1.088" transform="rotate(-90 133.557 313.391)"/><circle cx="1170.49" cy="699.507" r=".827" transform="rotate(-90 1170.49 699.507)"/><circle cx="997.186" cy="1069.22" r="1.302" transform="rotate(-90 997.186 1069.22)"/><circle cx="1315.37" cy="768.342" r="1.297" transform="rotate(-90 1315.37 768.342)"/><circle cx="920.426" cy="1254.88" r="1.284" transform="rotate(-90 920.426 1254.88)"/><circle cx="1507.21" cy="661.553" r="1.165" transform="rotate(-90 1507.21 661.553)"/><circle cx="876.357" cy="1329.76" r=".775" transform="rotate(-90 876.357 1329.76)"/><circle cx="147.149" cy="195.291" r="1.381" transform="rotate(-90 147.149 195.291)"/><circle cx="598.806" cy="501.059" r="1.003" transform="rotate(-90 598.806 501.059)"/><circle cx="625.148" cy="173.396" r=".967" transform="rotate(-90 625.148 173.396)"/><circle cx="1091.8" cy="532.774" r="1.103" transform="rotate(-90 1091.8 532.774)"/><circle cx="924.061" cy="1209.72" r="1.473" transform="rotate(-90 924.061 1209.72)"/><circle cx="1276.37" cy="454.937" r="1.294" transform="rotate(-90 1276.37 454.937)"/><circle cx="493.13" cy="1355.49" r="1.198" transform="rotate(-90 493.13 1355.49)"/><circle cx="959.383" cy="538.849" r="1.453" transform="rotate(-90 959.383 538.849)"/><circle cx="1128.61" cy="875.837" r="1.311" transform="rotate(-90 1128.61 875.837)"/><circle cx="43.672" cy="434.187" r=".826" transform="rotate(-90 43.672 434.187)"/><circle cx="57.049" cy="199.057" r="1.096" transform="rotate(-90 57.049 199.057)"/><circle cx="484.909" cy="1103.89" r=".919" transform="rotate(-90 484.909 1103.89)"/><circle cx="378.252" cy="253.722" r="1.494" transform="rotate(-90 378.252 253.722)"/><circle cx="591.391" cy="1196.54" r=".996" transform="rotate(-90 591.391 1196.54)"/><circle cx="1057.55" cy="450.06" r="1.347" transform="rotate(-90 1057.55 450.06)"/><circle cx="905.094" cy="411.167" r="1.246" transform="rotate(-90 905.094 411.167)"/><circle cx="1032.53" cy="989.143" r="1.204" transform="rotate(-90 1032.53 989.143)"/><circle cx="1309.26" cy="1057.94" r=".986" transform="rotate(-90 1309.26 1057.94)"/><circle cx="1264.28" cy="321.485" r="1.22" transform="rotate(-90 1264.28 321.485)"/><circle cx="719.446" cy="928.905" r="1.368" transform="rotate(-90 719.446 928.905)"/><circle cx="1383.27" cy="1435.51" r="1.479" transform="rotate(-90 1383.27 1435.51)"/><circle cx="1465.49" cy="1272.61" r="1.456" transform="rotate(-90 1465.49 1272.61)"/><circle cx="718.546" cy="1032.85" r="1.204" transform="rotate(-90 718.546 1032.85)"/><circle cx="1404.6" cy="869.014" r="1.492" transform="rotate(-90 1404.6 869.014)"/><circle cx="824.924" cy="153.839" r="1.482" transform="rotate(-90 824.924 153.839)"/><circle cx="779.955" cy="1351.06" r="1.293" transform="rotate(-90 779.955 1351.06)"/><circle cx="683.845" cy="690.868" r="1.292" transform="rotate(-90 683.845 690.868)"/><circle cx="1253.72" cy="70.396" r="1.265" transform="rotate(-90 1253.72 70.396)"/><circle cx="1208.77" cy="1424.25" r=".771" transform="rotate(-90 1208.77 1424.25)"/><circle cx="381.28" cy="751.727" r="1.089" transform="rotate(-90 381.28 751.727)"/><circle cx="853.602" cy="1064.73" r="1.241" transform="rotate(-90 853.602 1064.73)"/><circle cx="1221.07" cy="252.027" r=".841" transform="rotate(-90 1221.07 252.027)"/><circle cx="48.058" cy="315.157" r=".771" transform="rotate(-90 48.058 315.157)"/><circle cx="430.521" cy="2.172" r="1.064" transform="rotate(-90 430.521 2.172)"/><circle cx="222.449" cy="1288.22" r="1.41" transform="rotate(-90 222.449 1288.22)"/><circle cx="952.817" cy="1350.81" r=".913" transform="rotate(-90 952.817 1350.81)"/><circle cx="70.018" cy="572.856" r="1.508" transform="rotate(-90 70.018 572.856)"/><circle cx="854.623" cy="790.553" r=".83" transform="rotate(-90 854.623 790.553)"/><circle cx="618.704" cy="1237.59" r="1.071" transform="rotate(-90 618.704 1237.59)"/><circle cx="109.812" cy="256.446" r="1.08" transform="rotate(-90 109.812 256.446)"/><circle cx="971.17" cy="711.836" r="1.311" transform="rotate(-90 971.17 711.836)"/><circle cx="1278.18" cy="303.44" r="1.357" transform="rotate(-90 1278.18 303.44)"/><circle cx="1371.26" cy="1219.55" r="1.119" transform="rotate(-90 1371.26 1219.55)"/><circle cx="716.275" cy="110.309" r=".876" transform="rotate(-90 716.275 110.309)"/><circle cx="719.927" cy="1264.77" r="1.286" transform="rotate(-90 719.927 1264.77)"/><circle cx="356.555" cy="1185.43" r=".775" transform="rotate(-90 356.555 1185.43)"/><circle cx="329.557" cy="731.215" r="1.114" transform="rotate(-90 329.557 731.215)"/><circle cx="678.042" cy="818.736" r=".878" transform="rotate(-90 678.042 818.736)"/><circle cx="982.68" cy="618.671" r=".852" transform="rotate(-90 982.68 618.671)"/><circle cx="1478.9" cy="1463.92" r="1.369" transform="rotate(-90 1478.9 1463.92)"/><circle cx="249.44" cy="950.867" r="1.184" transform="rotate(-90 249.44 950.867)"/><circle cx="693.664" cy="45.904" r="1.136" transform="rotate(-90 693.664 45.904)"/><circle cx="1227.86" cy="1193.13" r="1.002" transform="rotate(-90 1227.86 1193.13)"/><circle cx="435.896" cy="315.492" r="1.32" transform="rotate(-90 435.896 315.492)"/><circle cx="106.611" cy="66.662" r="1.433" transform="rotate(-90 106.611 66.662)"/><circle cx="1436.07" cy="653.415" r=".874" transform="rotate(-90 1436.07 653.415)"/><circle cx="85.615" cy="765.266" r=".879" transform="rotate(-90 85.615 765.266)"/><circle cx="458.428" cy="700.305" r="1.438" transform="rotate(-90 458.428 700.305)"/><circle cx="641.649" cy="1484.6" r="1.217" transform="rotate(-90 641.649 1484.6)"/><circle cx="1130.8" cy="318.02" r="1.476" transform="rotate(-90 1130.8 318.02)"/><circle cx="1218.78" cy="203.27" r="1.472" transform="rotate(-90 1218.78 203.27)"/><circle cx="1130.4" cy="323.951" r="1.232" transform="rotate(-90 1130.4 323.951)"/><circle cx="449.076" cy="1473.08" r="1.244" transform="rotate(-90 449.076 1473.08)"/><circle cx="411.273" cy="1190.52" r="1.101" transform="rotate(-90 411.273 1190.52)"/><circle cx="956.93" cy="731.818" r="1.42" transform="rotate(-90 956.93 731.818)"/><circle cx="817.051" cy="903.698" r=".865" transform="rotate(-90 817.051 903.698)"/><circle cx="1302.63" cy="885.148" r=".883" transform="rotate(-90 1302.63 885.148)"/><circle cx="1451.12" cy="486.896" r=".988" transform="rotate(-90 1451.12 486.896)"/><circle cx="1323.68" cy="1276.9" r=".775" transform="rotate(-90 1323.68 1276.9)"/><circle cx="144.814" cy="1022.3" r="1.285" transform="rotate(-90 144.814 1022.3)"/><circle cx="29.944" cy="706.309" r="1.414" transform="rotate(-90 29.944 706.309)"/><circle cx="848.85" cy="814.396" r="1.045" transform="rotate(-90 848.85 814.396)"/><circle cx="1455.54" cy="543.297" r="1.091" transform="rotate(-90 1455.54 543.297)"/><circle cx="38.783" cy="84.499" r="1.215" transform="rotate(-90 38.783 84.5)"/><circle cx="470.769" cy="1195.44" r="1.441" transform="rotate(-90 470.769 1195.44)"/><circle cx="1385.11" cy="126.488" r="1.389" transform="rotate(-90 1385.11 126.488)"/><circle cx="454.897" cy="387.858" r=".999" transform="rotate(-90 454.897 387.858)"/><circle cx="81.62" cy="780.092" r="1.292" transform="rotate(-90 81.62 780.092)"/><circle cx="636.749" cy="767.789" r=".98" transform="rotate(-90 636.749 767.789)"/><circle cx="510.137" cy="90.643" r=".826" transform="rotate(-90 510.137 90.643)"/><circle cx="109.602" cy="37.85" r=".768" transform="rotate(-90 109.602 37.85)"/><circle cx="668.969" cy="30.849" r="1.336" transform="rotate(-90 668.969 30.849)"/><circle cx="542.616" cy="1200" r="1.272" transform="rotate(-90 542.616 1200)"/><circle cx="1236.47" cy="1475.04" r=".934" transform="rotate(-90 1236.47 1475.04)"/><circle cx="548.886" cy="1424.33" r=".788" transform="rotate(-90 548.886 1424.33)"/><circle cx="699.555" cy="975.576" r="1.467" transform="rotate(-90 699.555 975.576)"/><circle cx="1150.14" cy="1044.42" r="1.257" transform="rotate(-90 1150.14 1044.42)"/><circle cx="1409.57" cy="104.068" r="1.316" transform="rotate(-90 1409.57 104.068)"/><circle cx="754.741" cy="42.508" r="1.343" transform="rotate(-90 754.741 42.508)"/><circle cx="33.016" cy="227.023" r=".782" transform="rotate(-90 33.016 227.023)"/><circle cx="1464.44" cy="1382.1" r=".931" transform="rotate(-90 1464.44 1382.1)"/><circle cx="396.553" cy="790.059" r=".833" transform="rotate(-90 396.553 790.059)"/><circle cx="121.55" cy="90.114" r=".831" transform="rotate(-90 121.55 90.114)"/><circle cx="1013.08" cy="255.595" r="1.462" transform="rotate(-90 1013.08 255.595)"/><circle cx="33.032" cy="1306.83" r="1.225" transform="rotate(-90 33.032 1306.83)"/><circle cx="907.667" cy="684.727" r=".988" transform="rotate(-90 907.667 684.727)"/><circle cx="860.728" cy="837.717" r="1.296" transform="rotate(-90 860.728 837.717)"/><circle cx="603.232" cy="1395.11" r="1.05" transform="rotate(-90 603.232 1395.11)"/><circle cx="622.485" cy="410.625" r="1.075" transform="rotate(-90 622.485 410.625)"/><circle cx="320.5" cy="113.734" r=".973" transform="rotate(-90 320.5 113.734)"/><circle cx="245.47" cy="1148.11" r="1.441" transform="rotate(-90 245.47 1148.11)"/><circle cx="332.012" cy="214.896" r="1.484" transform="rotate(-90 332.012 214.896)"/><circle cx="962.329" cy="900.352" r="1.484" transform="rotate(-90 962.329 900.352)"/><circle cx="831.206" cy="1370.68" r=".818" transform="rotate(-90 831.206 1370.68)"/><circle cx="752.298" cy="1294.79" r="1.122" transform="rotate(-90 752.298 1294.79)"/><circle cx="325.882" cy="175.13" r=".973" transform="rotate(-90 325.882 175.13)"/><circle cx="105.449" cy="1416.01" r=".98" transform="rotate(-90 105.449 1416.01)"/><circle cx="678.247" cy="524.986" r="1.316" transform="rotate(-90 678.247 524.986)"/><circle cx="304.13" cy="37.846" r=".788" transform="rotate(-90 304.13 37.846)"/><circle cx="1393.98" cy="707.801" r="1.119" transform="rotate(-90 1393.98 707.801)"/><circle cx="400.373" cy="383.542" r=".799" transform="rotate(-90 400.373 383.542)"/><circle cx="1236.96" cy="488.638" r="1.325" transform="rotate(-90 1236.96 488.638)"/><circle cx="1120.02" cy="1280.98" r=".868" transform="rotate(-90 1120.02 1280.98)"/><circle cx="437.513" cy="390.175" r=".867" transform="rotate(-90 437.513 390.175)"/><circle cx="1107.69" cy="107.835" r=".953" transform="rotate(-90 1107.69 107.835)"/><circle cx="1203.03" cy="573.06" r=".894" transform="rotate(-90 1203.03 573.06)"/><circle cx="327.786" cy="118.995" r="1.365" transform="rotate(-90 327.786 118.995)"/><circle cx="34.624" cy="103.406" r=".924" transform="rotate(-90 34.624 103.406)"/><circle cx="1112.83" cy="167.736" r=".881" transform="rotate(-90 1112.83 167.736)"/><circle cx="194.326" cy="35.558" r="1" transform="rotate(-90 194.326 35.558)"/><circle cx="198.937" cy="220.143" r="1.245" transform="rotate(-90 198.937 220.143)"/><circle cx="506.018" cy="-.916" r="1.301" transform="rotate(-90 506.018 -.916)"/><circle cx="278.383" cy="149.739" r="1.03" transform="rotate(-90 278.383 149.739)"/><circle cx="1402.39" cy="69.942" r=".913" transform="rotate(-90 1402.39 69.942)"/><circle cx="1113.65" cy="1502.75" r="1.372" transform="rotate(-90 1113.65 1502.75)"/><circle cx="1139.75" cy="632.808" r="1.077" transform="rotate(-90 1139.75 632.808)"/><circle cx="147.518" cy="1485.11" r=".907" transform="rotate(-90 147.518 1485.11)"/><circle cx="1105.68" cy="810.939" r=".806" transform="rotate(-90 1105.68 810.939)"/><circle cx="227.268" cy="275.724" r="1.039" transform="rotate(-90 227.268 275.724)"/><circle cx="173.501" cy="556.323" r=".915" transform="rotate(-90 173.501 556.323)"/><circle cx="342.467" cy="1482.63" r="1.067" transform="rotate(-90 342.467 1482.63)"/><circle cx="253.532" cy="1312.31" r="1.368" transform="rotate(-90 253.532 1312.31)"/><circle cx="30.886" cy="97.056" r=".923" transform="rotate(-90 30.886 97.056)"/><circle cx="1180.81" cy="430.65" r="1.214" transform="rotate(-90 1180.81 430.65)"/><circle cx="892.734" cy="688.936" r="1.215" transform="rotate(-90 892.734 688.936)"/><circle cx="1127" cy="1106.15" r="1.425" transform="rotate(-90 1127 1106.15)"/><circle cx="116.394" cy="857.692" r="1.121" transform="rotate(-90 116.394 857.692)"/><circle cx="1444.7" cy="166.953" r="1.467" transform="rotate(-90 1444.7 166.953)"/><circle cx="112.529" cy="675.681" r="1.132" transform="rotate(-90 112.529 675.681)"/><circle cx="1199.15" cy="1429.6" r=".94" transform="rotate(-90 1199.15 1429.6)"/><circle cx="672.32" cy="1382.92" r=".951" transform="rotate(-90 672.32 1382.92)"/><circle cx="261.76" cy="708.132" r=".859" transform="rotate(-90 261.76 708.132)"/><circle cx="1223.73" cy="668.566" r="1.511" transform="rotate(-90 1223.73 668.566)"/><circle cx="1036.95" cy="574.836" r="1.267" transform="rotate(-90 1036.95 574.836)"/><circle cx="661.579" cy="914.846" r=".78" transform="rotate(-90 661.579 914.846)"/><circle cx="1172.31" cy="126.351" r="1.046" transform="rotate(-90 1172.31 126.351)"/><circle cx="1243.99" cy="1055.27" r="1.326" transform="rotate(-90 1243.99 1055.27)"/><circle cx="186.406" cy="1146.24" r="1.422" transform="rotate(-90 186.406 1146.24)"/><circle cx="705.74" cy="1442.19" r="1.033" transform="rotate(-90 705.74 1442.19)"/><circle cx="517.37" cy="887.319" r="1.378" transform="rotate(-90 517.37 887.319)"/><circle cx="508.805" cy="994.678" r=".977" transform="rotate(-90 508.805 994.678)"/><circle cx="529.068" cy="14.468" r="1.51" transform="rotate(-90 529.068 14.468)"/><circle cx="459.178" cy="360.668" r="1.075" transform="rotate(-90 459.178 360.668)"/><circle cx="474.624" cy="555.105" r="1.37" transform="rotate(-90 474.624 555.105)"/><circle cx="493.719" cy="72.369" r="1.501" transform="rotate(-90 493.719 72.369)"/><circle cx="312.103" cy="90.933" r="1.206" transform="rotate(-90 312.103 90.933)"/><circle cx="889.009" cy="498.112" r=".833" transform="rotate(-90 889.009 498.112)"/><circle cx="494.558" cy="117.442" r=".862" transform="rotate(-90 494.558 117.442)"/><circle cx="524.126" cy="668.522" r="1.437" transform="rotate(-90 524.126 668.522)"/><circle cx="1263.65" cy="642.013" r="1.241" transform="rotate(-90 1263.65 642.013)"/><circle cx="94.877" cy="1448.37" r=".777" transform="rotate(-90 94.877 1448.37)"/><circle cx="1405.15" cy="508.171" r="1.23" transform="rotate(-90 1405.15 508.171)"/><circle cx="1324.06" cy="785.333" r=".76" transform="rotate(-90 1324.06 785.333)"/><circle cx="595.957" cy="480.137" r=".857" transform="rotate(-90 595.957 480.137)"/><circle cx="233.419" cy="324.254" r="1.431" transform="rotate(-90 233.419 324.254)"/><circle cx="42.409" cy="232.995" r="1.503" transform="rotate(-90 42.409 232.995)"/><circle cx="226.542" cy="123.547" r="1.384" transform="rotate(-90 226.542 123.547)"/><circle cx="248.13" cy="1302.01" r=".794" transform="rotate(-90 248.13 1302.01)"/><circle cx="727.075" cy="1454.94" r="1.194" transform="rotate(-90 727.075 1454.94)"/><circle cx="269.004" cy="419.857" r=".834" transform="rotate(-90 269.004 419.857)"/><circle cx="1019.64" cy="1340.39" r="1.068" transform="rotate(-90 1019.64 1340.39)"/><circle cx="1441.14" cy="952.92" r="1.254" transform="rotate(-90 1441.14 952.92)"/><circle cx="270.832" cy="283.155" r="1.305" transform="rotate(-90 270.832 283.155)"/><circle cx="633.449" cy="588.708" r="1.14" transform="rotate(-90 633.449 588.708)"/><circle cx="522.078" cy="1137.59" r=".839" transform="rotate(-90 522.078 1137.59)"/><circle cx="1381.18" cy="425.281" r="1.256" transform="rotate(-90 1381.18 425.281)"/><circle cx="481.006" cy="609.508" r="1.411" transform="rotate(-90 481.006 609.508)"/><circle cx="919.223" cy="1268.31" r="1.46" transform="rotate(-90 919.223 1268.31)"/><circle cx="1389.14" cy="299.918" r=".929" transform="rotate(-90 1389.14 299.918)"/><circle cx="503.194" cy="555.752" r="1.14" transform="rotate(-90 503.194 555.752)"/><circle cx="1044.42" cy="981.687" r="1.367" transform="rotate(-90 1044.42 981.687)"/><circle cx="986.678" cy="372.828" r="1.195" transform="rotate(-90 986.678 372.828)"/><circle cx="94.344" cy="569.042" r="1.16" transform="rotate(-90 94.344 569.042)"/><circle cx="537.376" cy="1056.15" r="1.144" transform="rotate(-90 537.376 1056.15)"/><circle cx="1232.81" cy="425.752" r="1.317" transform="rotate(-90 1232.81 425.752)"/><circle cx="67.624" cy="827.09" r="1.438" transform="rotate(-90 67.624 827.09)"/><circle cx="917.837" cy="574.348" r=".78" transform="rotate(-90 917.837 574.348)"/><circle cx="651.978" cy="399.64" r="1.317" transform="rotate(-90 651.978 399.64)"/><circle cx="361.842" cy="1362.55" r=".815" transform="rotate(-90 361.842 1362.55)"/><circle cx="1245.98" cy="1199.58" r="1.141" transform="rotate(-90 1245.98 1199.58)"/><circle cx="422.75" cy="390.536" r="1.297" transform="rotate(-90 422.75 390.536)"/><circle cx="1298.37" cy="452.024" r="1.283" transform="rotate(-90 1298.37 452.024)"/><circle cx="275.038" cy="209.47" r="1.495" transform="rotate(-90 275.038 209.47)"/><circle cx="500.268" cy="35.471" r=".803" transform="rotate(-90 500.268 35.471)"/><circle cx="1204.88" cy="1195.11" r="1.223" transform="rotate(-90 1204.88 1195.11)"/><circle cx="1345.9" cy="1049.76" r=".809" transform="rotate(-90 1345.9 1049.76)"/><circle cx="619.809" cy="900.011" r=".819" transform="rotate(-90 619.809 900.011)"/><circle cx="1488.22" cy="514.549" r="1.241" transform="rotate(-90 1488.22 514.549)"/><circle cx="1078.5" cy="1410.71" r="1.01" transform="rotate(-90 1078.5 1410.71)"/><circle cx="137.319" cy="572.174" r="1.291" transform="rotate(-90 137.319 572.174)"/><circle cx="571.517" cy="115.341" r=".789" transform="rotate(-90 571.517 115.341)"/><circle cx="620.936" cy="180.689" r="1.356" transform="rotate(-90 620.936 180.689)"/><circle cx="775.838" cy="609.897" r="1.34" transform="rotate(-90 775.838 609.897)"/><circle cx="1146.1" cy="127.674" r=".824" transform="rotate(-90 1146.1 127.674)"/><circle cx="856.488" cy="549.671" r="1.255" transform="rotate(-90 856.488 549.671)"/><circle cx="433.545" cy="1355.78" r=".865" transform="rotate(-90 433.545 1355.78)"/><circle cx="1407.92" cy="808.895" r="1.143" transform="rotate(-90 1407.92 808.895)"/><circle cx="334.715" cy="1089.86" r="1.391" transform="rotate(-90 334.715 1089.86)"/><circle cx="582.913" cy="16.831" r="1.016" transform="rotate(-90 582.913 16.83)"/><circle cx="584.218" cy="1005.52" r="1.052" transform="rotate(-90 584.218 1005.52)"/><circle cx="100.021" cy="120.147" r="1.017" transform="rotate(-90 100.021 120.147)"/><circle cx="657.462" cy="1429.42" r="1.13" transform="rotate(-90 657.462 1429.42)"/><circle cx="1190.08" cy="1054.98" r=".908" transform="rotate(-90 1190.08 1054.98)"/><circle cx="249.376" cy="492.322" r=".886" transform="rotate(-90 249.376 492.322)"/><circle cx="836.015" cy="1452.89" r="1.313" transform="rotate(-90 836.015 1452.89)"/><circle cx="845.862" cy="360.58" r=".811" transform="rotate(-90 845.862 360.58)"/><circle cx="1498.11" cy="1425.2" r=".861" transform="rotate(-90 1498.11 1425.2)"/><circle cx="850.565" cy="45.985" r=".768" transform="rotate(-90 850.565 45.985)"/><circle cx="543.521" cy="411.583" r="1.361" transform="rotate(-90 543.521 411.583)"/><circle cx="1145.9" cy="1343.5" r="1.354" transform="rotate(-90 1145.9 1343.5)"/><circle cx="1279.42" cy="1243" r="1.198" transform="rotate(-90 1279.42 1243)"/><circle cx="993.282" cy="996.904" r="1.319" transform="rotate(-90 993.282 996.904)"/><circle cx="221.72" cy="1089.08" r="1.216" transform="rotate(-90 221.72 1089.08)"/><circle cx="1329.61" cy="546.268" r="1.324" transform="rotate(-90 1329.61 546.268)"/><circle cx="271.651" cy="408.189" r=".884" transform="rotate(-90 271.651 408.189)"/><circle cx="836.595" cy="1337.76" r="1.378" transform="rotate(-90 836.595 1337.76)"/><circle cx="1089.36" cy="1042.5" r="1.08" transform="rotate(-90 1089.36 1042.5)"/><circle cx="908.506" cy="984.37" r="1.498" transform="rotate(-90 908.506 984.37)"/><circle cx="827.677" cy="366.898" r=".855" transform="rotate(-90 827.677 366.898)"/><circle cx="954.355" cy="647.778" r="1.3" transform="rotate(-90 954.355 647.778)"/><circle cx="1416.77" cy="354.622" r="1.218" transform="rotate(-90 1416.77 354.622)"/><circle cx="979.558" cy="35.202" r=".989" transform="rotate(-90 979.558 35.202)"/><circle cx="355.341" cy="1025.62" r="1.429" transform="rotate(-90 355.341 1025.62)"/><circle cx="209.918" cy="752.243" r=".905" transform="rotate(-90 209.918 752.243)"/><circle cx="84.744" cy="1175.46" r="1.334" transform="rotate(-90 84.744 1175.46)"/><circle cx="656.32" cy="222.91" r="1.158" transform="rotate(-90 656.32 222.91)"/><circle cx="493.458" cy="988.773" r=".769" transform="rotate(-90 493.458 988.773)"/><circle cx="377.48" cy="766.204" r=".919" transform="rotate(-90 377.48 766.204)"/><circle cx="43.174" cy="897.66" r="1.43" transform="rotate(-90 43.174 897.66)"/><circle cx="1065.33" cy="1070.88" r="1.065" transform="rotate(-90 1065.33 1070.88)"/><circle cx="778.236" cy="1462.94" r=".986" transform="rotate(-90 778.236 1462.94)"/><circle cx="326.549" cy="1220.53" r="1.125" transform="rotate(-90 326.549 1220.53)"/><circle cx="225.652" cy="1095.44" r=".816" transform="rotate(-90 225.652 1095.44)"/><circle cx="731.16" cy="179.89" r=".975" transform="rotate(-90 731.16 179.89)"/><circle cx="902.546" cy="87.841" r=".964" transform="rotate(-90 902.546 87.841)"/><circle cx="1058.03" cy="527.226" r="1.308" transform="rotate(-90 1058.03 527.226)"/><circle cx="1078.76" cy="1396.55" r="1.252" transform="rotate(-90 1078.76 1396.55)"/><circle cx="1147.9" cy="1302.73" r="1.337" transform="rotate(-90 1147.9 1302.73)"/><circle cx="1318.57" cy="1189.21" r=".923" transform="rotate(-90 1318.57 1189.21)"/><circle cx="1321.49" cy="764.133" r="1.189" transform="rotate(-90 1321.49 764.133)"/><circle cx="426.962" cy="217.824" r="1.115" transform="rotate(-90 426.962 217.824)"/><circle cx="435.306" cy="728.471" r="1.398" transform="rotate(-90 435.306 728.471)"/><circle cx="1499.82" cy="179.846" r="1.037" transform="rotate(-90 1499.82 179.846)"/><circle cx="627.146" cy="20.389" r="1.386" transform="rotate(-90 627.146 20.389)"/><circle cx="61.265" cy="461.344" r="1.168" transform="rotate(-90 61.265 461.344)"/><circle cx="1422.33" cy="972.898" r=".937" transform="rotate(-90 1422.33 972.898)"/><circle cx="1321.98" cy="326.892" r="1.355" transform="rotate(-90 1321.98 326.892)"/><circle cx="1286.08" cy="1469.2" r="1.415" transform="rotate(-90 1286.08 1469.2)"/><circle cx="1493.17" cy="284.839" r="1.365" transform="rotate(-90 1493.17 284.839)"/><circle cx="1311.68" cy="1323.12" r="1.091" transform="rotate(-90 1311.68 1323.12)"/><circle cx="1309.56" cy="1400.98" r="1.381" transform="rotate(-90 1309.56 1400.98)"/><circle cx="72.863" cy="1025.43" r="1.269" transform="rotate(-90 72.863 1025.43)"/><circle cx="121.085" cy="280.912" r="1.148" transform="rotate(-90 121.085 280.912)"/><circle cx="40.469" cy="752.834" r="1.459" transform="rotate(-90 40.469 752.834)"/><circle cx="490.299" cy="1055.9" r="1.385" transform="rotate(-90 490.299 1055.9)"/><circle cx="936.879" cy="243.105" r="1.358" transform="rotate(-90 936.879 243.105)"/><circle cx="683.193" cy="1207.41" r="1.285" transform="rotate(-90 683.193 1207.41)"/><circle cx="1137.46" cy="564.858" r="1.147" transform="rotate(-90 1137.46 564.858)"/><circle cx="1379.03" cy="293.216" r="1.191" transform="rotate(-90 1379.03 293.216)"/><circle cx="1266.69" cy="739.23" r=".837" transform="rotate(-90 1266.69 739.23)"/><circle cx="1372.04" cy="670.417" r="1.266" transform="rotate(-90 1372.04 670.417)"/><circle cx="1123.23" cy="986.719" r=".836" transform="rotate(-90 1123.23 986.719)"/><circle cx="194.644" cy="1406.82" r="1.28" transform="rotate(-90 194.644 1406.82)"/><circle cx="250.582" cy="564.387" r="1.367" transform="rotate(-90 250.582 564.387)"/><circle cx="1425.93" cy="1243.25" r="1.304" transform="rotate(-90 1425.93 1243.25)"/><circle cx="935.661" cy="502.841" r="1.014" transform="rotate(-90 935.661 502.841)"/><circle cx="18.499" cy="120.064" r="1.311" transform="rotate(-90 18.499 120.064)"/><circle cx="1337.48" cy="1109.24" r=".972" transform="rotate(-90 1337.48 1109.24)"/><circle cx="1209.79" cy="223.498" r="1.512" transform="rotate(-90 1209.79 223.498)"/><circle cx="679.334" cy="1020.79" r="1.134" transform="rotate(-90 679.334 1020.79)"/><circle cx="778.905" cy="757.127" r="1.401" transform="rotate(-90 778.905 757.127)"/><circle cx="370.834" cy="1122.07" r="1.465" transform="rotate(-90 370.834 1122.07)"/><circle cx="324.016" cy="282.738" r="1.194" transform="rotate(-90 324.016 282.738)"/><circle cx="788.536" cy="359.043" r=".878" transform="rotate(-90 788.536 359.043)"/><circle cx="1323.05" cy="402.216" r=".76" transform="rotate(-90 1323.05 402.216)"/><circle cx="815.855" cy="947.095" r=".884" transform="rotate(-90 815.855 947.095)"/><circle cx="1053.12" cy="284.96" r="1.232" transform="rotate(-90 1053.12 284.96)"/><circle cx="350.223" cy="939.772" r="1.063" transform="rotate(-90 350.223 939.772)"/><circle cx="689.087" cy="1216.56" r=".805" transform="rotate(-90 689.087 1216.56)"/><circle cx="1312.18" cy="1208.85" r=".983" transform="rotate(-90 1312.18 1208.85)"/><circle cx="1071.6" cy="857.186" r="1.238" transform="rotate(-90 1071.6 857.186)"/><circle cx="921.815" cy="211.836" r="1.18" transform="rotate(-90 921.815 211.836)"/><circle cx="1479.5" cy="42.207" r="1.19" transform="rotate(-90 1479.5 42.207)"/><circle cx="1404.81" cy="1034.41" r="1.019" transform="rotate(-90 1404.81 1034.41)"/><circle cx="964.224" cy="281.494" r=".836" transform="rotate(-90 964.224 281.494)"/><circle cx="686.06" cy="642.591" r="1.503" transform="rotate(-90 686.06 642.591)"/><circle cx="1081.94" cy="647.427" r=".777" transform="rotate(-90 1081.94 647.427)"/><circle cx="1082.19" cy="868.304" r="1.444" transform="rotate(-90 1082.19 868.304)"/><circle cx="725.068" cy="409.925" r="1.294" transform="rotate(-90 725.068 409.925)"/><circle cx="1201.76" cy="465.342" r="1.059" transform="rotate(-90 1201.76 465.342)"/><circle cx="1438.62" cy="821.927" r="1.239" transform="rotate(-90 1438.62 821.927)"/><circle cx="1079.61" cy="156.681" r="1.233" transform="rotate(-90 1079.61 156.681)"/><circle cx="924.11" cy="1243.04" r="1.211" transform="rotate(-90 924.11 1243.04)"/><circle cx="418.567" cy="115.563" r="1.19" transform="rotate(-90 418.567 115.563)"/><circle cx="608.009" cy="1124.53" r="1.048" transform="rotate(-90 608.009 1124.53)"/><circle cx="253.221" cy="114.777" r="1.463" transform="rotate(-90 253.221 114.777)"/><circle cx="824.649" cy="475.387" r=".764" transform="rotate(-90 824.649 475.387)"/><circle cx="1287.79" cy="942.447" r="1.045" transform="rotate(-90 1287.79 942.447)"/><circle cx="1009.43" cy="395.172" r=".885" transform="rotate(-90 1009.43 395.172)"/><circle cx="1433.34" cy="414.704" r=".855" transform="rotate(-90 1433.34 414.704)"/><circle cx="423.42" cy="766.51" r="1.149" transform="rotate(-90 423.42 766.51)"/><circle cx="707.199" cy="1224.05" r="1.471" transform="rotate(-90 707.199 1224.05)"/><circle cx="1441.98" cy="1309.01" r="1.258" transform="rotate(-90 1441.98 1309.01)"/><circle cx="288.555" cy="1352.27" r="1.391" transform="rotate(-90 288.555 1352.27)"/><circle cx="1137.16" cy="452.532" r="1.466" transform="rotate(-90 1137.16 452.532)"/><circle cx="1373.92" cy="1027.49" r="1.297" transform="rotate(-90 1373.92 1027.49)"/><circle cx="263.251" cy="1459.89" r="1.473" transform="rotate(-90 263.251 1459.89)"/><circle cx="723.591" cy="269.968" r="1.116" transform="rotate(-90 723.591 269.968)"/><circle cx="395.576" cy="625.435" r="1.099" transform="rotate(-90 395.576 625.435)"/><circle cx="1393.48" cy="1301.49" r="1.089" transform="rotate(-90 1393.48 1301.49)"/><circle cx="844.238" cy="1455.74" r=".764" transform="rotate(-90 844.238 1455.74)"/><circle cx="1236.54" cy="990.409" r="1.259" transform="rotate(-90 1236.54 990.409)"/><circle cx="909.376" cy="870.529" r="1.304" transform="rotate(-90 909.376 870.529)"/><circle cx="968.281" cy="15.852" r="1.381" transform="rotate(-90 968.281 15.852)"/><circle cx="561.448" cy="685.949" r=".985" transform="rotate(-90 561.448 685.949)"/><circle cx="1319.87" cy="86.346" r="1.482" transform="rotate(-90 1319.87 86.346)"/><circle cx="1471.76" cy="1010.41" r=".912" transform="rotate(-90 1471.76 1010.41)"/><circle cx="987.406" cy="608.199" r=".908" transform="rotate(-90 987.406 608.199)"/><circle cx="859.001" cy="175.653" r=".84" transform="rotate(-90 859.001 175.653)"/><circle cx="344.141" cy="718.287" r="1.186" transform="rotate(-90 344.141 718.287)"/><circle cx="1353.33" cy="1219.3" r=".981" transform="rotate(-90 1353.33 1219.3)"/><circle cx="1331.11" cy="920.884" r=".957" transform="rotate(-90 1331.11 920.884)"/><circle cx="1001.94" cy="857.391" r="1.151" transform="rotate(-90 1001.94 857.391)"/><circle cx="1265.88" cy="1248.49" r="1.417" transform="rotate(-90 1265.88 1248.49)"/><circle cx="156.591" cy="610.256" r="1.496" transform="rotate(-90 156.591 610.256)"/><circle cx="454.965" cy="1263.46" r="1.075" transform="rotate(-90 454.965 1263.46)"/><circle cx="911.35" cy="59.075" r="1.405" transform="rotate(-90 911.35 59.075)"/><circle cx="632.079" cy="449.033" r="1.36" transform="rotate(-90 632.079 449.033)"/><circle cx="357.176" cy="1132.76" r=".93" transform="rotate(-90 357.176 1132.76)"/><circle cx="1319.16" cy="1232.52" r=".976" transform="rotate(-90 1319.16 1232.52)"/><circle cx="643.719" cy="1142.29" r=".836" transform="rotate(-90 643.719 1142.29)"/><circle cx="596.624" cy="661.701" r="1.081" transform="rotate(-90 596.624 661.701)"/><circle cx="917.21" cy="1183.27" r=".917" transform="rotate(-90 917.21 1183.27)"/><circle cx="401.485" cy="315.644" r=".875" transform="rotate(-90 401.485 315.644)"/><circle cx="1496.14" cy="1216.16" r="1.004" transform="rotate(-90 1496.14 1216.16)"/><circle cx="1313.72" cy="1124.68" r="1.253" transform="rotate(-90 1313.72 1124.68)"/><circle cx="730.002" cy="346.301" r="1.102" transform="rotate(-90 730.002 346.301)"/><circle cx="1463.13" cy="1378.16" r="1.148" transform="rotate(-90 1463.13 1378.16)"/><circle cx="938.448" cy="611.897" r=".819" transform="rotate(-90 938.448 611.897)"/><circle cx="1341.99" cy="362.39" r="1.359" transform="rotate(-90 1341.99 362.39)"/><circle cx="646.356" cy="1437.84" r=".915" transform="rotate(-90 646.356 1437.84)"/><circle cx="182.371" cy="1434.52" r=".777" transform="rotate(-90 182.371 1434.52)"/><circle cx="320.22" cy="287.014" r=".904" transform="rotate(-90 320.22 287.014)"/><circle cx="114.42" cy="29.183" r="1.031" transform="rotate(-90 114.42 29.183)"/><circle cx="436.103" cy="1498.7" r="1.357" transform="rotate(-90 436.103 1498.7)"/><circle cx="124.846" cy="986.618" r="1.248" transform="rotate(-90 124.846 986.618)"/><circle cx="783.23" cy="482.116" r="1.219" transform="rotate(-90 783.23 482.116)"/><circle cx="1046" cy="1126.48" r="1.183" transform="rotate(-90 1046 1126.48)"/><circle cx="497.562" cy="121.22" r="1.241" transform="rotate(-90 497.562 121.22)"/><circle cx="444.747" cy="973.701" r="1.173" transform="rotate(-90 444.747 973.701)"/><circle cx="129.526" cy="179.193" r="1.106" transform="rotate(-90 129.526 179.193)"/><circle cx="285.569" cy="1497.68" r="1.02" transform="rotate(-90 285.569 1497.68)"/><circle cx="86.224" cy="521.648" r=".781" transform="rotate(-90 86.224 521.648)"/><circle cx="561.921" cy="1220.07" r=".843" transform="rotate(-90 561.921 1220.07)"/><circle cx="83.861" cy="552.223" r="1.473" transform="rotate(-90 83.861 552.223)"/><circle cx="372.657" cy="424.061" r="1.104" transform="rotate(-90 372.657 424.061)"/><circle cx="140.306" cy="76.11" r="1.48" transform="rotate(-90 140.306 76.11)"/><circle cx="1241.91" cy="1227.06" r="1.289" transform="rotate(-90 1241.91 1227.06)"/><circle cx="1449.83" cy="1472.9" r="1.502" transform="rotate(-90 1449.83 1472.9)"/><circle cx="1279.88" cy=".681" r=".801" transform="rotate(-90 1279.88 .681)"/><circle cx="84.463" cy="599.16" r="1.451" transform="rotate(-90 84.463 599.16)"/><circle cx="56.313" cy="100.929" r=".883" transform="rotate(-90 56.313 100.929)"/><circle cx="197.155" cy="900.367" r="1.194" transform="rotate(-90 197.155 900.367)"/><circle cx="1352.2" cy="160.815" r=".866" transform="rotate(-90 1352.2 160.815)"/><circle cx="1266.51" cy="152.839" r="1.418" transform="rotate(-90 1266.51 152.839)"/><circle cx="1455.03" cy="1288.37" r=".918" transform="rotate(-90 1455.03 1288.37)"/><circle cx="243.526" cy="723.802" r="1.386" transform="rotate(-90 243.526 723.802)"/><circle cx="330.755" cy="716.802" r="1.431" transform="rotate(-90 330.755 716.802)"/><circle cx="1407.87" cy="759.995" r="1.43" transform="rotate(-90 1407.87 759.995)"/><circle cx="945.599" cy="762.961" r="1" transform="rotate(-90 945.599 762.961)"/><circle cx="1411.43" cy="1038.26" r="1.432" transform="rotate(-90 1411.43 1038.26)"/><circle cx="934.046" cy="1501.87" r="1.034" transform="rotate(-90 934.046 1501.87)"/><circle cx="1291.13" cy="598.696" r="1.47" transform="rotate(-90 1291.13 598.696)"/><circle cx="898.475" cy="504.013" r="1.235" transform="rotate(-90 898.475 504.013)"/><circle cx="1107.5" cy="1415.79" r=".909" transform="rotate(-90 1107.5 1415.79)"/><circle cx="1440.4" cy="233.457" r="1.039" transform="rotate(-90 1440.4 233.457)"/><circle cx="743.312" cy="218.843" r="1.507" transform="rotate(-90 743.312 218.843)"/><circle cx="738.992" cy="663.756" r="1.353" transform="rotate(-90 738.992 663.756)"/><circle cx="730.698" cy="1163.74" r="1.296" transform="rotate(-90 730.698 1163.74)"/><circle cx="777.259" cy="1503.07" r="1.027" transform="rotate(-90 777.259 1503.07)"/><circle cx="1138.52" cy="419.354" r=".761" transform="rotate(-90 1138.52 419.354)"/><circle cx="209.254" cy="29.415" r=".758" transform="rotate(-90 209.254 29.415)"/><circle cx="260.163" cy="398.498" r="1.025" transform="rotate(-90 260.163 398.498)"/><circle cx="1216.16" cy="48.166" r=".984" transform="rotate(-90 1216.16 48.166)"/><circle cx="227.239" cy="1189.64" r="1.219" transform="rotate(-90 227.239 1189.64)"/><circle cx="858.66" cy="772.794" r="1.234" transform="rotate(-90 858.66 772.794)"/><circle cx="267.979" cy="352.527" r="1.186" transform="rotate(-90 267.979 352.527)"/><circle cx="158.311" cy="830.461" r="1.256" transform="rotate(-90 158.311 830.461)"/><circle cx="792.18" cy="172.045" r=".918" transform="rotate(-90 792.18 172.045)"/><circle cx="756.679" cy="1131.59" r=".854" transform="rotate(-90 756.679 1131.59)"/><circle cx="637.515" cy="1036.86" r="1.296" transform="rotate(-90 637.515 1036.86)"/><circle cx="179.197" cy="488.489" r="1.338" transform="rotate(-90 179.197 488.489)"/><circle cx="51.909" cy="1111.49" r="1.131" transform="rotate(-90 51.909 1111.49)"/><circle cx="346.451" cy="65.3" r=".972" transform="rotate(-90 346.451 65.3)"/><circle cx="1325.34" cy="953.841" r=".759" transform="rotate(-90 1325.34 953.841)"/><circle cx="364.102" cy="1264.46" r="1.227" transform="rotate(-90 364.102 1264.46)"/><circle cx="975.229" cy="136.443" r="1.253" transform="rotate(-90 975.229 136.443)"/><circle cx="957.044" cy="693.787" r="1.165" transform="rotate(-90 957.044 693.787)"/><circle cx="181.064" cy="1331.79" r=".929" transform="rotate(-90 181.064 1331.79)"/><circle cx="475.663" cy="527.891" r="1.339" transform="rotate(-90 475.663 527.891)"/><circle cx="811.986" cy="889.878" r=".888" transform="rotate(-90 811.986 889.878)"/><circle cx="355.311" cy="651.126" r="1.109" transform="rotate(-90 355.311 651.126)"/><circle cx="812.385" cy="416.377" r=".911" transform="rotate(-90 812.385 416.377)"/><circle cx="1187.94" cy="459.644" r=".949" transform="rotate(-90 1187.94 459.644)"/><circle cx="317.732" cy="1013.53" r="1.441" transform="rotate(-90 317.732 1013.53)"/><circle cx="38.467" cy="1161.14" r=".819" transform="rotate(-90 38.467 1161.14)"/><circle cx="423.649" cy="1078.54" r="1.026" transform="rotate(-90 423.649 1078.54)"/><circle cx="555.054" cy="1476.26" r=".765" transform="rotate(-90 555.054 1476.26)"/><circle cx="1080.57" cy="778.414" r="1.314" transform="rotate(-90 1080.57 778.414)"/><circle cx="572.164" cy="769.795" r="1.482" transform="rotate(-90 572.164 769.795)"/><circle cx="1103.71" cy="980.145" r="1.164" transform="rotate(-90 1103.71 980.145)"/><circle cx="763.025" cy="44.276" r="1.451" transform="rotate(-90 763.025 44.276)"/><circle cx="710.229" cy="74.841" r=".821" transform="rotate(-90 710.229 74.84)"/><circle cx="304.677" cy="682.73" r="1.292" transform="rotate(-90 304.677 682.73)"/><circle cx="834.925" cy="411.151" r=".824" transform="rotate(-90 834.925 411.151)"/><circle cx="185.464" cy="1189.48" r="1.042" transform="rotate(-90 185.464 1189.48)"/><circle cx="799.415" cy="46.803" r="1.031" transform="rotate(-90 799.415 46.803)"/><circle cx="1062.55" cy="1139.33" r="1.488" transform="rotate(-90 1062.55 1139.33)"/><circle cx="1156.11" cy="1000.01" r="1.402" transform="rotate(-90 1156.11 1000.01)"/><circle cx="1120.1" cy="843.119" r=".96" transform="rotate(-90 1120.1 843.119)"/><circle cx="805.919" cy="954.409" r="1.484" transform="rotate(-90 805.919 954.409)"/><circle cx="1165.41" cy="915.936" r=".878" transform="rotate(-90 1165.41 915.936)"/><circle cx="434.499" cy="9.887" r="1.153" transform="rotate(-90 434.499 9.887)"/><circle cx="1050.83" cy="732.049" r=".805" transform="rotate(-90 1050.83 732.049)"/><circle cx="610.617" cy="1406.9" r=".936" transform="rotate(-90 610.617 1406.9)"/><circle cx="1444.59" cy="1510.31" r="1.297" transform="rotate(-90 1444.59 1510.31)"/><circle cx="1177.48" cy="523.596" r="1.058" transform="rotate(-90 1177.48 523.596)"/><circle cx="932.228" cy="1397.44" r="1.421" transform="rotate(-90 932.228 1397.44)"/><circle cx="607.183" cy="196.391" r="1.466" transform="rotate(-90 607.183 196.391)"/><circle cx="340.906" cy="616.263" r="1.059" transform="rotate(-90 340.906 616.263)"/><circle cx="398.383" cy="1485.43" r="1.089" transform="rotate(-90 398.383 1485.43)"/><circle cx="283.699" cy="348.254" r="1.098" transform="rotate(-90 283.699 348.254)"/><circle cx="631.842" cy="1163.06" r="1.07" transform="rotate(-90 631.842 1163.06)"/><circle cx="90.606" cy="734.208" r="1.012" transform="rotate(-90 90.606 734.208)"/><circle cx="86.675" cy="923.25" r=".925" transform="rotate(-90 86.675 923.25)"/><circle cx="483.91" cy="783.631" r=".955" transform="rotate(-90 483.91 783.631)"/><circle cx="1448.62" cy="853.041" r="1.421" transform="rotate(-90 1448.62 853.041)"/><circle cx="315.258" cy="269.026" r=".99" transform="rotate(-90 315.258 269.026)"/><circle cx="980.188" cy="732.951" r=".85" transform="rotate(-90 980.188 732.951)"/><circle cx="436.854" cy="2.814" r="1.465" transform="rotate(-90 436.854 2.814)"/><circle cx="305.117" cy="1106.77" r=".892" transform="rotate(-90 305.117 1106.77)"/><circle cx="1114.79" cy="293.349" r="1.014" transform="rotate(-90 1114.79 293.349)"/><circle cx="1120.02" cy="558.179" r="1.068" transform="rotate(-90 1120.02 558.179)"/><circle cx="1164.82" cy="1440.54" r="1.03" transform="rotate(-90 1164.82 1440.54)"/><circle cx="1483.16" cy="1244.66" r="1.279" transform="rotate(-90 1483.16 1244.66)"/><circle cx="545.571" cy="643.453" r="1.452" transform="rotate(-90 545.571 643.453)"/><circle cx="292.018" cy="726.041" r="1.301" transform="rotate(-90 292.018 726.041)"/><circle cx="1498.13" cy="892.247" r="1.235" transform="rotate(-90 1498.13 892.247)"/><circle cx="1405.47" cy="376.708" r="1.184" transform="rotate(-90 1405.47 376.708)"/><circle cx="881.412" cy="1344.1" r=".895" transform="rotate(-90 881.412 1344.1)"/><circle cx="125.866" cy="490.243" r="1.417" transform="rotate(-90 125.866 490.243)"/><circle cx="903.667" cy="1301.33" r="1.081" transform="rotate(-90 903.667 1301.33)"/><circle cx="930.466" cy="1167.39" r="1.253" transform="rotate(-90 930.466 1167.39)"/><circle cx="666.116" cy="567.821" r=".817" transform="rotate(-90 666.116 567.821)"/><circle cx="1357.53" cy="982.72" r=".808" transform="rotate(-90 1357.53 982.72)"/><circle cx="1414.53" cy="1039.94" r="1.371" transform="rotate(-90 1414.53 1039.94)"/><circle cx="1316.18" cy="631.768" r=".776" transform="rotate(-90 1316.18 631.768)"/><circle cx="702.443" cy="666.383" r="1.224" transform="rotate(-90 702.443 666.383)"/><circle cx="108.952" cy="474.33" r="1.434" transform="rotate(-90 108.952 474.33)"/><circle cx="1386.21" cy="473.568" r="1.294" transform="rotate(-90 1386.21 473.568)"/><circle cx="644.196" cy="624.632" r="1.452" transform="rotate(-90 644.196 624.632)"/><circle cx="1112.08" cy="1191.59" r="1.277" transform="rotate(-90 1112.08 1191.59)"/><circle cx="514.755" cy="1185.06" r="1.423" transform="rotate(-90 514.755 1185.06)"/><circle cx="1141.71" cy="722.97" r="1.075" transform="rotate(-90 1141.71 722.97)"/><circle cx="1388.13" cy="1007.88" r=".877" transform="rotate(-90 1388.13 1007.88)"/><circle cx="458.536" cy="565.08" r="1.461" transform="rotate(-90 458.536 565.08)"/><circle cx="14.346" cy="59.69" r="1.008" transform="rotate(-90 14.346 59.69)"/><circle cx="158.81" cy="705.648" r="1.226" transform="rotate(-90 158.81 705.648)"/><circle cx="1403.46" cy="1124" r="1.127" transform="rotate(-90 1403.46 1124)"/><circle cx="1428.61" cy="75.183" r=".808" transform="rotate(-90 1428.61 75.183)"/><circle cx="722.728" cy="602.932" r="1.052" transform="rotate(-90 722.728 602.932)"/><circle cx="17.286" cy="535.871" r=".802" transform="rotate(-90 17.286 535.871)"/><circle cx="264.19" cy="981.943" r="1.37" transform="rotate(-90 264.19 981.943)"/><circle cx="313.051" cy="1057.73" r=".77" transform="rotate(-90 313.051 1057.73)"/><circle cx="506.175" cy="253.646" r=".983" transform="rotate(-90 506.175 253.646)"/><circle cx="706.609" cy="1263.13" r="1.176" transform="rotate(-90 706.609 1263.13)"/><circle cx="1332.65" cy="373.173" r=".829" transform="rotate(-90 1332.65 373.173)"/><circle cx="1142.98" cy="679.123" r="1.453" transform="rotate(-90 1142.98 679.123)"/><circle cx="863.272" cy="567.07" r="1.405" transform="rotate(-90 863.272 567.07)"/><circle cx="1036.14" cy="153.18" r="1.364" transform="rotate(-90 1036.14 153.18)"/><circle cx="584.534" cy="833.613" r=".794" transform="rotate(-90 584.534 833.613)"/><circle cx="768.411" cy="1029.77" r=".991" transform="rotate(-90 768.411 1029.77)"/><circle cx="344.704" cy="369.016" r="1.073" transform="rotate(-90 344.704 369.016)"/><circle cx="188.26" cy="1142.18" r="1.299" transform="rotate(-90 188.26 1142.18)"/><circle cx="903.956" cy="1009.94" r="1.444" transform="rotate(-90 903.956 1009.94)"/><circle cx="462.268" cy="161.831" r="1.088" transform="rotate(-90 462.268 161.831)"/><circle cx="1033.5" cy="731.025" r="1.361" transform="rotate(-90 1033.5 731.025)"/><circle cx="1224.69" cy="1152.44" r=".929" transform="rotate(-90 1224.69 1152.44)"/><circle cx="490.947" cy="283.519" r=".809" transform="rotate(-90 490.947 283.519)"/><circle cx="488.031" cy="976.281" r="1.05" transform="rotate(-90 488.031 976.281)"/><circle cx="1513.35" cy="718.932" r=".813" transform="rotate(-90 1513.35 718.932)"/><circle cx="1369.35" cy="120.802" r=".763" transform="rotate(-90 1369.35 120.802)"/><circle cx="830.949" cy="1417.24" r="1.197" transform="rotate(-90 830.949 1417.24)"/><circle cx="834.481" cy="138.968" r="1.44" transform="rotate(-90 834.481 138.968)"/><circle cx="26.57" cy="856.112" r="1.498" transform="rotate(-90 26.57 856.112)"/><circle cx="1444.13" cy="656.099" r=".932" transform="rotate(-90 1444.13 656.099)"/><circle cx="777.743" cy="58.593" r="1.231" transform="rotate(-90 777.743 58.593)"/><circle cx="9.307" cy="718.818" r="1.465" transform="rotate(-90 9.307 718.818)"/><circle cx="819.226" cy="952.335" r="1.367" transform="rotate(-90 819.226 952.335)"/><circle cx="1215.47" cy="1226.18" r=".794" transform="rotate(-90 1215.47 1226.18)"/><circle cx="383.753" cy="522.047" r="1.206" transform="rotate(-90 383.753 522.047)"/><circle cx="1262.45" cy="237.738" r="1.017" transform="rotate(-90 1262.45 237.738)"/><circle cx="1358.98" cy="1264.69" r="1.309" transform="rotate(-90 1358.98 1264.69)"/><circle cx="761.251" cy="1503.47" r="1.253" transform="rotate(-90 761.251 1503.47)"/><circle cx="1269.43" cy="281.833" r="1.119" transform="rotate(-90 1269.43 281.833)"/><circle cx="99.738" cy="1106.34" r=".797" transform="rotate(-90 99.738 1106.34)"/><circle cx="570.147" cy="56.649" r=".776" transform="rotate(-90 570.147 56.649)"/><circle cx="601.781" cy="876.356" r="1.295" transform="rotate(-90 601.781 876.356)"/><circle cx="509.926" cy="1452.56" r="1.28" transform="rotate(-90 509.926 1452.56)"/><circle cx="303.647" cy="256.534" r=".848" transform="rotate(-90 303.647 256.534)"/><circle cx="273.156" cy="1066.74" r=".875" transform="rotate(-90 273.156 1066.74)"/><circle cx="1505.8" cy="225.363" r="1.143" transform="rotate(-90 1505.8 225.363)"/><circle cx="802.687" cy="775.651" r=".98" transform="rotate(-90 802.687 775.651)"/><circle cx="1007.88" cy="706.458" r="1.027" transform="rotate(-90 1007.88 706.458)"/><circle cx="1290.69" cy="734.693" r="1.29" transform="rotate(-90 1290.69 734.693)"/><circle cx="56.615" cy="151.439" r="1.008" transform="rotate(-90 56.615 151.439)"/><circle cx="1099.71" cy="1325.63" r="1.139" transform="rotate(-90 1099.71 1325.63)"/><circle cx="669.175" cy="1471.77" r=".807" transform="rotate(-90 669.175 1471.77)"/><circle cx="1393.98" cy="907.793" r=".842" transform="rotate(-90 1393.98 907.793)"/><circle cx="258.43" cy="655.237" r="1.477" transform="rotate(-90 258.43 655.237)"/><circle cx="111.809" cy="239.5" r="1.059" transform="rotate(-90 111.809 239.5)"/><circle cx="224.888" cy="516.863" r=".886" transform="rotate(-90 224.888 516.863)"/><circle cx="275.072" cy="892.933" r=".92" transform="rotate(-90 275.072 892.933)"/><circle cx="934.56" cy="291.511" r=".761" transform="rotate(-90 934.56 291.511)"/><circle cx="1193.88" cy="1279.33" r=".94" transform="rotate(-90 1193.88 1279.33)"/><circle cx="132.875" cy="423.984" r="1.123" transform="rotate(-90 132.875 423.984)"/><circle cx="280.288" cy="996.58" r=".909" transform="rotate(-90 280.288 996.58)"/><circle cx="850.571" cy="969.025" r="1.03" transform="rotate(-90 850.571 969.025)"/><circle cx="169.149" cy="939.874" r="1.438" transform="rotate(-90 169.149 939.874)"/><circle cx="791.48" cy="140.844" r="1.15" transform="rotate(-90 791.48 140.844)"/><circle cx="396.463" cy="235.523" r="1.131" transform="rotate(-90 396.463 235.523)"/><circle cx="993.552" cy="109.625" r="1.001" transform="rotate(-90 993.552 109.625)"/><circle cx="385.106" cy="627.852" r="1.364" transform="rotate(-90 385.106 627.852)"/><circle cx="14.6" cy="934.836" r=".908" transform="rotate(-90 14.6 934.836)"/><circle cx="1300.03" cy="1160.18" r="1.394" transform="rotate(-90 1300.03 1160.18)"/><circle cx="697.92" cy="410.428" r=".846" transform="rotate(-90 697.92 410.428)"/><circle cx="214.984" cy="167.699" r="1.1" transform="rotate(-90 214.984 167.699)"/><circle cx="167.119" cy="1089.37" r="1.05" transform="rotate(-90 167.119 1089.37)"/><circle cx="228.974" cy="147.711" r=".854" transform="rotate(-90 228.974 147.711)"/><circle cx="136.896" cy="699.88" r=".794" transform="rotate(-90 136.896 699.88)"/><circle cx="776.043" cy="1408.32" r="1.094" transform="rotate(-90 776.043 1408.32)"/><circle cx="347.424" cy="646.234" r="1.363" transform="rotate(-90 347.424 646.234)"/><circle cx="16.888" cy="55.419" r="1.437" transform="rotate(-90 16.888 55.42)"/><circle cx="502.546" cy="1049.75" r=".812" transform="rotate(-90 502.546 1049.75)"/><circle cx="1246.17" cy="222.106" r="1.092" transform="rotate(-90 1246.17 222.106)"/><circle cx="1412.24" cy="937.889" r="1.459" transform="rotate(-90 1412.24 937.889)"/><circle cx="1138.21" cy="442.68" r="1.335" transform="rotate(-90 1138.21 442.68)"/><circle cx="1066.83" cy="1000.35" r="1.163" transform="rotate(-90 1066.83 1000.35)"/><circle cx="63.62" cy="1437.03" r="1.231" transform="rotate(-90 63.62 1437.03)"/><circle cx="1497.04" cy="1106.61" r="1.247" transform="rotate(-90 1497.04 1106.61)"/><circle cx="1396.82" cy="806.908" r="1.389" transform="rotate(-90 1396.82 806.908)"/><circle cx="36.122" cy="783.661" r="1.048" transform="rotate(-90 36.122 783.661)"/><circle cx="832.928" cy="125.711" r="1.163" transform="rotate(-90 832.928 125.711)"/><circle cx="1054.38" cy="874.046" r="1.364" transform="rotate(-90 1054.38 874.046)"/><circle cx="181.715" cy="1352.18" r="1.291" transform="rotate(-90 181.715 1352.18)"/><circle cx="223.407" cy="1499.47" r="1.186" transform="rotate(-90 223.407 1499.47)"/><circle cx="863.484" cy="109.543" r="1.267" transform="rotate(-90 863.484 109.543)"/><circle cx="496.964" cy="1283.6" r="1.081" transform="rotate(-90 496.964 1283.6)"/><circle cx="85.463" cy="1193.9" r="1.057" transform="rotate(-90 85.463 1193.9)"/><circle cx="446.794" cy="623.072" r="1.292" transform="rotate(-90 446.794 623.072)"/><circle cx="201.556" cy="1298.8" r="1.148" transform="rotate(-90 201.556 1298.8)"/><circle cx="950.662" cy="1105.6" r="1.473" transform="rotate(-90 950.662 1105.6)"/><circle cx="447.193" cy="397.008" r="1.236" transform="rotate(-90 447.193 397.008)"/><circle cx="512.783" cy="1045.28" r="1.254" transform="rotate(-90 512.783 1045.28)"/><circle cx="541.271" cy="936.1" r="1.461" transform="rotate(-90 541.271 936.1)"/><circle cx="975.492" cy="629.584" r=".887" transform="rotate(-90 975.492 629.584)"/><circle cx="172.561" cy="1091.3" r="1.43" transform="rotate(-90 172.561 1091.3)"/><circle cx="975.161" cy="1261.05" r="1.398" transform="rotate(-90 975.161 1261.05)"/><circle cx="1107.11" cy="830.471" r="1.283" transform="rotate(-90 1107.11 830.471)"/><circle cx="1416.86" cy="131.265" r="1.399" transform="rotate(-90 1416.86 131.265)"/><circle cx="480.52" cy="419.01" r=".901" transform="rotate(-90 480.52 419.01)"/><circle cx="90.356" cy="1507.79" r="1.172" transform="rotate(-90 90.356 1507.79)"/><circle cx="316.639" cy="678.489" r=".787" transform="rotate(-90 316.639 678.489)"/><circle cx="1490.51" cy="619.295" r="1.167" transform="rotate(-90 1490.51 619.295)"/><circle cx="1417.16" cy="464.486" r=".918" transform="rotate(-90 1417.16 464.486)"/><circle cx="812.234" cy="529.089" r="1.334" transform="rotate(-90 812.234 529.089)"/><circle cx="459.831" cy="1505.42" r="1.251" transform="rotate(-90 459.831 1505.42)"/><circle cx="153.154" cy="635.508" r=".824" transform="rotate(-90 153.154 635.508)"/><circle cx="1262.93" cy="993.574" r=".964" transform="rotate(-90 1262.93 993.574)"/><circle cx="556.155" cy="281.273" r="1.502" transform="rotate(-90 556.155 281.273)"/><circle cx="1156.32" cy="848.812" r="1.101" transform="rotate(-90 1156.32 848.812)"/><circle cx="240.458" cy="72.783" r=".976" transform="rotate(-90 240.458 72.783)"/><circle cx="210.76" cy="840.623" r="1.047" transform="rotate(-90 210.76 840.623)"/><circle cx="775.733" cy="1132.34" r="1.166" transform="rotate(-90 775.733 1132.34)"/><circle cx="469.31" cy="1084.27" r=".964" transform="rotate(-90 469.31 1084.27)"/><circle cx="38.79" cy="40.441" r=".999" transform="rotate(-90 38.79 40.441)"/><circle cx="1376.19" cy="471.423" r="1.29" transform="rotate(-90 1376.19 471.423)"/><circle cx="750.778" cy="8.296" r="1.28" transform="rotate(-90 750.778 8.296)"/><circle cx="1114.62" cy="12.793" r="1.4" transform="rotate(-90 1114.62 12.793)"/><circle cx="319.415" cy="323.166" r=".864" transform="rotate(-90 319.415 323.166)"/><circle cx="548.232" cy="154.942" r="1.183" transform="rotate(-90 548.232 154.942)"/><circle cx="920.923" cy="830.512" r="1.27" transform="rotate(-90 920.923 830.512)"/><circle cx="574.058" cy="696.68" r="1.164" transform="rotate(-90 574.058 696.68)"/><circle cx="1405.56" cy="539.137" r="1.372" transform="rotate(-90 1405.56 539.137)"/><circle cx="1166.21" cy="175.727" r="1.442" transform="rotate(-90 1166.21 175.727)"/><circle cx="213.387" cy="820.339" r=".778" transform="rotate(-90 213.387 820.339)"/><circle cx="243.189" cy="1361.1" r="1.238" transform="rotate(-90 243.189 1361.1)"/><circle cx="52.671" cy="471.392" r=".89" transform="rotate(-90 52.671 471.392)"/><circle cx="1247.77" cy="1281.45" r=".891" transform="rotate(-90 1247.77 1281.45)"/><circle cx="375.712" cy="517.01" r="1.37" transform="rotate(-90 375.712 517.01)"/><circle cx="794.115" cy="494.608" r=".875" transform="rotate(-90 794.115 494.608)"/><circle cx="391.857" cy="1486.95" r="1.129" transform="rotate(-90 391.857 1486.95)"/><circle cx="1503.66" cy="256.646" r=".806" transform="rotate(-90 1503.66 256.646)"/><circle cx="377.008" cy="69.84" r=".971" transform="rotate(-90 377.008 69.84)"/><circle cx="474.805" cy="1290.38" r="1.453" transform="rotate(-90 474.805 1290.38)"/><circle cx="791.774" cy="1262.35" r="1.448" transform="rotate(-90 791.774 1262.35)"/><circle cx="1140.1" cy="688.276" r=".903" transform="rotate(-90 1140.1 688.276)"/><circle cx="1062.11" cy="1066.51" r=".757" transform="rotate(-90 1062.11 1066.51)"/><circle cx="324.148" cy="71.002" r=".785" transform="rotate(-90 324.148 71.002)"/><circle cx="1002" cy="1160.24" r=".852" transform="rotate(-90 1002 1160.24)"/><circle cx="676.172" cy="342.111" r="1.348" transform="rotate(-90 676.172 342.111)"/><circle cx="1101.49" cy="400.983" r="1.409" transform="rotate(-90 1101.49 400.983)"/><circle cx="1489.01" cy="1296.48" r="1.045" transform="rotate(-90 1489.01 1296.48)"/><circle cx="1328.96" cy="270.358" r="1.037" transform="rotate(-90 1328.96 270.358)"/><circle cx="109.244" cy="682.983" r=".933" transform="rotate(-90 109.244 682.983)"/><circle cx="1081.44" cy="1085.4" r="1.43" transform="rotate(-90 1081.44 1085.4)"/><circle cx="552.759" cy="238.802" r=".95" transform="rotate(-90 552.759 238.802)"/><circle cx="1105.42" cy="1312.8" r="1.429" transform="rotate(-90 1105.42 1312.8)"/><circle cx="766.51" cy="627.677" r=".804" transform="rotate(-90 766.51 627.677)"/><circle cx="116.709" cy="1043.44" r=".793" transform="rotate(-90 116.709 1043.44)"/><circle cx="169.143" cy="871.705" r="1.5" transform="rotate(-90 169.143 871.705)"/><circle cx="1443.64" cy="550.519" r="1.084" transform="rotate(-90 1443.64 550.519)"/><circle cx="1220.82" cy="1252.01" r="1.21" transform="rotate(-90 1220.82 1252.01)"/><circle cx="695.704" cy="273.458" r="1.177" transform="rotate(-90 695.704 273.458)"/><circle cx="1264.12" cy="1110.73" r="1.395" transform="rotate(-90 1264.12 1110.73)"/><circle cx="379.321" cy="1311.48" r=".984" transform="rotate(-90 379.321 1311.48)"/><circle cx="644.842" cy="390.831" r="1.053" transform="rotate(-90 644.842 390.831)"/><circle cx="611.4" cy="1492.53" r="1.292" transform="rotate(-90 611.4 1492.53)"/><circle cx="342.7" cy="20.856" r="1.45" transform="rotate(-90 342.7 20.856)"/><circle cx="1010.14" cy="723.28" r="1.217" transform="rotate(-90 1010.14 723.28)"/><circle cx="83.995" cy="871.339" r="1.45" transform="rotate(-90 83.995 871.339)"/><circle cx="1503.62" cy="428.917" r=".827" transform="rotate(-90 1503.62 428.917)"/><circle cx="451.167" cy="458.739" r="1.179" transform="rotate(-90 451.167 458.739)"/><circle cx="697.795" cy="1471.27" r="1.355" transform="rotate(-90 697.795 1471.27)"/><circle cx="202.094" cy="417.692" r="1.258" transform="rotate(-90 202.094 417.692)"/><circle cx="1286.98" cy="989.746" r=".883" transform="rotate(-90 1286.98 989.746)"/><circle cx="481.933" cy="447.057" r="1.197" transform="rotate(-90 481.933 447.057)"/><circle cx="517.459" cy="1195.11" r="1.269" transform="rotate(-90 517.459 1195.11)"/><circle cx="695.919" cy="190.533" r="1.118" transform="rotate(-90 695.919 190.533)"/><circle cx="485.514" cy="373.705" r=".953" transform="rotate(-90 485.514 373.705)"/><circle cx="1308.08" cy="691.306" r="1.381" transform="rotate(-90 1308.08 691.306)"/><circle cx="1180.22" cy="809.35" r=".829" transform="rotate(-90 1180.22 809.35)"/><circle cx="326.94" cy="1067.04" r=".962" transform="rotate(-90 326.94 1067.04)"/><circle cx="158.905" cy="537.926" r="1.1" transform="rotate(-90 158.905 537.926)"/><circle cx="816.969" cy="585.912" r="1.142" transform="rotate(-90 816.969 585.912)"/><circle cx="1297.37" cy="1424.64" r=".986" transform="rotate(-90 1297.37 1424.64)"/><circle cx="882.149" cy="197.503" r="1.032" transform="rotate(-90 882.149 197.503)"/><circle cx="1360.91" cy="513.036" r="1.285" transform="rotate(-90 1360.91 513.036)"/><circle cx="541.411" cy="984.458" r="1.062" transform="rotate(-90 541.411 984.458)"/><circle cx="724.084" cy="1332.33" r="1.111" transform="rotate(-90 724.084 1332.33)"/><circle cx="1108.36" cy="863.46" r=".847" transform="rotate(-90 1108.36 863.46)"/><circle cx="384.73" cy="643.689" r="1.148" transform="rotate(-90 384.73 643.689)"/><circle cx="322.381" cy="415.861" r="1.361" transform="rotate(-90 322.381 415.861)"/><circle cx="544.092" cy="299.037" r="1.227" transform="rotate(-90 544.092 299.037)"/><circle cx="985.776" cy="904.816" r="1.186" transform="rotate(-90 985.776 904.816)"/><circle cx="496.29" cy="1414.79" r="1.43" transform="rotate(-90 496.29 1414.79)"/><circle cx="1375.04" cy="895.735" r="1.179" transform="rotate(-90 1375.04 895.735)"/><circle cx="127.262" cy="345.322" r="1.312" transform="rotate(-90 127.262 345.322)"/><circle cx="1233.5" cy="1096.23" r="1.295" transform="rotate(-90 1233.5 1096.23)"/><circle cx="1114.15" cy="1194.6" r="1.266" transform="rotate(-90 1114.15 1194.6)"/><circle cx="1479.44" cy="795.635" r=".806" transform="rotate(-90 1479.44 795.635)"/><circle cx="455.199" cy="1412.64" r="1.31" transform="rotate(-90 455.199 1412.64)"/><circle cx="512.001" cy="441.953" r="1.013" transform="rotate(-90 512.001 441.953)"/><circle cx="1308.11" cy="291.336" r="1.472" transform="rotate(-90 1308.11 291.336)"/><circle cx="157.982" cy="885.75" r="1.002" transform="rotate(-90 157.982 885.75)"/><circle cx="406.665" cy="750.459" r="1.363" transform="rotate(-90 406.665 750.459)"/><circle cx="759.53" cy="1392.85" r=".909" transform="rotate(-90 759.53 1392.85)"/><circle cx="866.932" cy="930.893" r="1.469" transform="rotate(-90 866.932 930.893)"/><circle cx="160.5" cy="359.526" r="1.492" transform="rotate(-90 160.5 359.526)"/><circle cx="683.201" cy="1157.34" r=".864" transform="rotate(-90 683.201 1157.34)"/><circle cx="274.684" cy="1086.97" r="1.317" transform="rotate(-90 274.684 1086.97)"/><circle cx="644.92" cy="347.223" r="1.461" transform="rotate(-90 644.92 347.223)"/><circle cx="1370.43" cy="768.706" r="1.341" transform="rotate(-90 1370.43 768.706)"/><circle cx="344.143" cy="921.066" r="1.298" transform="rotate(-90 344.143 921.066)"/><circle cx="699.265" cy="609.009" r="1.355" transform="rotate(-90 699.265 609.009)"/><circle cx="415.34" cy="329.907" r=".818" transform="rotate(-90 415.34 329.907)"/><circle cx="1189.5" cy="1237.69" r="1.149" transform="rotate(-90 1189.5 1237.69)"/><circle cx="1430.67" cy="1226.68" r="1.066" transform="rotate(-90 1430.67 1226.68)"/><circle cx="566.594" cy="107.952" r=".851" transform="rotate(-90 566.594 107.952)"/><circle cx="1294.84" cy="1129.33" r=".966" transform="rotate(-90 1294.84 1129.33)"/><circle cx="921.105" cy="209.437" r="1.411" transform="rotate(-90 921.105 209.437)"/><circle cx="1362.82" cy="1455.05" r="1.447" transform="rotate(-90 1362.82 1455.05)"/><circle cx="533.022" cy="620.563" r=".932" transform="rotate(-90 533.022 620.563)"/><circle cx="1068.48" cy="1036.27" r="1.439" transform="rotate(-90 1068.48 1036.27)"/><circle cx="972.988" cy="1148.15" r="1.396" transform="rotate(-90 972.988 1148.15)"/><circle cx="1180.68" cy="78.352" r=".776" transform="rotate(-90 1180.68 78.352)"/><circle cx="291.242" cy="382.931" r="1.16" transform="rotate(-90 291.242 382.931)"/><circle cx="161.472" cy="1501.56" r="1.22" transform="rotate(-90 161.472 1501.56)"/><circle cx="893.96" cy="156.648" r="1.064" transform="rotate(-90 893.96 156.648)"/><circle cx="1009.51" cy="364.212" r="1.234" transform="rotate(-90 1009.51 364.212)"/><circle cx="856.174" cy="1372.06" r="1.473" transform="rotate(-90 856.174 1372.06)"/><circle cx="816.744" cy="431.841" r=".982" transform="rotate(-90 816.744 431.841)"/><circle cx="674.829" cy="1245.63" r="1.36" transform="rotate(-90 674.829 1245.63)"/><circle cx="634.198" cy="691.376" r=".825" transform="rotate(-90 634.198 691.376)"/><circle cx="437.062" cy="153.108" r="1.396" transform="rotate(-90 437.062 153.108)"/><circle cx="967.96" cy="75.208" r=".784" transform="rotate(-90 967.96 75.208)"/><circle cx="1112.65" cy="174.035" r="1.067" transform="rotate(-90 1112.65 174.035)"/><circle cx="1185.79" cy="1120.48" r=".777" transform="rotate(-90 1185.79 1120.48)"/><circle cx="1378.9" cy="1125.23" r=".932" transform="rotate(-90 1378.9 1125.23)"/><circle cx="515.152" cy="435.017" r=".964" transform="rotate(-90 515.152 435.017)"/><circle cx="1395.11" cy="436.731" r="1.309" transform="rotate(-90 1395.11 436.731)"/><circle cx="1394.12" cy="1417.99" r="1.285" transform="rotate(-90 1394.12 1417.99)"/><circle cx="1446.17" cy="842.359" r="1.012" transform="rotate(-90 1446.17 842.359)"/><circle cx="1160.91" cy="1123.11" r="1.372" transform="rotate(-90 1160.91 1123.11)"/><circle cx="1252.15" cy="1418.92" r="1.328" transform="rotate(-90 1252.15 1418.92)"/><circle cx="1076.81" cy="301.703" r="1.008" transform="rotate(-90 1076.81 301.703)"/><circle cx="827.86" cy="159.647" r=".892" transform="rotate(-90 827.86 159.647)"/><circle cx="286.165" cy="781.136" r="1.312" transform="rotate(-90 286.165 781.136)"/><circle cx="378.023" cy="90.113" r="1.301" transform="rotate(-90 378.023 90.113)"/><circle cx="761.251" cy="1353.71" r=".944" transform="rotate(-90 761.251 1353.71)"/><circle cx="800.226" cy="575.805" r="1.01" transform="rotate(-90 800.226 575.805)"/><circle cx="851.284" cy="171.594" r="1.109" transform="rotate(-90 851.284 171.594)"/><circle cx="1331.78" cy="1394.64" r=".849" transform="rotate(-90 1331.78 1394.64)"/><circle cx="903.891" cy="1350.56" r="1.059" transform="rotate(-90 903.891 1350.56)"/><circle cx="1496.3" cy="1290.36" r="1.318" transform="rotate(-90 1496.3 1290.36)"/><circle cx="1007" cy="1478.32" r=".797" transform="rotate(-90 1007 1478.32)"/><circle cx="1020.41" cy="743.497" r="1.076" transform="rotate(-90 1020.41 743.497)"/><circle cx="647.701" cy="1452.91" r="1.269" transform="rotate(-90 647.701 1452.91)"/><circle cx="1087.86" cy="583.368" r=".779" transform="rotate(-90 1087.86 583.368)"/><circle cx="1062.34" cy="277.981" r="1.22" transform="rotate(-90 1062.34 277.981)"/><circle cx="1232.04" cy="212.599" r="1.195" transform="rotate(-90 1232.04 212.599)"/><circle cx="1412.69" cy="118.318" r="1.436" transform="rotate(-90 1412.69 118.318)"/><circle cx="1033.04" cy="706.116" r=".87" transform="rotate(-90 1033.04 706.116)"/><circle cx="1443.03" cy="535.465" r=".894" transform="rotate(-90 1443.03 535.465)"/><circle cx="1112.25" cy="71.689" r="1.487" transform="rotate(-90 1112.25 71.69)"/><circle cx="462.537" cy="202.966" r="1.287" transform="rotate(-90 462.537 202.966)"/><circle cx="464.792" cy="1015.16" r="1.439" transform="rotate(-90 464.792 1015.16)"/><circle cx="512.318" cy="500.692" r="1.284" transform="rotate(-90 512.318 500.692)"/><circle cx="37.613" cy="234.125" r="1.124" transform="rotate(-90 37.613 234.125)"/><circle cx="1317.91" cy="1480.56" r="1.105" transform="rotate(-90 1317.91 1480.56)"/><circle cx="937.117" cy="1073.59" r="1.088" transform="rotate(-90 937.117 1073.59)"/><circle cx="1208.87" cy="1061.22" r="1.032" transform="rotate(-90 1208.87 1061.22)"/><circle cx="1303.23" cy="110.742" r="1.399" transform="rotate(-90 1303.23 110.742)"/><circle cx="794.166" cy="1000.02" r="1.292" transform="rotate(-90 794.166 1000.02)"/><circle cx="668.382" cy="202.486" r="1.253" transform="rotate(-90 668.382 202.486)"/><circle cx="259.305" cy="1057.26" r=".857" transform="rotate(-90 259.305 1057.26)"/><circle cx="1146.84" cy="46.881" r=".987" transform="rotate(-90 1146.84 46.881)"/><circle cx="1347.68" cy="704.36" r="1.496" transform="rotate(-90 1347.68 704.36)"/><circle cx="188.206" cy="271.731" r="1.089" transform="rotate(-90 188.206 271.731)"/><circle cx="32.592" cy="902.182" r="1.183" transform="rotate(-90 32.592 902.182)"/><circle cx="1041.01" cy="1385.31" r="1.415" transform="rotate(-90 1041.01 1385.31)"/><circle cx="343.243" cy="204.315" r="1.159" transform="rotate(-90 343.243 204.315)"/><circle cx="1144.75" cy="116.254" r="1.478" transform="rotate(-90 1144.75 116.254)"/><circle cx="587.077" cy="438.489" r="1.083" transform="rotate(-90 587.077 438.489)"/><circle cx="1391.05" cy="1359.29" r="1.214" transform="rotate(-90 1391.05 1359.29)"/><circle cx="898.969" cy="841.806" r=".918" transform="rotate(-90 898.969 841.806)"/><circle cx="1396.55" cy="394.17" r=".962" transform="rotate(-90 1396.55 394.17)"/><circle cx="786.132" cy="1094.29" r="1.284" transform="rotate(-90 786.132 1094.29)"/><circle cx="258.586" cy="1149.9" r=".918" transform="rotate(-90 258.586 1149.9)"/><circle cx="890.15" cy="883.078" r="1.031" transform="rotate(-90 890.15 883.078)"/><circle cx="850.854" cy="1057.16" r=".848" transform="rotate(-90 850.854 1057.16)"/><circle cx="1244.17" cy="1152.96" r="1.313" transform="rotate(-90 1244.17 1152.96)"/><circle cx="1387.58" cy="707.266" r=".947" transform="rotate(-90 1387.58 707.266)"/><circle cx="23.269" cy="159.26" r="1.011" transform="rotate(-90 23.27 159.26)"/><circle cx="1327.15" cy="584.797" r=".917" transform="rotate(-90 1327.15 584.797)"/><circle cx="1290.87" cy="1508.78" r="1.174" transform="rotate(-90 1290.87 1508.78)"/><circle cx="455.251" cy="429.285" r=".84" transform="rotate(-90 455.251 429.285)"/><circle cx="1505.33" cy="460.579" r="1.182" transform="rotate(-90 1505.33 460.579)"/><circle cx="1075.48" cy="1109.2" r="1.034" transform="rotate(-90 1075.48 1109.2)"/><circle cx="69.266" cy="1105.35" r="1.479" transform="rotate(-90 69.266 1105.35)"/><circle cx="1220.27" cy="512.914" r=".856" transform="rotate(-90 1220.27 512.914)"/><circle cx="585.647" cy="1038.05" r=".893" transform="rotate(-90 585.647 1038.05)"/><circle cx="329.394" cy="591.55" r="1.236" transform="rotate(-90 329.394 591.55)"/><circle cx="1187.62" cy="1337.29" r="1.351" transform="rotate(-90 1187.62 1337.29)"/><circle cx="262.252" cy="1211.2" r="1.432" transform="rotate(-90 262.252 1211.2)"/><circle cx="980.508" cy="750.74" r=".856" transform="rotate(-90 980.508 750.74)"/><circle cx="843.817" cy="63.918" r=".897" transform="rotate(-90 843.817 63.918)"/><circle cx="670.162" cy="727.34" r="1.455" transform="rotate(-90 670.162 727.34)"/><circle cx="497.163" cy="203.378" r="1.052" transform="rotate(-90 497.163 203.378)"/><circle cx="1193.43" cy="929.211" r=".992" transform="rotate(-90 1193.43 929.211)"/><circle cx="513.789" cy="100.903" r=".895" transform="rotate(-90 513.789 100.903)"/><circle cx="207.727" cy="184.93" r=".969" transform="rotate(-90 207.727 184.93)"/><circle cx="300.978" cy="407.48" r="1.214" transform="rotate(-90 300.978 407.48)"/><circle cx="617.477" cy="114.745" r="1.034" transform="rotate(-90 617.477 114.745)"/><circle cx="527.791" cy="668.703" r=".838" transform="rotate(-90 527.791 668.703)"/><circle cx="1267.85" cy="70.148" r="1.177" transform="rotate(-90 1267.85 70.148)"/><circle cx="464.629" cy="868.576" r="1.06" transform="rotate(-90 464.629 868.576)"/><circle cx="1207.95" cy="441.618" r=".8" transform="rotate(-90 1207.95 441.618)"/><circle cx="823.45" cy="532.166" r="1.278" transform="rotate(-90 823.45 532.166)"/><circle cx="273.823" cy="672.342" r="1.366" transform="rotate(-90 273.823 672.342)"/><circle cx="104.87" cy="86.4" r="1.409" transform="rotate(-90 104.87 86.4)"/><circle cx="588.01" cy="1076.9" r="1.099" transform="rotate(-90 588.01 1076.9)"/><circle cx="1198.9" cy="1277.5" r=".875" transform="rotate(-90 1198.9 1277.5)"/><circle cx="1434.37" cy="1021.65" r="1.241" transform="rotate(-90 1434.37 1021.65)"/><circle cx="373.326" cy="1021.27" r="1.09" transform="rotate(-90 373.326 1021.27)"/><circle cx="1193.02" cy="454.426" r="1.398" transform="rotate(-90 1193.02 454.426)"/><circle cx="960.842" cy="687.461" r="1.361" transform="rotate(-90 960.842 687.461)"/><circle cx="327.785" cy="921.226" r="1.365" transform="rotate(-90 327.785 921.226)"/><circle cx="746.129" cy="887.318" r="1.016" transform="rotate(-90 746.129 887.318)"/><circle cx="289.976" cy="1014.82" r=".766" transform="rotate(-90 289.976 1014.82)"/><circle cx="442.532" cy="970.005" r="1.085" transform="rotate(-90 442.532 970.005)"/><circle cx="851.575" cy="1296.52" r=".835" transform="rotate(-90 851.575 1296.52)"/><circle cx="628.206" cy="836.923" r="1.26" transform="rotate(-90 628.206 836.923)"/><circle cx="755.098" cy="617.773" r=".967" transform="rotate(-90 755.098 617.773)"/><circle cx="1470.11" cy="1279.53" r="1.404" transform="rotate(-90 1470.11 1279.53)"/><circle cx="1448.1" cy="771.799" r="1.201" transform="rotate(-90 1448.1 771.799)"/><circle cx="345.631" cy="633.403" r=".978" transform="rotate(-90 345.631 633.403)"/><circle cx="65.371" cy="1198.33" r="1.256" transform="rotate(-90 65.371 1198.33)"/><circle cx="784.416" cy="714.323" r=".798" transform="rotate(-90 784.416 714.323)"/><circle cx="263.418" cy="204.797" r="1.297" transform="rotate(-90 263.418 204.797)"/><circle cx="1286.53" cy="560.476" r=".852" transform="rotate(-90 1286.53 560.476)"/><circle cx="877.591" cy="915.399" r="1.15" transform="rotate(-90 877.591 915.399)"/><circle cx="781.327" cy="160.333" r="1.087" transform="rotate(-90 781.327 160.333)"/><circle cx="923.691" cy="1235.19" r="1.259" transform="rotate(-90 923.691 1235.19)"/><circle cx="52.538" cy="745.005" r="1.31" transform="rotate(-90 52.538 745.005)"/><circle cx="403.141" cy="9.075" r="1.424" transform="rotate(-90 403.141 9.075)"/><circle cx="1046.75" cy="1370.89" r="1.008" transform="rotate(-90 1046.75 1370.89)"/></g><defs><clipPath id="a"><path fill="#fff" d="M0 1513V0h1513v1513z"/></clipPath></defs></svg>